<svg xmlns="http://www.w3.org/2000/svg" viewBox="0 0 86.31 104.92"><path d="M45.87 33.1c-.9.23-1.83-.05-2.46-.74-.19-.21-.65-.13-.69.18 0 .03-.01.06-.02.08.04-.1-.02.03-.03.05-.07.12-.14.24-.23.36-.24.32-.53.61-.84.86-.39.32-.83.59-1.26.85-.15.09-.3.19-.46.27-.12.06-.16.07-.23.07-.37-.02-.53.46-.29.71.61.63.93 1.46.93 2.33 0 .53.83.53.83 0 0-1.09-.41-2.13-1.17-2.92l-.29.71c.34.02.68-.19.96-.36.51-.31 1.02-.63 1.49-1 .39-.31.73-.66 1.03-1.06.15-.2.35-.46.38-.72l-.69.18c.83.9 2.09 1.25 3.27.95.52-.13.3-.93-.22-.8Zm7.33.79c-.35.91-1.03 1.65-.91 2.68.09.76.45 1.5.77 2.18.61 1.26 1.3 2.48 1.91 3.74.33.68.64 1.36.95 2.05.38.85 1.11 1.93.66 2.9-.3.65-.98 1.27-1.42 1.84-.48.61-.95 1.23-1.43 1.84-.76.98-1.49 2.06-2.45 2.86-1.73 1.45-4.16 1.66-5.71 3.38l.65.08c-2.33-4.05-4.66-8.1-7-12.15-.27-.46-.98-.05-.71.42 2.33 4.05 4.66 8.1 7 12.15.13.22.47.28.65.08 1.57-1.74 4.12-1.96 5.85-3.5 1-.89 1.78-2.05 2.6-3.11.88-1.13 1.96-2.25 2.69-3.48.52-.89.26-1.58-.13-2.48-.59-1.39-1.21-2.76-1.89-4.11s-1.47-2.58-1.96-3.96c-.2-.57-.29-1.03-.08-1.63.19-.54.54-1.02.75-1.56.19-.5-.61-.71-.8-.22Z"/><path d="M40.34 37.86c-1.52 1.54-3.94 1.03-5.88.84-2.51-.25-5.03-.42-7.56-.52-4.97-.18-9.94-.05-14.9.36-.21.02-.43.18-.41.41.1 1.57.2 3.15.31 4.72.02.23.18.4.41.41 4.88.29 9.76.51 14.63.93 3.94.34 7.9.71 11.86.86.53.02.53-.81 0-.83-3.96-.15-7.92-.53-11.86-.86-4.87-.42-9.75-.63-14.63-.93l.41.41c-.1-1.57-.2-3.15-.31-4.72l-.41.41c5.44-.46 10.91-.57 16.36-.3 2.6.13 5.17.41 7.76.62 1.72.14 3.51.04 4.79-1.25.37-.38-.21-.96-.58-.58Zm4.93 19.24c-.16 3.38 1.06 6.78 3.77 8.87 1.42 1.1 2.36 2.27 2.88 4.01.61 2.06.84 4.29 1.03 6.42.24 2.66.1 5.33.13 7.99.06 4.13.27 8.25.54 12.37.01.21.18.43.41.41l7.51-.48c.22-.01.42-.18.41-.41-.38-9.91-.14-19.79-1.35-29.65-.35-2.89-1.21-5.56.25-8.34.93-1.77 2.51-3.16 3.73-4.73 1.84-2.38 3.47-4.92 4.98-7.51s2.81-5.38 4.31-8.02 3.03-5.06 4.43-7.66c1.55-2.87 3.08-5.74 4.74-8.55.08-.14.08-.39-.06-.5l-4.95-3.9c-.21-.17-.49-.16-.65.08-3.27 5.2-6.54 10.4-9.86 15.56-1.39 2.15-2.8 4.3-4.38 6.32-1.95 2.49-4.06 4.86-6.13 7.25-.35.4.24.99.58.58 3.01-3.48 5.94-6.95 8.63-10.68 1.82-2.53 3.42-5.24 5.09-7.87 2.27-3.58 4.53-7.16 6.79-10.75l-.65.08 4.95 3.9-.06-.5c-2.85 4.85-5.37 9.88-8.28 14.7-1.55 2.56-2.85 5.24-4.25 7.88-1.47 2.77-3.21 5.47-5.06 8-1.21 1.66-2.7 3.11-3.9 4.77-1.97 2.73-1.8 5.57-1.23 8.72.36 1.97.47 4 .64 5.99s.41 4.14.47 6.22c.19 6.2.17 12.4.41 18.6l.41-.41-7.51.48.41.41c-.27-4.12-.48-8.25-.54-12.37-.04-2.66.11-5.34-.13-7.99-.28-3.14-.46-7.11-2.61-9.64-1.11-1.3-2.63-2.02-3.56-3.51-1.14-1.84-1.61-4-1.51-6.15.03-.53-.8-.53-.83 0Z"/><path d="M11.78 39.08c-.81.12-1.32-.88-1.75-1.41-.39-.48-.94-1.3-1.59-1.46-.62-.15-1.18.5-1.1 1.09.06.46.48.69.79.98.41.37.65.83.82 1.35l.51-.51c-1.35-.36-2.71-.74-4-1.29-.91-.39-1.83-1.1-2.87-.79-.43.13-.91.47-.81.98.09.42.54.69.89.88 1.3.73 2.75 1.25 4.16 1.7l.22-.8c-1.61-.32-3.22-.65-4.82-.97-.52-.1-1.22-.42-1.72-.13-.35.21-.59.64-.45 1.04.14.38.55.55.9.68.64.25 1.32.39 1.97.57 1.01.28 2.01.59 2.99.97l.11-.81c-1.25 0-2.47-.12-3.71-.3-.76-.11-2.01-.26-2.1.82-.09 1.03 1.03 1.23 1.81 1.27 1.31.08 2.62.16 3.93.26l-.11-.81c-.8.16-1.59.34-2.37.56-.45.13-1.12.27-1.38.71-.24.4-.02.91.34 1.15s.76.21 1.16.15c1.4-.21 2.74-.71 4.16-.83.68-.06 1.37 0 2.05-.07.78-.07 1.54-.22 2.29-.44.51-.15.29-.95-.22-.8-1.13.33-2.25.42-3.42.44-1.08.02-2.14.24-3.19.48-.19.04-2.4.69-2.44.33-.03-.27 2.99-.83 3.26-.89.48-.1.33-.78-.11-.81-.95-.07-1.89-.14-2.84-.19l-1.15-.06c-.17-.01-1.23-.11-.85-.48.17-.17.88 0 1.08.03.38.05.75.11 1.13.16.9.11 1.8.16 2.71.15.49 0 .53-.65.11-.81-1.58-.61-3.23-.92-4.82-1.49-.08-.03-.44-.12-.47-.22-.03-.1.57.04.59.05.6.12 1.2.24 1.79.36l3.59.72c.52.1.73-.63.22-.8-1.12-.36-2.23-.78-3.29-1.28-.25-.12-.5-.24-.74-.38-.1-.06-.2-.12-.3-.19-.09-.06-.09-.13-.11-.09.02-.06.61-.08.74-.07.25.04.49.14.72.26 1.65.83 3.39 1.38 5.18 1.85.29.08.61-.2.51-.51-.25-.78-.65-1.38-1.27-1.91-.17-.15-.43-.28-.18-.49-.04.04-.02.01-.06 0 .21.04.44.36.57.5.93.98 1.6 2.6 3.19 2.37.52-.08.3-.87-.22-.8Zm66.91-20.8c.52-.71 1.39-1.54 1.49-2.45.1-.86-.54-1.71-1.06-2.33-.61-.74-1.63-1.23-1.8-2.25s.29-2.01.77-2.85l-.47.19c1.56.47 2.75 1.59 3.92 2.66.63.58 1.27 1.16 1.9 1.74l1.04.95c.33.3.81.62 1.06 1l-.04-.32c-.2.5-.7.98-1.02 1.43s-.67.92-1 1.38c-.67.92-1.33 1.85-2 2.77-.31.43.4.85.71.42 1-1.38 2-2.77 3-4.15.26-.36.52-.73.79-1.09.15-.21.38-.47.31-.76-.06-.27-.35-.46-.54-.63-.32-.29-.63-.58-.95-.87-1.17-1.07-2.33-2.17-3.52-3.22-1.03-.9-2.12-1.71-3.45-2.11a.423.423 0 0 0-.47.19c-.8 1.4-1.44 3.32-.26 4.7.65.77 1.46 1.27 1.97 2.18.35.62.32 1.01-.07 1.57-.33.48-.69.95-1.04 1.42-.32.43.4.84.71.42Z"/><path d="M41.57 21.92c2.19 2.67 1.97 5.99 1.9 7.17-.1 1.63-.25 4.11-2.11 5.5-2.57 1.91-6.3.17-6.75-.03-2.76-1.29-4-3.66-4.47-4.6-1.23-2.48-2.69-7.78.18-10.32 2.88-2.56 8.58-.96 11.25 2.29Z" fill="none" stroke="#000" stroke-miterlimit="10" stroke-width=".28"/><path d="M45.64 33.67c.46 2.16.82 4.34 1.07 6.54l.52-.4c-2.24-.48-4.36-1.4-6.62-1.79-.52-.09-.74.71-.22.8 2.26.38 4.38 1.3 6.62 1.79.23.05.56-.12.52-.4-.26-2.27-.62-4.52-1.1-6.76-.11-.52-.91-.3-.8.22ZM59.5 96.52c-.02 1.09-.34 2.66.65 3.42s2.22.84 3.39 1.03c.69.11 1.44.3 2.03.69 1 .66.74 1.77.12 2.61l.36-.2c-3.49-.12-6.99-.12-10.48 0l.41.41c.04-2.61.08-5.23.13-7.84 0-.53-.82-.53-.83 0-.04 2.61-.08 5.23-.13 7.84 0 .22.19.42.41.41 1.94-.07 3.87-.1 5.81-.09 1.03 0 2.07.02 3.1.05.62.02 1.61.3 2.01-.28.72-1.05.88-2.46-.16-3.36-.73-.62-1.75-.91-2.68-1.05s-1.86-.23-2.72-.69c-.55-.3-.64-.7-.64-1.28 0-.55.02-1.11.03-1.66s-.82-.53-.83 0Z"/><path d="M45.48 34.01c1.85-.38 2.9-1.98 3.72-3.55 1.21-2.33 2.4-4.67 3.71-6.95 2.68-4.65 5.66-9.1 8.92-13.36l-.57.15c1.27.93 2.54 1.87 3.81 2.8l-.15-.57c-3.91 7.01-7.67 14.1-11.55 21.13-.26.47.46.88.71.42 3.88-7.03 7.63-14.12 11.55-21.13.12-.21.03-.43-.15-.57-1.27-.93-2.54-1.87-3.81-2.8-.2-.14-.44-.01-.57.15-2.99 3.91-5.76 7.99-8.27 12.23-1.22 2.06-2.37 4.15-3.46 6.28-.94 1.84-1.86 4.5-4.13 4.97-.52.11-.3.91.22.8Z"/><path d="M62.28 10.42c1.03-1.18.06-2.62-.27-3.89-.04-.14-.21-.61-.13-.77.04-.08-.05-.02.01-.05.22-.12.26.36.27.43.12.84.41 1.49.95 2.15.21.26.6.09.69-.18.58-1.8 1-3.56 1.23-5.43.06-.49.22-.8.55-1.15.12-.13.06-.1.06-.09.04.07.03.2.03.29 0 .25-.02.5-.05.74-.14 1.27-.41 2.53-.73 3.76-.14.53.61.71.8.22.44-1.14.89-2.27 1.33-3.41.19-.5.39-1 .58-1.49.06-.15.15-.57.22-.66.24-.31.11.21.1.3-.17.97-.58 1.91-.85 2.85-.21.72-.39 1.44-.53 2.18-.09.46.5.72.76.32.48-.74.91-1.5 1.3-2.3.15-.32.29-.64.44-.96.09-.2.32-.94.57-1.03.49-.18.06.82-.04 1l-.54.96c-.46.83-.92 1.66-1.37 2.5-.22.4.31.85.65.5.43-.44.87-.88 1.32-1.3.14-.13.96-1.03 1.16-.95.28.12-1.32 1.62-1.44 1.74-.79.78-1.58 1.56-2.21 2.49-.68 1-1.36 1.93-2.28 2.74-.4.35.18.93.58.58.59-.51 1.12-1.07 1.59-1.69s.81-1.26 1.29-1.85c.9-1.1 2.1-1.95 2.96-3.07.43-.56.49-1.84-.54-1.77-.52.04-.99.53-1.35.86-.58.52-1.14 1.07-1.68 1.63l.65.5c.6-1.11 1.21-2.22 1.83-3.32.4-.71.93-1.88-.1-2.34-.96-.43-1.47.71-1.78 1.41-.51 1.13-1.07 2.21-1.73 3.25l.76.32c.21-1.03.48-2.04.8-3.04.2-.65.46-1.31.59-1.98.07-.38.14-.83-.13-1.14s-.76-.31-1.11-.13c-.51.27-.64 1.11-.84 1.62-.58 1.49-1.16 2.99-1.74 4.48l.8.22c.38-1.47.78-3.05.81-4.58 0-.38-.01-.89-.37-1.13-.43-.28-.97.02-1.28.34-.7.71-.61 1.76-.76 2.67-.23 1.41-.65 2.78-1.08 4.14l.69-.18c-.35-.43-.6-.89-.69-1.44-.06-.39-.05-.84-.36-1.13-.45-.41-1.32-.3-1.54.31-.2.56.11 1.33.27 1.86.22.72.92 1.84.32 2.52-.35.4.23.99.58.58Z"/><path d="M30.62 17.54c-2.17.91-3.32.49-4.33 1.67-.17.19-.65.76-.75 1.58-.09.66.14.97.22 1.64.13 1.08-.31 1.38-.49 2.57-.29 1.85.64 2.08.38 3.88-.23 1.56-.91 1.64-.8 2.63.14 1.28 1.74 1.86 2.25 3.04.32.73.18 1.63.62 2.29.48.71 1.48.91 1.99 1.61.48.65.43 1.63 1.02 2.18.24.23.35.43.6.59.81.52 1.7.17 2.96-.03 2.02-.31 1.97.25 3.26-.11.36-.1 2.75-.79 3.1-2.72.28-1.54-.92-2.81-1.1-3-.54.13-1.33.26-2.29.18-1.82-.17-3.05-1.07-3.8-1.55-.98-.62-2.7-1.94-3.31-4.12-.3-1.07-.1-2.35.32-4.85.51-3.09.79-4.65 1.63-5.09.83-.44 1.23.14 4.53.3 1.73.08 1.89-.07 2.59.17 1.67.56 2.58 2.02 3.07 2.8 1.27 2.04 1.32 4.08 1.32 4.64.01 1-.15 2.45-.17 2.59-.17 1.44-.32 1.7-.15 2.27.17.58.72 1.08 1.81 2.07 1.47 1.33 1.89 1.42 2.18 1.44.87.06 1.57-.47 1.66-.54.59-.46.48-.81 1.06-1.23.63-.45.98-.19 1.66-.54.76-.39 1.49-1.31 1.44-2.18-.04-.81-.7-.71-1.79-2.39-.71-1.1-.85-1.77-1.59-2.07-.2-.08-.51-.16-.85-.45-.37-.32-.54-.69-.61-.84-.36-.77-.89-1.44-1.26-2.2-.72-1.46-1.56-1.45-3.14-3.33-1.87-2.22-1.5-3.19-3.06-4.15-.96-.59-1.89-.71-2.87-.84-.65-.09-2.35-.29-4.25.37-1.62.56-1.26 1.01-3.04 1.75Z" fill="#92a377"/><path d="M30.51 17.14c-1.9.74-4.27.62-5.17 2.8-.51 1.23.21 2.37-.12 3.61s-.57 2.17-.22 3.39c.39 1.38.13 2.25-.39 3.52-.33.81-.2 1.57.33 2.27.3.39.69.69 1.03 1.04.62.64.8 1.2.97 2.05.1.47.18.9.46 1.3.46.64 1.24.82 1.78 1.37.5.51.49 1.19.79 1.78.24.46.61.93 1.04 1.23.88.64 1.98.31 2.96.15 1.78-.3 3.33.17 4.99-.71s2.62-2.66 1.78-4.52c-.23-.52-.64-1.3-1.22-1.48-.15-.04-.95.17-.99.17-.43.05-.87.05-1.3 0-.89-.09-1.73-.39-2.51-.82-2.07-1.15-4.27-2.96-4.33-5.53-.03-1.36.3-2.76.52-4.1.2-1.21.3-2.73.89-3.83.35-.65.75-.7 1.41-.61 1.13.15 2.24.35 3.39.4 1.06.05 2.08-.11 3.05.4 1.23.65 2.11 1.94 2.69 3.17 1.13 2.37.8 4.82.5 7.32-.24 2.02 1.45 3.23 2.94 4.36 1.2.92 2.72.97 3.77-.29.42-.5.34-.76 1.19-1.06.34-.12.66-.1 1-.25.37-.17.71-.43.99-.74.54-.6 1-1.57.64-2.37-.14-.32-.42-.53-.66-.78-.61-.62-1.08-1.29-1.52-2.04-.28-.47-.51-.94-.96-1.28-.62-.46-1.21-.61-1.65-1.34-.71-1.15-1.21-2.52-2.2-3.47-1.14-1.1-2.31-2-3.17-3.37-.56-.89-.9-1.91-1.71-2.61-1.05-.91-2.45-1.15-3.79-1.3-1.41-.16-2.85-.06-4.19.41-1.17.41-2.02 1.29-3.14 1.79-.49.22-.07.93.42.71.89-.39 1.53-1.05 2.38-1.48 1.31-.66 2.89-.77 4.33-.63 1.31.13 2.84.37 3.75 1.42.65.74.98 1.76 1.54 2.56.66.94 1.43 1.76 2.3 2.5.97.82 1.48 1.7 2.13 2.78.5.84.84 1.79 1.71 2.32.56.34.97.48 1.34 1.09s.69 1.21 1.13 1.76c.7.87 1.68 1.24.88 2.49-.73 1.13-2.15.78-2.97 1.75-.6.71-1.25 1.68-2.37 1.23-1.04-.41-2.26-1.65-2.95-2.53-.62-.8-.34-1.6-.22-2.53s.22-1.96.19-2.94c-.05-2.09-.79-4.09-2.07-5.74-1.01-1.3-2.31-2.11-3.95-2.12-1.24 0-2.48-.06-3.71-.26-.56-.09-1.17-.28-1.73-.22-1.22.14-1.63 1.37-1.89 2.4-.55 2.19-1.11 4.73-1.06 7.01.07 3.66 4.22 6.87 7.66 7.18.6.05 1.18 0 1.78-.07s.12-.2.38-.05c.12.07.29.38.35.48.9 1.44.43 2.96-.99 3.8-1.49.89-2.87.43-4.49.66-.67.09-1.44.38-2.12.29-1.12-.14-1.42-1.24-1.76-2.11-.46-1.19-1.43-1.3-2.2-2.17-.6-.67-.4-1.67-.76-2.45-.23-.5-.61-.88-.99-1.25-.51-.5-1.27-1.03-1.21-1.83.03-.44.35-.83.51-1.23.41-1 .42-2.04.12-3.07-.22-.78-.33-1.44-.14-2.27.12-.52.36-1 .43-1.53s-.05-1.01-.15-1.53c-.17-.88.1-1.75.77-2.35.98-.87 2.76-.88 3.95-1.35.49-.19.28-.99-.22-.8Z" fill="#006837"/></svg>