<svg xmlns="http://www.w3.org/2000/svg" viewBox="0 0 276.55 161.41"><path d="M237.64 160.72c-.91-13.23-2.02-33.84-2.65-47.62-.64-13.78-1.1-27.3-1.41-40.56 2.85-.46 5.34-.81 7.37-1.09 4.83-.65 8.58-1.04 10.22-1.2 2.72-.27 5.07-.46 6.91-.6l1.8-.3c.06.52.16 1.36.3 2.4.94 7.18 1.96 11.7 3.24 19.13.63 3.67 1.17 6.76 1.59 9.18 1.34 7.66 5.8 30.83 11.09 60.65-12.3.51-26.75 0-38.47 0Z" fill="#c8dea4"/><path d="M238.09 160.72c-1.51-21.94-2.61-43.92-3.4-65.89-.27-7.43-.49-14.85-.66-22.28l-.33.43c4.78-.76 9.58-1.42 14.39-1.95 3.96-.44 7.98-.59 11.91-1.24l-.57-.43c.81 6.72 2.09 13.35 3.27 20.01.86 4.88 1.67 9.77 2.57 14.64 1.89 10.35 3.85 20.69 5.75 31.04a4490.8 4490.8 0 0 1 4.66 25.79l.43-.57c-12.82.52-25.65 0-38.47 0-.58 0-.58.9 0 .9 12.82 0 25.65.52 38.47 0 .31-.01.49-.28.43-.57-2.47-13.9-5.01-27.78-7.59-41.66-1.61-8.69-3.23-17.37-4.73-26.08-1.35-7.83-2.94-15.61-3.89-23.51-.04-.31-.26-.49-.57-.43-4.07.68-8.24.82-12.34 1.28-4.67.53-9.33 1.17-13.97 1.91-.19.03-.34.25-.33.43.56 23.73 1.64 47.44 3 71.13.33 5.68.67 11.36 1.06 17.04.04.58.94.58.9 0Z"/><path d="M251.08 30.5c-.44.71-.8-.58-.86-.69-.17-.32-.19-.85-.26-1.21-.14-.63-.27-1.26-.4-1.89-.29-1.42-.57-2.85-.84-4.28-.41-2.21-.79-4.42-1.14-6.64-.4-2.52-.76-5.04-1.05-7.57s-.34-6.41-2.95-7.79c-1.34-.71-3.18-.62-4.15.65-.91 1.19-.92 2.92-.83 4.35.43 7.03 1.33 14.02 1.56 21.07.04 1.18.08 2.37.02 3.55-.01.23-.18.78-.1.99.01.03-.06.15-.05.17-.04-.04 1.64-4.03.47-.12 0-.02-.43-.65-.45-.69-2.23-4.03-3.07-8.84-4.16-13.26-.61-2.48-1.22-4.97-1.77-7.46-.21-.93-.31-1.92-.6-2.82-.47-1.45-1.5-2.58-3.13-2.46s-2.78 1.37-2.95 2.98c-.12 1.16.12 2.38.28 3.54.19 1.39.42 2.78.65 4.17 1 6.04 2.42 12.1 2.92 18.21.03.36.02.73.05 1.08 0 .06-.05.29-.02.33.12.16.18-.1.11-.36-.17-.67-.99-1.49-1.36-2.12-.26-.45-.5-.91-.73-1.37-.97-1.98-1.73-4.06-2.41-6.16-.55-1.68-1.19-3.53-2.31-4.93-1.03-1.28-2.55-1.28-3.7-.1-1.6 1.65-.62 4.24-.14 6.16 1.38 5.58 2.81 11.14 4.35 16.68 1.11 4 2.21 7.99 3.88 11.79 1.76 4.01 3.32 8.06 4.74 12.2.64 1.88 1.27 3.77 1.88 5.66.06.17.24.35.43.33 7.34-.79 14.67-1.59 22.01-2.38.23-.03.47-.19.45-.45-.18-3.16.57-6.2 2.35-8.82 1.58-2.32 3.59-4.32 5.16-6.66.92-1.37 1.45-2.98 2.1-4.49 2.22-5.15 4.75-10.18 6.93-15.35.65-1.54 2.53-5.4-.62-5.34-4.58.09-7.26 3.96-9.45 7.41-.47.75-3.18 5.32-4.2 3.87-.58-.83-.64-2.25-.74-3.21-.16-1.51-.22-3.03-.27-4.55-.18-5.7-.05-11.41.15-17.11.09-2.56.26-5.13.23-7.7-.02-1.56 0-3.59-1.09-4.85-1.48-1.73-4.31-.94-5.58.63-1.49 1.83-1.51 4.44-1.57 6.68-.18 6.81-.54 13.61-.89 20.41-.03.58.87.58.9 0 .31-5.95.62-11.89.82-17.84.07-2.16-.07-4.46.47-6.57.32-1.24.91-2.44 2.11-3.03s2.75-.48 3.39.81c.96 1.94.57 4.74.5 6.81-.08 2.28-.18 4.56-.25 6.84-.17 5.52-.27 11.05-.01 16.56.08 1.6.16 9.54 3.61 6.8 3.11-2.47 4.12-6.76 7.26-9.25.78-.62 5.04-2.97 5.53-1.38.31 1.01-.79 2.92-1.16 3.8-2.09 4.93-4.49 9.72-6.62 14.63-.73 1.69-1.32 3.5-2.36 5.03-1.76 2.59-4.09 4.78-5.68 7.49-1.48 2.53-2.06 5.46-1.89 8.37l.45-.45c-7.34.79-14.67 1.59-22.01 2.38l.43.33c-1.41-4.37-2.85-8.75-4.54-13.02-1.2-3.02-2.67-5.92-3.72-9-1.69-4.99-2.97-10.14-4.3-15.24-.73-2.78-1.43-5.56-2.12-8.35-.33-1.32-.84-2.74-.87-4.11-.01-.93.29-1.97 1.23-2.38s1.54.19 2.01.92c1.2 1.86 1.76 3.98 2.49 6.04.6 1.68 1.26 3.34 2.08 4.93.4.78 2.68 5.2 3.4 3.35.21-.53.06-1.3.01-1.85-.09-1.08-.25-2.16-.41-3.24-.46-3.15-1.02-6.28-1.57-9.41s-1.08-6.14-1.53-9.23c-.18-1.23-.48-2.59-.35-3.85.14-1.4 1.41-2.59 2.89-2.13 1.08.34 1.43 1.57 1.64 2.56.7 3.35 1.48 6.67 2.3 10 1.06 4.31 1.94 8.89 4.06 12.84.24.45.81 1.58 1.48 1.04.36-.3.34-1.03.37-1.44.19-2.7-.05-5.46-.2-8.15-.22-3.75-.51-7.51-.84-11.25-.14-1.6-.31-3.19-.46-4.79-.14-1.48-.41-3.96 1.02-4.93.98-.67 2.48-.27 3.26.52.68.69.99 1.7 1.21 2.62.31 1.31.44 2.66.59 4 .3 2.56.67 5.12 1.07 7.67a248.746 248.746 0 0 0 1.83 10.22c.27 1.32.41 2.79.88 4.06.38 1.03 1.7 1.82 2.43.65.31-.49-.47-.95-.78-.46Z"/><path d="M249.68 36.19c3.33-.65 7.03 1.21 8.2 4.01.42 1.02.59 2.33-.25 5.29-1.35 4.8-3.64 7.97-5.75 11-1.68 2.41-4.18 6.06-7.2 10.76l-.04-.14c-3.45-4.4-6.27-7.81-8.17-10.05-2.38-2.82-4.95-5.76-6.74-10.42-1.11-2.88-1.07-4.2-.74-5.25.89-2.86 4.34-5.2 7.79-4.75 3.61.46 6.57 3.88 6.57 8.07-.05-4.26 2.74-7.81 6.33-8.52Z" fill="#ff7556"/><path d="M249.8 36.63c3.05-.52 7.11 1.09 7.87 4.39.33 1.43-.09 2.99-.48 4.36-.53 1.87-1.26 3.67-2.17 5.38-1.4 2.61-3.18 4.98-4.85 7.41a348.84 348.84 0 0 0-5.89 8.86l.82.11c-.13-.51-.59-.89-.9-1.3-.61-.78-1.23-1.56-1.85-2.33-1.1-1.37-2.21-2.74-3.34-4.1-1.9-2.29-3.93-4.51-5.64-6.94-1.02-1.44-1.91-2.97-2.64-4.59s-1.5-3.4-1.49-5.15c.02-3.32 3.72-5.74 6.78-5.69 4.07.07 6.81 3.85 6.88 7.67.01.58.9.58.9 0 .02-3.72 2.23-7.25 6-8.08.57-.13.33-.99-.24-.87-4.15.92-6.63 4.86-6.66 8.95h.9c-.07-3.28-1.77-6.46-4.81-7.88s-6.96-.44-9.16 2.16-1.49 5.5-.28 8.41c1.51 3.65 3.84 6.71 6.38 9.71 1.25 1.48 2.5 2.98 3.72 4.48.74.9 1.47 1.81 2.2 2.72.43.53.85 1.07 1.27 1.6.29.37.99 1 1.11 1.46.1.39.62.43.82.11 2.19-3.4 4.43-6.77 6.74-10.1 2.05-2.95 4.09-5.87 5.41-9.23 1.02-2.61 2.28-6.1.77-8.77-1.64-2.89-5.26-4.17-8.42-3.63-.57.1-.33.97.24.87ZM7.4 150.99c2.05-8.51 3.93-17.06 5.49-25.67 1.34-7.39 2.76-14.75 4.39-22.09.92-4.15 1.83-8.3 2.74-12.45.58-2.68 1.17-5.36 1.74-8.04.43-1.98 1.08-4.06 1.11-6.09.1-6.06-5.47-9.8-7.42-15.11-1.31-3.55-2.71-7.07-4.14-10.57-.74-1.82-1.5-3.63-2.21-5.46-.39-1-.85-2.05-1-3.12-.39-2.65 4.06-.05 4.98.77 1.61 1.44 2.73 3.54 3.97 5.29.81 1.16 1.61 2.35 2.53 3.43.97 1.13 1.97.97 2.59-.53.73-1.78.84-3.89 1.01-5.79.21-2.33.35-4.66.45-6.99.18-4.16.25-8.33.27-12.5 0-2.17-.12-4.43.27-6.57.12-.68.3-1.5.81-2.02.95-.96 2.64-.5 3.5.36 1.37 1.37 1.36 3.65 1.34 5.46-.03 2.02-.07 4.03-.08 6.05-.01 2.41-.01 4.82 0 7.23 0 1.3 0 2.61.01 3.91 0 .78-.27 2.07.06 2.79.24.51.82.68 1.33.53.69-.21.97-.91 1.15-1.54.76-2.57 1.34-5.21 1.94-7.81.8-3.51 1.53-7.04 2.15-10.58.1-.57.19-1.14.28-1.7.29-1.82.48-4.66 2.14-5.84 1.11-.79 2.81-.61 3.36.73.36.88.31 1.91.22 2.84-.14 1.6-.45 3.19-.67 4.78-.51 3.7-.97 7.4-1.36 11.11-.26 2.55-.75 5.3-.5 7.87.04.45.13 1.09.73 1.03.87-.09 1.52-1.98 1.81-2.6 1.95-4.13 3.07-8.62 4.34-12.99.51-1.74 1.04-3.48 1.48-5.24.04-.16.08-.32.11-.47.19-.84.35-1.83.99-2.47 1.39-1.4 3.27.16 3.32 1.75.04 1.24-.34 2.57-.58 3.78-.3 1.52-.63 3.04-.96 4.55-.72 3.32-1.48 6.63-2.18 9.95-.43 2.07-1.15 4.37-1.09 6.51.01.48.12 1.03.73.96.53-.06.99-.9 1.27-1.29.38-.54.75-1.08 1.1-1.65.87-1.42 1.58-2.95 2.22-4.49.85-2.02 1.48-4.17 2.77-5.99s3.05-.21 2.86 1.65c-.14 1.42-.73 2.84-1.14 4.21-.81 2.73-1.64 5.45-2.49 8.16-1.55 4.95-3 10.03-5.1 14.78-1.64 3.7-3.59 7.15-5.94 10.44-1.89 2.65-3 5.65-3.39 8.89-.32 2.69-.27 5.43-.47 8.14-.21 2.9-.43 5.81-.64 8.71l-2.55 34.84c-.41 5.64-.83 11.28-1.24 16.92l.45-.45-29.29-.84c-.58-.02-.58.89 0 .9l29.29.84c.26 0 .43-.21.45-.45.88-11.95 1.75-23.89 2.63-35.84l1.29-17.67c.21-2.9.43-5.81.64-8.71.2-2.71.06-5.44.63-8.11.71-3.33 2.4-5.79 4.28-8.53 2.36-3.45 4.23-7.32 5.72-11.22 2-5.28 3.62-10.73 5.28-16.12.83-2.71 1.9-5.48 2.43-8.27.31-1.61-.15-3.7-2.06-4.05-1.79-.33-2.76 1.82-3.42 3.09-1.02 1.94-1.63 4.08-2.56 6.06-.52 1.1-1.09 2.18-1.76 3.19-.31.48-.63.97-.98 1.42l-.17.21c-.26.18-.22.36.1.55.34-.84-.02-.01-.02-.05.06-.29 0-.67.04-.97.28-2.68.96-5.35 1.53-7.98.74-3.4 1.52-6.8 2.24-10.21.28-1.34.56-2.69.78-4.05s.44-2.85-.52-3.96-2.9-1.4-4.03-.34c-.86.81-1.09 2-1.35 3.09-.23.96-.51 1.91-.78 2.86-1.13 3.99-2.2 8.05-3.59 11.96-.41 1.15-.86 2.29-1.38 3.4-.19.42-.39.83-.61 1.23-.13.25-.51.66-.56.93 0 .04-.17.16-.16.19 0 0 .46.11.45.13.02-.02-.06-.25-.05-.29.09-.4-.03-.96-.01-1.38.09-3.24.5-6.48.87-9.69.44-3.78.94-7.54 1.49-11.3.22-1.47.46-3.1-.09-4.53-.6-1.56-2.24-2.13-3.79-1.63-2.86.92-3.11 4.86-3.51 7.31-.45 2.77-1 5.54-1.58 8.28a206.2 206.2 0 0 1-1.69 7.36c-.32 1.31-.6 2.65-1.01 3.94-.18.55-.77 1.56-.77.4 0-.8 0-1.6-.01-2.41-.02-4.83-.04-9.66.04-14.5.04-2.97.62-7.59-2.71-9.09-1.29-.58-2.9-.52-3.82.67s-.99 2.91-1.07 4.33c-.49 9.04.29 18.19-1.15 27.17-.14.85-.26 1.86-.67 2.63-.16.3-.47.58-.49.58-.56-.14-1.24-1.42-1.53-1.83-1.36-1.85-2.6-3.77-3.96-5.62-.83-1.13-1.72-2.11-2.94-2.81s-4.69-2.38-5.14.02c-.13.71.12 1.49.32 2.16.44 1.43 1.03 2.81 1.59 4.19 1.67 4.12 3.38 8.22 4.93 12.38.45 1.2.81 2.48 1.46 3.61 2.08 3.64 5.49 6.7 6.33 10.96.43 2.18-.21 4.32-.67 6.45-.57 2.66-1.15 5.31-1.72 7.96-1.88 8.65-3.93 17.27-5.62 25.96-1.34 6.89-2.47 13.81-3.91 20.68-1.04 4.96-2.17 9.91-3.36 14.84-.14.56.73.8.87.24Z"/><path d="M31.61 48.18c-3.06-.75-6.57.82-7.77 3.37-.44.93-.64 2.13 0 4.92 1.05 4.51 3.03 7.54 4.86 10.44 1.45 2.3 3.61 5.8 6.22 10.29l.04-.13c3.39-3.93 6.15-6.97 8-8.97 2.33-2.51 4.84-5.13 6.7-9.37 1.15-2.62 1.17-3.84.91-4.83-.7-2.69-3.8-5-7.02-4.74-3.37.28-6.26 3.31-6.44 7.2.23-3.95-2.2-7.36-5.5-8.17Z" fill="#e84133"/><path d="M31.73 47.74c-2.83-.61-6.07.34-7.8 2.76s-.76 5.67.07 8.22c1.08 3.29 2.91 6.18 4.73 9.09 1.99 3.17 3.91 6.37 5.79 9.61.2.34.71.26.82-.11.21-.68 1.29-1.5 1.76-2.05.74-.84 1.48-1.68 2.23-2.52 1.12-1.26 2.25-2.5 3.4-3.74 2.38-2.58 4.76-5.13 6.43-8.25 1.32-2.45 2.77-5.44 1.38-8.15s-4.74-4.38-7.76-3.8c-3.6.69-5.88 4.04-6.12 7.54h.9c.14-3.83-2.01-7.56-5.83-8.6-.56-.15-.8.72-.24.87 3.45.94 5.3 4.3 5.17 7.74-.02.58.86.57.9 0 .3-4.33 4.33-8.04 8.74-6.34 1.77.68 3.48 2.24 3.87 4.17.35 1.74-.56 3.63-1.29 5.15-1.72 3.56-4.34 6.38-6.98 9.25-1.26 1.37-2.5 2.74-3.73 4.13-.77.86-1.53 1.73-2.29 2.61-.45.52-1.19 1.09-1.4 1.76l.82-.11c-1.65-2.85-3.34-5.67-5.08-8.47-1.45-2.34-3.01-4.62-4.19-7.11-.76-1.61-1.35-3.3-1.75-5.03-.29-1.27-.61-2.71-.26-4.01.83-3.04 4.67-4.33 7.47-3.72.57.12.81-.75.24-.87Z"/><path d="M1.7 160.77c-.19-.76-.44-1.84-.71-3.15-.56-2.68-.54-3.28-.52-3.79.05-1.28.47-2.6 1.4-3.47.93-.88 2.44-1.19 3.54-.53.4.24.8.61 1.25.51.33-.07.55-.37.79-.6.81-.75 2.07-.82 3.13-.5 1.06.32 1.99.95 2.96 1.49.16.09.34.18.52.18s.35-.07.51-.15c1.32-.62 2.6-1.35 4.01-1.67 1.42-.32 3.04-.16 4.1.84.52.49.93 1.18 1.63 1.32.47.09.95-.1 1.4-.26 2.32-.8 4.95-.62 7.14.49.25.13.52.27.8.28.22 0 .44-.07.64-.16 1.39-.56 3.06-1.29 4.25-.39.3.23.53.54.85.74.62.38.97.22 1.54.47.6.26 1.16.81 1.36 1.39.25.75-.16 1.47-.9 2.7-.92 1.54-1.74 2.86-2.4 3.91-12.42.12-24.85.23-37.27.35Z" fill="#c8dea4"/><path d="M2.14 160.65c-.52-2.14-1.28-4.5-1.22-6.73.05-1.65.81-3.56 2.61-3.94.99-.21 1.44.24 2.26.62.44.2.81.26 1.25.06.76-.35 1.12-1.05 2.07-1.14.84-.08 1.65.21 2.39.58 1.03.51 2 1.54 3.19 1.1 1.56-.58 2.91-1.58 4.62-1.77.68-.07 1.4-.03 2.04.21.95.36 1.33 1.18 2.12 1.71.99.67 1.9.18 2.95-.1 1.7-.46 3.53-.38 5.19.19.64.22 1.34.76 2.05.77.51.01 1.01-.28 1.48-.46.74-.28 1.58-.63 2.38-.47.86.17 1.3.98 2.1 1.27s1.64.17 2.13 1.14c.46.91-.3 1.84-.74 2.59-.39.66-.79 1.31-1.19 1.96-.36.59-.7 1.47-1.32 1.73-.34.14-1.12.01-1.49.01-.5 0-.99 0-1.49.01-.83 0-1.66.02-2.48.02l-5.96.06-25.35.24c-.58 0-.58.91 0 .9 8.7-.08 17.39-.16 26.09-.25l6.71-.06c.99 0 1.99-.02 2.98-.03.6 0 1.42.21 1.88-.24.54-.52.94-1.5 1.33-2.13.51-.84 1.05-1.67 1.52-2.53.58-1.07.88-2.09.04-3.12a3.07 3.07 0 0 0-1.36-.94c-.43-.14-.87-.13-1.27-.37-.37-.22-.63-.61-1-.83-1.22-.75-2.69-.25-3.91.22-.65.26-.86.41-1.63.14-.29-.1-.56-.27-.85-.38-.8-.31-1.64-.51-2.49-.61s-1.63-.07-2.44.04-1.64.62-2.4.63c-1.08 0-1.51-.92-2.26-1.47-.62-.45-1.35-.69-2.11-.78-1.48-.17-2.89.29-4.22.89-.84.38-1.84 1.2-2.73.81-.79-.35-1.49-.89-2.3-1.22-1.21-.49-2.69-.63-3.82.15-.52.35-.78.73-1.53.48-.36-.12-.65-.4-1.04-.51-.69-.19-1.45-.11-2.11.15-1.4.54-2.28 1.86-2.6 3.29-.61 2.69.46 5.76 1.09 8.33.14.56 1.01.32.87-.24Z"/><path d="M49.5 160.72c.9-6.37 1.83-12.79 2.79-19.25.95-6.36 1.92-12.67 2.92-18.92 2.04.35 3.69.52 4.81.6 2 .15 2.88.1 5.11.3 1.77.16 3.03.36 3.71.46 2.13.32 5.85.78 12.82 1.34 0 .29 0 .75-.02 1.32-.01.48-.03.83-.04.92-.06 1.43-.48 13.97-.74 20.3-.13 3.11-.35 7.54-.71 12.93H49.49Z" fill="#92a377"/><path d="M49.93 160.84c1.79-12.74 3.7-25.46 5.71-38.17l-.55.31c4.65.78 9.37.75 14.03 1.42 4.16.6 8.35.96 12.54 1.3l-.45-.45c0 4.96-.32 9.94-.5 14.89-.25 6.86-.54 13.72-1 20.58l.45-.45H49.5c-.58 0-.58.9 0 .9h30.66c.26 0 .43-.21.45-.45.46-6.85.75-13.71 1-20.58.18-4.95.51-9.93.5-14.89 0-.26-.21-.43-.45-.45-4.16-.34-8.33-.68-12.46-1.29-4.61-.68-9.27-.63-13.87-1.4-.22-.04-.51.06-.55.31-2.01 12.71-3.92 25.43-5.71 38.17-.08.57.79.81.87.24Z"/><path d="M81.09 85.22c-.7.74-.73-2.09-.73-2.04v-1.93c0-1.38.02-2.76.05-4.14.05-2.32.12-4.63.24-6.95.12-2.56.28-5.13.51-7.68s.97-6.41-1.38-8.25c-1.18-.92-2.97-1.19-4.15-.13s-1.48 2.73-1.68 4.16c-.97 6.93-1.53 13.91-2.74 20.82-.21 1.19-.41 2.39-.72 3.55-.04.16-.33.76-.29.92.01.05.26.3.36.03.04-.12-.29-.8-.33-.95-1.29-4.64-1.16-9.64-1.33-14.42-.08-2.34-.17-4.68-.19-7.02-.01-1.07.12-2.18-.09-3.22-.35-1.7-1.69-2.76-3.46-2.48-1.55.24-2.42 1.5-2.69 2.96-.48 2.56-.42 5.29-.52 7.88-.13 3.41-.22 6.82-.35 10.23-.1 2.59-.12 5.23-.5 7.79-.04.27-.17.6-.17.87 0 .05-.08.16-.07.21.07.28.26-.22.27-.3.03-.22-.32-.73-.42-.99a27.2 27.2 0 0 1-1.11-3.56c-.52-2.2-.77-4.44-1.05-6.68-.2-1.63-.49-3.75-1.51-5.09-.91-1.19-2.53-1-3.58-.07-1.56 1.38-1.15 3.89-1.09 5.74.21 5.74.49 11.48.87 17.21.28 4.14.53 8.27 1.4 12.34.91 4.28 1.62 8.56 2.17 12.91.25 1.97.48 3.95.69 5.92.03.26.19.43.45.45 7.34.71 14.69 1.43 22.03 2.14.26.03.42-.23.45-.45.76-6.16 6-9.3 10.15-13.21 1.28-1.21 2.16-2.62 3.14-4.06 1.2-1.77 2.5-3.48 3.75-5.21 2.56-3.54 5.43-7.02 7.6-10.83.31-.55.75-1.26.69-1.93-.1-1.19-1.62-1.33-2.56-1.34-5.48-.03-8.42 4.48-12.1 7.76-.47.42-1.25 1.19-1.95 1.09s-.67-1.09-.69-1.66c-.1-2.74.51-5.54 1.01-8.21 1.03-5.5 2.31-10.95 3.65-16.37.6-2.42 1.3-4.84 1.67-7.31.21-1.42.43-3.23-.61-4.41-1.46-1.65-4.24-1.1-5.63.32-1.6 1.62-2.08 4.04-2.59 6.18-1.54 6.52-3.25 13-4.95 19.48-.15.56.72.8.87.24 1.49-5.7 2.99-11.4 4.38-17.13.5-2.06.83-4.28 1.7-6.23.42-.95 1.01-1.89 1.91-2.45 1.1-.68 3.02-.79 3.8.44 1.03 1.63.07 4.45-.32 6.13-.5 2.17-1.07 4.34-1.59 6.5-1.3 5.39-2.56 10.8-3.5 16.26-.38 2.24-.86 4.63-.69 6.92.07.96.29 2.09 1.42 2.21 1.45.15 2.73-1.29 3.65-2.2 1.8-1.77 3.46-3.79 5.6-5.18a8.778 8.778 0 0 1 3.59-1.36c.6-.09 2.68-.41 3.03.32.14.3-.38 1.15-.57 1.49-2.05 3.6-4.76 6.89-7.18 10.24-1.39 1.93-2.84 3.83-4.17 5.8-1.15 1.69-2.26 3.23-3.8 4.61-2.18 1.94-4.56 3.7-6.45 5.95-1.78 2.11-2.82 4.44-3.16 7.17l.45-.45c-7.34-.71-14.69-1.43-22.03-2.14l.45.45c-.48-4.48-1-8.97-1.75-13.41-.56-3.29-1.44-6.52-1.86-9.83-.65-5.23-.84-10.54-1.11-15.79a790.5 790.5 0 0 1-.37-8.36c-.05-1.29-.19-2.61-.09-3.9.06-.8.22-1.58.84-2.14.66-.59 1.63-.82 2.25-.06s.85 2.13 1.07 3.11.31 1.98.43 2.98c.23 1.97.54 3.93 1.03 5.86.23.92 1.55 6.04 2.73 4.64.31-.37.33-1.06.4-1.5.14-1.01.21-2.04.28-3.06.2-3.12.29-6.24.39-9.36s.19-6.42.37-9.62c.06-1.13.11-2.29.26-3.41.15-1.05.52-2.17 1.64-2.54 1.76-.58 2.79.83 2.9 2.41.06.87-.03 1.78-.01 2.66.04 2.58.13 5.17.23 7.75.16 4.51.1 9.21 1.32 13.59.14.49.4 1.78 1.17 1.58.47-.12.62-.85.74-1.24.77-2.58 1.08-5.35 1.47-8 .54-3.66 1.02-7.32 1.45-11 .19-1.62.37-3.24.54-4.86.15-1.46.3-3.63 1.55-4.62 1.07-.86 2.71-.29 3.46.73.59.8.72 1.83.76 2.79.06 1.42-.11 2.85-.23 4.26-.23 2.54-.38 5.09-.51 7.64-.11 2.24-.19 4.49-.23 6.73-.03 1.21-.04 2.43-.05 3.64 0 1.34-.18 2.83.03 4.15.17 1.05 1.26 2.2 2.24 1.17.4-.42-.24-1.06-.64-.64Z"/><path d="M78.55 90.53c3.4.04 6.64 2.61 7.21 5.59.21 1.08.1 2.4-1.32 5.13-2.3 4.43-5.18 7.06-7.87 9.6-2.13 2.02-5.32 5.08-9.24 9.07v-.15c-2.49-5.01-4.56-8.92-5.96-11.5-1.76-3.25-3.68-6.65-4.48-11.57-.5-3.04-.19-4.32.34-5.29 1.45-2.62 5.3-4.21 8.6-3.07 3.44 1.19 5.65 5.13 4.79 9.23.81-4.19 4.27-7.09 7.93-7.05Z" fill="#ff7556"/><path d="M78.55 90.98c3.09.12 6.75 2.48 6.84 5.87.04 1.47-.68 2.91-1.34 4.18-.89 1.72-1.97 3.34-3.22 4.83-1.9 2.27-4.12 4.23-6.25 6.27-2.56 2.45-5.08 4.95-7.56 7.48l.77.32c-.03-.53-.38-.99-.61-1.46-.44-.89-.89-1.77-1.34-2.66-.8-1.57-1.61-3.13-2.43-4.69-1.35-2.56-2.84-5.06-4.01-7.7-.75-1.7-1.36-3.45-1.76-5.26-.38-1.68-.79-3.62-.43-5.34.65-3.13 4.52-4.78 7.44-4.29 4.16.69 6.27 5.07 5.55 8.95-.1.56.75.81.87.24.78-3.62 3.63-6.67 7.5-6.72.58 0 .58-.91 0-.9-4.25.05-7.5 3.37-8.37 7.39l.87.24c.6-3.24-.4-6.72-3.12-8.74s-6.75-1.82-9.43.32c-2.53 2.02-2.52 4.81-2 7.77.69 4.01 2.4 7.6 4.32 11.14.93 1.71 1.84 3.42 2.74 5.14.54 1.04 1.07 2.07 1.6 3.11.31.61.62 1.22.92 1.83.2.41.78 1.19.8 1.64.02.38.48.61.77.32 2.84-2.89 5.72-5.73 8.65-8.52 2.6-2.47 5.2-4.91 7.17-7.93 1.53-2.34 3.49-5.51 2.56-8.42-1.01-3.15-4.28-5.17-7.48-5.29-.58-.02-.58.88 0 .9Zm145.51 69.62c-1.4-6.73-2.76-13.47-4.13-20.21l-2.55-12.63c-.35-1.74-.78-3.49-1.04-5.24-.35-2.33.24-4.53 1.36-6.57 1.59-2.91 4.06-5.28 5.58-8.22.68-1.31 1.12-2.77 1.66-4.14 1.64-4.13 3.41-8.21 5.14-12.31.69-1.63 2.05-3.95 1.82-5.81-.3-2.34-3.48-1.08-4.75-.44-3.04 1.52-4.71 4.72-6.64 7.37-.74 1.01-1.44 2.15-2.35 3.01-.09.08-.29.26-.3.26-.16.01-.5-.6-.62-.89-.73-1.93-.76-4.2-.9-6.24-.15-2.25-.26-4.51-.32-6.77-.11-4.08-.12-8.17-.08-12.26.02-2.16.14-4.35-.11-6.5-.13-1.19-.38-2.57-1.34-3.39-1.19-1.02-3.02-.7-4.21.14-1.33.93-1.84 2.57-2.05 4.11s-.12 3.25-.12 4.87a686.984 686.984 0 0 1-.16 13.83c0 .45.21 3.7-.07 3.85-.73.39-1.31-3.02-1.44-3.54-1.05-4.39-1.97-8.82-2.76-13.27-.36-2.05-.64-4.11-.99-6.16-.26-1.56-.58-3.38-1.68-4.6-.97-1.08-2.72-1.58-4.06-.91-2.75 1.35-1.53 5.85-1.23 8.19.47 3.69.89 7.39 1.24 11.09.28 2.92.61 5.88.6 8.82 0 .27-.13.82-.05 1.08.02.05-.05.19-.04.2.13.17.38-.19.38-.18 0-.04-.29-.42-.31-.46-1.11-1.78-1.82-3.87-2.47-5.84-1.25-3.81-2.24-7.73-3.28-11.6-.28-1.05-.58-2.1-.81-3.16-.48-2.2-1.66-4.88-4.45-3.65s-1.59 5-1.17 7.28c1.12 6.08 2.6 12.1 3.6 18.21.15.91.21 1.83.33 2.75 0 .04-.03.27 0 .31.02.02-.02.06-.02.08v.02c.31-.2.34-.39.08-.58-.21-.69-.99-1.4-1.38-2.05-1.98-3.26-2.78-7.03-4.67-10.32-.69-1.2-1.71-2.54-3.26-1.93-1.85.73-2.02 2.73-1.64 4.42 1.19 5.34 3 10.64 4.6 15.87 1.35 4.39 2.68 8.79 4.56 12.99.98 2.18 2.06 4.32 3.31 6.36.78 1.27 1.69 2.44 2.49 3.69 2.01 3.13 2.81 6.81 2.82 10.51 0 3.91.35 7.83.56 11.75.14 2.7.24 5.4.38 8.11.19 3.62.4 7.23.62 10.84.01.24.2.45.45.45 8.47-.12 16.95.12 25.42 0 .58 0 .58-.91 0-.9-8.47.12-16.95-.12-25.42 0l.45.45c-.29-4.9-.6-9.8-.8-14.7s-.82-10.08-.78-15.09c.04-3.69-.46-7.34-2.21-10.64-.6-1.14-1.36-2.16-2.09-3.22-1.15-1.66-2.16-3.42-3.08-5.22-2.09-4.12-3.57-8.42-4.96-12.82-1.61-5.12-3.13-10.28-4.59-15.45-.34-1.2-.78-2.42-.98-3.65-.14-.87-.12-1.81.55-2.47.89-.87 1.79-.41 2.39.46 1.28 1.86 1.89 4.05 2.72 6.12.61 1.52 1.28 3.03 2.1 4.45.57 1 1.23 2.49 2.2 3.11 1.47.93.96-2.07.89-2.61-.36-2.63-.92-5.24-1.45-7.84-.66-3.23-1.34-6.45-1.98-9.68-.41-2.07-2.4-8.25 1.11-8.42 2.01-.1 2.16 2.38 2.53 3.87.48 1.93 1.02 3.85 1.55 5.77 1.21 4.38 2.28 8.87 4.21 13.01.27.57.85 2.29 1.67 2.37.56.06.67-.49.73-.91.35-2.33-.11-4.95-.3-7.27-.3-3.58-.69-7.15-1.11-10.71-.2-1.65-.4-3.3-.62-4.95-.2-1.47-.63-3.61.31-4.9.83-1.14 2.59-.9 3.51-.01.66.64.98 1.58 1.21 2.45.34 1.25.5 2.54.69 3.82.38 2.55.83 5.09 1.32 7.61.42 2.19.88 4.38 1.36 6.55.27 1.21.55 2.42.84 3.63.25 1.02.35 2.33.9 3.24s2.01 1.16 2.25-.1c.2-1.07.04-2.36.06-3.45.03-1.36.05-2.72.07-4.08.07-4.16.1-8.32.09-12.49 0-1.7 0-3.67.98-5.13.68-1 2.09-1.77 3.31-1.37.85.28 1.22 1.09 1.43 1.9.49 1.94.35 4.07.33 6.05-.02 1.74-.03 3.48-.04 5.23 0 4.44.04 8.89.29 13.32.12 2.11.23 4.23.55 6.32.16 1.08.34 2.82 1.32 3.54 1.11.81 2.01-.7 2.6-1.45 1.12-1.44 2.18-2.94 3.25-4.43s2.04-3.11 3.58-4.09c.98-.62 2.56-1.58 3.76-1.37.8.14.7.77.57 1.41-.58 2.81-2.1 5.54-3.21 8.16-1.5 3.54-2.99 7.08-4.37 10.67-.36.94-.69 1.86-1.23 2.72-2.23 3.56-5.53 6.67-6.52 10.88-.78 3.32.48 6.95 1.13 10.21a6895.244 6895.244 0 0 0 6.47 31.81c.12.57.99.33.87-.24Z"/><path d="M206.79 91.8c3.15-.72 6.72.93 7.91 3.56.43.95.63 2.19-.08 5.04-1.14 4.6-3.21 7.68-5.13 10.62a349.27 349.27 0 0 0-6.52 10.44l-.04-.13c-3.41-4.08-6.2-7.23-8.06-9.3-2.35-2.61-4.88-5.32-6.72-9.69-1.14-2.7-1.14-3.95-.86-4.96.76-2.75 3.96-5.07 7.26-4.75 3.44.33 6.36 3.48 6.48 7.46-.18-4.05 2.37-7.51 5.75-8.28Z" fill="#f39c95"/><path d="M206.91 92.23c2.88-.58 6.8.81 7.6 3.94.34 1.33 0 2.81-.32 4.1-.44 1.78-1.07 3.51-1.89 5.15-1.22 2.48-2.81 4.75-4.3 7.07-1.85 2.88-3.65 5.8-5.41 8.74l.82.11c-.2-.68-.95-1.28-1.4-1.82-.76-.9-1.53-1.81-2.31-2.7-1.24-1.44-2.5-2.87-3.76-4.28-2.67-2.99-5.32-5.92-7.03-9.6-.72-1.55-1.62-3.51-1.22-5.27.47-2.1 2.4-3.72 4.39-4.33 4.47-1.37 8.28 2.46 8.51 6.75.03.58.92.58.9 0-.08-3.52 1.87-6.94 5.42-7.85.56-.14.32-1.01-.24-.87-3.93 1.01-6.18 4.81-6.09 8.72h.9c-.17-3.13-1.88-6.12-4.84-7.38s-6.58-.2-8.61 2.31-1.34 5.07-.18 7.75c1.54 3.55 3.91 6.47 6.47 9.32a339.47 339.47 0 0 1 5.86 6.67c.4.46.79.93 1.19 1.4.3.35 1.04.98 1.17 1.42.11.37.62.44.82.11 1.97-3.28 3.99-6.54 6.07-9.75 1.89-2.92 3.78-5.8 4.93-9.1.9-2.56 1.96-5.91.33-8.4s-5.08-3.66-8.03-3.07c-.57.11-.33.98.24.87Zm-62.61 68.61c2.29-5.69 4.14-11.43 5.43-17.42.29-1.36.66-2.72.59-4.13s-.52-2.81-1.17-4.09c-1.29-2.58-3.33-4.67-4.72-7.17-.43-.78-.69-1.65-1-2.48-1.14-3.08-2.38-6.13-3.62-9.17-.87-2.13-1.97-4.3-2.48-6.55-.07-.31-.25-.87 0-1.15.62-.73 2.67.49 3.26.84 1.13.66 1.87 1.63 2.62 2.69.99 1.4 1.94 2.82 2.95 4.2.46.63 1.27 2.21 2.21 2.26 1.76.1 1.93-3.68 2.06-4.72.42-3.48.56-7.01.67-10.52.09-3.01.13-6.02.14-9.03 0-1.88-.43-9.67 3.63-6.87 2.32 1.6 1.46 6.25 1.44 8.64-.04 3.64-.03 7.28-.01 10.91 0 .93-.13 1.98.01 2.89.05.33.15.56.46.73.99.56 1.67-.57 1.9-1.35 1.08-3.62 1.85-7.36 2.61-11.06.42-2.04.81-4.08 1.15-6.13s.57-6.44 3.49-6.1 1.2 6.01.95 7.84c-.38 2.78-.73 5.56-1.04 8.35-.26 2.36-.53 4.73-.6 7.1-.02.53-.22 2.58.89 2.14.66-.26 1.12-1.56 1.39-2.12.73-1.53 1.34-3.12 1.86-4.73.94-2.93 1.78-5.91 2.62-8.87.27-.95.56-1.9.79-2.87.05-.21.09-.42.14-.63.2-.84.48-1.82 1.38-2.11 1.42-.47 2.29.89 2.24 2.15-.08 2.02-.71 4.11-1.13 6.07-.54 2.52-1.11 5.03-1.66 7.55-.46 2.11-.94 4.22-1.26 6.35-.09.56-.57 2.28.26 2.55s1.8-1.68 2.1-2.14c.45-.68.84-1.39 1.21-2.12.75-1.49 1.36-3.03 1.95-4.59.42-1.1 1.66-4.55 3.24-3.62 1.3.76.68 2.57.35 3.68s-.64 2.17-.97 3.26c-.63 2.09-1.27 4.18-1.92 6.26-1.21 3.84-2.37 7.75-3.87 11.49-1.2 2.98-2.65 5.9-4.42 8.58-.96 1.47-2.23 2.9-2.95 4.52-1.35 3.03-1.41 6.81-1.59 10.06-.2 3.5-.23 7-.22 10.51l.45-.45c-7.41.1-14.83-.1-22.24 0-.58 0-.58.91 0 .9 7.41-.1 14.83.1 22.24 0 .24 0 .45-.2.45-.45-.02-5.8-.14-11.84.98-17.56.2-1.03.43-2.13.95-3.05 1.23-2.14 2.83-4.07 4.05-6.22 3.76-6.63 5.82-14.09 8.04-21.33.66-2.16 1.33-4.33 1.95-6.51.39-1.37.75-2.94-.36-4.07-2.28-2.33-4.12 1.45-4.84 3.22-.98 2.42-1.86 4.87-3.3 7.06-.25.37-.74.87-.9 1.29l-.18.23.26.38s-.02-.05-.01-.06c.05-.04.02-.63.03-.71.07-.81.23-1.62.38-2.41.93-4.96 2.17-9.85 3.17-14.79.35-1.72 1.27-4.35.15-5.92-.67-.93-2.03-1.38-3.11-.93s-1.53 1.65-1.78 2.71c-.59 2.5-1.34 4.95-2.07 7.42-1.05 3.56-1.93 7.39-3.85 10.61-.05.09-.4.52-.39.58.03.15.35.21.42.12s-.05-.71-.05-.83c0-.92.07-1.84.14-2.76.43-5.54 1.2-11.06 1.99-16.57.29-2.04.44-5.42-2.45-5.47-3.14-.05-3.72 3.58-4.11 5.96-.78 4.81-1.78 9.58-2.94 14.31-.25 1-.5 1.99-.76 2.98-.06.22-.64 1.74-.78 1.57-.16-.21 0-1.2 0-1.48 0-2.09-.02-4.18-.02-6.28 0-3.27.05-6.53.08-9.8.02-2.42-.36-5.53-3.16-6.2-2.63-.63-3.45 1.8-3.65 3.9-.29 3.11-.11 6.3-.17 9.42-.06 3.52-.16 7.04-.42 10.55-.14 1.89-.24 3.81-.63 5.67-.12.59-.25 1.23-.57 1.75-.16.25-.24.24-.25.24-.42-.11-.93-1.07-1.17-1.38-1.04-1.41-2.03-2.86-3.03-4.3-1.33-1.91-2.7-3.38-4.94-4.18-1.19-.43-2.91-.46-2.96 1.16s1 3.56 1.61 5.06c1.36 3.37 2.76 6.72 4.06 10.12.47 1.24.86 2.53 1.41 3.73.85 1.87 2.3 3.46 3.45 5.15 1.02 1.5 2.01 3.12 2.4 4.92s-.01 3.36-.37 5.04c-.56 2.59-1.15 5.17-1.93 7.71-1.01 3.33-2.22 6.59-3.52 9.82-.22.54.66.77.87.24Z"/><path d="M158.01 114.61c-2.71-.66-5.81.72-6.88 2.98-.39.82-.57 1.89 0 4.35.93 3.99 2.68 6.67 4.3 9.24 1.29 2.04 3.2 5.13 5.5 9.1l.04-.11c3-3.48 5.44-6.17 7.08-7.93 2.06-2.22 4.28-4.54 5.93-8.29 1.02-2.32 1.03-3.4.81-4.28-.62-2.38-3.36-4.43-6.21-4.19-2.98.24-5.54 2.93-5.69 6.37.21-3.5-1.95-6.52-4.87-7.23Z" fill="#e84133"/><path d="M158.13 114.18c-2.5-.53-5.33.28-6.9 2.38s-.79 4.92-.07 7.19c.93 2.94 2.54 5.52 4.17 8.11 1.79 2.85 3.52 5.74 5.22 8.65.2.34.71.26.82-.11.2-.63 1.17-1.36 1.62-1.87.65-.74 1.3-1.48 1.96-2.22 1.01-1.13 2.03-2.25 3.06-3.37 2.17-2.35 4.32-4.7 5.79-7.57 1.11-2.17 2.21-4.66.95-6.99-1.33-2.45-4.37-3.85-7.08-3.22-3.1.72-5.02 3.63-5.24 6.68h.9c.12-3.42-1.79-6.73-5.2-7.66-.56-.15-.8.72-.24.87 3.04.84 4.65 3.77 4.54 6.8-.02.58.86.57.9 0 .27-3.78 3.77-7.04 7.64-5.57 1.62.62 3.2 2.07 3.45 3.85.22 1.55-.64 3.27-1.31 4.59-1.53 3.07-3.84 5.51-6.14 8.01-1.13 1.22-2.24 2.46-3.34 3.7-.69.77-1.37 1.55-2.04 2.33-.37.43-.92.85-1.1 1.41l.82-.11c-1.47-2.53-2.97-5.03-4.51-7.51-1.26-2.03-2.61-4.02-3.65-6.18-.66-1.38-1.18-2.83-1.54-4.32-.28-1.15-.59-2.47-.3-3.65.67-2.72 4.1-3.87 6.57-3.34.57.12.81-.75.24-.87Zm-45.81-13.07c.39-3.19.75-6.4.99-9.61.17-2.32-.8-4.36-2.04-6.28-1.33-2.06-3.04-3.95-4.14-6.16-.43-.87-.71-1.83-1.05-2.74-1.14-3.05-2.36-6.07-3.59-9.08-.9-2.2-1.95-4.4-2.59-6.7-.1-.37-.35-1.02-.18-1.41.38-.87 1.98-.1 2.57.17 2.51 1.16 3.78 3.41 5.32 5.61.73 1.05 1.46 2.09 2.23 3.11.3.4.62.87 1.02 1.17.93.68 1.68-.27 2.01-1.14 1.07-2.78 1-6.18 1.18-9.12.21-3.4.29-6.81.35-10.22.05-2.98-.09-6 .14-8.97.08-1.07.18-2.71 1.2-3.36s2.4-.01 3.08.78c.48.56.73 1.28.88 2 .55 2.71.13 5.76.11 8.5-.02 3.64 0 7.28 0 10.92 0 .79-.37 2.36.76 2.59 1.19.24 1.58-1.13 1.81-1.99.96-3.61 1.81-7.24 2.57-10.89.44-2.1.84-4.2 1.2-6.32.32-1.9.38-4.21 1.54-5.81.49-.67 1.26-1.09 2.1-1.06 1.28.04 1.73 1.13 1.82 2.23.1 1.16-.13 2.33-.3 3.48-.38 2.61-.73 5.23-1.05 7.85s-.62 5.26-.85 7.9c-.12 1.45-.51 3.31-.15 4.75.38 1.51 1.5-.09 1.84-.72 1.62-2.94 2.53-6.22 3.48-9.42.88-2.95 1.84-5.9 2.55-8.9.1-.44.18-.9.33-1.33.38-1.09 1.23-1.95 2.48-1.42 1.14.48 1.26 1.63 1.12 2.71-.24 1.96-.72 3.91-1.13 5.84-.99 4.59-2.12 9.15-2.94 13.77-.15.83-.65 2.35-.28 3.18.69 1.54 2.6-1.89 2.92-2.42 1.49-2.45 2.24-5.2 3.5-7.75.36-.74.77-1.63 1.33-2.24.44-.47.95-.69 1.58-.32.81.48.89 1.51.77 2.33-.32 2.09-1.16 4.19-1.78 6.21-2.16 7.13-4.14 14.5-7.41 21.22-1.47 3.03-3.29 5.81-5.19 8.58-.87 1.27-1.52 2.54-1.95 4.03-.82 2.83-1.03 5.83-1.14 8.76l.45-.45a77.99 77.99 0 0 1-17.8-2.32c-.56-.14-.8.73-.24.87a78.973 78.973 0 0 0 18.04 2.35c.25 0 .44-.21.45-.45.11-3.08.33-6.26 1.32-9.2.59-1.75 1.66-3.14 2.68-4.66 1.97-2.93 3.7-5.95 5.14-9.18s2.52-6.65 3.61-10.03c1.33-4.09 2.59-8.19 3.82-12.31.46-1.55 1.41-3.57.79-5.2-.37-.97-1.44-1.85-2.53-1.67-1.3.22-2.03 1.87-2.57 2.9-.75 1.43-1.21 2.99-1.86 4.47-.52 1.2-1.09 2.39-1.76 3.51-.13.22-.26.43-.4.64-.25.39-.51.77-.79 1.15s-.29.32-.26.68c.08.9.14.12.1.15.1-.08.11-1.45.13-1.59.13-.88.3-1.76.48-2.64.48-2.45 1.03-4.88 1.57-7.31s1.08-4.85 1.58-7.29c.34-1.69 1.19-4.14.44-5.79-.51-1.13-1.8-1.78-3.01-1.57-1.1.18-1.74 1.09-2.1 2.08-.24.66-.35 1.37-.53 2.06-1.28 4.84-2.56 9.83-4.4 14.49-.32.81-.67 1.61-1.05 2.4-.19.38-.79 1.05-.83 1.46 0 .01-.14.15-.13.15.03.08.5.11.48.13.02-.02-.06-.19-.04-.24.06-.26-.03-.66-.02-.93.02-2.19.27-4.39.5-6.56.3-2.87.65-5.74 1.03-8.6.32-2.4 1-4.99.88-7.42-.05-1.04-.31-2.2-1.22-2.83s-2.32-.56-3.28 0c-2.05 1.18-2.28 4.28-2.61 6.34-.81 5.02-1.89 10.01-3.12 14.94-.23.93-.47 1.85-.71 2.78-.12.45-.16 1.24-.63 1.47s-.22-.41-.22-.88c0-2.06-.02-4.11-.02-6.17 0-3.38 0-6.75.07-10.13.04-2.24.23-5.09-1.57-6.77-1.68-1.57-4.29-1.26-5.1.95-.96 2.63-.54 5.86-.56 8.6-.02 3.26-.09 6.51-.21 9.77-.14 3.58-.2 7.32-.93 10.84-.09.45-.55 2.19-.85 2.15-.33-.04-.79-.84-.96-1.05-1.8-2.33-3.21-5.05-5.22-7.19-1.15-1.23-3.38-2.6-5.12-2.46-1.21.1-1.56 1.03-1.39 2.09.3 1.93 1.27 3.82 2 5.61 1.35 3.31 2.71 6.63 3.99 9.97.46 1.21.85 2.46 1.37 3.64 1.83 4.14 6.59 7.42 6.22 12.32-.24 3.21-.6 6.41-.99 9.61-.07.57.83.57.9 0Z"/><path d="M121.58 65.22c-2.85-.7-6.12.76-7.24 3.13-.41.86-.6 1.99 0 4.58.98 4.2 2.82 7.02 4.52 9.72 1.35 2.14 3.36 5.4 5.79 9.58l.04-.12c3.15-3.66 5.73-6.49 7.45-8.35 2.17-2.34 4.5-4.78 6.24-8.72 1.07-2.44 1.09-3.58.85-4.5-.65-2.51-3.54-4.66-6.54-4.41-3.14.26-5.83 3.08-5.99 6.7.22-3.68-2.05-6.86-5.12-7.61Z" fill="#f39c95"/><path d="M121.7 64.78c-2.63-.56-5.62.3-7.26 2.53s-.75 5.42.07 7.87c1.01 3.03 2.71 5.69 4.39 8.38 1.84 2.94 3.62 5.91 5.36 8.9.2.34.71.26.82-.11.2-.64 1.29-1.51 1.74-2.02.64-.73 1.28-1.46 1.93-2.18 1.04-1.17 2.1-2.33 3.16-3.48 2.2-2.38 4.41-4.74 5.97-7.61 1.28-2.35 2.68-5.22 1.3-7.81s-4.57-4.08-7.42-3.43c-3.27.74-5.3 3.8-5.52 7.01h.9c.13-3.59-1.88-7.06-5.46-8.04-.56-.15-.8.72-.24.87 3.2.88 4.91 3.99 4.79 7.17-.02.58.86.57.9 0 .28-3.95 3.9-7.38 7.97-5.92 1.75.63 3.48 2.19 3.76 4.11.25 1.69-.72 3.57-1.46 5.01-1.64 3.22-4.1 5.79-6.52 8.42a374.66 374.66 0 0 0-3.3 3.65c-.67.75-1.33 1.51-1.99 2.27-.45.51-1.18 1.08-1.38 1.74l.82-.11c-1.52-2.61-3.06-5.2-4.65-7.76-1.32-2.12-2.73-4.2-3.84-6.45-.71-1.45-1.27-2.97-1.67-4.53-.32-1.28-.69-2.75-.37-4.07.71-2.87 4.33-4.09 6.94-3.53.57.12.81-.75.24-.87Z"/><path d="M105.38 106.04c-.07-2.27-.16-4.52-.26-6.75 4.41 1.34 9.72 2.62 15.82 3.41 5.75.74 10.94.88 15.35.75a139.12 139.12 0 0 0-3.12 8.57c-1.16 3.55-2.09 6.94-2.86 10.13-.48 2.02-1.59 6.96-2.85 18.31-.57 5.17-.9 12.43-1.33 20.27-4.51.1-8.42-.1-12.92 0s-9.92-.1-14.43 0c2.02-7.16 3.72-15.19 5.04-24.25.98-6.69 1.54-12.97 1.81-18.75-.05-3.84-.13-7.73-.26-11.69Z" fill="#ff7556"/><path d="M105.83 106.04c-.07-2.25-.16-4.5-.26-6.75l-.57.43a98.05 98.05 0 0 0 31.29 4.17l-.43-.57c-2.76 6.87-5.08 14.01-6.54 21.28-1.34 6.68-2.19 13.51-2.71 20.3-.4 5.27-.63 10.55-.92 15.82l.45-.45c-9.11.18-18.24-.18-27.35 0l.43.57c2.45-8.74 4.18-17.68 5.38-26.67.6-4.46 1.04-8.94 1.32-13.43.31-4.88.06-9.8-.09-14.69-.02-.58-.92-.58-.9 0 .15 4.74.41 9.52.12 14.26s-.75 9.43-1.38 14.11c-1.2 8.83-2.91 17.61-5.32 26.19-.08.28.14.58.43.57 9.11-.18 18.24.18 27.35 0 .25 0 .44-.2.45-.45.77-14.03 1.37-28.21 5.02-41.85 1.39-5.2 3.11-10.31 5.11-15.3.11-.27-.17-.58-.43-.57-10.5.3-20.99-1.09-31.05-4.14-.27-.08-.58.15-.57.43.1 2.25.19 4.5.26 6.75.02.58.92.58.9 0Z"/></svg>