<svg viewBox="0 0 223 236.03" xmlns="http://www.w3.org/2000/svg" xmlns:xlink="http://www.w3.org/1999/xlink"><clipPath id="a"><path d="m0 0h223v236.03h-223z"/></clipPath><g clip-path="url(#a)"><g fill="#ff5600"><path d="m199.06 116.07c-1.84.04-3.64-.34-5.27-1.22-1.49-.81-2.58-2-3.78-3.17-1.12-1.08-2.33-1.93-3.85-2.34-1.6-.44-3.29-.46-4.79-1.24-4.68-2.42-6.29-8.34-11.18-10.57-.87-.4-1.64.9-.76 1.3 5.04 2.3 6.65 8.6 11.74 10.83 1.54.67 3.21.71 4.8 1.19 1.78.53 2.93 1.88 4.22 3.14 2.41 2.35 5.48 3.66 8.87 3.59.97-.02.97-1.52 0-1.5z"/><path d="m186.6 109.51c.2-1.15.02-2.35-.65-3.34s-1.97-1.44-2.49-2.53c-1.08-2.23 1.87-4.1.92-6.38-.16-.38-.5-.64-.92-.53-.35.09-.68.55-.53.92.42 1-.33 1.99-.72 2.88-.46 1.03-.67 2.1-.32 3.2s1.15 1.78 2.07 2.49 1.39 1.75 1.19 2.87c-.17.95 1.28 1.35 1.45.4zm-.17 25.67c2.02 1.75 4.23 3.6 7.03 3.74s4.43-1.47 5.65-3.81c.76-1.46 1.63-2.39 3.27-2.78 1.33-.31 2.71-.31 4.05-.55 1.43-.26 2.67-1.03 4.07-1.33 1.75-.38 3.31.92 4.74 1.77.84.49 1.59-.81.76-1.3-1.17-.69-2.36-1.59-3.69-1.94s-2.59.08-3.81.58c-1.37.55-2.67.83-4.14.98-1.21.13-2.45.24-3.58.72s-1.91 1.24-2.53 2.25c-.72 1.2-1.14 2.69-2.43 3.42-2.99 1.69-6.2-.98-8.34-2.83-.73-.63-1.8.43-1.06 1.06z"/><path d="m209.39 130.02c.97 0 .97-1.5 0-1.5s-.97 1.5 0 1.5z"/><path d="m210 129.72c.28-1.06.56-2.15 1.18-3.07.59-.87 1.52-1.44 2.28-2.14 1.3-1.2 2.33-3.59.69-4.99-.73-.63-1.8.43-1.06 1.06.52.45.45 1.16.19 1.74-.36.82-1.16 1.37-1.83 1.92-.76.62-1.43 1.31-1.89 2.19s-.75 1.9-1.01 2.89 1.2 1.34 1.45.4zm-34.57 9.24c-4.89-.18-7.99-5.1-12.54-6.39-1.4-.4-2.85-.36-4.29-.35-1.83.01-3.42-.23-5.04-1.12-2.81-1.55-5.26-3.77-7.21-6.31-.58-.76-1.89 0-1.3.76 1.91 2.47 4.17 4.62 6.82 6.29 1.35.85 2.8 1.55 4.39 1.77 1.85.26 3.75-.11 5.59.25 5.1 1 8.14 6.39 13.58 6.6.97.04.97-1.47 0-1.5z"/><path d="m153.84 131.96c.17-1.13-.18-2.08-.76-3.04-.54-.9-1.41-1.89-1.31-3.02.07-.75.48-1.45.76-2.13s.53-1.42.72-2.16c.38-1.54.52-3.13.44-4.72-.05-.96-1.56-.97-1.5 0 .08 1.55-.05 3.08-.45 4.58-.38 1.41-1.25 2.72-1.44 4.17-.14 1.12.3 2.12.87 3.05.5.82 1.38 1.82 1.22 2.86-.15.95 1.3 1.35 1.45.4zm12.05 2.15c-1.79-.34-3.6-.12-5.22.71-1.52.78-2.56 2.12-3.79 3.25-.63.59-1.33 1.08-2.17 1.31-.96.27-1.97.26-2.96.32-1.13.07-3.94.35-3 2.19.44.86 1.74.1 1.3-.76.17.33-.09.21.24.23.19.01.43-.08.62-.1.42-.05.84-.06 1.25-.09.71-.03 1.43-.07 2.14-.18 1.42-.23 2.59-.9 3.64-1.87s1.85-2.04 3.02-2.76a6.413 6.413 0 0 1 4.53-.82c.95.18 1.35-1.27.4-1.45zm-11.91 28.24c-2.2.42-3.87 2.27-6.2 2.1-1.26-.09-2.44-.25-3.7-.06s-2.36.58-3.44 1.16c-.85.46-.09 1.76.76 1.3 1.1-.59 2.32-.97 3.57-1.06 1.19-.08 2.35.23 3.53.18 2.19-.1 3.79-1.77 5.88-2.17.95-.18.55-1.63-.4-1.45zm-4.82 10.65c3.24.6 3 5 3.41 7.44a9.531 9.531 0 0 0 4.67 6.74c.84.48 1.6-.82.76-1.3a8.007 8.007 0 0 1 -3.02-3.01c-.84-1.47-1.01-3.09-1.19-4.75-.29-2.64-1.17-6.01-4.23-6.57-.95-.18-1.35 1.27-.4 1.45zm-8.05 25.38c-1.36.33-2.73.56-4.09.86s-2.52.96-3.57 1.81c-.32.26-.27.8 0 1.06.31.31.75.26 1.06 0 .91-.74 1.9-1.22 3.04-1.45 1.32-.27 2.65-.52 3.97-.84.94-.23.54-1.68-.4-1.45zm-3.61 10.53c.79.5 1.68.54 2.54.82.71.23 1.27.71 1.69 1.32.92 1.34 1.31 2.96 1.94 4.44 1.44 3.36 4.32 5.93 7.76 7.11.92.31 1.31-1.14.4-1.45-3.46-1.19-5.92-3.89-7.19-7.26-.54-1.44-1.04-2.96-2.04-4.16-.48-.58-1.1-1.04-1.8-1.32-.83-.33-1.78-.31-2.55-.8-.82-.52-1.57.78-.76 1.3z"/><path d="m145.92 218.75c.97 0 .97-1.5 0-1.5s-.97 1.5 0 1.5z"/><path d="m145.39 217.7a4.545 4.545 0 0 0 -.45 3.67c.2.62.52 1.16.95 1.64.33.38.94.82.97 1.37s-.48 1.11-.77 1.54c-.34.5-.58 1.01-.63 1.62-.09 1.08.47 2.09 1.61 2.18.96.08.96-1.43 0-1.5-.12 0-.12-.41-.12-.49 0-.41.21-.71.44-1.05.6-.88 1.24-1.85.86-2.96-.33-.98-1.29-1.5-1.72-2.4s-.36-1.99.16-2.85-.8-1.59-1.3-.76zm6.42-41.27c-1.96 1.08-1.82 3.42-1.89 5.34-.08 2.1-1.66 3.83-1.48 5.96.08.96 1.59.97 1.5 0-.16-1.82 1.18-3.4 1.41-5.18.19-1.47-.38-3.94 1.21-4.82.85-.47.09-1.77-.76-1.3z"/><path d="m167.5-70.47c-1.82 3.05-3.31 6.34-3.97 9.84-.53 2.83-.06 5.77-.71 8.57-.85 3.65-3.88 6.25-5.57 9.49-1.54 2.96-2.31 6.26-2.43 9.59-.24 6.56 1.84 13.79 6.05 18.89 1.56 1.9 3.5 3.4 5.34 5.02 2.25 1.98 4.16 4.21 5.64 6.82 1.7 3 2.58 6.25 3.94 9.38 1.27 2.94 3.4 5.57 5.97 7.47 2.37 1.75 5.16 2.77 7.16 5.02s2.67 4.6 2.89 7.46c.51 6.45 2.66 12.93 6.94 17.9 1.87 2.17 4.17 3.91 6.12 6.01.73.78 1.39 1.58 1.81 2.56.53 1.26.88 2.6 1.31 3.9 1.04 3.15 2.21 6.25 3.42 9.33 1.12 2.85 2.31 5.66 3.53 8.47.66 1.51 1.38 3.03 1.81 4.63 1.2 4.47.59 9.88-1.11 14.09-.92 2.29-2.26 4.2-3.91 6-1.96 2.15-3.79 4.4-5.48 6.77-2.64 3.71-5.13 7.56-7.59 11.39-2.7 4.21-4.27 8.94-7.93 12.48-1.4 1.35-2.95 2.58-4.74 3.37-1.38.61-2.85.88-4.3 1.27-2.99.81-4.84 2.72-6.51 5.26-1.91 2.92-3.52 5.85-6.99 7.08-2.88 1.03-6.02 1.09-8.86 2.23-2.63 1.06-4.42 3.05-5.09 5.83-.39 1.6-.43 3.27-.56 4.91-.18 2.14-.62 4.13-1.57 6.07-3.27 6.67-9.9 11.04-12.61 18.07-1.31 3.41-1.07 6.67-.1 10.13.52 1.83 1.18 3.69 1.24 5.61.08 2.27-.95 3.81-2.28 5.51-.84 1.08-1.7 2.2-2 3.57-.28 1.29.1 2.39.53 3.6 1.03 2.87 1.76 5.92 1.75 8.99 0 3.54-1.28 6.61-3.55 9.31-.62.74.44 1.8 1.06 1.06 1.99-2.36 3.43-5.05 3.85-8.14s-.08-6.39-.95-9.42c-.32-1.12-.79-2.2-1.12-3.32-.58-1.95.61-3.47 1.75-4.93.9-1.15 1.77-2.29 2.18-3.72.47-1.67.29-3.44-.08-5.11-.86-3.87-2.43-7.33-1.3-11.35s3.8-7.25 6.44-10.3c2.28-2.64 4.64-5.29 6.27-8.39 1.72-3.28 1.81-6.54 2.22-10.12.22-1.86.71-3.75 2.14-5.07 1.17-1.08 2.68-1.61 4.19-2 2.83-.73 5.83-.93 8.47-2.28 2.95-1.51 4.52-4.43 6.27-7.09.88-1.34 1.83-2.7 3.2-3.58 1.25-.8 2.72-1.06 4.13-1.42 5.69-1.44 10.4-6.05 12.79-11.33s5.83-9.75 8.95-14.48c2.27-3.43 4.71-6.66 7.48-9.71 3.83-4.22 5.65-9.63 5.73-15.31.05-3.22-.44-6.08-1.7-9.04-2.47-5.82-4.96-11.61-7.04-17.59-.84-2.42-1.34-5.33-2.87-7.44-1.34-1.84-3.15-3.32-4.8-4.86-2.54-2.37-4.7-5.05-6.13-8.24s-2.54-6.51-2.83-10.05c-.19-2.24-.3-4.45-1.28-6.52-1.25-2.65-3.45-4.69-5.94-6.15-2.98-1.75-5.58-3.47-7.58-6.4-1.78-2.61-2.48-5.71-3.71-8.58-1.32-3.08-3.01-5.99-5.29-8.46-1.68-1.82-3.66-3.3-5.48-4.97-2.23-2.05-3.93-4.46-5.17-7.22-3.08-6.84-3.94-15.4-.18-22.16 1.62-2.92 4.17-5.31 5.25-8.53.99-2.94.38-6.08.9-9.1.6-3.52 2.06-6.79 3.88-9.85.5-.83-.8-1.59-1.3-.76z"/></g><g fill="#ff5600"><path d="m23.62 120.44c3.3.07 6.36-1.16 8.73-3.45 1.27-1.23 2.41-2.64 4.15-3.21 1.64-.54 3.4-.54 5-1.25 5.1-2.23 6.71-8.54 11.74-10.83.88-.4.12-1.7-.76-1.3-4.89 2.23-6.49 8.17-11.18 10.57-1.5.77-3.19.81-4.79 1.24-1.45.39-2.63 1.19-3.71 2.21-1.21 1.14-2.27 2.37-3.74 3.2-1.67.95-3.53 1.36-5.45 1.32-.97-.02-.97 1.48 0 1.5z"/><path d="m37.53 111.98c-.19-1.08.27-2.14 1.11-2.81.93-.75 1.77-1.36 2.15-2.55.34-1.06.15-2.12-.28-3.12-.4-.91-1.19-1.94-.76-2.96.16-.38-.17-.82-.53-.92-.43-.12-.77.15-.92.53-.95 2.28 2 4.15.92 6.38-.52 1.06-1.77 1.5-2.45 2.45s-.91 2.22-.7 3.41c.17.95 1.62.55 1.45-.4zm-2.34 25.01c-2.13 1.85-5.1 4.33-8.11 2.93-1.4-.65-1.84-2.12-2.56-3.36-.63-1.08-1.46-1.92-2.62-2.41-2.38-1.02-5.09-.66-7.52-1.62-1.29-.52-2.61-1.03-4.01-.66-1.32.35-2.53 1.25-3.69 1.94-.83.49-.08 1.79.76 1.3 1.34-.79 2.89-2.1 4.54-1.82 1.48.26 2.78 1.12 4.27 1.38 1.34.24 2.72.24 4.05.55 1.65.38 2.52 1.32 3.27 2.78 1.21 2.34 2.83 3.96 5.65 3.81s5-1.99 7.03-3.74c.73-.63-.33-1.69-1.06-1.06z"/><path d="m13.29 132.89c.97 0 .97-1.5 0-1.5s-.97 1.5 0 1.5z"/><path d="m14.13 132.19c-.25-.96-.52-1.93-.97-2.82s-1.15-1.62-1.93-2.26c-.66-.55-1.45-1.09-1.82-1.89-.27-.59-.35-1.32.18-1.77.74-.63-.33-1.69-1.06-1.06-1.63 1.4-.61 3.79.69 4.99.76.7 1.69 1.27 2.28 2.14.62.92.9 2.01 1.18 3.07.25.93 1.7.54 1.45-.4zm33.12 11.14c5.43-.2 8.47-5.61 13.58-6.6 1.84-.36 3.74 0 5.59-.25 1.52-.21 2.91-.86 4.21-1.66 2.72-1.68 5.05-3.88 7-6.41.59-.77-.72-1.52-1.3-.76-1.91 2.48-4.3 4.66-7.02 6.2-1.68.95-3.32 1.24-5.23 1.23-1.45 0-2.88-.04-4.29.35-4.55 1.28-7.64 6.21-12.54 6.39-.96.04-.97 1.54 0 1.5z"/><path d="m70.29 134.43c-.16-1.01.68-1.98 1.17-2.78.59-.96 1.06-1.98.92-3.13-.18-1.41-1.02-2.68-1.4-4.04-.43-1.54-.57-3.11-.49-4.7.05-.97-1.45-.96-1.5 0-.08 1.54.05 3.09.41 4.59.18.74.41 1.46.7 2.16s.74 1.46.81 2.25c.1 1.09-.72 2.06-1.26 2.94-.6.98-.99 1.96-.81 3.12.15.95 1.6.55 1.45-.4zm-13.1 4c1.51-.28 3.09-.03 4.41.75 1.23.72 2.1 1.87 3.13 2.82s2.13 1.61 3.5 1.85c.7.12 1.42.16 2.13.2.42.02.84.04 1.26.08.21.02.42.04.63.08.4.09.19.16.38-.21-.44.86.86 1.62 1.3.76.94-1.84-1.87-2.13-3-2.19-.94-.05-1.91-.04-2.83-.28s-1.63-.73-2.3-1.35c-1.23-1.14-2.27-2.47-3.79-3.25-1.62-.83-3.44-1.05-5.22-.71-.95.18-.55 1.63.4 1.45zm11.11 28.24c2.09.4 3.69 2.07 5.88 2.17 1.18.05 2.34-.26 3.53-.18 1.25.08 2.47.46 3.57 1.06.85.46 1.61-.84.76-1.3-1.08-.58-2.23-.98-3.44-1.16s-2.44-.03-3.7.06c-2.33.17-4-1.68-6.2-2.1-.95-.18-1.35 1.27-.4 1.45zm4.82 7.74c-3.06.57-3.95 3.94-4.23 6.57-.18 1.62-.34 3.21-1.14 4.66a8.022 8.022 0 0 1 -3.07 3.1c-.84.48-.08 1.78.76 1.3 2.5-1.43 4.2-3.9 4.67-6.74.41-2.44.17-6.84 3.41-7.44.95-.18.55-1.63-.4-1.45zm8.05 28.29c1.31.32 2.64.56 3.97.84 1.13.23 2.13.71 3.04 1.45.32.26.75.31 1.06 0 .26-.26.32-.81 0-1.06-1.05-.85-2.24-1.52-3.57-1.81s-2.74-.53-4.09-.86c-.94-.23-1.34 1.22-.4 1.45zm3.25 7.78c-.76.48-1.72.46-2.55.8-.7.28-1.31.74-1.8 1.32-1 1.2-1.5 2.72-2.04 4.16-1.27 3.37-3.73 6.08-7.19 7.26-.91.31-.52 1.76.4 1.45 3.44-1.18 6.32-3.76 7.76-7.11.62-1.45 1.01-3.04 1.9-4.37.41-.61.94-1.12 1.64-1.36.89-.32 1.82-.33 2.64-.85s.06-1.82-.76-1.3z"/><path d="m76.76 221.62c.97 0 .97-1.5 0-1.5s-.97 1.5 0 1.5z"/><path d="m75.99 221.33c.51.84.6 1.87.2 2.78s-1.42 1.47-1.76 2.48c-.37 1.08.23 2.03.81 2.89.23.33.46.64.48 1.06 0 .08.01.54-.12.55-.96.08-.97 1.58 0 1.5 1.14-.09 1.71-1.11 1.61-2.18-.05-.58-.26-1.07-.58-1.55-.3-.45-.86-1.03-.82-1.61.03-.53.6-.94.92-1.31.45-.5.79-1.06 1-1.7.39-1.22.21-2.58-.45-3.67-.5-.83-1.8-.07-1.3.76zm-5.88-40.74c1.6.88 1.02 3.35 1.21 4.82.23 1.78 1.57 3.36 1.41 5.18-.08.96 1.42.96 1.5 0 .18-2.13-1.39-3.87-1.48-5.96-.08-1.92.07-4.26-1.89-5.34-.85-.47-1.61.83-.76 1.3z"/><path d="m53.88-66.84c1.88 3.15 3.39 6.55 3.94 10.2.45 2.99-.13 6.06.92 8.96 1.18 3.27 3.81 5.7 5.4 8.74 1.8 3.45 2.42 7.4 2.2 11.25-.38 6.66-3.02 13.4-8.02 17.92-1.8 1.63-3.73 3.09-5.36 4.89-2.26 2.49-3.94 5.41-5.24 8.5-1.22 2.9-1.94 5.98-3.76 8.59-2.07 2.96-4.75 4.58-7.76 6.39-2.46 1.49-4.6 3.62-5.77 6.28-.92 2.09-.96 4.32-1.17 6.56-.63 7-4.1 13.48-9.21 18.21-2.31 2.14-4.7 4.1-5.76 7.13-1.84 5.26-3.61 10.5-5.74 15.66-1.47 3.56-3.65 7.24-4.31 11.07-.85 4.93-.23 10.35 1.86 14.88.92 2 2.16 3.71 3.63 5.33 1.97 2.17 3.83 4.4 5.52 6.8 2.66 3.76 5.2 7.66 7.68 11.55 1.26 1.97 2.32 3.97 3.3 6.09 1.04 2.26 2.59 4.3 4.33 6.06 2.47 2.49 5.27 4.19 8.67 5.02 1.24.31 2.51.57 3.62 1.24 1.58.95 2.63 2.53 3.61 4.05 1.72 2.68 3.37 5.48 6.37 6.88 2.62 1.22 5.54 1.42 8.31 2.16 1.44.38 2.89.92 4 1.95 1.55 1.44 1.99 3.52 2.19 5.54.35 3.51.58 6.68 2.29 9.86 3.6 6.69 10.86 11.31 12.72 18.95.98 4.02-.78 7.49-1.53 11.35-.29 1.53-.41 3.12.02 4.63s1.46 2.79 2.44 4.05c1.06 1.36 2.01 2.81 1.48 4.59-.35 1.17-.83 2.29-1.16 3.46-.88 3.15-1.37 6.53-.83 9.78.47 2.88 1.91 5.42 3.77 7.63.62.74 1.68-.33 1.06-1.06-2.4-2.85-3.64-6.08-3.55-9.81.07-2.9.77-5.77 1.75-8.49.43-1.21.81-2.3.53-3.6-.33-1.51-1.33-2.72-2.26-3.91-1.23-1.57-2.1-3.11-2.02-5.18.08-1.92.73-3.77 1.24-5.61 1.03-3.65 1.18-7.04-.29-10.59-1.38-3.34-3.67-6.2-6.01-8.91s-5.04-5.69-6.62-9.13-1.05-7.17-1.98-10.77c-1.75-6.71-8.84-5.96-14.08-7.91-3.52-1.31-5.08-4.46-7.06-7.39-1.65-2.46-3.53-4.15-6.42-4.93-1.28-.34-2.58-.59-3.82-1.09-2.06-.84-3.84-2.28-5.39-3.84-2.01-2.03-3.4-4.27-4.59-6.84-2.34-5.06-5.87-9.54-8.91-14.18-2.2-3.35-4.63-6.5-7.33-9.47-3.97-4.37-5.57-10.05-5.35-15.89.12-3.29 1.13-5.94 2.43-8.93 2.54-5.83 4.93-11.74 6.92-17.78.84-2.53 1.42-4.53 3.29-6.48 1.99-2.08 4.28-3.84 6.13-6.06 2.29-2.75 3.77-5.93 5.03-9.26 1.04-2.76 1.41-5.55 1.64-8.46s1.09-5.44 3.18-7.63 4.74-3.1 7.03-4.82c2.56-1.93 4.63-4.58 5.88-7.52 1.34-3.16 2.26-6.41 3.99-9.42 1.52-2.63 3.48-4.84 5.76-6.82 1.81-1.57 3.68-3.07 5.2-4.94 2.02-2.49 3.41-5.43 4.41-8.46 2.16-6.57 2.29-14.14-1.13-20.31-1.7-3.06-4.53-5.57-5.35-9.07-.68-2.91-.18-5.98-.79-8.93-.69-3.37-2.14-6.53-3.9-9.48-.5-.83-1.8-.07-1.3.76z"/></g><path d="m186.94 63.82c0-.23-2.69-.47-6.65-.63 3.92-.86 6.56-1.58 6.52-1.81-.05-.23-2.88.1-6.98.79 3.85-1.62 6.46-2.87 6.37-3.09s-2.79.62-6.66 2.04c3.41-2.31 5.67-4.01 5.54-4.21-.13-.21-2.82 1.27-6.56 3.56 3.09-3.13 5.14-5.42 4.97-5.6-.17-.17-2.44 1.74-5.58 4.66 2.27-3.53 3.71-6.03 3.51-6.17-.19-.13-1.88 2-4.19 5.24 1.51-3.73 2.42-6.32 2.2-6.42-.22-.09-1.54 2.42-3.27 6.16.77-4.03 1.17-6.83.94-6.88-.24-.05-1.07 2.79-2.07 6.94-.04-4.3-.2-7.29-.45-7.29s-.51 3.12-.67 7.59c-.93-4.34-1.73-7.34-1.98-7.29-.22.04.08 2.66.71 6.49-1.53-3.59-2.68-5.98-2.89-5.9-.22.09.65 2.87 2.1 6.82-2.35-3.46-4.08-5.78-4.28-5.65s1.18 2.65 3.35 6.21c-3-2.94-5.16-4.87-5.33-4.7-.18.17 1.76 2.46 4.69 5.61-3.62-2.33-6.21-3.83-6.35-3.63-.13.19 1.93 1.82 5.07 4.07-3.58-1.45-6.06-2.31-6.15-2.1-.1.22 2.54 1.6 6.43 3.4-4.2-.81-7.13-1.23-7.18-.99-.05.23 2.64 1.03 6.62 1.99-4.11.04-6.94.21-6.94.44 0 .25 3.23.52 7.83.67-4.45.95-7.56 1.77-7.51 2.02.04.23 2.67-.08 6.5-.71-3.55 1.51-5.9 2.65-5.82 2.86.09.23 2.9-.66 6.88-2.12-3.52 2.38-5.87 4.14-5.74 4.35.13.2 2.56-1.12 6.01-3.22-2.82 2.88-4.65 4.94-4.48 5.11s2.44-1.74 5.58-4.65c-2.37 3.67-3.9 6.31-3.69 6.45.19.13 1.92-2.05 4.27-5.36-1.51 3.72-2.42 6.31-2.2 6.41s1.58-2.51 3.36-6.35c-.81 4.18-1.23 7.1-.99 7.15.23.05 1.04-2.7 2.02-6.74.04 4.12.21 6.95.44 6.96.24 0 .48-2.8.64-6.89.88 4.03 1.62 6.77 1.85 6.73.23-.05-.11-2.89-.8-6.99 1.61 3.81 2.84 6.38 3.06 6.29s-.63-2.82-2.06-6.72c2.34 3.46 4.08 5.77 4.28 5.64s-1.21-2.72-3.44-6.36c3.02 2.96 5.2 4.91 5.37 4.74s-1.73-2.42-4.62-5.54c3.58 2.3 6.13 3.78 6.27 3.58.13-.2-2.13-1.98-5.53-4.4 3.87 1.57 6.58 2.53 6.68 2.31.09-.22-2.39-1.52-6.09-3.24 4.02.77 6.8 1.16 6.85.93.05-.24-2.84-1.08-7.06-2.1 4.31-.04 7.3-.2 7.31-.45z"/><path d="m120.64 80.29c0-.27-3.52-.55-8.71-.74 5.13-1.01 8.59-1.85 8.53-2.12s-3.78.12-9.13.93c5.04-1.9 8.45-3.36 8.34-3.62s-3.65.73-8.72 2.39c4.46-2.71 7.43-4.7 7.26-4.94s-3.69 1.49-8.59 4.17c4.04-3.67 6.73-6.35 6.5-6.56-.22-.2-3.2 2.04-7.3 5.46 2.96-4.13 4.86-7.07 4.6-7.23-.25-.15-2.46 2.34-5.48 6.14 1.98-4.37 3.17-7.41 2.89-7.52-.29-.11-2.01 2.83-4.28 7.22 1.01-4.73 1.53-8 1.23-8.06-.31-.06-1.4 3.27-2.71 8.13-.05-5.04-.27-8.54-.59-8.54-.33 0-.67 3.66-.87 8.89-1.22-5.08-2.27-8.6-2.59-8.55-.29.05.1 3.12.93 7.6-2-4.21-3.51-7.01-3.79-6.91-.29.1.85 3.36 2.75 7.99-3.07-4.06-5.34-6.77-5.61-6.61-.26.15 1.54 3.11 4.38 7.27-3.92-3.45-6.76-5.71-6.98-5.51-.23.2 2.3 2.88 6.14 6.58-4.74-2.73-8.13-4.49-8.31-4.25-.17.22 2.52 2.13 6.63 4.76-4.69-1.69-7.93-2.7-8.05-2.46-.13.26 3.32 1.87 8.41 3.98-5.49-.95-9.33-1.44-9.4-1.17s3.46 1.2 8.66 2.33c-5.38.05-9.08.24-9.09.52 0 .3 4.23.61 10.25.79-5.83 1.12-9.89 2.08-9.83 2.37.06.26 3.49-.09 8.51-.84-4.64 1.77-7.72 3.1-7.61 3.35.12.26 3.79-.77 9.01-2.48-4.6 2.79-7.69 4.85-7.51 5.09.17.23 3.35-1.32 7.86-3.78-3.69 3.37-6.08 5.79-5.87 5.98.22.2 3.19-2.04 7.3-5.45-3.1 4.3-5.1 7.39-4.83 7.56.26.15 2.51-2.4 5.59-6.28-1.97 4.36-3.16 7.4-2.88 7.51.29.11 2.07-2.94 4.4-7.44-1.06 4.9-1.61 8.32-1.3 8.38s1.36-3.16 2.64-7.89c.05 4.83.27 8.15.58 8.15s.63-3.28.84-8.07c1.15 4.72 2.12 7.93 2.42 7.88.31-.05-.14-3.39-1.04-8.19 2.1 4.46 3.72 7.47 4.01 7.37s-.83-3.3-2.7-7.87c3.07 4.05 5.34 6.76 5.6 6.61.27-.15-1.59-3.19-4.5-7.45 3.95 3.47 6.8 5.75 7.03 5.55s-2.26-2.84-6.05-6.49c4.68 2.7 8.03 4.42 8.2 4.19.18-.23-2.79-2.32-7.24-5.15 5.06 1.84 8.62 2.96 8.74 2.71s-3.12-1.78-7.97-3.79c5.26.9 8.9 1.36 8.97 1.09.07-.28-3.72-1.27-9.24-2.46 5.64-.04 9.56-.24 9.56-.52z" fill="#ff5600"/><path d="m148.24 77.53c1.14.37 2.39.08 3.25-.75l-.73-.3c.02.27.16.53.3.76.26.42.59.81.96 1.15.43.4.92.75 1.4 1.08.28.2.6.42.96.42l-.3-.73c-.8.72-1.25 1.72-1.31 2.79-.03.55.82.55.85 0 .05-.85.44-1.62 1.06-2.19.28-.25.06-.73-.3-.73h.01c-.03 0-.05-.01-.08-.02.04.02-.07-.04-.08-.04-.14-.08-.28-.17-.41-.27-.41-.29-.82-.59-1.19-.93-.29-.27-.56-.56-.77-.89-.07-.11-.14-.23-.2-.35-.01-.02-.05-.2-.04-.06-.03-.36-.45-.57-.73-.3-.65.62-1.57.8-2.43.53-.52-.17-.75.65-.23.82z"/><path d="m155.06 63.73c-1.38.29-2.66.88-3.92 1.51-.62.31-1.23.62-1.86.9-.48.21-1.08.32-1.21.9-.15.69-.04 1.53-.05 2.24-.01.85-.03 1.7-.04 2.55l-.09 5.1c0 .55.84.55.85 0 .05-2.98.1-5.95.16-8.93 0-.16-.02-.35 0-.51.04-.26-.01-.21.2-.36.22-.15.55-.24.8-.35.56-.26 1.11-.53 1.66-.81 1.2-.59 2.4-1.14 3.71-1.42.54-.11.31-.94-.23-.82z"/><path d="m158.6 58.93c-4.48 1.03-8.97 2.05-13.45 3.08-1.35.31-3.67.29-3.94 2.03-.31 2-.07 4.23-.06 6.25.02 2.33.07 4.66.15 6.99.04 1.2.04 2.27-.48 3.38-.42.89-1.01 1.7-1.51 2.55-1.05 1.74-2.3 3.62-2.99 5.53-.56 1.56 1.01 3 1.82 4.2 1.12 1.65 2.15 3.65 3.78 4.87 1.53 1.15 3.49 1.59 4.72 3.13.17.21.56.14.67-.09 2.04-4.06 4.55-7.84 7.51-11.29.36-.41-.24-1.02-.6-.6a56.55 56.55 0 0 0 -7.65 11.46l.67-.09c-1.13-1.42-2.83-1.94-4.32-2.88-2.11-1.33-3.37-3.96-4.73-5.98-.3-.45-.84-1-1.01-1.51-.29-.87.32-1.72.7-2.44.58-1.11 1.18-2.21 1.82-3.29 1.02-1.74 2.38-3.39 2.5-5.48.14-2.55-.14-5.17-.17-7.73-.01-1.33-.02-2.66-.01-4 0-.65-.06-1.35.02-2-.07-.59.13-1.12.59-1.57.28-.08.56-.14.84-.2 5.12-1.21 10.25-2.34 15.37-3.52.53-.12.31-.94-.23-.82z"/><path d="m152.96 82.29c1.08 1.25 2.68 1.5 4.26 1.51 2.53.01 5.07-.15 7.6-.12 5.4.07 10.79.52 16.13 1.32l-.31-.41-.6 4.57.43-.43c-4.82-.02-9.65-.12-14.47-.03-3.8.08-7.62.18-11.42.08-.55-.01-.55.84 0 .85 3.8.1 7.62 0 11.42-.08 4.82-.1 9.65 0 14.47.03.25 0 .4-.2.43-.43l.6-4.57c.02-.17-.15-.39-.31-.41a119.804 119.804 0 0 0 -21.71-1.31c-1.96.06-4.47.47-5.9-1.19-.36-.42-.96.19-.6.6zm-46.82-1.13c3.12-.92 6.24-1.15 9.41-1.72 2.81-.51 5.79-1.41 8.66-1.42.62 0 1.06.13 1.58.48 1.57 1.04 2.92 2.64 4.11 4.09 2.17 2.64 3.74 5.59 6.46 7.74.43.34 1.03-.26.6-.6-2.82-2.24-4.43-5.37-6.74-8.07-1.24-1.45-2.63-3.17-4.33-4.09-.46-.25-.92-.37-1.44-.39-.93-.04-1.89.15-2.8.3-1.92.31-3.83.69-5.74 1.04-3.37.62-6.71.86-10.02 1.83-.53.15-.3.98.23.82z"/><path d="m105.6 80.75c-.04 1.76-.19 3.58-.08 5.34.07 1.13.53 1.56 1.66 1.43 2.04-.25 4.06-.69 6.11-.89s4.19-.33 6.28-.35c1.06-.01 2.4-.26 3.05.79.15.25.24.55.36.81.34.72.76 1.4 1.18 2.08 1.2 1.94 2.5 3.82 3.81 5.68 1.21 1.71 2.44 3.41 3.72 5.07.34.45.7.88 1.06 1.32.46.55.78.81.6 1.73s-.74 1.92-1.05 2.84a63.323 63.323 0 0 0 -2.78 11.35c-.36 2.43-.99 5.17 0 7.52 1.2 2.86 4.28 4.51 6.81 6.02 3.38 2.01 6.84 3.88 10.36 5.62.19.09.48.07.58-.15.88-1.93 1.76-3.87 2.64-5.8.23-.5-.51-.93-.74-.43-.88 1.93-1.76 3.87-2.64 5.8l.58-.15c-3.2-1.59-6.36-3.28-9.44-5.08-2.46-1.44-5.53-2.92-7.02-5.46s-.61-5.89-.17-8.58c.61-3.7 1.54-7.34 2.79-10.87.41-1.16 1.34-2.58.86-3.85-.24-.62-.78-1.09-1.19-1.6-1.19-1.47-2.29-3.01-3.39-4.54-2.2-3.08-4.39-6.17-6.09-9.55-.71-1.42-1.97-1.42-3.4-1.42-2.1 0-4.2.11-6.29.31-1 .09-2 .21-3 .35s-2.31.59-3.35.53l-.48.09c-.5-.23-.69-.59-.58-1.06-.09-.55.02-1.22.03-1.77.01-1.04.02-2.07.05-3.1.01-.55-.84-.55-.85 0z"/><path d="m146.72 100.1c-.04 2.17-.7 4.27-1.99 6.02-.97 1.32-2.48 2.08-3.4 3.44s-1.47 3.13-2.09 4.66c-.73 1.8-1.44 3.7-1.68 5.64-.3 2.37.87 3.96 2.74 5.27 2.97 2.07 5.97 4.11 8.97 6.14.46.31.88-.43.43-.74-2.9-1.96-5.79-3.92-8.66-5.92-.92-.64-1.84-1.25-2.34-2.3-.65-1.38-.27-2.88.12-4.28.56-2.03 1.39-3.97 2.21-5.91.63-1.48 1.22-2.58 2.51-3.61 2.57-2.04 3.96-5.15 4.02-8.42 0-.55-.84-.55-.85 0zm12.21-36.94v.04c.13-.1.26-.21.4-.31l.25.13.04.33.02-.05-.3.3s.74.5.88.57c.35.2.71.37 1.08.53s.73.29 1.1.41c.34.11.73.25 1.07.09.62-.29.53-1.08.12-1.5-.25-.26-.59-.46-.89-.67-.37-.26-.74-.53-1.11-.79l-.22.79c1.91.04 3.81.08 5.72.13.29 0 .47-.28.41-.54-.19-.9-1.04-1.41-1.89-1.56-1.16-.2-2.32.34-3.46.03l-.11.84c1.12-.02 2.24-.12 3.34-.32.68-.12 2.1-.31 1.95-1.31-.14-.92-1.52-.9-2.21-.92-1.06-.03-2.12.15-3.12.51-.53.19-.31.9.23.82.97-.14 1.95-.29 2.91-.53.45-.11 1.16-.26 1.29-.8.09-.37-.17-.87-.55-.95-.48-.1-1.05-.04-1.53-.01-1.04.07-2.07.29-3.05.64-.51.19-.3 1 .23.82.78-.26 1.55-.54 2.31-.87.56-.24 1.44-.77.81-1.45-.1-.11-.23-.2-.36-.26-.25-.12-.41-.03-.66.06-.53.21-1.06.42-1.59.62-1.08.43-2.17.85-3.25 1.28-.5.2-.29 1.02.23.82 1.72-.67 3.43-1.35 5.15-2.02l-.33-.04s.09.04.13.07c.08.08.11.04.07-.12-.08 0-.28.16-.36.19-.16.08-.33.15-.49.21-.61.25-1.23.47-1.86.68l.23.82c1.38-.5 2.83-.71 4.3-.61l-.3-.12c.19.2.02.06.09 0 .06-.06 0-.02 0-.02s-.12.05-.16.07c-.31.13-.65.19-.97.25-.82.17-1.65.31-2.48.43l.23.82c.75-.27 1.52-.44 2.31-.48.34-.02.68 0 1.02.02.09 0 .92.05.94.17.02.19-1.77.44-1.95.46-.83.12-1.66.18-2.5.19-.48 0-.59.71-.11.84 1.03.27 2.01-.05 3.04-.06.68 0 1.57.23 1.73.99l.41-.54c-1.91-.04-3.81-.08-5.72-.13-.45 0-.54.56-.22.79s.66.47.99.7c.26.18.71.39.88.66.1.17-.09.04-.2.01-.18-.05-.36-.11-.54-.18-.39-.14-.77-.3-1.14-.48-.34-.17-.67-.35-.99-.56-.27-.17-.56-.45-.9-.41-.67.08-.58.99.06 1.01.18 0 .37-.14.41-.31v-.04c.14-.53-.68-.76-.81-.23zm22.1 22.37c1.5.32 2.28-1.19 3.22-2.08.14-.13.39-.42.59-.47.12-.03-.04 0-.05-.02.12.28-.12.35-.31.49-.61.47-.99 1.04-1.28 1.75-.13.33.24.58.52.52 1.81-.36 3.51-.84 5.22-1.51.22-.08.46-.16.69-.17.13 0 .26 0 .38.05.08.03.25.19.25.06 0-.14-.07.02-.15.06s-.15.09-.23.13c-.29.15-.6.27-.91.39-1.04.4-2.11.72-3.18 1-.45.11-.37.9.11.84 1.18-.16 2.36-.31 3.54-.47l1.77-.24.44-.06c.06-.08.11-.08.18 0-.04.07-.23.1-.31.13-.91.29-1.89.4-2.82.61-.71.16-1.41.35-2.11.57-.47.15-.36.81.11.84.86.06 1.71.07 2.57.03.27-.01 2.21-.31 2.24.03.05.44-1.72.28-1.95.28h-2.86c-.48 0-.58.71-.11.84.29.08 3.1.76 3.07 1.06-.02.25-2.2-.47-2.36-.51-1.03-.31-2.06-.59-3.14-.67s-2.17-.26-3.22-.65c-.52-.19-.74.63-.23.82.68.25 1.38.44 2.09.55.66.1 1.33.1 1.99.2 1.43.21 2.75.83 4.15 1.11.4.08.81.1 1.15-.15.36-.26.54-.76.28-1.16-.29-.43-.93-.59-1.38-.75-.72-.25-1.45-.47-2.19-.66l-.11.84c1.26 0 2.52-.01 3.78 0 .77 0 1.89-.11 1.9-1.12 0-1.08-1.23-1.05-1.99-.99-1.23.1-2.45.14-3.69.06l.11.84c.98-.31 1.97-.55 2.97-.75.65-.13 1.32-.23 1.96-.43.35-.11.77-.27.91-.64s-.03-.75-.32-.99c-.47-.37-1.13-.12-1.68-.05l-4.76.63.11.84c1.38-.35 2.78-.77 4.08-1.37.37-.17.88-.42.99-.86.11-.47-.3-.82-.69-.98-1-.41-1.95.21-2.87.54-1.31.46-2.68.76-4.05 1.02l.52.52c.17-.43.41-.83.76-1.14.33-.29.81-.49.93-.96.15-.6-.39-1.32-1.03-1.2-.57.11-1.08.72-1.46 1.12-.5.52-1.13 1.64-1.98 1.45-.53-.12-.76.71-.23.82zm-75.6-3.76c-.56.07-1.12.15-1.68.2s-.95-.03-1.27-.52c-.3-.45-.52-.96-.67-1.48s-.18-1.05-.4-1.54c-.67-1.56-2.56-1.92-4.08-1.91-.18 0-.37.13-.41.31-.33 1.46-.1 2.92.22 4.36.35 1.55.72 3.1 1.07 4.66.1.45.11 1.39.63 1.58.26.09.58 0 .84-.03l1.17-.13c1.62-.18 3.25-.36 4.87-.55.54-.06.55-.91 0-.85l-3.41.38-1.66.19-.78.09c-.2.02-.61.15-.81.08l.25.2c-.18-.24-.22-.88-.29-1.18-.09-.38-.18-.76-.26-1.15-.19-.83-.38-1.66-.57-2.48-.37-1.61-.84-3.28-.46-4.94l-.41.31c.82 0 1.7.07 2.44.48.96.54.96 1.47 1.24 2.42.24.8.65 1.85 1.39 2.31.84.53 2.12.14 3.03.03.54-.06.54-.92 0-.85z"/><path d="m147.53 135.54c.54.39 1.05.83 1.52 1.31.23.24.52.51.7.79.29.47.12.78-.12 1.22-.18.33-.36.66-.55.98-.05.09-.16.35-.24.39-.16.09-.35-.01-.51-.04-.53-.07-1.01-.06-1.51.15-.88.36-1.58 1.18-1.71 2.13-.15 1.11.53 1.71 1.6 1.72 1.47.01 2.96-.11 4.43-.17.61-.02 1.39.07 1.99-.11.51-.16.73-.79.96-1.21.72-1.27 1.48-2.52 2.16-3.81.55-1.04.95-2.26.45-3.41-.53-1.22-1.81-1.42-2.93-1.83-1.53-.56-2.84-1.58-4.11-2.58-.43-.33-1.03.26-.6.6.92.72 1.84 1.45 2.86 2.03s1.99.79 3 1.22c1.34.57 1.32 1.95.78 3.12s-1.29 2.33-1.94 3.48c-.25.43-.57 1.38-1.04 1.57-.25.1-.71.03-.98.04-.37.01-.73.03-1.1.04-1.31.05-2.64.16-3.95.15-1.55-.02-.41-1.83.39-2.19.86-.38 1.89.38 2.51-.54.37-.55.72-1.19 1-1.79.22-.47.28-.95.01-1.42-.61-1.04-1.7-1.91-2.67-2.61-.45-.32-.87.42-.43.74z"/><path d="m153.38 66.14c-2.2 2.89-2.3 6.07-2.3 6.86 0 1.59-.02 4.02 1.7 5.48 2.38 2.03 6.12.57 6.57.4 2.54-.99 3.86-2.98 4.64-4.19 2.34-3.64 4.55-10.53 1.68-12.9-2.74-2.27-9.22.31-12.29 4.36z" fill="none" stroke="#000" stroke-miterlimit="10" stroke-width=".85"/><path d="m158.39 63.25c.23 2.2.94 4.95 1.66 7.76 1.72 6.71 3.08 7.2 3.58 7.31 1.67.37 3.61-1.32 4.53-2.63.67-.96.77-1.68 1.44-4.32.52-2.05 1-3.7 1.33-4.79-1.92-1.94-3.37-3.54-4.35-4.66-1-1.14-1.53-1.79-2.55-2.36-.22-.12-3.07-1.66-4.62-.67-1.03.65-1.23 2.25-1.01 4.35" fill="#ebe1ce" stroke="#ff5600" stroke-miterlimit="10" stroke-width=".28"/><path d="m169.31 67.53c.03.08.21.09.28.09.37 0 .84-.12 1.82-.99.92-.82.89-1.03.86-1.11-.06-.2-.32-.3-.52-.35-.28-.04-.67-.05-.92.18-.32.29-.1.66-.38 1.17-.38.67-1.21.85-1.15 1.02z" fill="#ff5600"/><path d="m168.9 66.53c-.48.82-.54 1.86-.18 2.74.05.11.17.25.27.17m-5.97-8.25-.61-.16c-.4-.1-.83-.2-1.2-.03-.35.17-.55.55-.6.94s.03.77.12 1.15c.26 1.12.57 2.22 1.04 3.27" fill="none" stroke="#ff5600" stroke-miterlimit="10" stroke-width=".28"/><path d="m147.89 77.06a69.82 69.82 0 0 0 -1.48 6.4c-.06.34.19.57.52.52 2.17-.32 4.26-1.08 6.44-1.3.54-.06.55-.91 0-.85-2.27.23-4.42 1-6.67 1.33l.52.52c.39-2.16.88-4.29 1.48-6.4.15-.53-.67-.75-.82-.23zm-31.44-1.34c3.21-1.84 7.06-2.92 10.74-2.09 3.13.7 5.89 2.7 7.24 5.64.4.88 1.7.12 1.3-.76-1.5-3.27-4.66-5.55-8.13-6.33-4.09-.92-8.33.19-11.9 2.24-.84.48-.08 1.78.76 1.3z"/><path d="m114.75 71.58 6.27-2.13c1.93-.65 4.01-1.65 6.08-1.59 3.59.1 6.3 3.32 8.41 5.86.62.74 1.68-.32 1.06-1.06-2.3-2.75-5.07-5.81-8.85-6.25-2.19-.25-4.29.64-6.33 1.33-2.35.8-4.71 1.59-7.06 2.39-.91.31-.52 1.76.4 1.45zm10.03 45.23c-1.82 3.08-2.32 6.93-.97 10.28 1.46 3.66 4.69 6.26 8.44 7.32.93.26 1.33-1.19.4-1.45-3.29-.93-6.24-3.22-7.48-6.48-1.12-2.94-.68-6.23.9-8.91.49-.83-.81-1.59-1.3-.76zm57-34.2c1.38-1.35 2.86-2.59 4.24-3.94.28-.27.3-.79 0-1.06s-.76-.29-1.06 0c-1.38 1.35-2.86 2.59-4.24 3.94-.28.27-.3.79 0 1.06s.76.29 1.06 0zm-1.08 9.67c2.29.85 4.53 1.76 6.67 2.94.85.47 1.61-.83.76-1.3-2.25-1.24-4.62-2.2-7.03-3.09-.38-.14-.82.16-.92.53-.12.42.14.78.53.92zm-121.89-43.38c-1 .25-2.04-.05-2.74-.82-.18-.2-.6-.12-.65.17-.02.14-.18.37-.31.55-.26.35-.58.67-.92.94-.43.35-.91.65-1.38.94-.22.13-.57.39-.78.37-.35-.02-.49.43-.27.66.67.7 1.03 1.61 1.03 2.58 0 .5.77.5.77 0 0-1.17-.44-2.28-1.25-3.13l-.27.66c.36.02.72-.21 1.01-.38.55-.33 1.1-.68 1.6-1.08.42-.33.79-.71 1.11-1.14.16-.21.37-.49.41-.77l-.65.17c.89.96 2.23 1.33 3.49 1.01.48-.12.28-.87-.21-.75zm8.01.81c-.37.97-1.12 1.78-.99 2.88.09.79.45 1.55.79 2.26.64 1.34 1.38 2.64 2.03 3.98.34.69.66 1.39.98 2.1.41.92 1.08 1.95.94 2.97-.13.95-.94 1.69-1.52 2.44-.48.62-.96 1.23-1.43 1.85-.86 1.11-1.67 2.34-2.74 3.27-1.9 1.66-4.63 1.9-6.36 3.81l.61.08c-2.53-4.4-5.07-8.8-7.6-13.2-.25-.43-.92-.04-.67.39 2.53 4.4 5.07 8.8 7.6 13.2.12.21.44.26.61.08 1.75-1.94 4.61-2.16 6.51-3.94 1.15-1.08 2.05-2.45 3.02-3.69.87-1.12 1.97-2.24 2.66-3.48.55-.99 0-1.93-.4-2.88-.64-1.49-1.32-2.96-2.05-4.4-.66-1.31-1.47-2.58-1.96-3.96-.17-.49-.33-1.02-.21-1.54.16-.69.68-1.31.93-1.98.18-.47-.57-.67-.75-.21z"/><path d="m52.82 54.06c-1.69 1.73-4.44 1.13-6.6.91-2.68-.26-5.38-.45-8.07-.55-5.39-.2-10.79-.06-16.17.39-.2.02-.4.16-.39.39l.33 5.13c.01.22.17.37.39.39 5.29.32 10.6.55 15.88 1 4.29.37 8.61.78 12.91.94.5.02.5-.75 0-.77-4.31-.17-8.62-.57-12.91-.94-5.28-.45-10.59-.68-15.88-1l.39.39-.33-5.13-.39.39c5.87-.49 11.76-.61 17.64-.33 2.8.13 5.57.41 8.36.66 1.92.17 3.96.14 5.39-1.32.35-.36-.2-.9-.55-.55zm5.38 20.86c-.13 2.77.6 5.7 2.32 7.92.91 1.18 2.22 1.84 3.22 2.92s1.55 2.49 1.9 3.94c1.26 5.32.97 10.71 1.08 16.12.09 4.08.3 8.15.56 12.22.01.2.17.4.39.39 2.72-.18 5.44-.35 8.16-.53.2-.01.4-.17.39-.39-.42-10.7-.19-21.35-1.44-32-.36-3.04-1.34-5.93.03-8.9.98-2.13 2.86-3.76 4.28-5.6 1.98-2.55 3.72-5.28 5.36-8.06 1.76-2.99 3.21-6.14 4.94-9.15 1.57-2.74 3.24-5.42 4.73-8.2 1.64-3.05 3.28-6.09 5.03-9.07.08-.13.07-.36-.06-.47-1.79-1.41-3.58-2.83-5.38-4.24-.2-.16-.46-.15-.61.08-3.57 5.66-7.13 11.33-10.75 16.96-1.5 2.32-3.03 4.64-4.73 6.82-2.12 2.72-4.43 5.3-6.68 7.91-.32.37.22.92.55.55 3.27-3.78 6.45-7.55 9.38-11.61 1.98-2.74 3.7-5.68 5.51-8.53 2.47-3.89 4.93-7.8 7.39-11.7l-.61.08c1.79 1.41 3.58 2.83 5.38 4.24l-.06-.47c-3.07 5.22-5.77 10.65-8.91 15.83-1.69 2.79-3.14 5.71-4.65 8.59-1.62 3.09-3.55 6.08-5.61 8.89-1.34 1.82-3 3.41-4.29 5.26-.91 1.31-1.51 2.81-1.7 4.4-.2 1.69.18 3.29.48 4.94.4 2.22.52 4.51.71 6.76s.43 4.38.49 6.57c.2 6.71.18 13.42.44 20.13l.39-.39c-2.72.18-5.44.35-8.16.53l.39.39c-.39-6.04-.67-12.09-.58-18.14.04-2.85-.28-5.68-.73-8.49-.42-2.65-1.14-5.2-3.3-6.96-1.23-1-2.33-1.87-3.1-3.29-1.04-1.91-1.48-4.06-1.38-6.23.02-.5-.75-.5-.77 0z"/><path d="m21.75 55.4c-.92.14-1.47-.95-1.96-1.55-.41-.51-1-1.4-1.7-1.57-.62-.15-1.2.51-1.12 1.11.06.48.51.73.84 1.04.45.41.72.92.91 1.49l.48-.48c-1.47-.39-2.96-.81-4.36-1.41-.97-.42-1.96-1.18-3.08-.85-.43.13-.94.47-.83.99.09.44.58.72.93.92 1.4.79 2.98 1.35 4.51 1.84l.21-.75c-1.75-.35-3.5-.7-5.24-1.05-.54-.11-1.3-.46-1.82-.15-.36.21-.61.64-.46 1.06.14.38.58.56.93.7.69.27 1.43.42 2.15.62 1.1.3 2.19.64 3.25 1.06l.1-.76c-1.37 0-2.7-.13-4.05-.33-.79-.11-2.11-.29-2.21.84-.09 1.07 1.1 1.26 1.9 1.31 1.42.09 2.85.17 4.27.28l-.1-.76c-.87.17-1.73.37-2.58.61-.47.13-1.19.28-1.47.75-.24.41-.02.92.34 1.17s.8.22 1.21.16c1.53-.23 2.99-.77 4.53-.9.74-.06 1.49-.01 2.23-.08.84-.07 1.66-.23 2.47-.47.48-.14.27-.89-.21-.75-1.23.36-2.45.46-3.73.48-1.17.02-2.31.26-3.45.52-.16.04-2.79.78-2.73.26.03-.24 1.29-.47 1.47-.52.7-.18 1.41-.34 2.11-.48.45-.09.31-.73-.1-.76-1.03-.08-2.06-.15-3.09-.21-.41-.03-.83-.04-1.24-.07-.2-.01-1.52-.16-.95-.65.23-.19.97 0 1.21.03.4.06.81.12 1.21.17.98.12 1.96.17 2.94.17.46 0 .49-.61.1-.76-1.71-.67-3.52-1-5.24-1.62-.09-.03-.49-.13-.52-.24-.1-.32.61-.08.69-.06l1.95.39 3.9.78c.49.1.68-.59.21-.75-1.22-.4-2.43-.85-3.59-1.4-.19-.09-1.32-.58-1.25-.77.06-.17.72-.14.86-.12.28.05.54.16.79.28 1.79.9 3.68 1.49 5.61 2.01.27.07.57-.19.48-.48-.27-.84-.69-1.48-1.36-2.05-.13-.11-.62-.52-.17-.64-.08.02.01.01-.02 0 .22.03.5.41.64.56.98 1.04 1.72 2.81 3.41 2.56.49-.07.28-.82-.21-.75zm72.67-22.7c.55-.76 1.5-1.66 1.61-2.64.11-.92-.58-1.83-1.13-2.49-.68-.81-1.78-1.35-1.98-2.47s.32-2.22.84-3.14l-.44.18c1.33.4 2.43 1.24 3.46 2.15 1.14 1.01 2.25 2.05 3.37 3.08.28.26.56.52.85.77.2.19.73.54.75.79.02.28-.46.74-.62.97l-.7.97c-.96 1.33-1.92 2.65-2.88 3.98-.29.4.38.79.67.39 1.09-1.51 2.18-3.01 3.26-4.52l.85-1.18c.15-.21.4-.48.33-.77s-.38-.48-.57-.65c-.34-.32-.69-.63-1.03-.95-1.27-1.17-2.53-2.35-3.83-3.5-1.11-.97-2.29-1.85-3.72-2.28a.396.396 0 0 0 -.44.18c-.85 1.49-1.55 3.56-.3 5.04.71.85 1.59 1.39 2.15 2.39.39.69.36 1.14-.07 1.77-.36.53-.75 1.03-1.13 1.55-.29.4.38.79.67.39z"/><path d="m54.12 36.69c2.38 2.9 2.14 6.51 2.06 7.8-.11 1.77-.27 4.47-2.3 5.97-2.79 2.08-6.85.19-7.34-.04-3-1.4-4.35-3.98-4.86-5-1.34-2.7-2.92-8.45.2-11.22 3.13-2.78 9.33-1.04 12.23 2.49z" fill="none" stroke="#000" stroke-miterlimit="10" stroke-width=".77"/><path d="m58.6 49.44c.5 2.36.89 4.73 1.16 7.12l.49-.37c-2.43-.53-4.74-1.53-7.2-1.94-.49-.08-.7.66-.21.75 2.46.41 4.77 1.41 7.2 1.94.22.05.52-.11.49-.37-.28-2.46-.68-4.91-1.19-7.33-.1-.49-.85-.28-.75.21zm15.07 68.34c-.02.99-.29 2.38.28 3.26.54.82 1.88 1.19 2.79 1.35 1.04.18 2.04.1 2.75 1.02.59.78.81 1.81.9 2.76l.28-.37c-1.43.48-2.93.39-4.41.21-1.56-.18-3.11-.39-4.67-.59-.37-.05-.75-.1-1.12-.14-.11-.01-.44-.11-.56-.07-.21.06-.13.18-.14-.1-.04-.78.02-1.58.03-2.36.02-1.61.04-3.23.05-4.84 0-.5-.77-.5-.77 0l-.06 5.4c0 .45-.01.9-.02 1.35 0 .3-.08.68.05.96.24.51 1.19.41 1.65.47 1.79.23 3.57.46 5.36.68 1.61.2 3.25.31 4.82-.22.15-.05.3-.2.28-.37-.15-1.61-.69-3.61-2.38-4.23-.47-.17-.97-.19-1.46-.25-.62-.07-1.23-.23-1.81-.48-.7-.3-1.1-.66-1.11-1.46-.01-.66.02-1.32.03-1.98 0-.5-.76-.5-.77 0z"/><path d="m58.36 49.77c1.94-.4 3.07-2.06 3.94-3.71 1.34-2.55 2.63-5.13 4.07-7.63 2.92-5.07 6.17-9.93 9.73-14.57l-.53.14c1.38 1.02 2.76 2.03 4.14 3.05l-.14-.53c-4.25 7.62-8.34 15.33-12.55 22.97-.24.44.43.83.67.39 4.21-7.64 8.3-15.35 12.55-22.97.11-.2.03-.4-.14-.53-1.38-1.02-2.76-2.03-4.14-3.05-.18-.13-.41-.01-.53.14-3.28 4.28-6.3 8.75-9.04 13.39a135.29 135.29 0 0 0 -3.84 6.98c-1 1.96-1.98 4.68-4.4 5.18-.49.1-.28.85.21.75z"/><path d="m76.59 24.14c1.09-1.25.04-2.82-.31-4.17-.05-.17-.23-.66-.14-.85.02-.05-.01-.06.02-.08l.35.11c.03.13.05.25.06.39.13.9.43 1.59 1.01 2.3.2.24.57.08.65-.17.62-1.95 1.09-3.86 1.34-5.89.05-.44.2-1.08.63-1.3.24-.12.18-.03.19.26 0 .27-.02.54-.05.81-.15 1.38-.45 2.76-.8 4.1-.13.49.57.66.75.21.48-1.24.96-2.47 1.44-3.71l.63-1.62c.06-.16.16-.65.27-.76.37-.36.22.28.2.39-.18 1.05-.63 2.07-.92 3.1-.23.78-.42 1.57-.58 2.37-.09.43.46.68.71.3.52-.81.99-1.64 1.41-2.5.17-.34.32-.69.47-1.04.11-.25.34-.99.63-1.13.13-.15.22-.1.26.15.15.12.18.25.09.4-.05.21-.19.42-.3.61-.19.35-.39.7-.59 1.04-.5.9-.99 1.81-1.49 2.71-.2.38.29.79.61.47.47-.48.94-.96 1.43-1.41.18-.17 1.02-1.13 1.29-1.04.51.16-1.36 1.85-1.5 1.99-.86.84-1.71 1.69-2.39 2.69-.74 1.1-1.48 2.11-2.49 2.99-.38.33.17.87.55.55.63-.55 1.21-1.16 1.72-1.83s.89-1.38 1.41-2.02c.97-1.2 2.28-2.11 3.22-3.33.44-.57.53-1.9-.54-1.82-.55.04-1.04.57-1.42.91-.63.57-1.24 1.17-1.82 1.78l.61.47c.65-1.21 1.32-2.42 1.99-3.61.41-.74 1-1.97-.07-2.45-1.01-.46-1.54.78-1.87 1.5a26.72 26.72 0 0 1 -1.89 3.54l.71.3c.23-1.12.52-2.22.87-3.31.22-.71.5-1.42.64-2.15.07-.38.15-.86-.13-1.18s-.77-.32-1.13-.13c-.54.29-.67 1.19-.88 1.72-.63 1.62-1.26 3.25-1.9 4.87l.75.21c.42-1.59.84-3.31.88-4.96 0-.39 0-.93-.37-1.17-.44-.29-1 .04-1.32.36-.75.76-.65 1.9-.81 2.88-.25 1.53-.71 3.03-1.18 4.5l.65-.17c-.39-.48-.66-.99-.76-1.6-.07-.41-.05-.88-.38-1.19-.46-.42-1.35-.3-1.57.31s.13 1.43.3 1.99c.25.81 1.01 2.03.33 2.8-.33.37.22.92.55.55zm-34.37 7.79c-2.36.98-3.61.54-4.71 1.81-.18.21-.7.83-.82 1.71-.09.71.15 1.05.24 1.78.14 1.17-.34 1.5-.54 2.79-.31 2.01.69 2.27.41 4.22-.25 1.7-.98 1.78-.87 2.86.15 1.39 1.89 2.02 2.45 3.3.34.79.19 1.77.67 2.48.52.78 1.61.99 2.16 1.75.52.71.46 1.77 1.11 2.37.27.25.38.47.65.64.88.56 1.85.18 3.22-.03 2.2-.34 2.14.27 3.54-.12.39-.11 2.99-.86 3.37-2.96.31-1.67-1-3.05-1.2-3.26-.58.14-1.45.29-2.49.19-1.98-.18-3.31-1.17-4.13-1.68-1.07-.67-2.93-2.11-3.59-4.48-.33-1.17-.11-2.55.35-5.28.56-3.36.86-5.05 1.78-5.54.9-.47 1.34.15 4.93.32 1.88.09 2.05-.07 2.81.18 1.82.61 2.81 2.2 3.33 3.05 1.38 2.22 1.43 4.44 1.44 5.04.01 1.09-.17 2.66-.18 2.81-.18 1.56-.34 1.84-.16 2.46.18.63.79 1.17 1.97 2.25 1.59 1.45 2.06 1.55 2.37 1.57.94.06 1.71-.52 1.81-.59.64-.5.52-.88 1.15-1.34.68-.49 1.07-.21 1.81-.59.83-.42 1.61-1.43 1.57-2.37-.04-.88-.76-.77-1.95-2.6-.78-1.19-.92-1.92-1.73-2.25-.21-.09-.56-.18-.93-.49-.41-.35-.59-.75-.67-.91-.39-.83-.97-1.57-1.37-2.39-.78-1.59-1.7-1.58-3.42-3.62-2.03-2.41-1.63-3.47-3.33-4.52-1.04-.64-2.05-.77-3.12-.91-.71-.09-2.55-.31-4.62.4-1.76.61-1.37 1.1-3.3 1.9z"/><path d="m42.09 31.48c-2.06.81-4.65.68-5.63 3.05-.54 1.32.24 2.49-.09 3.81s-.69 2.37-.32 3.71c.4 1.43.3 2.46-.33 3.82-.41.88-.32 1.73.25 2.52.75 1.03 1.84 1.55 2.15 2.87.15.64.14 1.31.52 1.88.34.52.87.79 1.37 1.13 1.25.83 1.19 2.29 2.2 3.32.95.97 1.97.86 3.23.64 1.96-.33 3.84.14 5.67-.76s3.03-2.82 2.17-4.9c-.23-.55-.73-1.6-1.39-1.74-.57-.12-1.43.24-2.05.22-1.06-.04-2.05-.33-2.99-.83-2.21-1.17-4.64-3.09-4.85-5.78-.12-1.42.24-2.89.47-4.28s.35-3.09.95-4.43c.3-.67.63-.98 1.36-.92 1.16.09 2.31.38 3.48.45 1.01.06 2.18-.12 3.16.19 1.52.49 2.56 1.9 3.3 3.25 1.42 2.58 1.2 5.38.81 8.19-.1.74-.19 1.41.2 2.08.62 1.1 1.86 2.01 2.82 2.78 1.35 1.07 3.04 1.28 4.27-.2.4-.48.41-.86 1.17-1.13.27-.09.58-.07.86-.16.55-.17 1.04-.53 1.42-.95.62-.68 1.12-1.8.65-2.7-.19-.36-.54-.61-.82-.88-.68-.68-1.15-1.48-1.63-2.3-.28-.48-.56-.93-1.03-1.25-.25-.16-.56-.22-.82-.37-.57-.33-.59-.57-.86-.99-.78-1.23-1.3-2.7-2.35-3.73-1.22-1.2-2.5-2.14-3.44-3.63-.63-.99-1.01-2.15-1.93-2.92-1.15-.97-2.64-1.23-4.09-1.4-1.53-.17-3.11-.07-4.57.44-1.27.45-2.19 1.41-3.41 1.95-.54.24-.07 1.03.47.8.97-.43 1.69-1.17 2.63-1.63 1.43-.7 3.13-.82 4.69-.66 1.4.14 3.01.39 4 1.49.7.77 1.04 1.84 1.62 2.7.74 1.08 1.63 2.03 2.63 2.87s1.5 1.71 2.17 2.82c.49.81.86 1.84 1.62 2.44.62.5 1.24.55 1.71 1.25.44.65.76 1.37 1.26 1.99.64.82 1.77 1.33 1.21 2.52-.71 1.51-2.4 1.03-3.38 2.13-.67.75-1.31 1.84-2.54 1.41-1.11-.38-2.4-1.8-3.16-2.66s-.5-1.59-.37-2.66.25-2.16.24-3.25c-.02-2.29-.82-4.49-2.19-6.3-1.13-1.49-2.59-2.39-4.46-2.4-1.38 0-2.75-.08-4.11-.31-.6-.1-1.26-.3-1.87-.19-1.45.27-1.8 1.98-2.06 3.2-.32 1.5-.56 3.02-.78 4.54-.15 1-.32 2.03-.21 3.04.44 4.14 5.6 7.56 9.54 7.28.27-.02.54-.06.81-.1.61-.09.04-.22.28-.06.39.27.7 1.03.82 1.45.47 1.59-.56 2.78-1.91 3.43-1.61.78-3.31.29-5.04.59-1.03.18-1.89.47-2.75-.33-.68-.63-.68-1.48-1.09-2.24-.72-1.31-2.26-1.37-2.65-2.95-.17-.69-.18-1.34-.58-1.95-.33-.51-.8-.9-1.23-1.32-.54-.52-1.09-1.09-.9-1.91.1-.41.41-.79.56-1.19.47-1.25.31-2.35-.03-3.59-.39-1.42.33-2.52.45-3.88.08-.92-.43-1.8-.19-2.7.16-.62.6-1.25 1.14-1.61 1.11-.73 2.76-.75 4-1.23.55-.21.31-1.11-.25-.89zm36.48 80.12c-.08.98.27 1.03.86 4.12.66 3.41.53 4.81 1.1 4.93.65.14 1.1-1.64 3.32-4.07 1.65-1.8 2.13-1.65 2.81-2.71 1.7-2.66 1.04-7.49-1.09-8.38-2.34-.97-6.74 2.71-7 6.1z" fill="#ff5600"/><path d="m81.72 115.57c-.74 2.18-.97 3.64-1.03 3.62-.06-.01.08-1.69.73-3.63.66-1.97 1.58-3.42 1.64-3.39.05.03-.62 1.27-1.34 3.39z"/><path d="m34.45 19.87c.35 1.16-.05 1.31.05 5.18.11 4.27.62 5.92-.02 6.22-.74.34-1.75-1.68-5.06-4.02-2.46-1.73-3-1.42-4.09-2.51-2.74-2.75-3.23-8.73-.89-10.35 2.56-1.78 8.81 1.48 10.01 5.48z" fill="#ff5600"/><path d="m31.72 25.47c1.47 2.43 2.12 4.11 2.19 4.08s-.54-2.01-1.83-4.17c-1.31-2.19-2.8-3.69-2.86-3.64-.06.04 1.08 1.36 2.51 3.72z"/><path d="m20.06 30.14c1.67.3 1.6.9 6.48 3.24 5.39 2.58 7.77 2.99 7.73 3.99-.04 1.14-3.21 1.11-8.23 3.74-3.73 1.95-3.68 2.83-5.73 3.49-5.17 1.66-12.93-1.54-13.46-5.49-.59-4.33 7.46-10.03 13.21-8.98z" fill="#ebe1ce"/><path d="m25.29 37.12c3.96-.28 6.48-.02 6.48-.12 0-.11-2.86-.61-6.36-.37-3.56.24-6.38 1.14-6.36 1.25.02.1 2.39-.48 6.23-.75z" fill="#ff5600"/><path d="m102.08 16.16c2.85 1.04 5.58 2.37 8.15 3.98s4.65 3.47 4.78 6.6c.12 2.86-1.09 5.71-2.25 8.26a48.338 48.338 0 0 1 -4.44 7.71c-.56.79.75 1.55 1.3.76 1.96-2.8 3.63-5.79 4.97-8.94 1.17-2.75 2.27-5.78 1.82-8.81s-2.5-4.97-4.91-6.55c-2.81-1.85-5.87-3.31-9.02-4.47-.91-.33-1.3 1.12-.4 1.45zm-79.57 46.53c-3.47 1.79-6.94 3.59-10.41 5.38-.86.44-.1 1.74.76 1.3 3.47-1.79 6.94-3.59 10.41-5.38.86-.44.1-1.74-.76-1.3zm-6.59.04c-2.63.08-5.21.94-7.33 2.5-.33.24-.49.65-.27 1.03.19.32.7.51 1.03.27 1.91-1.4 4.19-2.22 6.57-2.29.97-.03.97-1.53 0-1.5zm54.32-51.76c.73 3.69 1.47 7.39 2.2 11.08.19.95 1.64.55 1.45-.4-.73-3.69-1.47-7.39-2.2-11.08-.19-.95-1.64-.55-1.45.4zm3.69-3.13c.74 2.43 1.11 4.94 1.07 7.48-.01.97 1.49.97 1.5 0 .04-2.66-.34-5.33-1.13-7.88-.28-.92-1.73-.53-1.45.4z"/><path d="m101.17 22.36c1.69.62 3.32 1.41 4.86 2.36s2.92 2.08 2.97 4.01c.05 1.73-.68 3.45-1.39 5-.76 1.66-1.69 3.24-2.73 4.74-.56.79.75 1.55 1.3.76 1.24-1.77 2.29-3.65 3.13-5.64.75-1.77 1.43-3.7 1.12-5.65s-1.61-3.18-3.15-4.19c-1.78-1.17-3.72-2.09-5.71-2.83-.91-.33-1.3 1.12-.4 1.45z"/><path d="m89.07 128.51c-.68-.3-.8-.07-3.16-.42-2.6-.39-3.56-.82-3.79-.45-.26.43.89 1.19 2.07 3.39.87 1.63.64 1.93 1.23 2.68 1.47 1.88 5.08 2.62 6.25 1.32 1.28-1.43-.24-5.48-2.6-6.52z" fill="#ebe1ce"/><path d="m85.45 129.76c-1.37-1.08-2.35-1.6-2.33-1.64.03-.04 1.19.48 2.4 1.43 1.24.96 2.04 1.98 2.01 2.02-.03.03-.75-.76-2.08-1.81z" fill="#ff5600"/><path d="m85.51 118.28c-.46.38-.33.55-1.41 2.12-1.19 1.73-1.85 2.27-1.66 2.56.21.34 1.17-.22 3.16-.29 1.48-.05 1.62.22 2.36.06 1.87-.39 3.67-2.73 3.15-4.02-.57-1.42-4.02-1.76-5.6-.43z"/><path d="m85.13 121.32c-1.26.61-1.98 1.12-2 1.09s.77-.68 1.87-1.22c1.13-.55 2.14-.77 2.16-.73.01.03-.81.27-2.03.86z" fill="#ff5600"/></g></svg>