<svg xmlns="http://www.w3.org/2000/svg" viewBox="0 0 366.52 176.78"><path fill="#a67153" stroke="#000" stroke-miterlimit="10" stroke-width="1.06" d="M.53 145.89h365.46v30.36H.53z"/><path d="M81.54 91.84c.1.32.18.63-.02.92-.08.12-.19.23-.3.33-.04.04-.09.08-.13.12-.02.02-.13.1-.03.03-.2.16-.2.47.07.55.72.23 1.49.33 2.24.23.84-.11 1.61-.47 2.26-1 .36-.29.92-.79.92-1.3 0-.28-.19-.38-.42-.48-.36-.15-.6-.52-.77-.86-.09-.18-.34-.19-.48-.06-.83.77-1.93 1.17-3.06 1.15-.39 0-.39.6 0 .61 1.29.03 2.54-.45 3.49-1.32l-.48-.06c.15.29.34.58.58.8.13.13.28.22.45.29.04.02.1.05.14.05.05.02.05.02 0-.02-.03-.01-.05-.04-.06-.07-.06-.04.04-.06-.01-.03 0 0-.02.06-.03.08-.04.09-.1.17-.16.24-.17.22-.39.42-.61.59-1.12.88-2.52.99-3.85.57l.07.55c.27-.21.52-.45.71-.73.26-.41.19-.89.05-1.34-.12-.37-.7-.21-.58.16ZM68.75 112.7c1.57-.65 3.18-1.18 4.79-1.74 1.46-.51 3.09-1.13 4.12-2.33 1.15-1.33 1.53-3.24 2.06-4.88s.9-3.12 1.53-4.63c.15-.36-.44-.52-.58-.16-.58 1.39-.96 2.83-1.41 4.27-.52 1.63-.89 3.64-2.02 4.98-1.04 1.23-2.76 1.81-4.24 2.3s-2.96 1.01-4.4 1.61c-.36.15-.2.73.16.58Z"/><path d="M80.96 93.27c-1.52 1.26-2.95 2.54-3.8 4.36-.76 1.64-1.11 3.42-1.68 5.13s-1.34 3.26-2.77 4.29c-1.68 1.21-3.84 1.63-5.65 2.63-.34.19-.04.71.31.52 1.8-1 3.95-1.43 5.65-2.63 1.25-.88 2.07-2.18 2.65-3.58.7-1.69 1.03-3.49 1.67-5.2.82-2.18 2.3-3.64 4.06-5.1.3-.25-.13-.68-.43-.43ZM99.83 76.2c-.5 3.47-.89 7.26-2.73 10.32s-4.27 5.56-6.87 7.73c-.3.25.13.68.43.43 2.64-2.2 5.18-4.9 6.97-7.86 1.88-3.11 2.29-6.93 2.79-10.46.06-.38-.53-.55-.58-.16Z"/><path d="M86.39 91.88c3.03-1.99 5.92-4.27 8.29-7.03 1.21-1.4 1.94-2.76 2.39-4.54.53-2.07.93-4.17 1.44-6.24l-.51.13c.64.76 1.28 1.52 1.91 2.29.25.3.68-.13.43-.43-.64-.76-1.28-1.52-1.91-2.29-.15-.18-.46-.08-.51.13-.48 1.97-.9 3.96-1.36 5.93s-1.19 3.31-2.5 4.8c-2.31 2.62-5.07 4.8-7.98 6.72-.32.21-.02.74.31.52ZM89.39 94.06c1.39 1.1 1.08 2.66 1.11 4.19.04 2.03.24 4.06.43 6.07.04.38.64.39.61 0-.2-2.1-.42-4.21-.43-6.32 0-.47.04-.94.05-1.42.01-1.15-.41-2.24-1.33-2.96-.3-.24-.73.19-.43.43ZM80.68 99.11c.38 1.97.47 3.97.27 5.96-.04.39.57.39.61 0 .2-2.05.09-4.11-.3-6.13-.07-.38-.66-.22-.58.16Z"/><g stroke-miterlimit="10" stroke-width=".2"><path d="M86.57 85.71c.78 1.02.08 3.18-1.12 4.45-.28.3-1.02 1.09-2.22 1.36-2.82.63-5.71-2.09-5.68-3.57.02-.63.9-.85.99-1.82.08-.82-.43-1.25-.15-1.67.29-.45.93-.08 1.57-.52.91-.62.58-1.96 1.17-2.13.52-.15.81.87 1.85 1.11 1.16.27 2.09-.68 2.41-.34.31.33-.61 1.21-.28 2.04.26.65.98.47 1.45 1.08Z" fill="none" stroke="#000"/><path d="M91.07 82.43c.12.9-.5 1.19-.99 2.87-.1.33-.15.57-.19.76-.14.73-.1.9-.24 1.18-.17.35-.42.45-.88.77-.43.3-.5.42-.84.76 0 0-.16.16-.57.52-.58.51-1.77 1.38-1.89 1.25-.06-.06.1-.31.38-.77.14-.22.15-.21.22-.33.2-.34.21-.62.32-1.2.11-.57.17-.86.18-.94.04-.55.09-1.09-.2-1.5-.42-.59-1.13-.36-1.38-.94-.14-.33-.06-.73-.03-.88.03-.14.06-.2.24-.73.18-.54.18-.57.16-.6-.17-.24-1.12.66-2.19.51-1.12-.16-1.71-1.4-2.11-1.18-.1.06-.07.15-.24.73-.18.66-.28 1-.53 1.26-.31.33-.7.42-.76.44-.49.12-.7-.11-.88.03-.33.25.36 1.06.11 1.97-.23.86-1.05.88-1.09 1.64-.02.49.31.95.61 1.38.24.34.49.56.64.71.45.41.91.68 1.11.79l.53.29.53.29c.46.25.53.27.53.29-.01.06-.78-.03-3.44-.54 0 0-3.38-.74-4.01-1.89-.08-.14-.2-.41-.46-.8-.62-.94-1.01-1.05-1.29-1.51-.54-.87.32-1.31.22-3.33-.06-1.19-.39-1.81-.06-2.87.07-.21.17-.54.43-.89.45-.62.9-.66 1.42-1.14.63-.57.59-1.06.93-1.54.42-.6 1.4-1.18 3.95-.98.37-.32 1.17-.91 2.35-1.11.5-.08 1.72-.29 2.72.37.61.4.55.74 1.17 1.02.66.29.99.03 1.88.19.44.08 1.23.21 1.76.74.8.8.17 1.66.95 3.3.48 1.01.84.93.92 1.61Z" stroke="#ff7556"/><path d="M78.47 77.73c-.39-.04-.83-.07-1.14.17-.11.08-.19.19-.27.3-.34.45-.61.95-.82 1.48-.08.2-.15.41-.3.57-.28.29-.75.3-1.12.47-.24.11-.44.29-.63.47-.39.39-.76.83-.89 1.36M79.59 81.33c-.03.45-.42.8-.82 1.01-.22.12-.46.21-.7.29-.24.07-.49.12-.72.23-.29.15-.53.39-.75.63-.18.19-.37.4-.38.67 0 .14.04.28.08.42.11.31.21.63.32.94.07.2.14.41.12.62s-.13.43-.33.49M82.25 80.68c.09.47.5.83.95.97s.94.11 1.41.03c.56-.1 1.14-.26 1.69-.09.06.02.11.04.15.08.05.06.07.14.08.22.09.52.17 1.03.26 1.55.02.13.05.27.11.39.17.32.55.45.9.55M81.22 78.59c.29-.31.67-.56 1.09-.63s.89.07 1.16.41c.1.12.16.27.28.37.24.21.59.18.91.17.51-.02 1.03 0 1.53.1.2.04.4.08.57.2.23.16.35.43.46.69M74.15 84.23c0 .73-.86 1.21-.96 1.94-.03.26.04.53.13.77.1.26.23.51.43.7.27.26.65.37.96.57.09.06.17.13.22.23.09.19 0 .42-.02.64-.05.51.43 1 .94.96M88.76 81.9c.32-.07.66 0 .92.2s.43.5.45.82c.07.96-1.04 1.67-1.04 2.63 0 .39.19.78.16 1.17M79.94 77.83c.1-.71.76-1.3 1.48-1.32.51-.01 1 .23 1.42.53.2.14.4.3.64.34.29.05.59-.07.89-.05M79.58 79.54c-.36-.07-.75.04-1.05.25s-.51.54-.64.88c-.05.14-.09.29-.05.44 0 .03.02.06 0 .08 0 .02-.03.03-.05.05M86.69 77.87c.43.11.86.24 1.28.4.28.11.55.24.77.44s.38.48.38.78c0 .19-.06.41.08.55" fill="none" stroke="#ff7556"/></g><path d="M80.79 105.05c-.76 2.46-1.43 4.94-1.98 7.46s-.66 5.22-1.68 7.53-2.91 3.87-4.84 5.28c-2.07 1.51-4.21 2.91-6.33 4.33-.18.12-.21.4 0 .52 1.46.84 2.73 1.89 3.84 3.15.07.08.2.1.29.08 2.16-.57 3.89-1.92 5.5-3.41.85-.79 1.68-1.6 2.55-2.36 1.01-.87 2.14-1.53 3.19-2.35 1.92-1.49 2.86-3.73 3.63-5.97.99-2.87 1.6-5.84 1.91-8.85.04-.39-.57-.38-.61 0-.33 3.27-1.06 6.5-2.21 9.58-.53 1.43-1.18 2.88-2.24 4-.94 1-2.19 1.63-3.26 2.47-1.98 1.54-3.61 3.52-5.69 4.94-.52.36-1.06.67-1.64.92-.86.38-1.05.42-1.72-.26-.97-.97-2.06-1.78-3.25-2.47v.52c2.23-1.5 4.49-2.97 6.65-4.57 1.76-1.31 3.48-2.8 4.51-4.77 1.15-2.2 1.28-4.85 1.78-7.25.59-2.83 1.32-5.62 2.18-8.37.12-.37-.47-.53-.58-.16Z"/><path d="M91.09 104.4c.31 6.85.25 13.72-.23 20.56-.23 3.34-.56 6.67-.98 9.99-.13 1.03-.27 2.05-.42 3.07-.08.53-.04 1.93-.54 2.24-.48.29-1.78.09-2.35.09-.94 0-1.88-.06-2.82-.14l.3.3c.9-8.22 2.15-16.52 1.94-24.81 0-.39-.62-.39-.61 0 .21 8.29-1.04 16.58-1.94 24.81-.02.17.15.29.3.3 1.88.17 3.75.18 5.64.02.12-.01.27-.09.29-.22 1.89-11.97 2.57-24.11 2.01-36.21-.02-.39-.62-.39-.61 0ZM66.91 130.26c-1.06.15-2.12.43-3.12.8-.44.16-.78.4-.77.91.01.66.18 1.35.27 2 .03.2.29.27.45.18.37-.22.75-.36 1.17-.44l-.34-.45c-.53 1.2-.33 2.48.17 3.66.25.59.53 1.25.93 1.75.26.33.67.54 1.06.28.42-.28.49-.89.53-1.35.07-.73.06-1.44.23-2.17.23-.95.59-2.65 1.76-2.86.38-.07.22-.65-.16-.58-.81.14-1.35.91-1.66 1.62a8.9 8.9 0 0 0-.74 3.17c-.01.28.06 1.63-.36 1.67-.18.02-.41-.53-.47-.64-.13-.24-.26-.49-.38-.74-.53-1.08-.9-2.37-.39-3.52.11-.25-.07-.5-.34-.45-.47.09-.91.26-1.32.51l.45.18c-.07-.53-.15-1.05-.22-1.58-.04-.34.02-.48.35-.6.2-.07.4-.14.6-.2.81-.25 1.63-.46 2.47-.58.38-.06.22-.64-.16-.58Z"/><path d="M84.92 140.78c.13.4-.06.74-.18 1.12s-.19.77-.24 1.16c-.11.85-.1 1.7-.08 2.55 0 .15.14.32.3.3.72-.06 1.43-.12 2.15-.19.13-.01.26-.09.29-.22.14-.61.19-1.22.13-1.84l-.56.15c.49.81 1.2 1.52 2.07 1.92.82.37 1.77.42 2.64.26.57-.1 1.18-.35 1.54-.82.33-.42.36-1.03-.15-1.33-.26-.15-.56-.16-.84-.27s-.52-.27-.76-.43c-1.11-.74-2.06-1.72-2.98-2.68-.27-.28-.7.15-.43.43.76.8 1.55 1.58 2.42 2.27.45.36.92.71 1.45.94.15.07.31.12.47.16s.34.04.42.21-.02.29-.14.41c-.2.21-.49.34-.77.43-.68.21-1.53.24-2.22.03-.94-.28-1.71-1.01-2.2-1.83-.15-.24-.59-.16-.56.15.05.57.02 1.12-.11 1.68l.29-.22c-.72.06-1.43.12-2.15.19l.3.3c-.02-.92-.04-1.86.11-2.77.12-.73.59-1.48.36-2.22-.12-.37-.7-.21-.58.16ZM81.22 105.58c1.61.41 3.25.52 4.89.29 1.76-.26 3.51-.72 5.2-1.25.37-.12.21-.7-.16-.58-1.6.5-3.25.93-4.91 1.21s-3.27.17-4.87-.24c-.38-.1-.54.49-.16.58ZM67.05 110.14c.24.87.68 1.66 1.27 2.34.11.12.32.11.43 0 .12-.12.11-.3 0-.43-.52-.6-.9-1.31-1.12-2.07-.04-.16-.21-.26-.37-.21s-.26.21-.21.37ZM81.05 108.61c1.15.79 2.88.16 3.34-1.13.05-.15-.06-.33-.21-.37-.17-.05-.32.06-.37.21-.33.94-1.64 1.31-2.45.76a.295.295 0 0 0-.41.11c-.09.15-.03.32.11.41ZM89 106.81c.08 1.2.65 2.36 1.59 3.12.13.1.3.12.43 0 .11-.11.13-.33 0-.43a3.807 3.807 0 0 1-1.42-2.69c-.01-.16-.13-.3-.3-.3-.16 0-.31.14-.3.3Z"/><path d="M68.36 112.25c-.24.4-.32.85-.32 1.31s.15.92.05 1.35c-.05.01-.04.03.03.05l-.03-.18-.06-.42c-.03-.23-.04-.48-.1-.7-.05-.18-.16-.36-.35-.41-.23-.06-.42.07-.59.21-.37.29-.69.64-.95 1.04-.24.37-.36.78-.57 1.17-.05.09-.16.19-.19.27-.1.05-.09.09.04.11 0-.05 0-.11.02-.16.04-.21.14-.41.25-.6.22-.38.46-.74.58-1.17.07-.26-.29-.51-.48-.28-.44.54-.83 1.13-1.16 1.74l-.06.07s.07.04.07-.03c.04-.04.08-.15.12-.21.1-.14.2-.29.3-.43.22-.31.44-.63.66-.94.14-.2-.09-.51-.33-.42-.26.09-.4.27-.54.5-.17.28-.35.54-.58.77-.04.04-.18.11-.09.15.07.03.08-.07.12-.13.09-.15.2-.28.3-.42l.71-.98c.22-.3-.28-.58-.5-.29-.1.14-.82 1.18-.93 1.09l.14.25c0-.12.28-.44.36-.54.13-.19.26-.39.39-.58.23-.34.47-.68.74-.99.6-.69 1.34-1.11 2.17-1.5.34-.16.04-.65-.29-.5-.68.32-1.35.66-1.9 1.19-.52.49-.93 1.08-1.32 1.67-.21.32-.46.63-.65.96-.16.29-.02.64.34.64.31 0 .56-.22.74-.45.25-.31.48-.62.71-.94l-.5-.29c-.32.45-.65.89-.96 1.34-.21.3-.33.72.02.97.37.27.71-.1.94-.36.14-.16.26-.32.38-.49.09-.13.2-.44.36-.5l-.33-.42c-.32.46-.64.91-.95 1.37-.22.34-.36.87.1 1.08.43.2.74-.27.93-.59.28-.47.56-.94.9-1.37l-.48-.28c-.2.74-.9 1.31-.86 2.12.02.39.38.61.73.42s.53-.58.67-.93c.16-.39.35-.76.62-1.1.13-.16.28-.31.43-.45.03-.03.23-.2.2-.2-.04 0 0-.02 0 .05s.02.15.03.21c.04.25.07.49.11.74.03.2.04.42.21.56.25.21.63.12.82-.13.27-.35.12-.88.08-1.28-.04-.49-.05-.99.22-1.42.19-.32-.3-.61-.5-.29ZM100.13 76.12c.71-.54 1.43-1.1 2.22-1.51.43-.22 1.16-.23 1.28-.79.04-.18 0-.4-.14-.53-.17-.18-.39-.16-.61-.11-.29.06-.58.12-.87.17 0 0-.21.06-.23.05.08.05.01.04.06-.05.08-.14.12-.31.19-.45.26-.53.64-.92 1.07-1.31.3-.28.72-.74.53-1.18-.23-.52-.88-.15-1.17.1-.41.35-.67.86-1.13 1.17l.39.39c.3-.48.65-.91 1.01-1.34.24-.29.59-.78.19-1.1-.35-.28-.75-.04-.99.26-.36.47-.69.96-1.03 1.43l.54.15c0-.21.29-.44.41-.61.15-.2.28-.42.39-.65.15-.32.2-.74-.22-.87-.36-.11-.62.15-.81.42-.32.45-.63.9-.94 1.36l.5.29c.21-.31.43-.62.62-.94.16-.27.3-.63.14-.93-.41-.73-1.14.61-1.35.89-.87 1.16-1.46 2.45-1.87 3.84-.11.36.45.51.56.15.24-.81.54-1.6.93-2.35.2-.38.43-.75.69-1.09.12-.17.25-.33.37-.5.07-.1.14-.19.22-.29.04-.06.15-.27.21-.29l-.22-.03s-.71 1.15-.78 1.26c-.21.31.29.59.5.29.19-.27.38-.55.57-.82.1-.15.2-.29.3-.44.04-.05.1-.11.12-.17l.06-.06c-.06-.02-.09 0-.1.05-.09.09-.14.27-.21.38-.09.15-.2.29-.31.42-.18.22-.32.41-.33.7-.01.31.38.36.54.15l.63-.87c.1-.15.21-.29.31-.44.04-.06.1-.12.14-.18.1-.13-.08.08-.07.07-.42.51-.84 1.01-1.18 1.58-.15.24.15.56.39.39.33-.23.58-.53.84-.84.13-.15.26-.3.41-.43.06-.05.16-.09.21-.14l.04-.02c.07-.02.07-.06-.02-.13 0 0-.07.16-.07.18-.22.4-.69.66-.98 1.02s-.53.76-.69 1.19c-.13.34-.25.87.25.97.22.04.46-.04.67-.08.12-.02.23-.05.35-.07.11-.02.35-.12.46-.09-.1-.02.08-.06-.06.01-.04.02-.07.04-.11.06-.06.03-.12.04-.18.05s-.12.03-.18.04c-.19.06-.37.14-.54.23-.79.41-1.5.96-2.2 1.49-.29.22 0 .72.29.5ZM302.16 96.53c.83.27 1.74.06 2.38-.54l-.49-.2c.02.2.12.38.22.54.19.31.43.6.7.84.32.29.67.55 1.03.79.2.14.44.31.69.31l-.2-.49c-.58.53-.91 1.26-.96 2.04-.02.37.55.37.58 0 .04-.63.32-1.21.79-1.63.19-.17.04-.49-.2-.49-.03 0-.03 0 0 0-.02 0-.04-.01-.06-.02 0 0-.05-.03-.07-.04-.11-.06-.21-.13-.31-.2-.3-.21-.61-.44-.88-.69-.22-.2-.41-.42-.57-.66-.05-.08-.1-.17-.15-.26-.01-.02-.04-.15-.03-.06-.02-.24-.3-.39-.49-.2-.49.47-1.18.6-1.82.4-.35-.11-.51.44-.15.56Z"/><path d="M307.2 86.4c-1.02.22-1.96.65-2.89 1.11-.45.23-.91.46-1.37.66-.34.15-.79.23-.88.65-.11.51-.03 1.13-.04 1.65l-.03 1.88c-.02 1.26-.04 2.51-.07 3.77 0 .37.57.37.58 0l.12-6.59c0-.26-.07-.54.17-.66.19-.1.39-.17.59-.26.41-.19.82-.39 1.22-.6.89-.44 1.78-.84 2.75-1.05.36-.08.21-.63-.15-.56Z"/><path d="m309.81 82.85-6.55 1.5-3.28.75c-.72.16-1.83.21-2.46.63-.36.24-.48.53-.54.95-.16 1.02-.04 2.14-.04 3.17 0 2.16.04 4.31.12 6.47.04 1.13-.05 2.03-.61 3.03-.51.92-1.1 1.79-1.62 2.7-.7 1.25-2.02 2.78-1.24 4.19.5.9 1.18 1.74 1.75 2.59.49.73.96 1.53 1.59 2.16 1.18 1.19 2.98 1.49 4.05 2.81.11.14.37.1.45-.06 1.52-3 3.37-5.78 5.55-8.33.24-.28-.17-.69-.41-.41-2.22 2.59-4.1 5.41-5.64 8.45l.45-.06c-.87-1.06-2.12-1.43-3.23-2.15-1.57-1.02-2.54-3.03-3.57-4.56-.39-.58-.7-1.1-.59-1.84.06-.4.45-.89.64-1.27.44-.84.91-1.66 1.39-2.48.78-1.3 1.61-2.42 1.62-3.99.01-1.86-.11-3.73-.13-5.6 0-.96-.01-1.92 0-2.88s-.24-2.33.97-2.62c3.81-.91 7.64-1.75 11.47-2.62.36-.08.21-.64-.15-.56Z"/><path d="M305.66 100.05c.85.96 2.08 1.12 3.31 1.11 1.8-.02 3.6-.11 5.4-.09 4 .05 7.98.39 11.93.98l-.21-.28c-.15 1.13-.29 2.25-.44 3.38l.29-.29c-3.53-.02-7.06-.09-10.59-.02-2.83.06-5.68.14-8.52.06-.37 0-.37.57 0 .58 2.83.08 5.68 0 8.52-.06 3.53-.07 7.06 0 10.59.02.17 0 .27-.13.29-.29.15-1.13.29-2.25.44-3.38.01-.11-.1-.26-.21-.28-3.47-.52-6.97-.85-10.48-.96-1.74-.05-3.48-.06-5.23 0-1.53.04-3.55.41-4.68-.88-.25-.28-.65.13-.41.41ZM271.08 99.21c2.25-.66 4.5-.84 6.8-1.24 2.12-.37 4.37-1.08 6.53-1.08.63 0 .98.2 1.49.58 1.06.82 1.99 1.86 2.83 2.9 1.55 1.92 2.71 4.04 4.68 5.6.29.23.7-.18.41-.41-2.06-1.63-3.24-3.92-4.92-5.9-1.04-1.23-2.48-3.26-4.26-3.36-2.1-.12-4.41.63-6.45 1.01-2.45.45-4.86.62-7.26 1.33-.36.1-.2.66.15.56Z"/><path d="M270.71 98.93c-.03 1.29-.15 2.65-.06 3.94.04.57.16 1 .8 1.08.48.06 1.09-.18 1.55-.26.83-.14 1.66-.26 2.49-.36 1.56-.18 3.13-.3 4.7-.34.63-.02 1.26-.04 1.88-.02.78.03 1.07.46 1.41 1.06.26.47.49.94.77 1.4.85 1.4 1.77 2.75 2.71 4.08s1.9 2.67 2.9 3.97c.27.36.55.71.84 1.05.92 1.09.21 2.09-.2 3.26-.97 2.78-1.69 5.65-2.12 8.56-.26 1.76-.72 3.76-.03 5.48.85 2.12 3.11 3.35 4.97 4.46 2.52 1.5 5.1 2.89 7.72 4.2.13.06.33.05.39-.1.65-1.43 1.3-2.85 1.95-4.28.15-.34-.34-.63-.5-.29-.65 1.43-1.3 2.85-1.95 4.28l.39-.1a117.91 117.91 0 0 1-6.83-3.67c-1.91-1.12-4.38-2.29-5.45-4.33-.39-.76-.5-1.51-.47-2.35.06-1.66.35-3.34.66-4.97.52-2.74 1.29-5.43 2.29-8.03.48-1.27.11-1.85-.68-2.81-.93-1.14-1.79-2.35-2.65-3.55-.97-1.36-1.93-2.74-2.84-4.15-.61-.95-1.04-2.15-1.71-3.04-.52-.69-1.25-.69-2.05-.69-1.57 0-3.14.07-4.71.21-1.41.13-2.87.52-4.28.56-.57.02-1.19.16-1.39-.53-.11-.37.02-.93.02-1.31.01-.8.02-1.6.04-2.4 0-.37-.57-.37-.58 0Z"/><path d="M301.06 113.21c-.04 1.77-.63 3.52-1.79 4.87-.7.81-1.68 1.32-2.26 2.25-.67 1.07-1.1 2.39-1.56 3.56-.5 1.27-.99 2.61-1.15 3.97-.2 1.69.64 2.85 1.97 3.78 2.21 1.54 4.44 3.05 6.66 4.56.31.21.6-.29.29-.5-2.11-1.43-4.22-2.86-6.31-4.31-.68-.47-1.38-.92-1.77-1.68-.54-1.06-.25-2.23.06-3.32.43-1.52 1.05-2.98 1.67-4.43.45-1.05.9-1.81 1.81-2.55 1.88-1.54 2.91-3.76 2.96-6.19 0-.37-.57-.37-.58 0ZM310.07 85.96v.03c.08-.07.18-.14.27-.21l.16.09.03.22v-.04c-.05.07-.12.13-.19.2.02 0 .29.2.31.21.12.07.24.15.36.21.26.15.53.28.8.39s.53.22.81.3c.24.08.53.18.77.07.44-.2.37-.77.08-1.07-.19-.19-.43-.33-.65-.49l-.82-.58-.15.54 4.22.09c.2 0 .32-.19.28-.36-.14-.66-.76-1.02-1.38-1.13-.85-.15-1.71.25-2.56.02l-.08.57c.82-.01 1.65-.09 2.46-.24.49-.09 1.52-.21 1.42-.94-.09-.66-1.11-.65-1.6-.66-.78-.02-1.56.11-2.3.38-.36.13-.21.61.15.56.72-.1 1.44-.22 2.15-.39.32-.08.84-.19.93-.57.06-.26-.12-.6-.38-.66-.35-.08-.77-.03-1.13 0-.77.05-1.52.21-2.24.47-.34.13-.2.67.15.56.57-.19 1.14-.4 1.7-.64.4-.17 1.05-.54.59-1.03a.966.966 0 0 0-.26-.19c-.18-.08-.29-.02-.47.05-.39.15-.78.31-1.17.46-.8.31-1.6.63-2.4.94-.34.13-.19.69.15.56 1.27-.5 2.53-.99 3.8-1.49l-.22-.03s.06.03.09.05c.05.06.07.04.05-.04l-.27.15c-.12.06-.25.11-.37.16-.45.19-.91.35-1.37.5l.15.56c1.02-.37 2.09-.52 3.18-.45l-.2-.08c.05.05.08.11.07.02 0-.03.03-.03 0 0-.02.01-.1.05-.13.06-.23.09-.48.14-.72.19-.6.13-1.22.23-1.83.32l.15.56c.55-.2 1.12-.33 1.71-.35.25-.01.5 0 .75.01.07 0 .71.03.72.15.02.19-1.3.35-1.46.37-.61.09-1.23.13-1.85.14-.32 0-.4.48-.08.57.75.2 1.48-.04 2.24-.05.52 0 1.18.18 1.3.75l.28-.36-4.22-.09c-.31 0-.36.38-.15.54l.73.52c.18.13.55.29.65.49.08.16-.07.08-.17.05-.13-.04-.27-.08-.4-.13-.29-.1-.57-.22-.85-.36a7.53 7.53 0 0 1-.73-.41c-.19-.12-.4-.33-.65-.3-.46.05-.4.68.04.69.12 0 .25-.09.28-.21v-.03c.1-.36-.46-.51-.55-.15ZM326.37 102.43c1.09.24 1.67-.88 2.35-1.53.1-.09.29-.33.44-.35.09-.02 0 0-.01-.01.18.17-.12.33-.22.41-.45.34-.72.76-.93 1.28-.09.22.16.39.35.35 1.34-.26 2.59-.62 3.86-1.11.16-.06.34-.12.52-.12.1 0 .49.09.49.11 0-.02-.22.12-.29.16-.22.11-.45.2-.67.29-.77.29-1.55.53-2.35.73-.31.08-.25.61.08.57.87-.12 1.74-.23 2.61-.35.44-.06.87-.12 1.31-.17.09-.01.42-.13.48-.03.04.07-.2.13-.24.14-.67.22-1.39.3-2.08.45-.53.12-1.04.26-1.56.42-.32.1-.25.54.08.57.63.04 1.27.05 1.9.02.23-.01 1.64-.25 1.68.04.05.36-1.27.24-1.46.24h-2.11c-.32 0-.39.48-.08.57.43.12.86.24 1.28.38.12.04 1 .26 1 .41 0 .26-1.66-.3-1.76-.34-.76-.22-1.52-.43-2.31-.49s-1.61-.19-2.39-.48c-.35-.13-.5.43-.15.56.5.18 1.02.32 1.54.4.49.08.98.07 1.47.15 1.05.16 2.03.62 3.07.82.29.06.59.07.83-.11s.38-.54.2-.82c-.21-.31-.68-.43-1-.54-.53-.18-1.07-.34-1.61-.49l-.08.57h2.79c.55 0 1.37-.07 1.37-.8 0-.78-.9-.74-1.44-.7a19 19 0 0 1-2.72.04l.08.57c.72-.23 1.45-.41 2.2-.56.48-.1.98-.17 1.44-.32.25-.08.56-.19.66-.46s-.02-.54-.23-.71c-.34-.27-.83-.08-1.22-.03-1.17.16-2.34.31-3.51.47l.08.57c1.02-.26 2.05-.56 3.01-1.01.27-.12.64-.3.72-.62s-.22-.58-.49-.69c-.73-.31-1.43.16-2.1.4-.97.34-1.98.56-2.99.76l.35.35c.13-.32.31-.62.57-.85.24-.21.6-.36.68-.69.11-.42-.27-.93-.73-.85-.42.08-.79.53-1.06.82-.38.4-.84 1.22-1.49 1.08-.36-.08-.52.48-.15.56ZM270.56 99.71c-.41.05-.83.11-1.24.15s-.72-.03-.96-.4c-.22-.34-.39-.71-.49-1.1s-.13-.77-.29-1.14c-.49-1.14-1.88-1.4-2.99-1.39-.12 0-.25.09-.28.21-.24 1.07-.07 2.15.16 3.21.26 1.15.53 2.29.79 3.44.07.32.08 1 .45 1.15.19.07.43 0 .62-.02l.86-.1 3.59-.4c.36-.04.37-.62 0-.58l-2.52.28-1.22.14-.58.06c-.15.02-.46.11-.61.06l.17.13c-.14-.18-.17-.66-.22-.88-.07-.28-.13-.56-.2-.85l-.42-1.83c-.28-1.19-.62-2.43-.34-3.66l-.28.21c.61 0 1.27.06 1.81.36.72.4.72 1.09.93 1.81.17.58.47 1.35 1.01 1.69.61.39 1.56.1 2.22.02.36-.04.37-.62 0-.58Z"/><path d="M301.65 139.35c.4.29.78.61 1.13.97.18.19.36.38.52.59.25.34.09.61-.09.93-.14.24-.27.49-.41.72-.04.07-.12.26-.18.3-.13.08-.27 0-.4-.02-.38-.05-.73-.04-1.1.11-.64.26-1.15.86-1.24 1.55-.11.8.38 1.24 1.15 1.24 1.09.01 2.19-.08 3.27-.13.45-.02 1.03.06 1.46-.08.37-.12.52-.58.7-.88.53-.94 1.09-1.86 1.59-2.82.4-.76.7-1.66.33-2.49-.38-.89-1.33-1.03-2.14-1.33-1.13-.41-2.1-1.17-3.04-1.91-.29-.23-.7.18-.41.41.68.53 1.36 1.07 2.1 1.5s1.47.58 2.21.9c1.01.43 1 1.46.59 2.34s-.95 1.72-1.43 2.57c-.18.31-.43 1.06-.79 1.17-.2.06-.5.02-.72.03l-.81.03c-.97.04-1.95.12-2.91.11-1.18-.01-.34-1.39.28-1.67s1.39.28 1.84-.39c.27-.41.53-.88.74-1.32.16-.34.2-.68 0-1.02-.44-.77-1.25-1.4-1.96-1.91-.3-.22-.59.28-.29.5Z"/><path d="M305.95 88.15c-1.62 2.13-1.7 4.48-1.7 5.06 0 1.17-.01 2.96 1.26 4.05 1.76 1.5 4.52.42 4.85.29 1.88-.73 2.85-2.2 3.42-3.1 1.73-2.69 3.36-7.77 1.24-9.52-2.02-1.67-6.81.23-9.07 3.21Z" fill="none" stroke="#000" stroke-miterlimit="10" stroke-width=".38"/><path d="M309.65 86.02c.17 1.62.69 3.65 1.22 5.73 1.27 4.96 2.28 5.32 2.64 5.4 1.23.27 2.67-.98 3.34-1.94.5-.71.57-1.24 1.06-3.19.39-1.51.74-2.73.98-3.53a81.794 81.794 0 0 1-3.21-3.44c-.74-.84-1.13-1.32-1.89-1.74-.16-.09-2.26-1.23-3.41-.49-.76.48-.91 1.66-.74 3.21" fill="#c8dea4" stroke="#92a377" stroke-miterlimit="10" stroke-width=".38"/><path d="M317.71 89.18c.02.06.15.06.21.06.27 0 .62-.09 1.34-.73.68-.6.65-.76.64-.82-.04-.15-.23-.22-.38-.26-.21-.03-.49-.04-.68.13-.23.21-.07.48-.28.86-.28.5-.89.62-.85.75Z" fill="#92a377"/><path d="M317.41 88.44c-.35.61-.4 1.38-.13 2.02.03.08.13.18.2.12M313.07 84.49l-.45-.12c-.29-.08-.61-.15-.89-.02-.26.12-.41.41-.45.69s.02.57.09.85c.19.82.42 1.64.77 2.41" fill="none" stroke="#92a377" stroke-miterlimit="10" stroke-width=".38"/><path d="M301.92 96.22c-.44 1.56-.8 3.13-1.09 4.72-.04.23.13.39.35.35 1.6-.24 3.15-.8 4.76-.96.37-.04.37-.61 0-.58-1.67.17-3.26.73-4.92.98l.35.35c.29-1.59.65-3.17 1.09-4.72.1-.36-.46-.51-.56-.15Z"/><g><path d="M29.31 85.54c-.5 1.85-2.71 3.35-4.52 2.92-1.94-.46-2.96-3.17-2.27-6.05s3.92-4.84 4.76-4.37c.49.27-.15 1.16.38 2.84.42 1.33.56 1.37.99 2" fill="none" stroke="#000" stroke-miterlimit="10" stroke-width=".38"/><path d="M28.52 82.97c.14.24.05.49-.08.71a3.632 3.632 0 0 1-1.79 1.53c-.09.04-.15.16-.06.24.73.69 1.88.48 2.76.23.18-.05.1-.33-.08-.28-.41.12-.83.19-1.25.21-.45.02-.89-.05-1.23-.37l-.06.24c.51-.21.97-.5 1.36-.89.27-.27.53-.59.69-.94.12-.28.15-.56 0-.83-.09-.16-.34-.02-.25.15ZM31.37 99.54c.65-.26 1.24-.69 1.79-1.12.06-.04.33-.24.35-.22.06.1-.26.44-.32.51-.12.15-.29.32-.27.52.02.38.42.34.68.26.63-.18 1.33-.21 1.98-.27.13-.01.36.03.47-.02 0 0 .04.01.05 0l-.11-.25-.05.05c-.07.02-.15.11-.21.15-.19.11-.41.15-.62.2l-.88.23c-.31.08-.25.57.08.57.44 0 .88-.04 1.31-.11.25-.04.49-.07.74 0 .07.02.21.11.27.1.08.05.09 0 .03-.17l-.12.06c-.06.03-.12.05-.19.06-.18.06-.36.09-.55.1-.43.03-.86.07-1.29.14-.34.06-.22.54.08.57.42.04.83.1 1.23.2.16.04.32.11.48.14.03.01.05.02.07.04-.07-.06-.08-.15-.03-.27-.03-.01-.25.07-.3.07-.26 0-.55-.08-.81-.13-.18-.03-.43-.12-.61-.1-.26.03-.43.39-.15.54.1.05.22.06.32.09.19.05.35.13.49.27.02.02.03.05.04.08.03.08.07.03.12-.15h-.07c-.07-.04-.22-.03-.3-.05-.22-.05-.43-.13-.64-.19-1.05-.34-2.13-.55-3.22-.69-.37-.05-.36.53 0 .58.76.1 1.51.24 2.25.43.5.13.98.32 1.49.44.23.05.53.12.75 0 .26-.14.24-.45.11-.68s-.35-.39-.58-.49a2.19 2.19 0 0 0-.33-.12c-.04-.01-.26-.08-.14-.02l-.15.54.07.01c.08.01.16.03.24.04.18.03.36.07.53.1.41.08 1.1.2 1.37-.24.48-.8-1.88-.97-2.24-1l.08.57c.54-.09 1.1-.07 1.63-.19.35-.08 1.09-.29.89-.79-.15-.37-.76-.49-1.11-.49-.26 0-.52.06-.78.09-.33.04-.66.06-.99.06l.08.57c.49-.13 1.03-.21 1.49-.42.27-.12.7-.38.68-.73s-.43-.38-.7-.37c-.48.01-.96.09-1.44.14-.29.03-.59.06-.87.14-.05.01-.14.03-.18.05-.1.06-.14-.08.03.16.15.22.05.17.14.08.1-.1.19-.24.28-.35.17-.23.35-.51.26-.81s-.4-.47-.69-.41c-.32.07-.58.34-.84.53-.21.16-.42.31-.65.43-.22.12-.44.28-.67.37-.34.14-.19.69.15.56ZM22.61 89.65c.56.77 1.24 1.44 1.96 2.06.49.42.87.78 1.53.5 1.36-.57 1.3-2.49 2.9-2.72 2.46-.36 5.19.35 7.63.64 1.37.16 2.75.29 4.13.43.79.08 1.75.08 2.29.69.4.45.6 1.51.74 2.09l.28-.36c-3.95.39-7.91.79-11.82 1.49-.36.07-.21.62.15.56 3.86-.69 7.77-1.09 11.67-1.47.19-.02.32-.17.28-.36-.19-.8-.45-2.02-1.04-2.64s-1.95-.5-2.76-.58c-2.74-.28-5.47-.67-8.22-.95-1.58-.16-3.87-.64-5 .81-.38.49-.63 1.41-1.21 1.69-1.01.5-2.47-1.42-3.01-2.15-.22-.3-.72 0-.5.29Z"/><path d="M22.72 89.26c-1.34.18-2.69.6-3.71 1.53-.89.81-1.3 2.04-1.76 3.12-.55 1.29-1.03 2.62-1.37 3.98-.25.99-.97 2.85.35 3.38.34.14.72.12 1.08.18s.74.17 1.1.27c1 .29 2 .59 3.03.78.16.03.3-.04.35-.2.34-1.07.57-2.22.84-3.32a.288.288 0 0 0-.2-.35c-.53-.14-1.06-.29-1.59-.46s-.79-.39-.61-.92c.3-.88.74-1.72 1.14-2.56.16-.33-.34-.63-.5-.29-.46.97-1.15 2.07-1.32 3.15-.07.45.06.76.48.96.68.33 1.51.48 2.24.67l-.2-.35c-.27 1.1-.49 2.25-.84 3.32l.35-.2c-1-.19-1.97-.47-2.95-.76-.39-.11-.78-.23-1.18-.3-.3-.05-.64-.03-.93-.13-.95-.34-.3-1.87-.14-2.56a29.49 29.49 0 0 1 1.65-4.68c.28-.63.53-1.36.97-1.91.91-1.16 2.47-1.62 3.87-1.81.37-.05.21-.61-.15-.56Z"/><path d="M31.46 101.29c0 .6.12 1.14.24 1.72.14.66.31 1.56-.53 1.73-.75.16-1.61.07-2.38.08-.81.01-1.62.03-2.43.04l-4.85.09c-.16 0-.42.06-.58.01-.34-.12-.2-.31-.14-.57s.15-.48.23-.72c.16-.48.25-.96.31-1.47.04-.37-.54-.37-.58 0-.08.72-.32 1.34-.52 2.04-.13.46-.24 1.07.34 1.26.37.12.89.02 1.27.02.5 0 1-.02 1.5-.03l3.12-.06 3-.06c.72-.01 1.67.11 2.32-.26 1.23-.7.22-2.78.23-3.84 0-.37-.57-.37-.58 0ZM31.03 93.94c.61.79 1 1.73 1.07 2.73.02.21.04.43 0 .64-.03.18-.12.35-.19.52-.16.34-.37.69-.44 1.07s.49.52.56.15c.08-.4.31-.76.47-1.12.19-.44.22-.85.17-1.33-.1-1.06-.49-2.09-1.14-2.93-.22-.29-.72 0-.5.29ZM43.01 90.55c2.31-1.26 4.63-2.51 6.94-3.77.33-.18.04-.67-.29-.5-2.31 1.26-4.63 2.51-6.94 3.77-.33.18-.04.67.29.5ZM44.26 93c2.19-1.61 4.38-3.19 6.76-4.51.32-.18.03-.68-.29-.5-2.38 1.32-4.57 2.91-6.76 4.51-.3.22 0 .72.29.5Z"/><path d="M22.44 99.72c2.95-.12 5.9-.05 8.85-.17.37-.02.37-.59 0-.58-2.95.12-5.9.05-8.85.17-.37.02-.37.59 0 .58ZM21.87 102.03c3.2-.21 6.38-.77 9.59-.66.37.01.37-.56 0-.58-3.21-.11-6.39.45-9.59.66-.37.02-.37.6 0 .58ZM31.72 105.18c1.28 3.22 3.73 5.66 5.8 8.36 1.14 1.48 2.2 3.08 2.71 4.9.64 2.26.23 4.65.03 6.95-.22 2.49-.45 4.98-.67 7.47l-.15 1.69c-.05.53.02 1.44-.17 1.93-.4.98-1.09 1.11-2.02 1.13s-2.16.09-2.44-1.09c-.11-.48.06-1.23.08-1.72.03-.57.05-1.14.08-1.72l.18-3.92c.11-2.42.32-4.86.33-7.28.01-2.24-1.72-3.42-3.14-4.94-1.79-1.9-3.55-3.83-5.37-5.71-.26-.27-.67.14-.41.41 1.82 1.87 3.58 3.8 5.37 5.71.83.88 1.94 1.75 2.59 2.77.75 1.17.33 3.08.27 4.39l-.39 8.58c-.05 1.19-.31 2.54-.16 3.72.07.56.27.87.8 1.09 1.07.45 3.75.7 4.53-.4.49-.69.37-1.91.44-2.7l.39-4.34c.25-2.8.59-5.6.74-8.4.11-2.01-.2-3.88-1.09-5.69-2.05-4.14-6.03-6.99-7.76-11.33-.14-.34-.69-.19-.56.15Z"/><path d="M20.38 105.48c-1.41 2.5-2.82 5-4.25 7.49l-1.14 1.98c-.18.31-.43 1.05-.8.95-.48-.14-.53-1.76-.61-2.26-.15-.96-.27-1.92-.36-2.88-.07-.74-.11-1.49-.14-2.23-.03-.7.1-1.53-.05-2.21-.25-1.17-1.39-.7-2.19-.41-1.1.39-2.66.84-3.51 1.66-.76.74-.18 2.51-.08 3.4.18 1.54.39 3.07.62 4.6.25 1.67.52 3.35.86 5 .24 1.17.63 2.38 1.59 3.17 2.13 1.73 4.29-.57 5.89-1.9 1.38-1.15 2.8-2.23 4.02-3.54 2.3-2.46 4.62-4.91 6.92-7.37.25-.27-.15-.68-.41-.41-1.96 2.1-3.94 4.18-5.9 6.28-.94 1.01-1.84 1.96-2.89 2.84-.8.67-1.6 1.34-2.4 2-1.08.9-2.54 2.58-4.12 2.07s-1.97-2.38-2.24-3.8a133.664 133.664 0 0 1-1.41-9.32c-.07-.62-.34-1.52-.22-2.14.15-.82 1.39-1.16 2.05-1.45.49-.21 1.65-.89 2.2-.83.99.12.67 1.67.69 2.34.05 1.39.17 2.78.36 4.16.1.74.22 1.48.35 2.21.09.47.1 1.14.39 1.56.41.59.95.28 1.28-.2.59-.83 1.04-1.78 1.55-2.66 1.49-2.6 2.96-5.21 4.44-7.82.18-.32-.32-.61-.5-.29Z"/><path d="m12.32 105.6-.05-2.89c0-.31.08-.78-.11-1.06-.17-.25-.6-.34-.86-.44-1.71-.67-3.45-1.23-5.23-1.7-.42-.11-.85-.21-1.28-.31-.34-.08-.72-.2-1.07-.1-.61.18-.77 1.07-.84 1.62-.09.71.15 1.27.73 1.68.65.47 1.41.8 2.17 1.04.71.23 1.54.42 2.1.96.63.62.44 1.59.32 2.38-.06.36.5.52.56.15.17-1.1.32-2.3-.64-3.09s-2.34-.91-3.44-1.48c-.31-.16-.66-.34-.92-.58-.33-.3-.36-.71-.28-1.13.06-.31.15-.95.52-1.02.34-.07.87.17 1.2.25 1.57.38 3.12.85 4.64 1.39.41.15.82.3 1.23.46.16.06.51.13.61.3.08.13 0 .51.01.68l.05 2.89c0 .37.58.37.58 0ZM35.24 137.77c.05 1.06-.32 2.06-.54 3.09-.16.76-.43 1.87.4 2.33 1 .56 1.96 1.18 2.92 1.82.41.28.82.57 1.24.84.39.25 1 .23 1.46.24.7.02 1.67.03 2.3-.33s.53-1.11.26-1.67c-.31-.66-.83-1.17-1.45-1.54-.74-.44-1.45-.8-2.04-1.43-.37-.39-.68-.84-.94-1.31-.29-.52-.18-1.22-.18-1.8 0-.37-.58-.37-.58 0 0 .46-.01.92 0 1.38.01.44.32.84.55 1.19.39.59.86 1.12 1.41 1.56.99.77 2.5 1.15 2.83 2.54.19.82-1 .79-1.56.82-.39.02-.79.01-1.18-.02-.6-.05-1.01-.4-1.5-.73-.98-.66-1.95-1.38-3-1.92-.26-.14-.51-.21-.55-.55-.06-.5.09-1.06.21-1.54.23-.98.55-1.94.49-2.96-.02-.37-.59-.37-.58 0ZM23.4 88.02v.14c0 .07 0-.04 0 0-.02.07-.03.13-.05.19 0 0-.03.06 0 .03.02-.04 0 0 0 .02-.02.03-.03.07-.05.1-.04.06-.07.13-.11.19s-.08.12-.12.17c-.05.06.02-.03 0 0-.01.02-.02.03-.04.05a.5.5 0 0 1-.07.08c-.09.11-.18.22-.28.32-.1.11-.12.3 0 .41.11.1.3.12.41 0 .21-.25.43-.49.61-.77s.33-.6.3-.93c-.01-.15-.12-.3-.29-.29-.15 0-.3.13-.29.29ZM27.21 87.94c-.12.31-.1.69-.01 1 .1.37.34.7.71.84.14.05.32-.06.35-.2.04-.16-.05-.3-.2-.35-.05-.02 0-.01 0 0-.01-.01-.04-.02-.05-.03s-.03-.02-.04-.03c-.05-.03.03.03 0 0l-.07-.07c-.01-.01-.02-.03-.03-.04.02.02.03.05 0 0a.922.922 0 0 1-.05-.08c-.02-.03-.03-.07-.05-.09.02.04.02.05 0 .02v-.02s-.02-.03-.02-.05l-.03-.11c0-.03-.02-.07-.02-.1v-.05.03-.33.01-.05c.01-.06.03-.12.05-.18.06-.14-.06-.32-.2-.35-.17-.04-.29.05-.35.2ZM49.92 86.87c.57-.54.92-1.18 1.31-1.85.05-.08.09-.16.16-.22.04-.04.03-.03.03.03 0 .24-.09.47-.15.71-.05.21-.08.46.13.59.29.17.54-.13.75-.29.22-.17.48-.31.72-.46.37-.22.74-.45 1.12-.65.05-.03.18-.06.22-.1 0 0 .04 0 .04-.01-.05-.02-.08-.06-.1-.12-.06-.13-.09-.16-.11-.09-.04.02-.08.17-.11.21-.05.09-.12.16-.19.23-.34.33-.75.61-1.12.91-.28.23.08.61.36.47.41-.2.8-.41 1.18-.66.19-.13.38-.25.61-.31.11-.03.24 0 .34-.04h.06c.09 0 .06-.06-.07-.2-.03 0-.18.2-.21.23-.14.13-.28.23-.44.32-.4.23-.81.45-1.19.7-.27.18-.11.67.23.55.41-.14.83-.27 1.26-.36.18-.04.39-.03.56-.08h.06c-.04-.24-.09-.3-.17-.2-.09.04-.16.13-.26.17-.26.1-.55.15-.82.22-.19.05-.45.07-.62.18-.25.16-.15.56.15.56.11 0 .22-.04.33-.06.09-.01.17-.02.26-.02.11 0 .21.06.32.07l.06.04.05-.2s-.06.04-.08.04c-.1 0-.2.06-.3.08-.2.04-.4.06-.6.08-.99.12-1.96.32-2.92.59-.37.1-.21.68.16.58.68-.19 1.37-.35 2.07-.47.53-.09 1.08-.11 1.6-.24.21-.05.45-.13.57-.32.15-.24 0-.5-.21-.65-.23-.16-.5-.21-.78-.21-.13 0-.25.02-.38.04-.05 0-.27.03-.14.03l.15.56c-.09.06.03 0 .08-.01l.24-.06c.18-.05.37-.09.55-.14.42-.1 1-.26 1.14-.74.31-1.04-2.16-.18-2.48-.06l.23.55c.49-.33 1.06-.56 1.52-.92.3-.23.95-.81.42-1.16-.33-.22-.91-.06-1.23.09-.23.11-.44.26-.66.39-.31.19-.62.35-.94.51l.36.47c.38-.31.8-.59 1.15-.94.21-.22.54-.64.44-.97s-.47-.29-.72-.18c-.44.19-.85.46-1.26.71-.29.18-.6.34-.87.56-.05.04-.12.08-.16.14l-.07.06.27.23v-.03c.07-.08.09-.32.11-.43.07-.28.14-.63-.04-.89s-.55-.34-.82-.18c-.3.18-.44.57-.6.86-.27.49-.58.93-.99 1.31-.28.26.14.69.42.42Z"/><g><path d="M27.33 78.1c.37.3-.12.86.17 2.15.1.48.25 1.29.83 1.98.19.23.52.55.5.99 0 .18-.07.31-.17.5-.05.09-.28.54-.83.99-.23.19-.61.46-1.16.66.27.13.73.3 1.32.33.57.03 1.04-.08 1.32-.17a2.945 2.945 0 0 1-1.45 2.01c0 .04-.02.09-.02.13.45-.13 3.8-1.15 5.11-4.45.1-.26 1.41-3.71-.46-6.14-.83-1.08-1.93-1.49-3.17-1.97-1.51-.57-2.82-.67-5.29-.83-.7-.05-1.63-.12-2.87-.1-1.85.02-2.89.2-3.75.27-1.38.11-3.4 0-6.04-1.01.13.42.38 1.07.91 1.74.65.81 1.4 1.23 1.82 1.43-.18.11-.46.25-.83.33-.31.07-.56.07-.75.07-.93-.02-1.66-.22-1.66-.22-2.08-.5-4.16-1.01-6.23-1.51.44.82 1.13 1.88 2.16 2.96 1.09 1.13 2.18 1.87 3.01 2.35-.62.31-1.52.66-2.65.83-1.75.25-3.17-.08-3.97-.33.24.62 1.01 2.35 2.83 3.28.16.08.96.48 2.09.62.96.11 1.18-.08 2.63-.2 1.83-.15 3.29.02 4.03.11 0 0 .99.12 1.98.33 2.89.62 5.49 2.01 6.79 2.77-.63-.91-.89-1.75-1-2.27-.17-.75-.15-1.31-.12-2.39.02-.58.06-.91.17-1.26.05-.15.17-.55.57-1.19.39-.62.86-1.34 1.69-1.95.09-.06 1.86-1.34 2.48-.83Z" fill="#a5b38e"/><path d="M27.12 78.3c.22.26-.02 1.22.01 1.54.06.59.22 1.24.47 1.78.32.67 1.07 1.18.77 2-.26.73-1.2 1.22-1.85 1.5-.26.11-.13.44.07.53.91.38 1.85.43 2.8.17l-.35-.35c-.2.85-.7 1.14-1.21 1.77-.14.17-.21.11-.25.36-.04.21.13.42.35.35 2.3-.67 4.38-2.33 5.28-4.59s.88-5.44-1.18-7.18c-2.54-2.13-6.47-2.17-9.6-2.27-1.77-.06-3.49.17-5.25.27-1.97.11-3.89-.34-5.73-1.02-.2-.08-.42.16-.35.35.48 1.48 1.47 2.65 2.87 3.33v-.5c-1.32.71-2.86.18-4.21-.14-1.68-.41-3.36-.82-5.03-1.22-.24-.06-.45.2-.33.42a14.43 14.43 0 0 0 5.28 5.41v-.5c-2.02.96-4.25 1.11-6.39.47-.19-.06-.44.15-.35.35.56 1.38 1.48 2.62 2.8 3.36 1.59.88 3.08.73 4.8.57 4.55-.43 8.97.88 12.88 3.14.24.14.55-.15.39-.39-1.08-1.68-1.63-4.26-.74-6.16.44-.96 1.14-1.9 1.99-2.52.47-.34 1.55-1.13 2.15-.8.32.18.62-.32.29-.5-1.62-.9-3.89 1.77-4.57 2.88-1.36 2.24-.99 5.25.38 7.39l.39-.39c-3.2-1.85-6.66-3.05-10.36-3.27-1.99-.12-4.16.57-6.09.04-1.77-.48-3.09-1.82-3.77-3.5l-.35.35c2.29.69 4.68.5 6.84-.53.2-.1.17-.39 0-.5a13.756 13.756 0 0 1-5.07-5.2l-.33.42c2.09.51 4.17 1.06 6.26 1.52 1.17.26 2.34.37 3.43-.21.18-.1.19-.4 0-.5-1.25-.62-2.17-1.66-2.6-2.99l-.35.35c1.55.58 3.16.99 4.82 1.05 1.16.04 2.29-.15 3.44-.23 1.64-.11 3.28-.04 4.92.07s3.13.21 4.62.74c2.12.75 3.84 1.94 4.08 4.35.11 1.1-.07 2.28-.45 3.32-.8 2.15-2.78 3.75-4.95 4.38l.35.35c.03-.15.83-.76.92-.88.28-.38.44-.8.55-1.26.05-.21-.14-.42-.35-.35-.85.24-1.68.17-2.49-.17l.07.53c1.03-.44 2.76-1.64 2.15-2.98-.26-.57-.73-.94-.95-1.56-.2-.54-.32-1.18-.32-1.74 0-.52.2-1.01-.16-1.44-.24-.28-.65.13-.41.41Z" fill="#c8dea4"/></g></g><g><path d="M121.99 85.17c-.2-.37-.37-.75-.51-1.14-.07-.21-.14-.44-.35-.56-.23-.13-.47-.08-.7.02-.32.14-.63.32-.96.46-.39.16-.8.31-1.23.33-.33.02-.65-.05-.97-.11-.2-.04-.43-.07-.62.05-.23.15-.26.44-.18.68.1.32.35.63.31.98-.05.42-.52.64-.86.77s-.19.69.15.55c.59-.22 1.22-.6 1.28-1.29.03-.32-.08-.61-.2-.89-.05-.11-.08-.24-.14-.34 0 0-.08 0-.01.02.21.07.47.09.69.12.37.05.75.04 1.11-.05.69-.15 1.27-.52 1.91-.79.19-.08.17.06.24.25.15.42.33.82.54 1.22.18.33.67.04.5-.29ZM125.92 88.64c.67 4.09.72 8.25.9 12.37.02.37.59.37.57 0-.19-4.18-.24-8.39-.92-12.53-.06-.36-.61-.21-.55.15ZM115.15 92.16c-.2 3.09-.39 6.17-.59 9.26-.02.37.55.37.57 0 .2-3.09.39-6.17.59-9.26.02-.37-.55-.37-.57 0Z"/><path d="M126.66 100.83c.11 7.67-.19 15.35-.94 22.98-.39 3.94-.89 7.87-1.5 11.78-.15.96-.3 1.91-.47 2.86-.1.61-.12 2.14-.56 2.54s-2.13.19-2.75.16c-1.03-.04-2.05-.13-3.07-.26l.29.29c.64-4.75 1.41-9.49 1.75-14.27s.32-9.48.32-14.22c0-.37-.57-.37-.57 0 0 4.74.01 9.49-.32 14.22s-1.12 9.53-1.75 14.27c-.02.17.15.27.29.29 2.05.26 4.09.34 6.15.22.12 0 .25-.08.28-.21 2.43-13.42 3.62-27.01 3.43-40.65 0-.37-.58-.37-.57 0ZM114.03 141c0 .79 0 1.57-.03 2.36-.02.59 0 1.22-.16 1.78l.28-.21c-1.77.1-3.54.23-5.31.3-.73.03-1.55.13-2.28 0-.13-.02-.41-.11-.52-.25-.24-.3.25-.72.44-.91.44-.42.98-.71 1.55-.91 1.33-.47 2.37-1.4 3.23-2.5.23-.29-.18-.7-.41-.41-.87 1.11-1.84 1.92-3.16 2.42-.64.24-1.24.6-1.72 1.1-.39.41-.82 1.01-.4 1.54.51.66 1.54.54 2.27.52 1.15-.02 2.3-.09 3.45-.16.95-.06 1.91-.13 2.86-.18.13 0 .24-.08.28-.21.17-.57.15-1.18.18-1.77.03-.84.04-1.68.03-2.53 0-.37-.58-.37-.57 0Z"/><path d="M118.29 145.73c1.75-.03 3.5-.06 5.25-.1.87-.02 1.75-.01 2.63-.05.34-.01.44-.14.65-.4.17-.22.33-.45.44-.71.54-1.35-.94-1.65-1.91-1.86-1.34-.29-2.64-.71-3.91-1.22-.34-.14-.49.42-.15.55 1.09.44 2.2.81 3.33 1.09.53.13 1.07.21 1.59.38.21.07.47.16.56.37.11.26-.09.6-.23.8-.07.11-.14.22-.24.31-.13.13-.09.11-.31.11-.35 0-.7.01-1.05.02-.73.01-1.46.03-2.19.04-1.49.03-2.98.05-4.46.08-.37 0-.37.58 0 .57Z"/><path d="M118.01 141.27c.02 1.39.04 2.78.05 4.18 0 .37.58.37.57 0-.02-1.39-.04-2.78-.05-4.18 0-.37-.58-.37-.57 0ZM115.54 104.45c.58.44 1.37.53 2.05.31.72-.23 1.3-.75 1.56-1.46.05-.15-.06-.31-.2-.35-.16-.04-.3.05-.35.2-.4 1.08-1.86 1.5-2.76.81-.12-.09-.32-.02-.39.1-.09.15-.02.3.1.39ZM124.29 102.73c.04 1.35.62 2.68 1.63 3.59.27.25.68-.16.41-.41a4.5 4.5 0 0 1-1.46-3.18c-.01-.37-.59-.37-.57 0Z"/><path d="M123.23 79.04c.36 1.73-1.74 5.53-5.11 5.51-3.4-.02-5.51-3.91-5.03-5.59.14-.48.47-.71.83-1.81.38-1.15.24-1.57.66-1.99.48-.48.88-.14 1.87-.54 1.27-.52 1.23-1.34 2.1-1.45.64-.08.7.36 2.35 1.09 1.27.56 1.69.5 1.94.99.25.5-.04.84 0 1.92.04.96.3 1.48.38 1.88Z" fill="none" stroke="#000" stroke-miterlimit="10" stroke-width=".77"/><path d="M111.62 111.53c.35.95 1.18 1.32 1.94 1.89.03.02.31.25.2.3.03-.01-.3-.21-.34-.23-.26-.15-.52-.32-.79-.46-.43-.22-.83-.07-.87.44-.04.55.08 1.15.25 1.68s.54 1 .72 1.54c.04.11.02.27.06.37.14.01.15-.01.04-.08-.04-.04-.08-.08-.12-.13a2.56 2.56 0 0 1-.34-.63c-.18-.44-.32-.9-.61-1.29-.19-.25-.61-.11-.53.22.19.78.51 1.5.75 2.27.02.06.08.16 0 .04a.742.742 0 0 1-.1-.26c-.06-.18-.11-.36-.17-.55-.13-.43-.27-.85-.4-1.28-.08-.26-.48-.28-.56 0-.09.33.03.59.14.9.07.19.13.39.18.59.04.16.03.44.1.58.05.09 0-.08-.01-.11-.02-.09-.06-.18-.08-.26-.05-.18-.11-.36-.16-.54-.11-.38-.22-.76-.34-1.15-.1-.36-.65-.21-.56.15.03.12.5 1.65.37 1.69l.22.03c.04.07.04.04-.01-.08l-.08-.23-.12-.35c-.09-.27-.18-.55-.27-.82-.16-.51-.31-1.03-.41-1.55-.18-1.02-.02-2.02.18-3.03.07-.36-.48-.52-.56-.15-.16.78-.31 1.6-.28 2.4.04.93.3 1.84.59 2.72.14.43.26.87.42 1.29.11.28.39.47.66.24.25-.21.25-.6.2-.89-.08-.48-.24-.95-.37-1.41l-.56.15c.16.56.33 1.13.49 1.69.11.36.27.82.73.81s.52-.47.47-.84c-.04-.29-.1-.57-.19-.84-.08-.25-.29-.56-.22-.83h-.56c.2.63.37 1.28.6 1.91.13.37.43.77.88.62.53-.19.33-.82.18-1.2-.24-.61-.46-1.21-.62-1.85l-.53.22c.5.67.55 1.63 1.2 2.2.28.24.69.29.85-.1s-.05-.89-.24-1.25c-.25-.48-.5-.93-.63-1.46-.07-.28-.11-.57-.12-.86 0-.05-.04-.27 0-.31-.11.1.28.26.33.29.24.14.49.29.73.43.19.11.37.19.58.1.33-.14.43-.57.29-.88-.19-.41-.7-.62-1.06-.86-.43-.29-.86-.63-1.04-1.13-.13-.34-.69-.2-.56.15ZM109.26 110.76c-.6-4.91.07-9.7 1.28-14.46.51-2.01 1.09-4 1.72-5.97.13-.41.24-1.31.54-1.63.34-.37 1.32-.59 1.79-.81.77-.37 1.55-.74 2.32-1.11.33-.16.04-.66-.29-.5-.77.37-1.55.74-2.32 1.11-.54.26-1.51.5-1.93.93-.27.27-.35.87-.46 1.23-.67 2.06-1.29 4.14-1.84 6.24-1.28 4.92-2.01 9.89-1.4 14.98.04.36.62.37.57 0Z"/><path d="M115.34 92.08c-2.2 6.31-3.09 12.86-3.2 19.52l.36-.28-3.46-.84c-.36-.09-.51.47-.15.55l3.46.84c.18.04.36-.09.36-.28.1-6.61.99-13.11 3.18-19.37.12-.35-.43-.5-.55-.15ZM131.15 107.25c.06.53-.11 1.01-.35 1.48-.2.38-.51.77-.59 1.2-.06.33.09.7.44.8.45.14.66-.33.85-.64.14-.23.29-.45.42-.68.07-.13.05-.16.11-.03s.13.27.18.42c.18.49.27 1.01.27 1.54 0 .45-.07.92.07 1.36.11.32.4.66.77.49s.42-.81.42-1.16c0-.56-.15-1.13-.06-1.69h-.56c.15.63.21 1.27.28 1.91.04.41.15 1.09.71.99.52-.09.54-.66.48-1.07-.1-.63-.21-1.26-.32-1.89l-.48.28c.16.17.12.5.15.72.04.29.1.57.19.84.11.35.32.82.78.64s.4-.71.33-1.11c-.11-.58-.21-1.16-.32-1.73l-.56.15c.09.44.16.9.28 1.33.08.3.23.62.54.74.87.34.42-1.29.37-1.62-.13-.86-.26-1.73-.58-2.55a7.59 7.59 0 0 0-1.15-1.94c-.23-.29-.64.12-.41.41.59.74 1.02 1.56 1.25 2.48.12.46.2.93.27 1.4.04.24.07.48.11.72l.06.43.03.18c.01.12.02.15.01.08l.17-.13c-.09.02-.39-1.57-.41-1.68-.08-.37-.62-.21-.56.15s.14.74.21 1.11c.04.21.08.41.11.62.02.09.03.19.04.28.03.19.02.06-.02-.06-.12-.36-.19-.74-.23-1.12-.03-.29-.07-.54-.28-.76s-.53.02-.48.28c.07.4.13.8.2 1.2l.09.57c.02.1.03.21.04.31 0 .07.04.28-.03.03-.1-.37-.08-.78-.13-1.17s-.13-.8-.22-1.19c-.06-.26-.51-.29-.56 0-.08.51 0 1 .03 1.51.02.26.03.53-.04.78-.02.07-.04.14-.08.21.13.02.16 0 .1-.08 0-.1-.09-.3-.1-.41-.04-.53.04-1.04-.04-1.57s-.22-1-.44-1.47c-.17-.35-.52-.69-.89-.35-.19.17-.31.45-.45.67-.08.13-.16.26-.24.4-.02.04-.17.31-.16.31-.08.02.03-.31.05-.35.06-.13.15-.26.22-.39.13-.24.26-.47.37-.72.21-.46.34-.95.28-1.46-.04-.36-.62-.37-.58 0Z"/><path d="M134.28 105.77a55.26 55.26 0 0 0-3.77-13.27 56.25 56.25 0 0 0-3-6.02c-.59-1.02-.57-1.04-1.75-1.13l-4.02-.33c-.37-.03-.37.55 0 .57 1.15.09 2.3.19 3.45.28.52.04 1.15-.04 1.52.37.29.32.49.83.7 1.21 1.11 1.99 2.1 4.04 2.95 6.15 1.59 3.96 2.72 8.1 3.37 12.31.06.36.61.21.55-.15Z"/><path d="M126.45 92.64c.73 2.52 1.39 5.05 2.05 7.59s1.31 4.85 1.78 7.31c.04.19.27.25.42.17 1.12-.59 2.33-1.02 3.45-1.61.33-.17.04-.67-.29-.5-1.12.59-2.33 1.02-3.45 1.61l.42.17c-.47-2.46-1.15-4.89-1.78-7.31S127.73 95 127 92.48c-.1-.35-.66-.2-.55.15ZM111.06 117.56c-1.26 7.58-2.01 15.23-2.25 22.91 0 .15.14.29.29.29 1.96-.08 3.89.07 5.81.48.2.04.34-.09.36-.28 1.05-9.51 2.17-18.89 4.45-28.2.09-.36-.47-.51-.55-.15-2.29 9.36-3.42 18.79-4.47 28.35l.36-.28c-1.97-.42-3.95-.59-5.96-.5l.29.29c.24-7.63.98-15.23 2.23-22.76.06-.36-.49-.52-.55-.15ZM114.57 101.34c-.89 3.49-1.79 6.98-2.68 10.47-.09.36.46.51.55.15.89-3.49 1.79-6.98 2.68-10.47.09-.36-.46-.51-.55-.15Z"/><g><path d="M123.26 79.77c1.1-2.09 1.02-3.21.73-3.85-.15-.32-.55-1.11-.62-1.94-.03-.3 0-.6.04-.89l.09-.77c.03-.26-.03-.63-.28-.63-.1 0-.19.08-.29.12-.22.09-.48-.03-.63-.23-.15-.19-.22-.44-.29-.68-.15.04-.28.14-.36.27l-.67-.78c-.03.24-.25.44-.48.43-.23 0-.44-.23-.45-.47-.18.29-.4.61-.73.65-.21.02-.41-.07-.59-.17-.51-.27-1-.58-1.47-.93-.05-.04-.11-.08-.17-.08-.13 0-.2.15-.24.28-.07.22-.15.45-.33.57-.18.12-.49.04-.52-.19-.12.74-.71 1.29-1.26 1.78-.17.15-.36.31-.58.31-.25 0-.52-.21-.72-.06-.17.11-.19.4-.38.47-.26.09-.47-.33-.74-.29.11.31-.22.67-.52.57-.19-.06-.45-.24-.55-.06-.03.06-.02.13-.01.2.05.34.11.69.16 1.03-.11-.06-.23-.11-.34-.17.28.66.56 1.33.84 1.99.13.32.27.64.3.99.02.25-.02.5-.02.75v.26c0 .18.84 2.65.99 2.59.06-.03-.21-.44-.08-.98.12-.53.52-.67.85-1.07.81-.97.01-1.96.7-2.79.63-.76 1.42-.06 2.27-.96.4-.42.71-1.07 1.32-1.12.08 0 .15 0 .23.01.62.07 1.02.44 1.23.59 1 .75 1.88.04 2.42.76.21.29.26.65.34 1.21.07.54 0 .7.11 1.23.04.18.07.28.32.96.09.24.22.61.39 1.07Z" fill="#ff7556"/><path d="M123.51 79.92c.69-1.34 1.3-2.84.65-4.3-.25-.56-.47-1.13-.51-1.75-.03-.57.15-1.13.14-1.69 0-.26-.07-.57-.32-.71-.16-.09-.25-.02-.41-.03-.46-.03-.65-.13-.78-.61-.06-.2-.25-.24-.42-.17-.18.08-.3.17-.42.32h.41l-.67-.78c-.15-.17-.42-.07-.48.13l-.38-.04c-.06-.25-.4-.27-.53-.07-.74 1.15-1.78-.42-2.58-.63-.17-.04-.32-.03-.46.09-.06.05-.1.13-.14.2-.02.03-.31.68-.36.55-.09-.24-.49-.3-.55 0-.13.57-.47.99-.88 1.38-.13.12-.35.37-.51.44-.26.11-.43-.06-.68-.05-.31 0-.35.13-.56.3s-.14.13-.37.04c-.16-.06-.23-.1-.4-.11-.14-.01-.3.14-.29.29.03.23-.44.16-.5.17-.07 0-.14-.03-.21-.01-.13.03-.26.13-.32.25-.18.36.08 1.06.14 1.42l.42-.32-.34-.17c-.27-.13-.5.13-.39.39.45 1.05 1.14 2.17 1.09 3.34-.02.43.03.75.16 1.16.17.52.35 1.05.56 1.55.11.26.21.65.54.68.13.01.24-.1.28-.21.07-.21-.09-.47-.11-.68-.03-.54.35-.77.67-1.11.55-.58.61-1.22.6-1.98 0-.58.15-1.13.78-1.26.31-.07.62-.04.93-.14.78-.25.97-1.05 1.62-1.43.75-.44 1.42.43 2.04.69.7.29 1.75-.09 2.06.76.25.68.09 1.44.27 2.13.17.65.45 1.28.68 1.91.12.35.68.2.55-.15-.27-.74-.68-1.54-.75-2.33-.07-.74.03-1.65-.47-2.26-.58-.71-1.56-.27-2.28-.67-.63-.35-1.17-.9-1.97-.75-.94.18-1.15 1.35-2.07 1.58-.76.19-1.44.09-1.82.95-.18.4-.14.82-.14 1.24 0 .66-.21 1.07-.7 1.53-.31.29-.52.59-.57 1.02-.02.17-.01.33.02.5.01.07.05.42.1.29l.28-.21c.36.03.13.12.13 0 0-.06-.08-.17-.11-.23-.1-.23-.18-.46-.27-.7-.15-.42-.34-.86-.43-1.3-.1-.5.05-1.12-.13-1.67-.28-.87-.7-1.71-1.06-2.54l-.39.39.34.17c.24.12.46-.07.42-.32-.02-.1-.2-.79-.12-.86.01-.01.43.05.53.02.37-.11.55-.47.51-.83l-.29.29c.34.03.49.43.89.25.21-.1.28-.41.5-.46.17-.04.41.11.61.07.45-.08.85-.55 1.15-.85.39-.41.69-.86.81-1.42h-.55c.14.37.49.56.87.39.17-.08.29-.22.38-.38.19-.33 0-.51.41-.23.49.34 1.13.85 1.74.94.56.08.91-.35 1.19-.78l-.53-.07c.2.86 1.22.86 1.49.04l-.48.13.67.78c.09.11.31.11.41 0 .07-.12.18-.19.31-.23l-.42-.17c.1.36.22.75.55.98.25.17.82.03.93.22.13.21-.12 1.09-.14 1.36-.02.55.08 1.07.26 1.59.2.57.54 1.07.55 1.69.02.98-.44 1.96-.88 2.81-.17.33.33.62.5.29Z" fill="#ff5600"/></g><path d="M121.33 84.79c-.21.14-.28.35-.4.56s-.24.41-.35.63c-.35.66-.61 1.37-.8 2.09-.09.36.46.51.55.15.17-.66.41-1.31.72-1.92.11-.2.22-.4.34-.6.03-.06.07-.12.1-.18.04-.07.06-.19.12-.24.3-.21.02-.7-.29-.5ZM119.19 88.05c-.77-.5-1.56-.98-2.36-1.43-.32-.18-.61.31-.29.5.8.45 1.59.93 2.36 1.43.13.08.32.03.39-.1.08-.14.03-.31-.1-.39Z"/><path d="M121.22 84.96c.19.59.73.98 1.37.85l-.35-.35c-.34.99-.89 1.88-1.41 2.78l.32-.13c-.34-.08-.68-.16-1.03-.24-.36-.08-.51.47-.15.55.34.08.68.16 1.03.24.12.03.26-.02.32-.13.54-.95 1.11-1.88 1.46-2.92.08-.22-.15-.4-.35-.35s-.4-.04-.53-.2a.95.95 0 0 1-.1-.17c0-.02-.02-.03-.02-.05.01.03.02.04 0 .01 0-.01-.01-.03-.01-.04-.11-.35-.67-.2-.55.15ZM116.5 86.62l-.64.45c-.2.14-.45.29-.37.58.06.23.26.36.47.45.23.1.46.18.69.27l1.47.57c.12.05.24.09.37.14.11.04.23.11.35.12.31 0 .38-.33.48-.55.06-.14.04-.31-.1-.39-.12-.07-.33-.04-.39.1-.03.08-.08.29-.15.35l.2-.08c-.06 0-.27-.11-.36-.14-.12-.05-.24-.09-.37-.14-.27-.1-.53-.2-.8-.31s-.53-.2-.8-.31c-.12-.05-.25-.09-.37-.14-.03-.01-.06-.03-.09-.04-.02 0-.03-.02-.05-.03-.01-.01-.01-.01 0 0l-.04.15s.13-.08.16-.1l.2-.14.41-.29c.13-.09.19-.25.1-.39-.07-.13-.27-.19-.39-.1Z"/><path d="m119.72 88.32.02 1.38.54-.15a6.57 6.57 0 0 0-.92-1.35c-.1-.11-.31-.11-.41 0-.11.12-.11.29 0 .41a6.617 6.617 0 0 1 .28.34c.02.03.04.05.06.08.04.05.07.1.11.15.14.21.27.44.39.67.05.11.21.17.32.13s.21-.15.21-.28l-.02-1.38c0-.15-.13-.29-.29-.29s-.29.13-.29.29ZM127.11 100.73c-4.03.3-8.06.45-12.1.47-.37 0-.37.58 0 .57 4.04-.02 8.07-.17 12.1-.47.37-.03.37-.6 0-.57Z"/></g><g><path d="M236.06 95.57c-.63.16-1.28-.03-1.72-.51-.14-.15-.45-.09-.48.13 0 .02 0 .04-.02.06.03-.07-.01.02-.02.04-.05.09-.1.17-.16.25-.16.22-.37.42-.58.6-.27.22-.58.41-.88.59-.1.06-.21.13-.32.18-.08.04-.11.05-.16.05-.26-.02-.37.32-.2.49.42.44.65 1.02.65 1.63 0 .37.58.37.58 0 0-.76-.29-1.48-.82-2.03l-.2.49c.24.01.47-.13.67-.25.36-.21.71-.44 1.04-.7.27-.22.51-.46.72-.74.1-.14.24-.32.27-.5l-.48.13c.58.63 1.45.87 2.28.66.36-.09.21-.65-.15-.56ZM241.17 96.12c-.24.63-.72 1.15-.64 1.87.06.53.31 1.05.54 1.52.43.88.91 1.73 1.33 2.61.23.47.45.95.66 1.43.26.59.77 1.35.46 2.02-.21.45-.68.89-.99 1.28-.33.43-.66.86-1 1.28-.53.68-1.04 1.44-1.71 1.99-1.21 1.01-2.9 1.16-3.98 2.36l.45.06c-1.63-2.82-3.25-5.64-4.88-8.46-.19-.32-.68-.03-.5.29 1.63 2.82 3.25 5.64 4.88 8.46.09.15.33.2.45.06 1.09-1.21 2.87-1.37 4.07-2.44.7-.62 1.24-1.43 1.81-2.16.61-.79 1.37-1.57 1.88-2.43.37-.62.18-1.1-.09-1.73-.41-.97-.85-1.92-1.31-2.86s-1.03-1.8-1.36-2.76c-.14-.4-.2-.72-.05-1.14.13-.38.38-.71.52-1.09.13-.35-.42-.5-.56-.15Z"/><path d="M232.21 98.89c-1.09 1.09-2.81.71-4.19.57-1.74-.17-3.49-.29-5.24-.35a88.68 88.68 0 0 0-10.31.25c-.15.01-.3.12-.29.29l.21 3.29c.01.16.12.28.29.29 3.41.21 6.83.36 10.24.65 2.74.23 5.48.49 8.22.6.37.01.37-.56 0-.58-2.74-.11-5.49-.36-8.22-.6-3.4-.29-6.82-.44-10.24-.65l.29.29-.21-3.29-.29.29c3.82-.32 7.65-.4 11.47-.2 1.81.09 3.6.3 5.41.44 1.19.09 2.38 0 3.27-.88.26-.26-.14-.67-.41-.41ZM235.64 112.29c-.09 2.23.65 4.55 2.4 6.01 1.06.88 1.81 1.58 2.22 2.92.45 1.47.61 3.09.74 4.61.16 1.81.06 3.63.09 5.44.04 2.89.19 5.77.37 8.65 0 .15.12.3.29.29 1.74-.11 3.49-.22 5.23-.34.15 0 .29-.12.29-.29-.27-6.91-.09-13.82-.94-20.7-.26-2.08-.83-3.98.27-5.96.68-1.23 1.82-2.23 2.67-3.35 2.59-3.41 4.35-7.22 6.48-10.91s4.08-7.36 6.21-10.98c.06-.1.05-.27-.05-.35-1.15-.91-2.3-1.81-3.45-2.72-.15-.12-.34-.11-.45.06-2.58 4.09-5.12 8.21-7.78 12.25-1.9 2.87-4.16 5.45-6.41 8.05-.24.28.16.69.41.41 2.26-2.61 4.53-5.2 6.45-8.08 2.69-4.06 5.25-8.21 7.84-12.34l-.45.06 1.72 1.36c.26.2 1.48.88 1.54 1.24.06.31-.8 1.37-.93 1.61-.3.53-.6 1.07-.89 1.6-.97 1.78-1.89 3.58-2.92 5.32-2.18 3.69-4.02 7.59-6.41 11.15-1.93 2.87-5.27 5.36-4.83 9.16.38 3.28.92 6.53 1.05 9.85.18 4.41.12 8.84.29 13.25l.29-.29c-1.74.11-3.49.22-5.23.34l.29.29c-.18-2.83-.33-5.67-.37-8.51-.03-1.86.07-3.73-.09-5.59-.19-2.16-.31-4.87-1.7-6.65-.75-.96-1.86-1.48-2.55-2.51-.86-1.28-1.18-2.87-1.12-4.39.02-.37-.56-.37-.58 0Z"/><path d="M212.31 99.74c-.57.08-.92-.62-1.22-.98-.27-.34-.65-.9-1.11-1.02-.43-.1-.83.35-.77.76.04.32.33.48.55.68.28.26.45.58.57.94l.35-.35c-.94-.25-1.89-.52-2.79-.9-.64-.27-1.27-.77-2-.55-.3.09-.64.33-.56.68.06.29.38.48.62.61.9.51 1.92.87 2.9 1.19l.15-.56c-1.12-.22-2.24-.45-3.36-.67-.36-.07-.85-.29-1.2-.09-.24.14-.41.44-.31.73.09.26.38.38.62.48.44.17.92.27 1.38.4.71.19 1.4.41 2.09.68l.08-.57c-.87 0-1.72-.08-2.59-.21-.53-.08-1.4-.18-1.47.57-.06.71.72.85 1.26.89.91.06 1.82.11 2.74.18l-.08-.57c-.56.11-1.11.24-1.65.39-.32.09-.78.19-.96.5-.16.28-.02.63.23.8s.53.15.81.11c.97-.15 1.91-.49 2.9-.58.48-.04.95 0 1.43-.05.54-.05 1.07-.15 1.59-.3.36-.1.2-.66-.15-.56-.79.23-1.57.3-2.38.31-.76.01-1.49.17-2.22.33-.13.03-1.67.48-1.7.23-.02-.19 2.08-.58 2.28-.62.34-.07.23-.54-.08-.57-.66-.05-1.32-.1-1.98-.14-.27-.02-.53-.03-.8-.05-.12 0-.85-.07-.59-.34.12-.12.62 0 .75.02.26.04.52.08.79.11.63.08 1.26.11 1.89.11.34 0 .37-.45.08-.57-1.1-.43-2.25-.64-3.36-1.04-.06-.02-.31-.08-.33-.15-.02-.07.4.03.41.03.42.08.83.17 1.25.25.83.17 1.67.33 2.5.5.36.07.51-.44.15-.56-.78-.25-1.55-.54-2.29-.89-.17-.08-.35-.17-.51-.26-.07-.04-.14-.08-.21-.13-.06-.04-.06-.09-.08-.06.02-.04.42-.06.51-.05.17.02.34.1.5.18 1.15.58 2.36.96 3.61 1.29.2.05.42-.14.35-.35-.18-.55-.45-.96-.88-1.33-.12-.1-.3-.2-.13-.34-.03.03-.01 0-.04 0 .15.03.31.25.4.35.65.68 1.12 1.81 2.22 1.65.37-.05.21-.61-.15-.56ZM258.93 85.24c.36-.49.97-1.07 1.04-1.71.07-.6-.38-1.19-.74-1.63-.43-.51-1.13-.85-1.26-1.57s.21-1.4.54-1.98l-.33.13c1.09.33 1.92 1.11 2.73 1.85.44.4.88.81 1.33 1.21l.72.66c.23.21.57.43.74.69l-.03-.22c-.14.35-.48.68-.71.99s-.47.64-.7.96c-.47.64-.93 1.29-1.4 1.93-.22.3.28.59.5.29.7-.96 1.4-1.93 2.09-2.89l.55-.76c.11-.15.27-.33.22-.53-.04-.18-.25-.32-.37-.44-.22-.2-.44-.4-.66-.61-.82-.75-1.62-1.51-2.45-2.24-.71-.63-1.48-1.19-2.4-1.47-.12-.04-.26.02-.33.13-.56.97-1 2.31-.18 3.28.46.54 1.02.89 1.37 1.52.24.43.22.7-.05 1.09-.23.34-.48.66-.73.99-.22.3.28.59.5.29Z"/><path d="M233.07 87.78c1.53 1.86 1.37 4.18 1.32 5-.07 1.13-.17 2.86-1.47 3.83-1.79 1.33-4.39.12-4.7-.02-1.92-.9-2.79-2.55-3.11-3.21-.86-1.73-1.87-5.42.13-7.19 2.01-1.78 5.98-.67 7.84 1.59Z" fill="none" stroke="#000" stroke-miterlimit="10" stroke-width=".19"/><path d="M235.9 95.97c.32 1.51.57 3.03.74 4.56l.36-.28c-1.56-.34-3.04-.98-4.62-1.24-.36-.06-.52.49-.15.56 1.58.27 3.06.91 4.62 1.24.16.04.39-.08.36-.28-.18-1.58-.43-3.15-.76-4.71-.08-.36-.63-.21-.56.15ZM245.56 139.76c-.01.76-.24 1.85.45 2.39s1.55.59 2.36.71c.48.08 1.01.21 1.42.48.69.46.51 1.23.08 1.82l.25-.14c-2.43-.09-4.87-.09-7.3 0l.29.29.09-5.46c0-.37-.57-.37-.58 0l-.09 5.46c0 .15.13.29.29.29 1.35-.05 2.7-.07 4.05-.06.72 0 1.44.01 2.16.03.43.01 1.13.21 1.4-.2.5-.73.61-1.72-.11-2.34-.51-.44-1.22-.64-1.87-.73s-1.3-.16-1.9-.48c-.38-.21-.45-.49-.44-.89 0-.39.01-.77.02-1.16s-.57-.37-.58 0Z"/><path d="M235.79 96.21c1.29-.27 2.02-1.38 2.59-2.48.84-1.63 1.67-3.25 2.59-4.84 1.86-3.24 3.95-6.34 6.22-9.31l-.39.1c.89.65 1.77 1.3 2.66 1.95l-.1-.39c-2.73 4.89-5.34 9.83-8.05 14.73-.18.33.32.62.5.29 2.7-4.9 5.32-9.84 8.05-14.73.08-.15.02-.3-.1-.39-.89-.65-1.77-1.3-2.66-1.95-.14-.1-.31 0-.39.1a86.104 86.104 0 0 0-5.76 8.53c-.85 1.43-1.65 2.89-2.41 4.37-.66 1.28-1.29 3.13-2.88 3.46-.36.08-.21.63.15.56Z"/><path d="M247.5 79.77c.72-.82.04-1.83-.19-2.71-.03-.1-.15-.42-.09-.53.03-.05-.03-.01 0-.03.15-.08.18.25.19.3.08.59.28 1.04.66 1.5.15.18.42.06.48-.13.4-1.25.7-2.48.86-3.79.04-.34.16-.56.38-.8.09-.09.04-.07.04-.06.03.05.02.14.02.2 0 .17-.02.35-.03.52-.1.88-.29 1.76-.51 2.62-.1.37.42.49.56.15.31-.79.62-1.58.93-2.38.14-.35.27-.69.41-1.04.04-.11.11-.4.16-.46.16-.22.08.14.07.21-.12.67-.4 1.33-.59 1.99-.15.5-.27 1.01-.37 1.52-.06.32.35.5.53.22.33-.52.64-1.05.9-1.6.11-.22.2-.44.3-.67.06-.14.22-.65.4-.72.34-.13.04.57-.03.7-.12.22-.25.45-.38.67-.32.58-.64 1.16-.95 1.74-.15.28.22.59.45.35.3-.31.6-.61.92-.91.1-.09.67-.72.81-.66.19.08-.92 1.13-1 1.21-.55.54-1.1 1.09-1.54 1.73-.47.7-.95 1.35-1.59 1.91-.28.24.13.65.41.41.41-.36.78-.75 1.11-1.18s.57-.88.9-1.29c.63-.77 1.47-1.36 2.07-2.14.3-.39.34-1.28-.38-1.23-.36.03-.69.37-.94.6-.4.36-.79.75-1.17 1.14l.45.35c.42-.78.84-1.55 1.28-2.32.28-.5.65-1.31-.07-1.63-.67-.3-1.03.5-1.24.98-.35.79-.74 1.54-1.21 2.27l.53.22c.14-.72.34-1.42.55-2.12.14-.46.32-.91.41-1.38.05-.26.1-.58-.09-.79s-.53-.22-.77-.09c-.36.19-.44.77-.58 1.13-.41 1.04-.81 2.08-1.22 3.12l.56.15c.27-1.02.54-2.13.57-3.19 0-.27 0-.62-.26-.79-.3-.2-.67.02-.89.24-.49.5-.42 1.23-.53 1.86-.16.98-.45 1.94-.75 2.89l.48-.13c-.24-.3-.42-.62-.48-1.01-.04-.27-.03-.58-.25-.78-.31-.29-.92-.21-1.07.22-.14.39.08.93.19 1.29.16.5.64 1.28.22 1.76-.24.28.16.69.41.41Z"/><g><path d="M225.43 84.73c-1.51.63-2.31.34-3.02 1.16-.12.13-.45.53-.52 1.1-.06.46.09.68.15 1.14.09.75-.22.96-.34 1.79-.2 1.29.44 1.45.26 2.7-.16 1.09-.63 1.14-.56 1.84.1.89 1.21 1.3 1.57 2.12.22.51.12 1.13.43 1.59.33.5 1.03.64 1.39 1.12.33.46.3 1.14.71 1.52.17.16.25.3.42.41.56.36 1.19.12 2.07-.02 1.41-.22 1.37.17 2.27-.08.25-.07 1.92-.55 2.16-1.9.2-1.07-.64-1.96-.77-2.09-.37.09-.93.18-1.59.12-1.27-.12-2.12-.75-2.65-1.08-.68-.43-1.88-1.35-2.3-2.87-.21-.75-.07-1.64.22-3.38.36-2.16.55-3.24 1.14-3.55.58-.3.86.1 3.16.21 1.2.06 1.31-.05 1.8.12 1.17.39 1.8 1.41 2.14 1.95.88 1.42.92 2.85.92 3.23 0 .7-.11 1.71-.12 1.8-.12 1-.22 1.18-.1 1.58.12.4.5.75 1.26 1.44 1.02.93 1.32.99 1.52 1.01.6.04 1.1-.33 1.16-.38.41-.32.33-.57.74-.86.44-.32.68-.14 1.16-.38.53-.27 1.04-.91 1.01-1.52-.03-.56-.49-.5-1.25-1.67-.5-.76-.59-1.23-1.11-1.44-.14-.06-.36-.11-.59-.31-.26-.22-.38-.48-.43-.58-.25-.53-.62-1.01-.88-1.53-.5-1.02-1.09-1.01-2.19-2.32-1.3-1.55-1.04-2.23-2.13-2.89-.67-.41-1.32-.49-2-.58-.46-.06-1.64-.2-2.96.26-1.13.39-.88.7-2.12 1.22Z" fill="#92a377"/><path d="M225.36 84.45c-1.3.5-2.92.43-3.57 1.88-.39.87.13 1.61-.08 2.48-.19.79-.44 1.43-.25 2.25.24 1.04.23 1.62-.18 2.62-.23.55-.2 1.05.15 1.56.2.29.49.51.74.76.44.45.59.85.71 1.46.17.82.5 1.13 1.18 1.58.81.54.74 1.55 1.45 2.19.59.53 1.2.47 1.94.35 1.2-.2 2.41.08 3.54-.43 1.23-.55 2.08-1.7 1.59-3.08-.12-.33-.43-1.04-.79-1.19-.25-.11-.59.05-.83.08-.69.07-1.37-.02-2.01-.27-1.61-.62-3.46-2.07-3.65-3.9-.09-.92.15-1.9.3-2.8s.24-1.88.57-2.74c.21-.55.45-.74 1.01-.69.82.07 1.61.25 2.44.29.77.04 1.5-.08 2.2.32.92.53 1.57 1.57 1.95 2.54.66 1.69.28 3.24.16 4.97-.08 1.3 1.39 2.39 2.37 3.01.34.21.62.32 1.03.28.75-.08 1-.49 1.49-.95.66-.63 1.57-.56 2.15-1.32.34-.44.57-1.07.29-1.6-.12-.22-.33-.37-.5-.54-.45-.47-.76-1.01-1.09-1.56-.47-.78-1.3-.98-1.78-1.76s-.86-1.72-1.57-2.37c-.84-.76-1.62-1.45-2.21-2.45-.36-.62-.61-1.27-1.2-1.71-.72-.54-1.59-.7-2.46-.8-.99-.11-2.02-.06-2.97.28-.81.29-1.4.9-2.19 1.25-.34.15-.05.65.29.5.61-.27 1.05-.71 1.62-1.01.92-.49 2.06-.55 3.08-.45.87.09 1.88.25 2.52.91.51.53.75 1.31 1.18 1.91s.97 1.18 1.55 1.67c.64.54.98 1.09 1.41 1.8.37.63.65 1.36 1.29 1.77.32.2.58.25.82.56.29.37.47.84.75 1.22.45.61 1.3 1 .83 1.85s-1.51.65-2.13 1.28c-.51.52-.87 1.14-1.71.85-.69-.23-1.62-1.21-2.05-1.79s-.17-1.21-.1-1.86.14-1.37.11-2.05a6.85 6.85 0 0 0-1.44-3.85c-.75-.96-1.67-1.46-2.87-1.47-.89 0-1.77-.07-2.65-.21-.35-.06-.73-.17-1.09-.11-.85.15-1.11 1.08-1.28 1.81-.35 1.52-.76 3.25-.71 4.81.09 2.58 3.08 4.8 5.5 4.94.37.02.71-.03 1.08-.06.31-.03.21-.14.44.2.69.98.44 2.08-.55 2.7-1.06.67-2.04.34-3.21.51-.44.06-.95.25-1.4.21-.85-.09-1.05-.82-1.3-1.47-.32-.82-.97-.89-1.51-1.49-.43-.46-.29-1.12-.52-1.66-.14-.32-.35-.57-.59-.81-.35-.36-.82-.65-.92-1.17-.08-.44.14-.68.29-1.07.29-.7.3-1.42.1-2.14-.28-1 .07-1.67.19-2.64s-.44-1.96.45-2.73c.68-.59 1.92-.61 2.74-.93.34-.13.19-.69-.15-.56Z" fill="#006837"/></g></g><g><path d="M255.54 38.67c-2.45 3.83-5.97 8.08-22.59 18.83a356.487 356.487 0 0 1-32.83 18.83c.89 13.56 2.28 24.31 3.43 31.81 1.35 8.78.82 17.83 2.22 26.6.58 3.64 1.48 8.52-1.06 11.53-2.21 2.62-6.06 2.66-8.47 2.69-5.17.06-5.84-2.06-11.3-2.31-5.26-.24-7.45 1.6-8.73.04-1.31-1.59.96-4.15 1.19-10 .28-6.97-.96-10.77.83-28.08.69-6.62 1.38-11.02 2.02-14.33.72-3.75 1.37-6.98 2.09-10.33.74-3.45 1.41-6.32 1.89-8.39a223.162 223.162 0 0 1-7.06-39.2 224.909 224.909 0 0 1-.35-35.74c30-.26 62.12.26 92.13 0a157.1 157.1 0 0 1-3.28 13.02c-2.15 7.21-5.12 17.19-10.13 25.03Z" fill="#c1272d"/><path d="M255.06 38.39c-2.77 4.33-6.74 7.63-10.82 10.68-8.22 6.16-17.04 11.59-25.92 16.75-6.06 3.52-12.23 6.86-18.48 10.03a.53.53 0 0 0-.27.48c.58 8.82 1.45 17.63 2.64 26.39.58 4.22 1.26 8.4 1.55 12.66.36 5.17.42 10.36.96 15.52.42 4.06 1.91 8.62.77 12.67-1.21 4.28-5.65 4.86-9.46 4.84-3.47-.01-6.42-1.83-9.82-2.21-1.98-.22-3.97-.11-5.93.2-.92.15-2.57.77-3.43.15s-.38-2.03-.16-2.87c.45-1.67.89-3.33 1.1-5.05.29-2.34.22-4.72.15-7.07-.18-5.73-.14-11.4.3-17.12.68-8.69 1.93-17.24 3.67-25.78.49-2.43 1.01-4.85 1.54-7.26.22-.99.44-1.97.67-2.96.2-.87.59-1.86.64-2.75.04-.7-.33-1.51-.51-2.19-.27-1.01-.53-2.02-.78-3.03-.5-2.01-.97-4.02-1.42-6.04a224.933 224.933 0 0 1-5.03-57.68c.09-2.05.2-4.1.34-6.15l-.55.55c24.01-.2 48.03.07 72.04.07 6.69 0 13.39-.02 20.08-.07l-.53-.7c-1.31 6.32-3.06 12.53-5.01 18.68-2.11 6.67-4.6 13.29-8.35 19.23-.38.6.57 1.16.95.56 3.73-5.9 6.23-12.5 8.34-19.13 2-6.27 3.79-12.6 5.13-19.05.07-.35-.16-.7-.53-.7-23.99.24-48-.04-72.02-.04-6.69 0-13.39.02-20.08.07-.31 0-.53.25-.55.55-1.35 19.69-.15 39.53 3.64 58.9.84 4.32 1.81 8.61 2.91 12.87.24.93.55 1.86.74 2.79.18.88-.26 1.92-.46 2.78-.55 2.37-1.07 4.75-1.58 7.13-1.85 8.73-3.3 17.45-4.13 26.34-.59 6.43-.81 12.83-.59 19.29.07 2.14.15 4.28.02 6.42s-.59 4.02-1.13 6c-.27.99-.65 2.14-.32 3.16.78 2.39 3.74 1.38 5.5 1.11 2.29-.34 4.69-.36 6.95.17 1.51.35 2.9 1.01 4.39 1.43 3.11.87 7.24.83 10.24-.46 3.7-1.59 4.69-5.38 4.47-9.09-.11-1.96-.49-3.89-.77-5.83-.4-2.83-.62-5.69-.78-8.55-.3-5.3-.41-10.62-1.12-15.9-1.13-8.33-2.28-16.64-2.99-25.02-.22-2.61-.42-5.22-.59-7.84l-.27.48a360.295 360.295 0 0 0 30.36-17.25c7.3-4.63 15-9.37 21.16-15.52a30.38 30.38 0 0 0 4.1-5.09c.38-.6-.57-1.16-.95-.56Z"/></g><g><path d="M146.64 82.86c-.83.14-1.66.25-2.5.32-.17.01-.31.13-.31.31 0 .16.14.32.31.31.89-.08 1.78-.19 2.66-.34.16-.03.26-.23.21-.38-.05-.17-.21-.24-.38-.21Z"/><path d="M144.79 69.3c-1.01 6.48-1.34 13.02-1.09 19.57.01.39.63.4.62 0-.24-6.49.07-12.99 1.07-19.41.06-.39-.53-.55-.59-.16Z"/><path d="M145.41 69.47c.37-1.49.59-3.03.92-4.53.06-.28.17-.57.22-.85l.05-.1c-.02-.01-.14.09-.13.08 0 .02.09.2.1.24.04.29-.05.63-.07.93-.01.22-.08.57.05.76.1.15.26.18.42.11.33-.15.4-.88.44-1.17.04-.36 0-.71-.05-1.07-.03-.17-.06-.35-.01-.53.02-.06.04-.11.07-.16.02-.03-.05-.11.01.02.24.51.05 1.12 0 1.66-.03.32-.05.63-.05.95 0 .17 0 .43.14.55.08.07.19.12.3.08.26-.1.32-.39.39-.64.1-.36.18-.72.25-1.08.06-.31.12-.62.17-.92.03-.19.05-.4.1-.59.03-.1.19-.32.28-.17.06.09-.13.61-.15.73-.05.28-.09.55-.15.83-.1.49-.26.97-.35 1.47-.04.24-.1.6.21.68.2.06.35-.09.45-.23.45-.6.8-1.28 1.21-1.91.1-.16.25-.47.43-.55.13-.06.14.03.11.16-.08.35-.52.72-.73.99-.3.38-.59.76-.84 1.17-.13.22-.36.55-.22.82.29.55 1.19-.3 1.62-.18.11.03.22.24.2.05-.02-.15-.03-.07-.15 0-.2.12-.42.22-.63.32-.45.22-.89.44-1.28.76-.6.48-1.06 1.11-1.41 1.8-.18.35.35.66.53.31.52-1.01 1.25-1.75 2.28-2.24.35-.17 1.09-.38 1.23-.81.16-.48-.51-.81-.89-.8-.25 0-.5.09-.73.18-.11.04-.21.09-.32.13 0 0-.1.03-.11.04-.05.01-.06.02-.02.02l.25.29s.13-.27.13-.28c.08-.14.17-.27.25-.4.23-.34.48-.66.74-.98.28-.35.73-.77.73-1.25s-.49-.9-.95-.68c-.25.12-.42.37-.58.59-.25.35-.47.71-.7 1.07-.16.26-.32.52-.48.77-.05.08-.12.17-.16.25 0 0-.03.07-.03.04 0-.01 0 0-.01.01-.06.06 0 .04.16-.06l.22.09c.17.17.03.16.08.03.03-.08.04-.19.05-.27.05-.24.11-.48.18-.72.13-.51.21-1.02.31-1.54.07-.36.26-.81 0-1.13-.23-.28-.67-.27-.96-.1-.48.27-.45.96-.54 1.44-.07.42-.15.84-.25 1.25l-.09.37c-.02.07-.06.16-.07.23-.02.15-.14.15.08.06l.3.08c.15.12.02.12.05.04.02-.05 0-.14 0-.2 0-.17 0-.35.02-.52.02-.4.08-.79.12-1.19.05-.48.01-1.25-.5-1.5-.63-.31-.96.63-.93 1.08.03.43.14.83.09 1.27-.02.17-.06.34-.11.5-.02.06-.05.12-.06.18-.01.08-.11.07.03 0l.42.11c.06.09.02-.08.02-.12 0-.1 0-.2.01-.3.01-.23.04-.45.06-.68.03-.27 0-.53-.13-.77s-.41-.51-.72-.37c-.22.1-.31.35-.39.57-.31.94-.46 1.97-.65 2.94-.15.78-.27 1.57-.46 2.35-.09.38.5.55.59.16Z"/><path d="M147.87 70.13c.03-.08.06-.17.09-.25l-.03.07c.05-.13.12-.25.19-.36.04-.07.05-.16.03-.24-.02-.07-.07-.15-.14-.18-.07-.04-.16-.06-.24-.03s-.14.07-.18.14c-.13.21-.24.44-.31.68-.02.07 0 .17.03.24s.11.12.18.14c.08.02.17.01.24-.03s.12-.1.14-.18Z"/><path d="M148.67 89.22c-1.06-3.32-1.5-6.75-1.38-10.22.05-1.37.13-2.73.17-4.1.04-1.55-.04-3.27.4-4.77.11-.38-.48-.54-.59-.16-.41 1.39-.36 2.96-.41 4.39-.05 1.55-.13 3.1-.19 4.64-.13 3.53.32 7.02 1.4 10.39.12.38.71.22.59-.16ZM144.81 94.54c0 2.17.01 4.34.12 6.5.09 1.74.35 3.31-.6 4.89-.82 1.36-2.03 2.45-2.93 3.76s-1.64 2.82-2.22 4.35c-.06.15.07.34.21.38 1.72.45 3.46.81 5.22 1.02 1.57.18 3.16.18 4.73.45 1.3.22 2.49.6 3.81.27 1.39-.36 2.66-.72 4.1-.84.96-.08 1.91-.15 2.87-.21.42-.03.97.02 1.37-.14.63-.25.71-.94.62-1.55-.48-3.25-3.67-5.07-5.49-7.49-1.18-1.58-2.59-3.92-2.51-5.95.04-1.12 1-1.68 1.18-2.7.13-.75-.2-1.44-.64-2.02-.24-.31-.77 0-.53.31.67.89.67 1.64.04 2.55-.37.53-.6 1.05-.65 1.71-.11 1.45.57 2.87 1.2 4.13s1.44 2.49 2.42 3.54c1.06 1.13 2.23 2.04 3.12 3.35.42.62 2 2.99.98 3.55-.38.21-1.21.1-1.62.13-.88.06-1.77.12-2.65.2-1.19.11-2.31.31-3.46.67-1.36.43-2.43.18-3.8-.07-1.49-.27-2.98-.3-4.49-.44-1.92-.18-3.8-.58-5.66-1.06l.21.38c.62-1.64 1.42-3.2 2.46-4.62s2.35-2.51 3.01-4.07c.6-1.41.39-2.77.32-4.25-.12-2.24-.14-4.48-.13-6.72 0-.4-.61-.4-.62 0Z"/><path d="M156.41 94.36c2.24 3.69 5.85 6.01 9.5 8.14 1.5.88 2.95 1.38 4.71 1.3.81-.04 1.59-.25 2.39-.35.4-.05.55-.15-.21.15-.34.14-.65.33-1.03.4-.22.04-.53.01-.72.15-.13.09-.21.27-.11.42.14.22.41.25.65.31.73.19 1.45.36 2.16.63.27.1.54.21.79.35.22.15.22.11 0-.12-.28-.1-.66-.07-.96-.18-.51-.17-1.08-.41-1.63-.4-.31 0-.41.41-.16.57.78.51 1.86.62 2.69 1.06.19.1.49.09.09.06-.22-.02-.45-.07-.67-.11-.63-.12-1.26-.27-1.88-.43-.39-.1-.52.45-.16.59.62.25 1.25.48 1.86.75l.24-.56c-.14-.05-.29-.11-.44-.13-.32-.05-.56.38-.24.56.09.05.26.08.33.15.33.39-.47-.03-.6-.08-.29-.11-.59-.24-.89-.31-.39-.08-.55.49-.16.59.31.09 1.29.78.52.38-.35-.18-.67-.44-1.02-.62-.83-.45-1.63-.84-2.38-1.41-1.4-1.06-3.12-1.59-4.73-2.23-3.45-1.38-6.38-4.16-9.13-6.57-.3-.26-.73.17-.44.44 2.76 2.41 5.7 5.19 9.14 6.62 1.83.76 3.58 1.37 5.19 2.55.77.56 1.66.89 2.48 1.38.57.34 1.13.84 1.82.51.09-.04.16-.16.15-.27-.02-.7-.82-1.2-1.43-1.37l-.16.59c.63.14 1.6.93 2.21.48.75-.55-.13-1.11-.57-1.37l-.24.56c.15.02.29.08.44.13.33.11.56-.42.24-.56-.66-.29-1.34-.54-2-.81l-.16.59c.87.22 1.79.5 2.69.57.27.02.6.06.74-.24.59-1.25-2.7-1.7-3.19-2.03l-.16.57c.35 0 3.53 1.29 3.39.04-.06-.48-.9-.69-1.25-.83-.54-.22-1.1-.39-1.67-.54-.15-.04-.94-.19-.93-.18l-.11.42c.25-.17.86-.13 1.17-.25.38-.15.85-.4 1.1-.74.23-.32.32-.7-.12-.86-.48-.18-1.33.16-1.79.24-1.12.18-2.29.19-3.39-.11s-2.01-.92-2.95-1.48c-1.06-.63-2.11-1.28-3.13-1.99-2.12-1.48-3.98-3.22-5.33-5.44-.21-.34-.74-.03-.53.31ZM153.02 91.94c.25.09.51.17.76.25.12.04.25.08.37.13.06.02.13.05.19.07.03.01.05.02.08.03.01 0 .12.05.06.02.08.03.15.06.24.03.07-.02.15-.07.18-.14.07-.13.05-.35-.11-.42-.52-.22-1.07-.38-1.61-.57-.15-.05-.34.06-.38.21-.04.17.05.32.21.38ZM156.46 115.25c.51 4.51.36 9.02.33 13.55 0 1.64.07 3.27.07 4.91 0 2.23-.06 4.6.31 6.8.12.74.77 1 1.44 1.34 1.15.58 2.42.84 3.51 1.56l.57.43c.6.76.58 1.18-.07 1.25-.4.21-.91.1-1.35.09-.73-.02-1.47-.04-2.2-.05s-1.47-.04-2.2-.05c-.49-.01-.98-.02-1.47-.04-.39 0-1.14.13-1.47-.04-.37-.19-.07.19-.34-.33-.17-.32-.13-.95-.11-1.32.04-.83.34-1.41.6-2.17.33-.95.11-2.15.04-3.16-.13-2.13-.39-4.25-.68-6.37-.7-5.22-1.5-10.36-1.27-15.65.02-.4-.6-.4-.62 0-.22 4.99.43 9.88 1.15 14.81.35 2.43.66 4.88.8 7.33.04.66.1 1.33.09 1.99s-.26 1.06-.46 1.67c-.39 1.17-.36 2.4 0 3.57.04.13.16.22.3.23 2.12.05 4.23.11 6.35.16 1.02.03 3.1.59 3.76-.52.62-1.04-.57-2.01-1.34-2.48-.61-.37-1.25-.64-1.91-.89s-1.92-.54-2.39-1.16c-.31-.41-.22-1.22-.26-1.75-.07-.94-.12-1.87-.16-2.81-.04-1.22-.02-2.44-.03-3.66-.03-2.34-.06-4.68-.04-7.02.03-3.42.02-6.81-.37-10.22-.04-.39-.66-.39-.62 0Z"/><path d="M143.54 89.51c.14-.68.99-.57 1.43-1.35.5-.89-.29-1.63.1-2.59.18-.44.62-1 1.86-1.4-.14-1.3.06-2.31.22-2.92.18-.65.36-1.3.9-1.94.51-.61 1.07-.89 1.67-1.2 1.09-.55 2.03-.7 2.24-.73a7.23 7.23 0 0 1 3.08.25c1.94.6 3.11 1.89 3.64 2.59.44.58 1.03 1.36 1.21 2.56.21 1.39-.3 2.48-.52 3.01-.23.55-.71 1.41-1.75 2.24.7 1.12.7 1.88.58 2.37-.24.95-1.05 1.29-1 2.25.04.67.45.8.32 1.27-.2.77-1.41.69-1.6 1.43-.15.59.53.89.39 1.5-.17.69-1.12.57-1.56 1.3-.57.94.52 1.95.1 2.84-.24.51-.98 1.01-3.19 1.02.4-.25 1.26-.87 1.63-1.97.23-.69.19-1.3.17-1.47-.12-1.29-.87-1.62-.67-2.42.15-.63.64-.55.83-1.26.22-.83-.4-1.2-.14-1.84.29-.71 1.21-.59 1.3-1.17.09-.56-.69-1.17-.69-1.68 0-.37.11-.71.11-.71 0-.12.02-.24.03-.36.3-.06.76-.19 1.23-.5.29-.2 1.1-.74 1.08-1.38-.02-.44-.41-.56-1.03-1.24-.21-.23-.88-1.01-1.19-1.95-.46-1.36.24-1.89-.3-2.63-.52-.7-1.59-.85-2.08-.91-.37-.05-.68-.04-1.22-.02-.78.03-.96.11-1.05.16-.4.22-.57.63-.72 1.04-.55 1.53-.83 2.3-.76 3.14.12 1.44.85 2.43 1.17 2.82-1.53.46-1.91.96-1.96 1.34-.09.63.67 1.01.53 1.62-.15.65-1.18.51-1.56 1.3-.33.69.32 1.08 0 1.8-.31.73-1.08.56-1.77 1.51-.29.39-.39.75-.53 1.22-.15.5-.32 1.34-.19 2.43-1.65-1.44-1.89-2.26-1.72-2.75.22-.64 1.11-.63 1.3-1.39.21-.8-.69-1.23-.49-2.09.17-.75.93-.74 1.04-1.47.11-.73-.62-1.02-.48-1.67Z" stroke="#ff7556" stroke-miterlimit="10" stroke-width=".21"/><path d="M148.22 84.69c.02.4.07 1.27.6 2.2.09.16.97 1.65 2.77 2.17 2.12.61 4.73-.33 4.92-1.47.15-.9-1.35-1.15-2.04-3.09-.55-1.52.05-2.28-.54-3.08-.45-.61-1.51-1.16-4.29-.74-.4.49-1.5 1.98-1.41 4.01Z" fill="none" stroke="#000" stroke-miterlimit="10" stroke-width=".21"/><path d="M150.05 79.47c1.09-.14 2.21-.07 3.28.2.25.06.5.14.71.3.25.19.41.48.55.77.32.64.61 1.3.79 2 .17.66.23 1.35.47 1.98.24.64.71 1.24 1.37 1.41" fill="none" stroke="#ff7556" stroke-miterlimit="10" stroke-width=".21"/><path d="M150.93 78.59c.91-.23 1.87-.06 2.77.21.52.15 1.05.34 1.47.69.7.59.99 1.52 1.28 2.38s.69 1.79 1.49 2.23M156.81 79.99c.78.85 1.32 1.91 1.56 3.04M156.85 88.87c-.19.46.02.98.08 1.48.08.76-.27 1.55-.87 2.01M154.06 93.33c.37.32.42.86.44 1.35.01.23.02.47-.07.69-.11.27-.35.45-.56.66s-.38.49-.31.77M156.45 94.01c-.3.21-.59.44-.8.74s-.32.69-.22 1.04c.05.17.14.32.18.49.11.44-.23.94-.68 1M154.02 99.49c.24.38.27.89.06 1.29s-.63.68-1.08.7M147.02 85.24c-.43.31-.58.89-.61 1.42s.03 1.08-.1 1.59-.54 1.02-1.07 1.04M146.95 90.27c-.63.31-1.34.73-1.46 1.42-.06.35.05.71.06 1.07 0 .45-.15.9-.44 1.24M144.03 92.95c-.19.22-.01.55.1.82.25.63.07 1.42-.45 1.86-.18.16-.41.29-.48.52-.05.17 0 .36.05.53.09.3.17.6.26.9" fill="none" stroke="#ff7556" stroke-miterlimit="10" stroke-width=".21"/><path d="M148.22 84.67c.02.4.07 1.27.6 2.2.09.16.97 1.65 2.77 2.17 2.12.61 4.73-.33 4.92-1.47.15-.9-1.35-1.15-2.04-3.09-.55-1.52.05-2.28-.54-3.08-.45-.61-1.51-1.16-4.29-.74-.4.49-1.5 1.98-1.41 4.01Z" fill="none" stroke="#000" stroke-miterlimit="10" stroke-width=".21"/><path d="M153.13 89.12c-.23.4-.44.84-.52 1.3-.09.49-.03.95.18 1.4.07.15.29.19.42.11.15-.09.18-.27.11-.42-.34-.7-.02-1.46.33-2.08.19-.35-.34-.66-.53-.31ZM149.38 87.93c-.07.15-.15.29-.25.43-.01.02-.02.03-.03.05-.05.06.04-.05 0 0-.02.02-.04.05-.06.07a.8.8 0 0 1-.13.13c-.02.02-.05.04-.07.06.09-.08 0 0-.02.01-.05.04-.11.07-.17.11-.14.09-.29.17-.44.26s-.2.28-.11.42.27.2.42.11c.28-.16.58-.32.82-.54s.41-.5.56-.79c.07-.14.04-.34-.11-.42-.14-.07-.34-.04-.42.11Z"/><path d="M153.02 91.51c-.86.51-1.97.56-2.85.08-.81-.45-1.39-1.3-1.49-2.22-.04-.39-.66-.39-.62 0 .12 1.14.78 2.2 1.79 2.75 1.08.59 2.43.54 3.47-.08.34-.2.03-.73-.31-.53ZM158.78 96.83c-.64.75-1.32 1.47-2.06 2.13-.12.11-.11.32 0 .44.12.12.31.11.44 0 .73-.66 1.42-1.38 2.06-2.13.11-.13.12-.31 0-.44-.11-.11-.33-.13-.44 0ZM144.05 115.25c-.64 5.52-.09 11.01-.25 16.54-.07 2.51-.03 5.01-.22 7.53-.03.36.07 1.15-.14 1.47-.3.46-1.37.81-1.83.99-1.16.45-2.58.84-3.47 1.78-.46.49-.8 1.22-.41 1.86.65 1.08 2.75.48 3.73.44l4.87-.21c1.14-.05 1.42-.12 1.83-1.25.31-.87.29-1.82-.05-2.67-.19-.48-.42-.73-.45-1.25-.05-.67.05-1.37.08-2.04.1-2.26.23-4.53.42-6.78.46-5.35 1.2-10.69 1.78-16.03.04-.39-.57-.39-.62 0-.5 4.62-1.07 9.23-1.57 13.85-.19 1.75-.33 3.5-.43 5.26-.07 1.14-.13 2.27-.19 3.41-.04.86-.33 2.01-.11 2.83s.79 1.33.74 2.29c-.03.73-.22 1.54-.95 1.74-.79.22-1.87.08-2.68.12-1.53.07-3.1.23-4.63.2-.25 0-1.02.05-1.23-.2-.61-.76.86-1.57 1.28-1.81.65-.38 1.36-.62 2.06-.88s1.94-.64 2.36-1.28c.39-.6.23-1.95.28-2.66.14-2.17.1-4.33.16-6.5.14-5.59-.39-11.16.25-16.74.05-.39-.57-.39-.62 0Z"/></g><g><path d="M286.01 38.76c2.45 3.83 5.97 8.08 22.59 18.83 8.13 5.26 19.18 11.93 32.83 18.83-.89 13.56-2.28 24.31-3.43 31.81-1.35 8.78-.82 17.83-2.22 26.6-.58 3.64-1.48 8.52 1.06 11.53 2.21 2.62 6.06 2.66 8.47 2.69 5.17.06 5.84-2.06 11.3-2.31 5.26-.24 7.45 1.6 8.73.04 1.31-1.59-.96-4.15-1.19-10-.28-6.97.96-10.77-.83-28.08-.69-6.62-1.38-11.02-2.02-14.33-.72-3.75-1.37-6.98-2.09-10.33-.74-3.45-1.41-6.32-1.89-8.39 2.92-10.64 5.69-23.86 7.06-39.2 1.21-13.53 1.06-25.62.35-35.74-30-.26-62.12.26-92.13 0 .67 3.22 1.7 7.73 3.28 13.02 2.15 7.21 5.12 17.19 10.13 25.03Z" fill="#c1272d"/><path d="M285.54 39.04c2.71 4.24 6.51 7.5 10.48 10.52 8.3 6.32 17.28 11.85 26.29 17.1 6.18 3.6 12.46 7.01 18.84 10.24l-.27-.48c-.61 9.21-1.52 18.4-2.81 27.54-.62 4.4-1.24 8.76-1.49 13.2-.32 5.52-.4 11.08-1.18 16.56-.52 3.67-1.57 7.76 0 11.32s5.31 4.43 8.81 4.54c1.78.06 3.55-.01 5.28-.52 1.49-.44 2.89-1.09 4.41-1.43 2.21-.49 4.55-.47 6.79-.13 1.18.18 2.53.64 3.73.41 2.44-.45 1.88-3.1 1.42-4.81-.85-3.1-1.2-6.15-1.16-9.35.06-5.28.29-10.52-.02-15.8-.49-8.52-1.5-17.03-3.13-25.41-.94-4.84-1.96-9.67-3.06-14.48-.18-.8-.6-1.79-.5-2.61.12-1.04.57-2.13.83-3.14.52-2.03 1.02-4.07 1.48-6.12 4.39-19.36 6.2-39.3 5.38-59.13-.09-2.12-.21-4.23-.35-6.34-.02-.3-.24-.55-.55-.55-24.01-.2-48.03.07-72.04.07-6.69 0-13.39-.02-20.08-.07-.38 0-.6.35-.53.7 1.34 6.44 3.12 12.78 5.13 19.05 2.12 6.63 4.61 13.23 8.34 19.13.38.6 1.34.05.95-.56-3.75-5.94-6.23-12.56-8.35-19.23-1.95-6.15-3.69-12.36-5.01-18.68l-.53.7c24.01.2 48.03-.07 72.04-.07 6.69 0 13.39.02 20.08.07l-.55-.55c1.32 19.17.22 38.49-3.36 57.37a220.48 220.48 0 0 1-3.48 15.35c-.21.79-.61 1.69-.52 2.51.21 1.92.9 3.89 1.32 5.77 1.87 8.45 3.53 16.92 4.47 25.53.77 7.08 1.29 14.19 1.1 21.32-.06 2.04-.16 4.07-.16 6.11 0 3.14.5 6.07 1.31 9.1.22.84.73 2.23-.16 2.87s-2.5 0-3.43-.15c-3.71-.6-7.17-.25-10.69 1.03-3.22 1.17-7.12 1.44-10.42.35-4.55-1.5-4.76-6.27-4.24-10.31.62-4.79 1.22-9.5 1.46-14.33.26-5.2.48-10.4 1.26-15.55 1.19-7.85 2.1-15.74 2.77-23.65.22-2.54.4-5.07.57-7.61a.562.562 0 0 0-.27-.48 357.61 357.61 0 0 1-30.07-17.07c-7.27-4.61-14.93-9.31-21.09-15.4a29.119 29.119 0 0 1-4.06-5c-.38-.6-1.34-.04-.95.56Z"/></g><path d="M264.33 88.45c1.4-1.21 2.19-2.96 2.52-4.75.19-1.05.25-2.13.25-3.2s.02-2.15-.27-3.18c-.15-.53-.99-.31-.83.23.26.92.24 1.9.24 2.85 0 1.03-.03 2.06-.22 3.07-.31 1.67-1 3.25-2.3 4.37-.42.37.19.97.61.61ZM268.15 88.58c.63-.49 1.01-1.18 1.32-1.91.34-.8.63-1.62.85-2.46.45-1.73.64-3.52.56-5.3-.02-.55-.89-.56-.86 0 .07 1.65-.09 3.3-.49 4.9-.2.78-.44 1.54-.75 2.28s-.62 1.39-1.24 1.87c-.44.34.18.95.61.61ZM327.98 98.08c1.16-.52 2.49-.42 3.71-.24.88.13 2.22.19 2.66 1.12.24.5.98.06.75-.44-.56-1.18-2.04-1.35-3.18-1.52-1.48-.22-2.98-.31-4.38.32-.51.23-.07.97.44.75ZM328.52 94.62a9.606 9.606 0 0 1 7.25-.91c.54.15.77-.69.23-.83-2.65-.73-5.52-.36-7.92 1-.48.27-.05 1.02.44.75ZM214.15 105.07c-1.83.52-3.7.87-5.59 1.03-.55.05-.56.91 0 .86 1.97-.17 3.92-.52 5.82-1.06.53-.15.31-.99-.23-.83ZM216.69 106.39c-.94 1.42-2.45 2.4-4.12 2.72-.23.04-.36.32-.3.53.07.24.3.35.53.3 1.89-.36 3.58-1.52 4.63-3.12.31-.47-.44-.9-.75-.44ZM267.83 107.36c-.99.24-1.95-.18-2.77-.7-.92-.58-1.75-1.31-2.59-1.99-.18-.15-.43-.18-.61 0-.15.15-.18.47 0 .61 1.71 1.37 3.79 3.5 6.21 2.91.54-.13.31-.97-.23-.83ZM267.04 110.42c-2.25.31-4.56-.35-6.37-1.72-.44-.34-.87.41-.44.75 2 1.52 4.55 2.15 7.03 1.81.23-.03.36-.33.3-.53-.07-.25-.3-.33-.53-.3ZM14.28 88.53c-1.83-.08-3.68.08-5.46.5-.87.2-1.7.51-2.56.74s-1.74.37-2.54-.07c-.49-.27-.92.48-.44.75 1.62.89 3.38.08 5-.38 1.96-.55 3.98-.76 6.01-.67.56.02.56-.84 0-.86ZM15.14 91.61c-1.34-.42-2.67-.22-3.91.4-1.04.52-2.37 1.45-3.54.76-.48-.28-.92.47-.44.75 1.17.69 2.5.24 3.61-.34.62-.32 1.22-.68 1.91-.84s1.44-.11 2.14.11c.53.17.76-.67.23-.83ZM68.34 124.89c-1.21 1.25-2.83 2.09-4.55 2.32-.23.03-.43.18-.43.43 0 .21.2.46.43.43a8.784 8.784 0 0 0 5.16-2.57c.39-.4-.22-1.01-.61-.61ZM67.18 122.72c-.08.67-.58 1.25-1.14 1.57-.72.42-1.58.48-2.4.4-.23-.02-.43.21-.43.43 0 .25.2.41.43.43 1 .09 2.07-.04 2.93-.58.8-.51 1.36-1.31 1.47-2.26.03-.23-.22-.43-.43-.43-.26 0-.4.2-.43.43ZM100.24 66.43a12.584 12.584 0 0 0-3.08 5.94c-.11.54.72.78.83.23.43-2.08 1.41-4 2.85-5.56.38-.41-.23-1.02-.61-.61ZM99.92 64.63c-1.75.66-2.99 2.36-3.04 4.24-.01.56.85.56.86 0 .04-1.45 1.02-2.88 2.4-3.41.22-.08.37-.29.3-.53-.06-.21-.31-.38-.53-.3ZM106.54 108.67c-.2.56-.23 1.19-.11 1.78.17.8.71 1.48 1.41 1.88.2.12.47.05.59-.16s.05-.48-.16-.59c-.05-.03-.1-.06-.14-.09-.02-.02-.05-.03-.07-.05 0 0-.1-.08-.04-.03-.12-.09-.23-.2-.33-.31-.22-.25-.37-.59-.44-.94-.02-.08-.02-.07-.02-.18v-.25c0-.07 0-.14.01-.21 0-.04 0-.08.01-.12v-.01c.03-.17.07-.33.12-.49.08-.22-.09-.47-.3-.53-.24-.07-.45.08-.53.3Z"/><path d="M106.37 106.23c-1.37.74-2.41 2.2-2.46 3.79-.04 1.33.63 2.64 1.52 3.6.38.41.99-.2.61-.61-.72-.77-1.27-1.82-1.27-2.89 0-1.33.89-2.53 2.03-3.15.49-.27.05-1.01-.44-.75ZM165.8 107.89c-.08 1.19 1.02 1.88 2 2.23 1.17.41 2.36.78 3.54 1.16.53.17.76-.66.23-.83-1.03-.34-2.07-.68-3.1-1.02-.72-.24-1.86-.58-1.8-1.54.04-.56-.83-.55-.86 0ZM164.14 109.92c.47 1.1 1.34 2.04 2.4 2.59s2.35.66 3.25 1.45c.42.37 1.03-.24.61-.61-.92-.81-2.11-.99-3.19-1.47s-1.87-1.33-2.33-2.4c-.09-.21-.41-.26-.59-.16-.22.13-.25.38-.16.59Z"/></svg>