<svg xmlns="http://www.w3.org/2000/svg" viewBox="0 0 54.21 45.17"><path d="M36.2 40.39c.95-1.54 1.89-3.09 2.84-4.63l-.54.31c1.33-.15 2.53-1.05 2.62-2.48s-.94-2.55-2.3-2.64c-1.46-.09-2.73 1.04-3.01 2.43-.16.79-.55 1.23-1.02 1.92-.7 1.02-1.4 2.04-2.09 3.05l.86-.22c-2.05-1.32-4.09-2.65-6.14-3.97l.22.86c1.5-2.37 3.01-4.74 4.51-7.11.19-.3.05-.67-.22-.86-.87-.59-1.9-1.61-2.9-1.93-.63-.21-1.62.55-1.71-.82-.02-.36.2-.76.39-1.06.26-.41.69-.95 1.28-.82.78.17.55.87.94 1.3.7.77 2.07 1.33 2.95 1.89.29.19.68.05.86-.22 1.62-2.57 3.25-5.15 4.87-7.72l-.86.22c5.17 3.26 10.34 6.52 15.52 9.78l-.22-.86c-3.65 5.81-7.26 11.64-10.95 17.42l.86-.22a316.99 316.99 0 0 1-6.97-4.47c-.68-.44-1.3.64-.63 1.08 2.31 1.52 4.63 3.01 6.97 4.47.3.18.68.05.86-.22 3.69-5.78 7.29-11.62 10.95-17.42.18-.29.05-.68-.22-.86-5.17-3.26-10.34-6.52-15.52-9.78-.29-.19-.68-.05-.86.22-1.62 2.57-3.25 5.15-4.87 7.72l.86-.22c-.89-.56-2.08-1.08-2.69-1.92-.4-.54-.54-1-1.21-1.28-1.23-.52-2.35.26-2.99 1.29s-.86 2.46.18 3.31c.53.43 1.06.4 1.7.5.94.14 1.99 1.17 2.79 1.72l-.22-.86c-1.5 2.37-3.01 4.74-4.51 7.11-.19.3-.05.68.22.86 2.05 1.32 4.09 2.65 6.14 3.97.3.19.67.04.86-.22L36.55 35c.66-.96.68-3.22 2.45-2.75 1.17.31 1.07 1.89.13 2.4-.44.24-.79.14-1.16.49-.58.55-1 1.63-1.42 2.31-.47.77-.95 1.54-1.42 2.31-.42.69.66 1.32 1.08.63Zm-7.9-29.5c-5.79-3.6-11.59-7.2-17.38-10.8-.29-.18-.68-.06-.86.22C6.74 5.6 3.41 10.9.09 16.19c-.18.29-.06.68.22.86 2.16 1.33 4.32 2.65 6.48 3.98.29.18.68.06.86-.22l1.32-2.13c.4-.65 1.08-1.41 1.32-2.13.27-.78.05-1.73.99-2.19 1.14-.56 1.85.53 1.46 1.55-.28.73-.91.84-1.4 1.33s-.84 1.35-1.2 1.94l-1.45 2.33c-.18.29-.06.68.22.86 3.02 1.86 6.05 3.73 9.07 5.59.29.18.69.06.86-.22 1.22-2.09 2.44-4.19 3.65-6.28.17-.3.06-.68-.22-.86l-1.97-1.22c-.51-.31-1.09-.82-1.65-1.01s-1.12.13-1.6-.34c-.75-.73-.28-2.06.55-2.49.3-.15.68-.22 1.01-.16.85.15.87.84 1.3 1.38.33.43.97.69 1.42.97l2 1.24c.29.18.68.06.86-.22 1.45-2.33 2.89-4.65 4.34-6.98.43-.69-.66-1.32-1.08-.63-1.45 2.33-2.89 4.65-4.34 6.98l.86-.22c-.89-.55-2.37-1.13-3.02-1.95-.5-.64-.69-1.25-1.5-1.6-1.15-.51-2.56-.11-3.35.85-.94 1.14-.91 3 .31 3.93.63.48 1.29.33 1.96.55 1.11.37 2.28 1.41 3.28 2.03l-.22-.86c-1.22 2.09-2.44 4.19-3.65 6.28l.86-.22c-3.02-1.86-6.05-3.73-9.07-5.59l.22.86 2.05-3.29c.51-.83 1.42-1.21 1.91-2.05.73-1.26.4-3.25-1.1-3.79-1.37-.49-2.83.6-3.29 1.85-.11.31-.14.61-.2.92-.09.43-.14.51-.41.92-.76 1.14-1.45 2.33-2.17 3.49l.86-.22c-2.16-1.33-4.32-2.65-6.48-3.98l.22.86C4.49 11.53 7.82 6.24 11.14.94l-.86.22c5.79 3.6 11.59 7.2 17.38 10.8.69.43 1.32-.66.63-1.08Z" fill="#006837"/></svg>