<svg xmlns="http://www.w3.org/2000/svg" viewBox="0 0 207.67 67.19"><path d="M42.2 18.61c-.14.63-.33 1.54-.51 2.65-.25 1.55-.35 2.64-.46 3.84-.42 4.32-.45 3.56-.61 5.75-.14 1.87-.23 3.51-.63 5.72-.06.34-.13.68-.23 1.07-.42 1.78-.94 3.25-1.2 3.99-.68 1.92-1.35 3.32-2.04 4.81-.96 2.07-1.77 3.57-2.02 4.04a68.19 68.19 0 0 1-1.77 3.1c1.09.28 2.19.55 3.28.83.08-1.01.27-2.44.75-4.12.45-1.56 1.04-2.94 1.69-4.44 0 0 1.12-2.59 1.63-4.11.17-.5.31-.99.31-.99l.04-.14c.55-1.98 1.06-6.15 1.06-6.15.5-4.03.52-4.01.62-5.12.17-1.85.09-1.74.24-3.06.39-3.49.97-4.85 1.23-5.42.45-.96.95-1.71 1.29-2.18l-2.69-.06Z"/><path d="M41.89 18.52c-1.15 5.22-1.28 10.57-1.9 15.86-.8 6.79-4.07 13.23-7.54 19.03-.11.18 0 .42.19.47 1.09.28 2.19.55 3.28.83.22.05.39-.1.41-.31.5-5.77 3.98-10.63 4.95-16.3.64-3.7 1.01-7.43 1.33-11.17.26-2.96.8-5.67 2.55-8.11.15-.21-.05-.48-.28-.49l-2.69-.06c-.42 0-.41.64 0 .64l2.69.06-.28-.49c-2.59 3.6-2.43 7.86-2.95 12.08-.25 2.09-.5 4.19-.82 6.27-.42 2.72-1.14 5.17-2.19 7.71-1.33 3.22-2.66 6.33-2.96 9.85l.41-.31c-1.09-.28-2.19-.55-3.28-.83l.19.47c3.37-5.62 6.58-11.89 7.51-18.44.78-5.53.79-11.13 1.99-16.61.09-.4-.53-.58-.62-.17Z"/><path d="M25.97 53.1c1.15-.89 2.97-.64 3.83.53.33.45.71.9 1.34.84.33-.03.65-.18.95-.31.36-.15.71-.33 1.06-.52.21-.12.02-.45-.19-.33-.36.2-.73.38-1.11.54s-.8.36-1.2.13c-.31-.18-.46-.5-.68-.77-.18-.22-.41-.41-.65-.56-1.05-.66-2.54-.66-3.54.11-.19.15 0 .48.19.33Z"/><path d="M25.67 55.25c.74-.24 1.53-.18 2.25-.46s1.33-.73 2.1-.81c.24-.03.24-.41 0-.38-.78.09-1.41.49-2.12.79-.75.32-1.57.25-2.34.5-.23.08-.13.44.1.37Zm1.8 2.5c.69-.54 1.33-1.18 2.24-1.25.8-.06 1.6.15 2.4.06.58-.06 1.19-.28 1.48-.83.14-.28.19-.59.28-.89.12-.4.3-.78.45-1.17.09-.23-.28-.33-.37-.1-.14.35-.3.7-.42 1.06-.1.31-.13.67-.3.95-.4.69-1.4.65-2.09.6s-1.42-.16-2.1.06-1.28.8-1.85 1.24c-.19.15.08.42.27.27Z"/><path d="M33.35 53.39c-.16.42-.38.82-.64 1.18-.23.33-.5.66-.85.87s-.8.28-1.21.2c-.2-.04-.4-.1-.58-.2-.12-.06-.17-.09-.08-.22.07-.1.17-.19.27-.26.2-.14 0-.47-.19-.33s-.45.36-.51.62c-.06.28.18.45.4.56.49.24 1.08.32 1.61.17s.93-.5 1.25-.91c.38-.48.68-1.01.91-1.58.09-.23-.28-.33-.37-.1Zm1.59.31c.43.61.92 1.21 1.5 1.68s1.31.76 2.03.86c.38.06.77 0 1.15-.04.33-.04.65-.11.93-.29.24-.15.44-.37.58-.62.16-.29.18-.69.43-.92.18-.17-.09-.44-.27-.27-.39.37-.35.97-.76 1.34-.26.24-.6.33-.94.38s-.72.1-1.07.04c-.67-.1-1.37-.38-1.89-.82s-.97-.98-1.36-1.54c-.14-.2-.47 0-.33.19Z"/><path d="M38.71 56.29c.23 0 .33.17.36.37.04.25.06.51.01.76s-.08.47-.03.72.14.48.23.71c.04.1.18.11.26.07.1-.06.11-.17.07-.26-.1-.24-.2-.51-.21-.77 0-.29.11-.57.09-.86-.01-.25-.03-.56-.17-.78s-.37-.34-.62-.34-.25.38 0 .38Z"/><path d="M39.39 57.5c.23.04.24.33.35.49.15.2.37.34.61.4.25.07.52.06.78.11s.45.21.64.38c.18.17.45-.1.27-.27-.2-.19-.41-.37-.68-.45s-.55-.06-.82-.12c-.22-.05-.44-.16-.54-.37-.06-.12-.09-.25-.18-.35a.53.53 0 0 0-.33-.19c-.1-.02-.21.03-.23.13-.03.09.03.22.13.23Zm.85-1.32c.12.16.28.3.47.38.21.1.44.13.67.17s.44.09.66.15c.15.04.36.09.46.22.06.08.16.12.26.07.08-.05.13-.18.07-.26-.25-.34-.71-.41-1.09-.5s-.89-.08-1.16-.43c-.06-.08-.16-.12-.26-.07-.08.05-.13.18-.07.26Zm-3.87-.75c.33.31.44.72.61 1.12.08.18.16.36.28.52.15.2.33.37.39.61.24.89.13 1.95-.42 2.7-.15.2.18.39.33.19.61-.83.68-1.92.48-2.91-.05-.23-.15-.42-.3-.6-.17-.22-.31-.43-.42-.69-.18-.44-.32-.88-.68-1.22-.18-.17-.45.1-.27.27Z"/><path d="M37.8 58.1c.3.58.64 1.14 1.02 1.67.18.26.38.5.57.75.16.22.37.54.15.79-.16.18.11.45.27.27.53-.61-.11-1.26-.48-1.75-.45-.61-.86-1.25-1.2-1.93-.11-.22-.44-.03-.33.19Zm-6.59 3.74c.45-1.7 1.63-2.86 2.63-4.23.24-.33.44-.65.48-1.06.03-.26-.02-.5-.05-.76-.08-.69.12-1.42.3-2.08.06-.24-.3-.34-.37-.1-.18.65-.35 1.35-.32 2.03 0 .22.07.43.07.64.01.55-.31.95-.62 1.36-.98 1.31-2.05 2.46-2.49 4.08-.06.24.3.34.37.1Z"/><path d="M30.02 60.78c.23-.06.47-.15.67-.29.17-.12.3-.27.45-.41.07-.07.07-.07.15-.12.06-.04.13-.07.19-.1.19-.08.41-.12.62-.15.1-.01.19-.08.19-.19 0-.09-.09-.2-.19-.19-.4.04-.81.14-1.13.39-.15.12-.26.27-.4.39-.18.15-.41.24-.64.3s-.14.43.1.37Z"/><path d="M31.89 59.9c.18.44.32.89.39 1.36s.04.92.13 1.37c.08.43.1.82-.05 1.24s-.42.76-.75 1.04c-.19.16.09.43.27.27.66-.57 1.08-1.41.96-2.29-.03-.25-.1-.5-.12-.76s-.02-.52-.05-.78a6.33 6.33 0 0 0-.41-1.55c-.09-.22-.46-.13-.37.1Zm3.82 5.46c.35-.57-.06-1.09-.39-1.56-.1-.14-.21-.3-.24-.48-.04-.23.08-.44.12-.65.06-.29.03-.59-.06-.87-.21-.66-.7-1.17-1.09-1.72-.22-.31-.47-.68-.51-1.08s.12-.87.2-1.28c.05-.24-.32-.34-.37-.1-.12.64-.33 1.29-.08 1.91s.78 1.15 1.16 1.73c.2.31.39.68.4 1.06 0 .33-.19.62-.17.94.03.63 1.07 1.29.7 1.91-.13.21.2.4.33.19Z"/><path d="M35.04 62.3c.33.25.75.32 1.14.36.36.03.81.11 1.14-.1.21-.13.02-.46-.19-.33-.13.08-.28.08-.42.08-.17 0-.35-.02-.52-.03-.33-.03-.68-.1-.95-.3-.08-.06-.21-.01-.26.07-.06.1-.01.2.07.26Zm-.86-5.24s.04.08.05.11c.03.05.06.11.09.16.06.1.1.21.14.33.08.23.15.47.21.71.14.49.31.95.65 1.33.17.18.43-.09.27-.27-.37-.41-.49-.95-.64-1.47-.07-.26-.16-.52-.28-.76s-.28-.54-.6-.5c-.1.02-.16.14-.13.23.03.11.13.15.23.13Zm2.27-.2c.09-.48-.12-.92-.38-1.31-.13-.19-.28-.38-.4-.58-.13-.22 0-.41.13-.6.14-.2-.19-.39-.33-.19s-.27.41-.25.66.19.45.33.64c.26.36.62.8.53 1.27-.05.24.32.34.37.1Zm-4.1 10.32c.5-.2.6-.86.64-1.34a2.13 2.13 0 0 0-.47-1.52c-.07-.08-.2-.07-.27 0-.08.08-.06.19 0 .27.27.33.38.75.36 1.18 0 .21-.05.41-.1.61-.04.15-.09.37-.26.44-.09.04-.16.13-.13.23.03.09.14.17.23.13Zm-1.74-2.44c.13-1.03 1.15-1.64 2.07-1.82.24-.05.14-.42-.1-.37-1.12.22-2.21.99-2.35 2.19-.01.1.1.19.19.19.11 0 .18-.09.19-.19Zm3.51.11c.33-.35.64-.72.91-1.12.06-.08.02-.22-.07-.26-.1-.05-.2-.02-.26.07s-.13.18-.19.27c-.02.02-.04.05-.05.07 0 0-.02.03-.02.02s-.01.02-.02.02l-.11.14c-.15.18-.3.35-.46.52-.07.07-.08.2 0 .27s.2.08.27 0Zm-4.57-1.26c-.51-.59-1-1.42-.95-2.22s.78-1.47 1.34-2.03c.51-.51.89-1.13 1.42-1.62s1.14-.78 1.58-1.32c.15-.19-.12-.46-.27-.27-.5.62-1.26.95-1.8 1.54-.28.31-.51.65-.79.96-.31.35-.65.66-.97 1-.53.57-.97 1.24-.88 2.05s.52 1.56 1.05 2.17c.16.19.43-.08.27-.27Z"/><path d="M24.43 57.84c.45.27.79.67 1.29.86.25.09.49.11.75.1.3-.01.59.01.89.02.57.02 1.12-.18 1.67-.27s1.15-.08 1.68-.28c.23-.09.13-.45-.1-.37-.5.19-1.05.18-1.57.26s-1.04.27-1.57.28c-.27 0-.53-.04-.8-.03s-.51.04-.77-.04c-.5-.16-.85-.59-1.29-.86-.21-.13-.4.2-.19.33Zm1.45 4.31c.23-.1.42-.24.63-.38s.42-.26.65-.37.45-.2.69-.28.47-.13.67-.28c.08-.06.07-.2 0-.27-.08-.08-.19-.06-.27 0s-.19.09-.28.12c-.12.04-.24.07-.36.12a5.928 5.928 0 0 0-1.32.65c-.2.13-.39.27-.61.37-.1.04-.11.18-.07.26.06.1.17.11.26.07Z"/><path d="M26.72 62.32c.09-.1.14-.21.19-.34 0-.01.01-.03.02-.04.01-.03 0 .02 0 0 .01-.02.02-.05.04-.07a.21.21 0 0 1 .04-.06c-.03.03 0 0 0 0s.02-.02.02-.03c.15-.17.32-.33.33-.57 0-.1-.09-.2-.19-.19-.11 0-.19.08-.19.19v.05c0 .02.02-.04 0 0l-.03.06-.02.02c-.03.04.03-.03 0 0l-.18.21c-.08.09-.13.19-.18.3 0 .02-.02.05-.03.07 0 0 0 .02-.01.03-.02.05.02-.04 0 .01 0 .02-.02.04-.03.06 0 .01-.01.02-.02.03.02-.03 0 0-.01.01-.07.07-.08.2 0 .27s.2.08.27 0Zm-2.89-1.52c.28-.43.49-.89.79-1.31.25-.35.57-.65.96-.84.22-.11.03-.44-.19-.33-.43.21-.78.54-1.06.93-.32.43-.54.92-.83 1.36-.13.21.2.4.33.19Z"/><path d="M22.83 60.16s.03.06.05.09c0 .01-.02.05-.01.05l.02-.04c.01-.02.03-.04.05-.06.05-.05.1-.08.16-.1.16-.06.33-.1.49-.16.32-.13.62-.29.92-.45.22-.12.02-.45-.19-.33-.36.2-.72.4-1.11.51-.2.06-.4.11-.55.27-.14.15-.27.41-.03.54.21.12.41-.21.19-.33Zm1.53 5.33c.34-.17.59-.44.87-.69.33-.29.73-.46 1.08-.72s.68-.54 1.09-.73.86-.31 1.3-.43c.24-.07.14-.43-.1-.37-.43.12-.85.24-1.26.41-.43.18-.77.44-1.14.72-.34.27-.74.44-1.08.71-.32.25-.58.57-.95.76-.22.11-.03.44.19.33Z"/><path d="M27.46 64.59a2.352 2.352 0 0 0 .61-.68c.09-.14.12-.3.13-.46 0-.13 0-.27.05-.39.05-.09.02-.21-.07-.26-.08-.05-.22-.02-.26.07-.07.14-.09.29-.1.44 0 .12 0 .25-.06.36s-.15.22-.22.32c-.08.1-.17.2-.28.27-.08.06-.12.17-.07.26.05.08.18.13.26.07Z"/><path d="M27.07 64.18s.02-.01.02-.02c.02-.01.03-.02.05-.04.04-.02.07-.05.11-.07.07-.04.15-.08.23-.11h.02c-.02 0-.02 0 0 0s.04-.02.06-.02c.04-.02.08-.03.13-.04.09-.03.18-.05.27-.07.1-.02.16-.14.13-.23-.03-.1-.13-.15-.23-.13-.39.08-.75.24-1.06.48-.08.06-.07.21 0 .27.08.08.19.07.27 0Zm-3.12.67c.08-.04.16-.07.26-.1s.19-.06.29-.08c.2-.04.39-.06.6-.06.1 0 .2-.09.19-.19s-.08-.19-.19-.19c-.46 0-.92.09-1.35.29-.09.04-.12.18-.07.26.06.1.17.11.26.07Zm-.02-1.59c.39-.04.77.07 1.15.17s.76.22 1.14.35c.23.08.33-.29.1-.37-.39-.14-.78-.26-1.18-.37s-.8-.22-1.21-.17c-.1.01-.19.08-.19.19 0 .09.09.2.19.19Z"/><path d="m24.67 63.98.77-.42c.09-.05.12-.18.07-.26-.06-.09-.17-.12-.26-.07l-.77.42c-.09.05-.12.18-.07.26.06.09.17.12.26.07Zm4.83-7.88a.697.697 0 0 1-.19-.06s-.05-.02-.02 0c-.01 0-.03-.01-.04-.02-.03-.01-.06-.03-.08-.04-.02-.01-.05-.03-.07-.04-.01 0-.03-.02-.04-.03-.03-.02 0 0 0 0-.05-.04-.09-.08-.13-.12l-.03-.03c.03.03 0 0 0-.01-.01-.02-.03-.04-.04-.06 0-.02-.02-.04-.03-.05 0 0-.02-.05-.01-.03 0-.01-.02-.06-.03-.09 0-.03-.02-.06-.03-.09 0-.02 0-.03-.01-.05v-.02.02-.03c0-.04-.02.03 0 0 0 .01-.05.04-.02.02.09-.05.12-.18.07-.26s-.17-.12-.26-.07c-.18.1-.19.3-.15.47.04.17.1.33.21.47.2.26.5.44.82.51.1.02.21-.03.23-.13.02-.1-.03-.21-.13-.23Zm.73.12c-.13.07-.27.15-.37.25s-.17.25-.22.4c-.02.07-.05.14-.07.2-.01.04-.03.08-.04.12 0 .02-.01.03-.02.05 0 0-.02.04 0 .01 0 0-.03.05-.01.03.01-.02-.01.01-.02.02-.03.03.01 0 0 0s-.02.02-.04.02c0 0-.05.02-.02.01-.01 0-.03.01-.04.02-.03.01-.06.02-.1.03-.1.03-.17.13-.13.23s.13.16.23.13c.14-.04.28-.09.39-.19.11-.12.15-.3.2-.45.02-.07.05-.14.07-.2.01-.03 0 0 0-.02 0-.01.01-.03.02-.04.01-.03.04-.07.05-.08s.04-.05.07-.07c0 0 .02-.02 0 0 .02-.01.03-.02.05-.03.06-.04.13-.08.2-.11.09-.05.12-.18.07-.26-.06-.09-.17-.12-.26-.07Zm2.29-1.57-.36.13c-.05.02-.11.04-.16.06-.01 0-.03.01-.04.01h.01-.01c-.01 0-.02-.01-.03-.02 0 0-.06-.04-.04-.03-.02-.02-.04-.03-.06-.05-.04-.03-.08-.07-.13-.1a.656.656 0 0 0-.35-.11c-.1 0-.2.09-.19.19s.08.19.19.19h.04c-.02 0-.02 0 0 0 .01 0 .03 0 .04.01.02 0 .02 0 0 0 .02.01.05.02.07.04.01 0 .02.01.03.02.02.01.02.01 0 0 .1.08.19.16.31.21.14.06.28-.01.41-.06l.36-.13c.09-.03.17-.13.13-.23-.03-.09-.13-.17-.23-.13Zm-4.62-1.27c.23 0 .47 0 .68-.1.18-.09.31-.26.43-.42.06-.08.02-.22-.07-.26-.1-.05-.2-.02-.26.07 0 0-.03.03-.03.04.01-.02.02-.02 0-.01v.01l-.02.02c-.03.03-.05.06-.08.09l-.04.04-.02.02s-.04.03-.01.01c.02-.01 0 0 0 0s-.02.01-.02.02l-.06.03s-.02 0-.03.01c.01 0 .02 0 0 0s-.04.01-.06.02c-.02 0-.05 0-.07.02-.03 0 .03 0 0 0h-.33c-.1 0-.2.09-.19.19 0 .11.08.19.19.19Zm-.84 2.31c.17-.1.33-.24.42-.41.04-.08.07-.17.11-.25 0 0 0-.02.01-.03 0 .04 0 .02 0 0s.02-.03.03-.05c0-.01.01-.02.02-.03.01-.02 0 0 0 .01.02-.01.04-.04.05-.05.08-.07.07-.2 0-.27a.2.2 0 0 0-.27 0c-.07.06-.12.14-.16.23-.02.05-.04.09-.06.14 0 .02-.02.04-.02.06v-.01s0 .02-.01.03c-.02.04-.04.07-.06.1 0 0-.02.04 0 0-.01.02-.03.03-.04.05s-.03.03-.05.04c0 0-.02.02-.03.02-.03.02.02-.02 0 0-.04.03-.08.05-.12.08-.09.05-.12.17-.07.26s.17.12.26.07Zm-.23-1.09c-.16-.18-.38-.31-.6-.4-.04-.02-.11 0-.15.02s-.08.07-.09.11c-.01.05 0 .1.02.15l.03.04s.05.04.08.05c0 0 .02 0 .03.01l-.05-.02c.12.05.23.11.33.19l-.04-.03c.06.05.11.1.16.15.07.07.2.07.27 0a.2.2 0 0 0 0-.27Z"/><path d="M29.39 52.82c.12-.2.13-.43.03-.64-.04-.09-.1-.17-.17-.25-.03-.04-.06-.07-.09-.11.01.01.01.02 0 0l-.01-.02v.07c-.01.05-.03.06-.08.08.09-.04.17-.13.13-.23-.03-.09-.14-.17-.23-.13-.07.03-.13.07-.17.14-.04.08-.04.18 0 .26.03.05.07.1.1.14.02.02.03.04.05.06 0 .01.02.02.03.03 0 0 .03.04 0 0 .03.04.05.08.08.12 0 .02 0 .01 0 0 0 .01 0 .02.01.04s0 .02 0 .04v.11-.02.02c0 .02-.01.04-.02.07 0-.02 0-.02 0 0 0 .01-.01.03-.02.04-.05.09-.02.21.07.26s.21.02.26-.07Zm4.42-14.03c.48-.07 1.01.12 1.24.46.17.26.18.56.29.83.24.56.98.96 1.73.94.16 0 .32-.03.44-.1.23-.15.21-.43.13-.66-.07-.2-.16-.39-.31-.56-.2-.22-.5-.36-.79-.51-.54-.26-1.1-.53-1.73-.59-.39-.04-.79 0-1.18.07"/><path d="M33.81 39.04c.32-.04.67.01.92.23.27.23.26.64.39.94.27.6.94.95 1.57 1.04.34.05.77.06 1.04-.19.24-.22.24-.57.15-.87-.11-.34-.3-.64-.59-.85-.31-.23-.68-.39-1.03-.55-.41-.19-.82-.35-1.27-.41-.47-.07-.95-.02-1.42.06-.31.06-.18.53.13.48.72-.13 1.39-.08 2.07.2.3.12.6.27.89.42s.55.33.69.64c.11.24.2.53-.14.59-.29.05-.62-.02-.89-.12-.24-.1-.48-.25-.64-.46-.17-.23-.19-.51-.28-.77-.23-.64-.93-.95-1.59-.87-.13.02-.25.1-.25.25 0 .12.11.26.25.25Z"/><path d="M37.63 41.08c.4.11.76.31 1.04.56"/><path d="M37.57 41.32c.09.03.19.06.28.09.01 0 .02 0 .03.01.03.01-.04-.02 0 0 .02 0 .04.02.06.03.04.02.09.04.13.07.08.04.16.09.24.15.02.01.04.03.05.04 0 0 .02.01.03.02.03.02 0 0-.01 0 .04.02.08.07.11.09.1.09.26.1.35 0 .09-.09.1-.26 0-.35-.33-.29-.72-.5-1.14-.62-.12-.04-.27.04-.3.17s.04.27.17.3Zm2.87-1.85.96-.12s.09-.01.11-.03c.05-.04.03-.1.02-.15-.1-.44.33-.87.85-1.06s1.13-.17 1.71-.13 1.16.1 1.73 0c-.34.19-.67.37-1.01.56-.27.15-.54.3-.78.49-.15.12-.28.25-.44.36-.28.2-.66.32-1.04.32s-.76-.12-1.02-.34"/><path d="M40.44 39.69c.3-.04.6-.07.9-.11.18-.02.37-.06.41-.27.04-.2-.05-.35.07-.54.14-.21.38-.36.62-.45 1.09-.38 2.31.05 3.44-.13l-.17-.39c-.65.36-1.37.68-1.94 1.17-.31.26-.61.46-1.03.51-.36.04-.76-.03-1.05-.26-.21-.17-.52.13-.3.3.62.5 1.52.52 2.2.12.37-.22.67-.54 1.04-.76.43-.25.86-.48 1.29-.72.23-.13.06-.43-.17-.39-1.13.19-2.32-.25-3.44.13-.38.13-.77.39-.94.77-.04.09-.07.18-.08.27 0 .04.03.27.01.28.06-.07-.14-.06-.14-.06-.07 0-.14.02-.21.03l-.53.07c-.27.03-.27.46 0 .43Zm-.13.65c.25.21.61.34.98.34.22 0 .44-.03.66-.03.38 0 .75.11 1.11.21.32.09.64.19.92.34.38.2.69.49 1.13.57-.25 0-.5.02-.74.09-.25.07-.48.17-.74.19-.17.02-.35 0-.52-.04-.87-.17-1.61-.68-1.94-1.32"/><path d="M40.19 40.46c.3.23.65.36 1.02.39.25.02.49-.03.74-.03.26 0 .52.05.77.12.43.12.88.23 1.27.46.35.2.67.45 1.08.53l.04-.33c-.39 0-.74.08-1.11.19-.39.12-.75.1-1.15-.02-.63-.19-1.22-.58-1.54-1.17-.1-.19-.39-.02-.29.17.33.62.94 1.05 1.59 1.28.36.12.76.21 1.14.15.23-.04.44-.12.66-.18s.46-.08.69-.08c.19 0 .24-.29.04-.33-.39-.08-.69-.32-1.03-.51-.36-.2-.76-.31-1.15-.43-.42-.12-.83-.2-1.26-.17-.46.03-.91.02-1.29-.27-.17-.13-.41.1-.24.24Z"/><path d="M53.86 11.44c.2.35.26.35.92 1.24.24.32.48.65.6 1.03s.09.84-.17 1.14c-.27.32-.74.39-1.15.33-.41-.06-.79-.24-1.2-.33-.6-.13-1.24-.08-1.81.16-.81.34-1.49 1.03-2.35 1.15-.91.13-1.77-.39-2.57-.85-1.05-.59-2.17-1.11-3.36-1.24-.53-.06-1.12-.05-1.53-.4-.4-.34-.52-.91-.67-1.43a6.65 6.65 0 0 0-1.36-2.47c-.46-.52-.73-.8-.77-1.32-.03-.29.06-.35.15-1 .14-.96-.02-1.04.13-1.42.23-.6.88-1.06 1.49-1.13.62-.07.69.32 1.42.4.19.02.53.03 2.48-.82 1-.43 1.08-.51 1.37-.5.73.02.92.51 1.8.8.64.21 1.34.05 2.01.12 1.09.12 2.01.85 2.79 1.65.39.4.8.87 1.02 1.6.19.63.04.85.28 1.86.13.55.22.95.48 1.42Z" fill="#bd0e0d"/><path d="M53.72 11.53c.21.36.49.67.74 1 .2.27.42.54.58.83.35.64.3.77-.24 1.25-.24.43-.57.54-.99.34-.15-.04-.3-.09-.45-.14-.61-.18-1.21-.27-1.84-.13-.77.17-1.35.68-2.04 1.03-1.85.94-3.75-1.02-5.49-1.55-.71-.22-1.62-.13-2.28-.43-.88-.39-.93-1.58-1.29-2.37-.32-.72-.77-1.31-1.27-1.91-.59-.7-.51-1.15-.39-1.99.1-.7-.07-1.37.49-1.91.43-.41 1-.57 1.55-.35.29.11.48.25.81.27.63.04 1.29-.3 1.86-.53s1.14-.59 1.74-.74c.68-.17 1.18.41 1.76.65.91.39 1.88.07 2.81.34.98.28 1.84 1.06 2.48 1.82 1.09 1.28.71 3.07 1.46 4.53.1.19.38.02.29-.17-.78-1.52-.36-3.24-1.51-4.59-.57-.67-1.28-1.31-2.08-1.69-1.02-.49-2.06-.12-3.09-.44-.67-.21-1.18-.86-1.92-.81-.64.04-1.34.52-1.9.75-.5.21-1.09.51-1.64.56s-.93-.35-1.43-.4c-.6-.05-1.25.34-1.6.8-.4.53-.3 1.01-.36 1.64s-.32 1.17-.07 1.77c.12.29.33.51.52.75.53.65 1 1.28 1.32 2.07.26.67.32 1.54.9 2.04s1.48.39 2.2.54c1.17.24 2.18.84 3.22 1.4.76.41 1.59.76 2.46.53 1.22-.32 1.98-1.38 3.34-1.32.88.04 1.95.8 2.8.18 1.44-1.05-.6-2.84-1.14-3.77-.11-.18-.39-.02-.29.17Z"/><path d="M52.2 14.54c.2-.33-.2-1.02-.58-1.44-.51-.56-.83-.46-1.26-1.03-.22-.29-.34-.63-.46-.97-.22-.61-.47-1.22-.83-1.76s-.85-1-1.45-1.22c-.43-.16-.9-.18-1.36-.2-.57-.02-1.14-.05-1.7.03-.41.05-.83.16-1.24.07-.67-.14-.73-.38-1.22-.42-.7-.07-1.46.41-1.85 1.05-.4.66-.32 1.35-.26 1.83.05.38.24.85.63 1.78.57 1.37.72 1.51.86 1.59.45.29.72.03 1.68.16.78.1 1.34.37 1.95.67 1.17.56 1.08.84 1.9 1.14.43.16 1.41.51 2.38.15.92-.35 1.06-1.05 2.12-1.23.34-.06.58-.03.7-.22Z" fill="#e9afaf"/><path d="M52.36 14.58c.18-.44-.12-.94-.37-1.29-.35-.49-.83-.68-1.27-1.07-.56-.49-.71-1.36-1-2.02s-.64-1.25-1.17-1.71c-.99-.86-2.54-.84-3.78-.73-.41.04-.83.16-1.24.12-.36-.03-.63-.2-.95-.33a1.68 1.68 0 0 0-1.32.02c-2.49 1.03-1.18 4.04-.34 5.74.24.49.48.82 1.06.86.67.04 1.26-.03 1.92.18s1.35.53 1.92.93c.94.65 1.96 1.19 3.17.97.62-.11 1.05-.45 1.53-.84.31-.26.63-.43 1.03-.51.3-.06.55-.03.77-.26.15-.15-.09-.39-.23-.23-.16.17-.68.17-.89.24-.19.06-.37.14-.54.25-.37.23-.65.58-1.03.79-.98.55-2.37.24-3.24-.4-.73-.53-1.52-.98-2.39-1.25-.5-.15-1.02-.23-1.54-.21-.3 0-.66.09-.92-.13-.14-.12-.23-.33-.31-.49-.28-.56-.51-1.14-.74-1.72-.39-.99-.64-2.19.16-3.07.42-.46 1.08-.8 1.7-.6.42.13.73.37 1.19.4.59.04 1.18-.14 1.78-.15.67 0 1.43-.03 2.09.15 1.6.44 1.96 2.16 2.56 3.46.2.43.47.75.87 1.01.49.32 1.5 1.09 1.22 1.8-.08.2.24.28.32.09Z"/><path d="M47.51 15.79c.72-.01 1.54-.67 1.64-1.5.08-.64-.29-1.15-.53-1.47-.29-.4-.61-.67-1.08-.94-.32-.19-.66-.34-.96-.56-.84-.6-.72-.95-1.42-1.39-.16-.1-.97-.61-1.76-.34-.26.09-.45.25-.65.41-.32.26-.64.53-.78.96-.12.38-.02.61-.25.91-.12.16-.18.14-.27.29-.24.38-.08.87-.05.96.02.06.17.53.62.78.25.14.44.13.75.16.64.06 1.11.21 1.74.41.6.19.9.28 1.26.52.35.22.48.39.87.56.23.1.53.24.86.23Z" fill="#bd0e0d"/><path d="M47.51 15.95c.68-.04 1.31-.46 1.63-1.07.36-.69.16-1.4-.27-2.01-.52-.74-1.21-1.08-1.97-1.54-.4-.25-.7-.54-.98-.91-.19-.25-.41-.46-.67-.63-.54-.35-1.25-.57-1.88-.35s-1.35.86-1.55 1.49c-.07.21-.05.42-.11.63s-.21.3-.33.45c-.22.26-.25.62-.19.94.09.5.41.98.9 1.18s1.03.14 1.52.26.97.27 1.44.45c.87.32 1.49 1.09 2.47 1.13.21 0 .21-.32 0-.33-.79-.03-1.28-.6-1.94-.93-.58-.29-1.25-.47-1.88-.63-.66-.17-1.55-.03-1.98-.66-.09-.13-.15-.28-.19-.43s-.05-.3-.02-.45c.05-.26.21-.35.35-.53.16-.21.18-.43.21-.68.06-.44.3-.75.63-1.04.26-.23.54-.47.88-.55.4-.1.82 0 1.18.18.47.22.76.57 1.08.96.47.58 1.12.86 1.74 1.24s1.25 1.02 1.39 1.75c.18.87-.61 1.73-1.46 1.77-.21.01-.21.34 0 .33Z"/><path d="M45.11 14.69c.47.14 1.06.31 1.37.03.08-.07.12-.16.21-.34.11-.24.21-.49.21-.75-.01-.42-.32-.77-.64-1.02-.37-.3-.79-.54-1.23-.71-.41-.16-.86-.26-1.3-.18-.11.02-.76.21-.97.83-.18.54.06 1.13.4 1.42.21.18.29.11 1.13.42.52.19.49.22.82.32Z" fill="#e9afaf"/><path d="M45.06 14.85c.41.12.93.3 1.35.11.17-.08.28-.21.36-.38.11-.23.23-.48.27-.73.16-1.02-1.05-1.73-1.84-2.06-.74-.31-1.6-.43-2.24.16s-.54 1.72.17 2.21c.22.15.53.19.78.27.39.13.76.31 1.15.43.2.06.29-.26.09-.32-.23-.07-.44-.17-.66-.26-.31-.12-.63-.22-.95-.31-.56-.16-.83-.92-.6-1.45.26-.59.93-.75 1.5-.63.44.09.87.29 1.25.53.34.21.71.47.91.83.13.23.14.47.06.72-.06.19-.14.46-.28.61-.28.31-.91.05-1.24-.04-.2-.06-.29.26-.09.32Z"/><path d="M45.16 13.56c-.04-.13-.11-.37-.33-.52-.07-.05-.31-.21-.46-.11-.16.1-.15.34-.08.52.02.05.1.42.39.48.21.05.47-.07.5-.23 0-.03 0-.06-.02-.14Z" fill="#961710"/><path d="M45.28 13.52a1.2 1.2 0 0 0-.13-.31.922.922 0 0 0-.29-.3.806.806 0 0 0-.33-.14c-.15-.02-.3.05-.37.19-.1.2-.05.43.03.63.09.23.24.43.5.46.17.02.34-.03.47-.14.06-.05.11-.11.13-.18s0-.15-.01-.22c-.04-.15-.28-.09-.24.07 0 .02 0 .03.01.05v.03c0-.03 0-.02 0 0 0 .03 0 0 0 0s0 .02-.01.02c-.02.03.01-.01 0 .01 0 0-.04.03-.02.02a.42.42 0 0 1-.26.08c-.03 0-.09-.02-.11-.03 0 0-.01 0-.02-.01 0 0-.03-.02-.01 0-.02-.02-.04-.03-.06-.05 0 0-.01-.02-.02-.03 0 0 .01.02 0 0s-.02-.04-.03-.05-.02-.04-.03-.05v-.04c0 .02 0 .02 0 0-.02-.05-.03-.09-.05-.14-.01-.04-.03-.1-.03-.13v-.14c0-.03.01-.04.02-.05 0 0 .02-.03 0-.02l.02-.02c.02-.02-.02 0 .01-.01 0 0 .04-.02.01 0h.06s-.02 0 0 0h.04c.02 0 .02 0 .04.01.04.01-.02 0 .02 0 .04.02.08.04.12.07a.7.7 0 0 1 .21.21.3.3 0 0 1 .04.08c0 .01.01.02.02.03v.01c.02.04.03.09.04.13.05.15.29.09.24-.07Z"/><path d="M38.63 6.99c-.12-.06-.63.65-1.01 1.36-.3.56-.44.85-.47 1.2-.06.68.34 1.31.78 1.82.44.5.96.96 1.25 1.58.36.78.18.99.48 1.68.62 1.43 2.2 1.96 2.34 2.01 1.26.41 1.55-.26 2.92.12 1.15.33 1.1.85 2.34 1.21.41.12 1.55.45 2.72 0 1.01-.4 1.85-1.33 2.14-1.64.39-.42.62-.83 1.18-1.03.57-.2 1.09-.05 1.1-.09 0-.04-.49-.13-1.51-.31-1.15-.2-1.29-.22-1.53-.15-.46.13-.87.46-1.14.69-.34.28-.34.35-.59.5-.47.28-.94.28-1.18.28-.54 0-.93-.16-1.21-.28-.45-.19-.57-.33-1.1-.66-.52-.33-1.25-.78-2.22-1.01-.62-.15-1.14-.19-1.14-.19-.53-.04-.8 0-1.14-.19-.16-.09-.34-.22-.57-.53-.71-.96-.44-1.58-1.08-2.57-.22-.34-.23-.23-.76-.95-.49-.65-.73-.98-.8-1.35-.16-.8.32-1.43.21-1.49Z" fill="#bd0e0d"/><path d="M38.59 6.83c-.6.11-1.15 1.46-1.36 1.92-.31.67-.32 1.3.04 1.97.54 1.01 1.61 1.62 1.94 2.76.24.84.34 1.54.98 2.2.92.95 2.07 1.34 3.36 1.16.62-.08 1.21-.03 1.78.24.41.19.73.51 1.12.73.75.42 1.74.61 2.59.53 1.07-.09 1.98-.7 2.73-1.43.35-.34.63-.74.98-1.07.53-.5 1.06-.36 1.68-.48.13-.02.15-.19.07-.28-.32-.34-1.47-.33-1.88-.4-.56-.09-1.06-.23-1.6 0-.43.19-.79.5-1.15.8-.57.49-1.24.66-1.98.5-1.02-.22-1.82-1.02-2.74-1.45-.8-.38-1.66-.57-2.54-.64s-1.34-.32-1.72-1.12c-.24-.49-.29-1.05-.5-1.55-.32-.76-.96-1.33-1.42-2-.36-.53-.51-.98-.34-1.63.05-.18.23-.45.15-.65s-.4-.11-.32.09c.07.17-.23.71-.24.94-.03.36.04.69.21 1 .41.79 1.15 1.36 1.56 2.14.49.94.44 2.13 1.4 2.8.64.45 1.6.3 2.33.47 1.19.26 2.04.92 3.06 1.51.77.44 1.76.65 2.61.33s1.34-1.35 2.33-1.35c.55 0 1.13.17 1.67.27.2.04.8.07.89.17l.07-.28c-.38.08-.75-.04-1.14.11-.46.17-.74.51-1.05.87-.76.87-1.67 1.73-2.85 1.96-1.28.24-2.36-.26-3.38-.94-.72-.48-1.53-.64-2.37-.53s-1.5.04-2.23-.37c-.51-.29-.97-.68-1.29-1.18s-.35-1-.5-1.56c-.29-1.07-1.17-1.64-1.77-2.51-.51-.75-.52-1.4-.13-2.19.19-.37.64-1.47 1.05-1.54.21-.04.12-.36-.09-.32Z"/><path d="M38.33 11.79c-.08.34-.54 2.35.64 4.22.08.13 1.1 1.68 2.64 2.09.16.04.66.16 1.23.27 1.03.2 1.16.16 1.57.33.64.26.67.46 1.21.66.42.15.8.13 1.31.04 1.43-.27 3.46-1.6 3.76-1.78-.4.15-1.3.64-2.06.6-.79-.04-1.39-.3-1.81-.49-1.23-.55-1.43-1.08-2.29-1.1-.28 0-.33.05-.93.07-.5.01-.89.03-1.31-.05-.24-.04-1.25-.22-1.99-1.07-.34-.39-.51-.79-.66-1.18-.28-.68-.23-.94-.48-1.48-.14-.3-.39-.71-.85-1.14Z" fill="#bd0e0d"/><path d="M38.17 11.75c-.52 2.16.23 4.43 1.99 5.79 1.08.83 2.41.93 3.71 1.18.58.11.99.48 1.51.72.58.27 1.21.22 1.82.07 1.29-.32 2.46-1.07 3.58-1.75.15-.09.05-.38-.13-.3-.65.27-1.29.61-2.02.59s-1.48-.32-2.12-.66c-.48-.25-.9-.65-1.42-.83-.41-.14-.8-.07-1.21-.04-1.33.09-2.71-.06-3.57-1.2-.48-.63-.61-1.37-.86-2.1-.2-.6-.57-1.1-1.02-1.54-.15-.15-.39.08-.23.23.66.65.87 1.29 1.14 2.15.2.65.5 1.3.98 1.79.86.86 2.01 1.06 3.17 1.02.57-.02 1.15-.18 1.69.09.6.3 1.11.72 1.74.99.59.25 1.24.46 1.89.44.68-.02 1.3-.35 1.93-.6l-.13-.3c-1.16.7-2.37 1.5-3.73 1.76-.57.11-1.09.08-1.6-.22-.28-.17-.53-.35-.84-.47-.56-.22-1.2-.25-1.78-.37-.79-.16-1.54-.33-2.2-.81-.5-.36-.95-.83-1.3-1.34-.82-1.2-1.03-2.78-.69-4.19.05-.21-.27-.3-.32-.09Z"/><path fill="none" stroke="#000" stroke-miterlimit="10" stroke-width=".11" d="m52.16 14.34-3.02.11m2.77-.77-2.66.38m2.25-.9-2.22.58M51 12.72l-1.91.61m1.48-.97-1.69.71m1.19-1.16-1.4.9m1.22-1.47-1.34 1.14m1.14-1.56-1.5 1.29m1.32-1.87-1.84 1.58m1.65-1.99-2.01 1.71m1.75-2.21-2.26 1.93m1.91-2.37L46.37 11m1.84-2.45-2.2 2.17m1.62-2.55-1.9 2.21m.98-2.29-1.33 1.86M45.79 8l-.7 1.76m.16-1.74-.53 1.62m-.25-1.53-.28 1.4m-.48-1.48-.06 1.51m-.62-1.65.23 1.69m-.91-1.84.66 2.06m-1.28-2.12.96 2.24m-1.68-1.91 1.51 2.06m-2.01-1.63 1.68 1.91m-2.03-1.47L42 10.65m-1.9-1.13 1.79 1.52m-1.86-.74 1.75 1.13m-1.45-.22 1.34.61m-1.09.05.75.23m-.5.43.39-.04m-.13.54.24-.05m9.3 2.09-1.6-.24m.86.72-.96-.49m.47.76-.64-.62m.09.81-.27-.5m-.28.53-.12-.33m-3.36-3.83-.01 1.03m.54-.9-.4 1.08m.99-.7-.92.78m1.5-.41-1.37.58m1.55-.01-1.49.26m1.51.3-1.53-.14m1.24.83-1.32-.76m.76.95-.84-.88m-.73-2.14.29 1.06m-.84-1.03.67 1.18m-1.14-1.07.97 1.21m-1.32-.77 1.29 1.08m-1.36-.29 1.5.47m-1.25.19 1.17-.12m-.28.53.42-.36m.11.49.11-.39m.55.69-.33-.59"/><path d="M64.44 6.41a515.107 515.107 0 0 1 0 36.46l9.3.33v5.53H57.71c.42-6.75.66-13.92.64-21.48-.02-6.96-.25-13.59-.64-19.86 1.14-.26 2.38-.49 3.72-.67 1.06-.14 2.06-.24 3.01-.3Zm14.82-.03c1.93-.41 9.33-1.73 15.63 2.64 2.67 1.86 4.16 4.06 4.49 4.55 2.35 3.56 2.62 7.03 2.89 10.39.48 6.12-.95 10.69-1.28 11.69-.79 2.41-1.89 5.77-4.49 8.44-6 6.17-15.85 4.49-17.31 4.22.03-13.98.05-27.96.08-41.94Zm5.69 4.59c-.11 10.29-.21 20.57-.32 30.86 1.85-.02 5.45-.36 8.33-2.92 4.8-4.26 4-11.41 3.53-15.59-.43-3.82-.93-8.21-4.49-10.72-2.61-1.84-5.59-1.77-7.05-1.62Zm41.68 7.94h-4.17c-.11-.96-.21-1.92-.32-2.89-.08-.6-.43-2.69-2.24-4.17-.53-.43-1.78-1.45-3.53-1.28-1.89.18-2.97 1.61-3.21 1.92-1.35 1.78-1.05 3.89-.96 4.49.42 2.93 2.61 4.81 4.49 6.41 1.71 1.47 1.98 1.21 5.13 3.53 2.47 1.81 3.7 2.72 4.49 3.85 1.98 2.83 1.94 5.96 1.92 7.05-.01 1.07-.07 3.5-1.57 6.07-1.23 2.11-2.81 3.25-3.23 3.54-2.67 1.85-5.41 1.91-6.41 1.92-1.05.01-4.22 0-7.14-2.24-.38-.29-2.29-1.79-3.44-4.49-.68-1.61-.79-3.02-.96-5.77-.1-1.6-.14-3.55 0-5.77h4.81c0 2.43.01 4.49 0 6.41 0 .55 0 1.32.32 2.24.63 1.78 1.99 2.72 2.24 2.89 1.52 1.01 3.04.98 3.53.96a6.24 6.24 0 0 0 3.53-1.28c.24-.19 1.81-1.44 2.24-3.53.51-2.46-.86-4.54-1.92-6.09-1.52-2.23-2.35-2.3-7.05-6.41-3.37-2.95-4.21-4.08-4.81-5.45-.92-2.09-.95-4-.96-4.81-.01-1.45-.04-3.61 1.28-5.77 2.01-3.3 5.6-4.07 6.09-4.17.23-.05 4.22-.77 7.55 1.77 1.27.97 1.96 2.04 2.39 2.72.28.44 1.62 2.59 1.92 5.77.1 1.06.06 1.95 0 2.56Zm26.32-12.16c-3.32 6.33-7.61 13.32-10.94 19.65 3.19 7.87 7.35 15.09 10.54 22.97-2.14 0-3.28-.01-5.41-.02-2.88-6.56-5.77-12.79-8.98-19.34-.01 6.67.32 12.13.32 19.34h-5.13c0-14.22-.31-28.4-.32-42.62 1.95.02 3.21-.03 5.16 0-.04 6.24-.03 11.48-.04 16.73 3.11-5.24 6.22-11.47 9.33-16.71h5.45Zm15.67 36.53c.46 0 1.7-.09 2.89-.96 1.25-.91 1.68-2.15 1.92-2.89.2-.59.28-1.08.32-3.53.04-2.18 0-3.83 0-5.77V7.37h6.09v6.09c0 4.59-.04 9.19 0 13.78 0 1.13.07 8.21-.96 13.78-.12.64-.39 2.01-1.28 3.53-.38.65-1.53 2.55-3.9 3.78-2.18 1.14-4.19 1.08-5.34 1.03-1.07-.05-4.59-.21-7.43-2.89-2.08-1.96-2.77-4.28-3.21-5.77-.49-1.68-.57-2.99-.64-4.49-.32-6.79-.32-10.9-.32-10.9V14.73c-.01-3.16-.05-5.73-.07-7.42 2.05.01 4.11.03 6.16.04v19.58c-.16 2.99.01 5.98 0 8.98 0 .41 0 1.37.32 2.56.4 1.48 1.11 2.56 1.6 3.21.28.28 1.69 1.64 3.85 1.6Zm15.95-36.06c1.93-.4 9.33-1.71 15.63 2.61 2.67 1.83 4.16 4 4.49 4.49 2.35 3.51 2.62 6.94 2.89 10.26.48 6.04-.95 10.55-1.28 11.54-.79 2.38-1.89 5.69-4.49 8.33-6 6.09-15.85 4.43-17.31 4.17.03-13.8.05-27.6.08-41.4Zm5.69 4.53c-.11 10.15-.21 20.3-.32 30.45 1.85-.02 5.45-.36 8.33-2.89 4.8-4.2 4-11.26 3.53-15.39-.43-3.77-.93-8.1-4.49-10.58-2.61-1.81-5.59-1.75-7.05-1.6ZM34.94 0c-4.92 16.46-9.83 32.91-14.75 49.37h-8.01a572.15 572.15 0 0 1-6.41-21.8C3.61 19.64 1.7 11.94 0 4.49h6.41c.99 6.54 2.15 12.16 3.21 16.67.36 1.54 1.56 6.59 3.53 13.14 1.07 3.56 2.07 6.6 2.89 8.98 2.12-5.95 3.57-10.84 4.49-14.11 1.73-6.17 2.32-9.4 4.49-17.63C26.34 6.53 27.49 2.5 28.23 0h6.73Z"/></svg>