<svg xmlns="http://www.w3.org/2000/svg" viewBox="0 0 153.46 109.92"><path d="M52.75 50.98c.62 3.48.23 7.32-.98 10.63-1.11 3.03-3.06 5.71-5.68 7.61-1.54 1.12-3.96 2.79-5.94 2.68-1-.05-1.81-.73-2.53-1.36-1.13-.98-2.22-2.03-3.25-3.11-2.3-2.39-2.31-5.55-2.47-8.7-.17-3.51.07-7.08 1.87-10.19 1.66-2.88 3.94-5.76 7.31-6.6 2.33-.58 4.78-.23 6.86.96 3.07 1.76 4.21 4.79 4.81 8.08.1.52.89.3.79-.22-.56-3.05-1.55-5.89-4.1-7.85a10.07 10.07 0 0 0-6.07-2.07c-7.08 0-11.75 7.54-12.27 13.92-.16 1.98-.05 3.97.1 5.95.13 1.64.19 3.34.86 4.87.56 1.29 1.55 2.28 2.55 3.25 1.12 1.09 2.24 2.3 3.55 3.17 1.88 1.25 3.73.51 5.6-.42 2.78-1.4 5.19-3.38 6.92-5.99 2.8-4.22 3.75-9.86 2.86-14.83-.09-.52-.89-.3-.79.22Z"/><path d="M35.15 69.18c-.14 1.04-.32 2.09-.51 3.12-.11.57-.21 1.16-.46 1.69-.62 1.37-1.71 2.35-3.13 2.84-.5.17-.28.97.22.79 1.6-.56 2.89-1.64 3.6-3.18.28-.6.42-1.23.55-1.88.21-1.13.4-2.26.55-3.39.07-.52-.75-.52-.82 0Zm10.58.45c-.28 2-.59 4.12.07 6.07.52 1.52 1.57 2.84 3.12 3.39.5.18.72-.62.22-.79-1.34-.48-2.23-1.74-2.62-3.07-.52-1.75-.25-3.62 0-5.39.07-.52-.72-.74-.79-.22Z"/><path d="M30.82 77.45c1.74 2.81 4.85 4.46 8.12 4.64 1.97.11 3.94-.27 5.86-.63s3.75-.76 5.43-1.71c.46-.26.05-.97-.42-.71-1.48.83-3.11 1.22-4.76 1.54-1.78.34-3.59.71-5.42.71-3.22 0-6.38-1.46-8.11-4.26-.28-.45-.99-.04-.71.42Z"/><path d="M48.91 79.06c.95.69 2.08.76 3.22.87 1.61.15 3.19.49 4.72 1.02 3.15 1.1 5.88 3 8.17 5.4 3.99 4.21 6.74 9.49 11.33 13.14.41.33 1-.25.58-.58-4.69-3.73-7.46-9.17-11.6-13.42-2.02-2.08-4.39-3.76-7.07-4.88-1.44-.6-2.94-1.05-4.48-1.3s-3.2-.05-4.45-.96c-.43-.31-.84.4-.42.71Zm-30.2 16.7c-3.35 3.17-7.51 5.39-12.04 6.33-1.23.26-2.73.57-3.9-.03-.96-.49-1.39-1.51-1.62-2.51-.41-1.79-.3-3.73-.07-5.54.52-4.06 1.82-8 2.83-11.96s1.83-8.26 2.05-12.5l-.3.4c3.35-.7 6.73-1.18 10.14-1.45l-.4-.52a48.175 48.175 0 0 0-2.94 16.59c0 .29.36.55.62.36 2.75-2.06 4.85-5 8.05-6.51 1.78-.84 3.75-.34 5.62-.29 1.64.05 3.26-.15 4.86-.47.52-.1.3-.9-.22-.79-1.86.37-3.72.53-5.62.39-1.58-.12-3.21-.33-4.71.3-3.38 1.42-5.55 4.53-8.4 6.66l.62.36c0-5.59.99-11.12 2.91-16.37.09-.24-.14-.54-.4-.52-3.48.28-6.94.77-10.36 1.48-.18.04-.29.22-.3.4-.2 3.88-.88 7.69-1.81 11.45S1.31 88.17.61 91.82c-.54 2.81-1.05 6.21.04 8.95 1.32 3.32 5.09 2.51 7.84 1.75 4.05-1.13 7.75-3.27 10.8-6.16.39-.36-.2-.95-.58-.58Z"/><path d="M18.68 95.92c-.44 4.51-.77 9.07-.63 13.61.02.53.84.53.82 0-.14-4.54.19-9.09.63-13.61.05-.53-.77-.52-.82 0Zm42.4 2.31c-.12 2.6 2.68 3.94 3.28 6.28.13.51.93.3.79-.22-.31-1.19-1.12-2.14-1.88-3.08-.69-.86-1.43-1.81-1.38-2.98.02-.53-.8-.53-.82 0Z"/><path d="M60.88 98.34a80.692 80.692 0 0 0-2.99 10.69c-.11.52.69.74.79.22.75-3.63 1.75-7.2 2.99-10.69.18-.5-.62-.72-.79-.22ZM15.57 67.95c.66-1.68 1.59-3.2 2.84-4.5.61-.63 2.17-1.61 2.18-2.62 0-.9-1.19-1.03-1.86-1.01-1.54.03-2.7 1.15-3.71 2.19l.7.29c-.23-2.76-.55-5.51-.97-8.25-.22-1.42-.46-2.83-.73-4.24-.18-.93-.26-2.14-1.01-2.82-.44-.4-1.12-.63-1.68-.35-.73.36-.81 1.31-.89 2.02-.24 2.19.4 4.43.56 6.62.04.53.86.53.82 0-.11-1.45-.33-2.87-.52-4.3-.06-.48-.11-.96-.1-1.44 0-.38-.07-1.3.17-1.58l.93-.48c.31.25.5.56.59.94.14.46.21.94.3 1.41.8 4.12 1.37 8.28 1.72 12.47.03.34.44.56.7.29.89-.91 1.89-1.95 3.26-1.94.15 0 .6 0 .69.08.26.22.04.34-.1.55-.29.41-.77.76-1.12 1.11-1.58 1.54-2.73 3.3-3.54 5.36-.19.49.6.71.79.22Z"/><path d="M11.47 55.5c-1.27-1.22-3.37-.61-3.65 1.18l.4-.3c-.67.05-1.26-.39-1.93-.37s-.79.44-1.14.9c-.39.52-1.33.12-1.9.51-.45.32-.7.88-.73 1.42-.04.74.3 1.4.6 2.05.42.91.7 1.86.95 2.82.5 1.94.98 3.88 1.47 5.82.13.51.92.3.79-.22-.77-3.07-1.35-6.27-2.65-9.17-.27-.61-.68-1.79.21-2.11.51-.19 1.07.11 1.57-.22s.44-1.09 1.14-.94c.56.12 1.05.37 1.63.33.16-.01.37-.12.4-.3.18-1.14 1.41-1.64 2.27-.81.38.37.97-.21.58-.58Z"/><path d="M10.77 55.69c.44.7.84 1.42 1.2 2.17.18.37.35.74.51 1.12.15.35.34.73.4 1.11.04.26-.05.43-.32.47-.31.04-.56-.16-.76-.38-.25-.27-.43-.59-.64-.88-.24-.34-.48-.68-.73-1.01-.58-.76-1.18-1.48-1.82-2.18-.36-.39-.94.19-.58.58.66.72 1.29 1.47 1.88 2.26.29.38.56.77.83 1.17.24.36.5.71.85.97.59.43 1.57.44 1.98-.25.24-.4.17-.88.02-1.3-.16-.45-.35-.89-.54-1.33-.45-1.01-.97-1.99-1.55-2.93-.28-.45-.99-.04-.71.42Z"/><path d="M4.95 57.69c.24.85.85 1.5 1.43 2.14.32.36.64.72.96 1.09.29.33.57.67.92.93.68.5 1.56.39 2.08-.27.57-.72.42-1.71 0-2.46-.24-.43-.56-.81-.86-1.2-.35-.44-.69-.89-1.04-1.33-.14-.18-.44-.14-.58 0-.17.17-.14.41 0 .58.32.41.64.81.95 1.22.28.36.58.71.8 1.11.2.36.35.79.26 1.21-.07.31-.31.62-.65.65-.37.03-.68-.32-.91-.57-.34-.37-.67-.75-1-1.13-.58-.65-1.32-1.32-1.57-2.18-.15-.51-.94-.29-.79.22Z"/><path d="M4.57 57.98c.58.62 1.17 1.24 1.63 1.97.14.23 1 1.68.39 1.77-.47.07-.72-.58-.95-.89-.18-.25-.41-.46-.61-.69-.6-.68-1.18-1.38-1.75-2.09-.14-.17-.44-.14-.58 0-.17.17-.14.41 0 .58.57.71 1.14 1.41 1.75 2.09.13.15.27.29.4.44.03.04.07.08.1.11.07.07-.04-.06-.01-.02.01.03.03.05.05.07.18.27.34.58.59.8.35.31.82.5 1.29.37.5-.14.77-.63.75-1.13-.02-.47-.22-.93-.42-1.34-.5-1-1.28-1.83-2.03-2.63-.36-.39-.95.2-.58.58Zm7.88 26.58c.2 2.86-.45 5.68-1.77 8.21-.25.47.47.89.71.42 1.39-2.66 2.09-5.62 1.89-8.63-.04-.53-.86-.53-.82 0Z"/><path d="M45.45 36.23c1.63.1 1.78-.65 3.96-.72.51-.02 1.79-.05 3.23.45 1.64.56 2.91 1.84 4.13 3.08.88.9 2.4 2.68 3.04 5.32.47 1.95 0 2.54.66 5.06.41 1.52.65 1.57 1.11 3.08.31 1.02 1.2 3.36.78 6.11-.31 2.08-.82 4.21-.36 6.26.23 1.02.69 1.97.93 2.99.63 2.7-.37 5.48-.52 8.25-.22 4.33 2.54 6.12 1.21 8.1-.47.7-1.38 1.38-2.2 1.78-.9.44-1.36.38-2.79.78-1.86.53-1.73.82-2.93 1.1-.42.1-3.18.75-4.96-.65-.71-.56-.94-1.19-1.49-2.57-2.47-6.27-2.57-5.75-3.07-7.76-.69-2.75-1.03-4.13-.73-5.49.6-2.77 2.42-2.64 4.66-6.19 2.27-3.61 2.56-7.04 2.66-10.13.03-.95.02-1.92-.35-2.79-.7-1.63-2.45-2.47-3.87-3.54a11.472 11.472 0 0 1-4.38-7.34c-1.62 1.82-3.14 2.99-4.24 3.73-1.27.86-2.12 1.22-3.64 2.46-1.07.87-1.86 1.52-2.56 2.56-.33.49-.97 1.55-1.46 4.03-.37 1.83-.82 4.08-.37 6.96.62 3.95 2.56 6.71 3.66 8.06.02 1.1-.11 2-.24 2.65-.22 1.04-.52 2.74-1.77 4.17-.38.44-.8.86-1.05 1.39-.3.66-.31 1.41-.45 2.12-.38 1.88-1.35 4.23-3.16 5.01-.51.22-.92.25-1.57.3-1.42.1-1.76-.83-4.09-.74-1.09.04-2.47.11-2.93-.87-.26-.55-.09-1.26-.41-1.78-.35-.57-1.18-.71-1.55-1.27-.22-.33-.24-.76-.22-1.16.15-2.5 1.71-4.76 1.78-7.26.04-1.26-.3-2.6.23-3.75.39-.84 1.19-1.42 1.61-2.24.67-1.32.22-2.92.46-4.37.28-1.63 1.41-2.99 1.92-4.57.77-2.37.09-5.1 1.19-7.34.66-1.35 1.9-2.37 2.52-3.74.4-.9.51-1.91.97-2.78.9-1.72 2.9-2.54 4.2-3.98 1.66-1.84 1.65-2.67 2.86-3.02.97-.28 1.34.17 2.99-.09 1.48-.23 1.5-.64 2.56-.73 1.8-.16 2.06.98 4.03 1.1Z" fill="#92a377"/><path d="M45.45 36.64c.77.02 1.38-.16 2.11-.39.9-.29 1.85-.38 2.8-.32 2.72.17 4.65 1.78 6.42 3.71 1.5 1.64 2.62 3.73 2.83 5.97.17 1.83.22 3.51.92 5.26.74 1.84 1.43 3.76 1.52 5.76.12 2.62-.94 5.15-.54 7.79.18 1.23.75 2.34 1.03 3.54.36 1.59.13 3.22-.11 4.8-.34 2.24-.68 4.42-.02 6.64.37 1.26 1.64 3.07.98 4.4-1.1 2.22-4.09 2.16-6.06 2.96-1.32.54-2.44.98-3.91.91-1.14-.06-2.34-.43-3-1.43s-.99-2.27-1.43-3.38c-.8-1.97-1.84-3.91-2.38-5.97-.46-1.78-1.2-3.88-.69-5.72.47-1.7 2.01-2.63 3.13-3.88 1.76-1.99 2.97-4.48 3.56-7.07.51-2.2.87-4.87.48-7.11-.41-2.38-2.54-3.4-4.29-4.74-2.29-1.75-3.74-4.29-4.22-7.11-.05-.3-.49-.4-.69-.18-1.5 1.65-3.16 3.06-5.05 4.24-1.65 1.03-3.34 2.14-4.66 3.59-2.15 2.36-2.74 6.04-2.87 9.13-.16 3.9 1.15 7.75 3.5 10.85.93 1.23-.06 4.23-.71 5.54-.46.93-1.27 1.58-1.79 2.46s-.51 1.88-.73 2.84c-.5 2.21-1.71 4.61-4.26 4.68-.67.02-1.18-.22-1.81-.43-.81-.27-1.59-.32-2.44-.31-1.35.03-2.3.04-2.57-1.55-.13-.77-.42-1.16-1.05-1.61-.19-.14-.51-.24-.64-.43-.31-.46-.28-1.3-.2-1.8.09-.55.25-1.08.41-1.61.36-1.13.82-2.23 1.07-3.39.22-1.02.2-2 .15-3.04-.02-.58-.06-1.2.13-1.76.24-.75.83-1.26 1.28-1.87 1.41-1.87.47-4.19 1.27-6.26.38-.99.96-1.88 1.36-2.86s.56-2.07.64-3.15c.08-1.2.05-2.43.35-3.61.32-1.26 1.08-2.17 1.85-3.18.7-.92 1.15-1.81 1.49-2.92.42-1.39.99-2.36 2.12-3.27.86-.7 1.79-1.3 2.54-2.11.69-.75 1.18-1.69 1.88-2.42s1.43-.55 2.29-.51c.92.05 1.86-.09 2.73-.41.95-.36 1.75-.55 2.73-.12.86.38 1.56.73 2.52.83.53.05.52-.77 0-.82-1.78-.18-2.99-1.55-4.88-.93-.96.31-1.77.66-2.81.64-.68-.01-1.33-.17-1.99.02-1.53.44-2.25 2.35-3.3 3.39-1.44 1.44-3.43 2.29-4.23 4.28-.45 1.11-.63 2.26-1.31 3.28s-1.54 1.84-2.04 2.96c-1 2.23-.42 4.75-1.09 7.05-.36 1.24-1.11 2.3-1.59 3.49-.43 1.07-.48 2.08-.48 3.22 0 .79.02 1.6-.33 2.34-.27.57-.76 1-1.13 1.49-.59.78-.82 1.6-.85 2.58-.03 1.41.13 2.66-.25 4.06-.33 1.21-.85 2.37-1.16 3.58-.22.84-.48 1.9-.18 2.75.13.37.33.6.63.84.77.62.96.46 1.26 1.64.18.71.24 1.26.93 1.66s1.53.36 2.28.35c.95-.02 1.79.06 2.68.39.71.26 1.31.38 2.07.31 1.8-.17 3.04-1.29 3.84-2.87.38-.75.66-1.57.85-2.39.14-.6.16-1.23.32-1.82.22-.84.75-1.35 1.28-2 1.19-1.47 1.68-3.36 1.91-5.21.09-.75.26-1.54-.16-2.18-.49-.76-1.06-1.44-1.51-2.23-1.42-2.51-2.17-5.37-2.09-8.26.07-2.32.47-5.06 1.52-7.15s3.24-3.59 5.18-4.8c2.1-1.31 3.96-2.79 5.64-4.62l-.69-.18c.4 2.34 1.45 4.51 3.07 6.25s4.56 2.68 5.31 5.01c.41 1.27.2 2.81.1 4.12-.11 1.39-.32 2.78-.71 4.13-.79 2.68-2.26 5.03-4.3 6.93-1.19 1.12-2.12 2.22-2.3 3.91-.19 1.79.43 3.72.89 5.42.69 2.57 2.02 5.02 3 7.48.74 1.86 1.52 3.26 3.65 3.66 1.32.25 2.86.11 4.11-.4.92-.38 1.78-.77 2.76-1 1.07-.26 2.03-.45 2.97-1.06 1.28-.83 2.31-1.98 1.97-3.58-.43-2.04-1.52-3.67-1.51-5.84.02-2.79 1.09-5.52.6-8.32-.26-1.52-1.03-2.88-1.16-4.44-.14-1.7.27-3.37.5-5.05.3-2.13-.09-4.13-.73-6.15-.35-1.1-.87-2.14-1.17-3.26-.33-1.23-.33-2.43-.44-3.69-.2-2.29-1.26-4.45-2.74-6.18-1.63-1.92-3.62-3.73-6.17-4.19-.97-.18-2-.21-2.98-.07-1.07.15-1.99.68-3.08.65-.53-.01-.53.81 0 .82Z" fill="#006837"/><path d="M68.47 36.35c-.31.06-.65-.35-.84-.54-.32-.31-.65-.65-1.05-.85-.89-.44-1.69.13-2.18.87a4.277 4.277 0 0 0-.67 2.06c0 .09.12.7.09.74-.06.08-.52.1-.65.15-.22.09-.41.22-.54.41-.34.48-.23 1.09-.13 1.63.23 1.24.57 2.61 1.56 3.48.82.72 2.07 1.09 3.09.56.34-.18.49-.37.9-.14.27.16.51.38.75.57.5.39.99.78 1.58 1.02 1.19.5 2.3.09 3.19-.78.95-.92 1.92-2.24 1.71-3.64-.19-1.25-1.37-2.28-2.66-1.95l.62.81c.88-1.2 1.66-3.11.03-4.06-.77-.45-1.78-.87-2.66-1.02-.4-.07-.82-.07-1.21.05-.21.07-.42.17-.59.31-.1.07-.22.26-.33.3-.65.25-.37 1.31.29 1.06.49-.19.75-.66 1.32-.67.74-.01 1.54.41 2.2.71.49.22.91.41.86 1.02s-.48 1.24-.85 1.74c-.3.41.19.92.62.81.46-.12.86.17 1.09.55.29.48.23 1.04.02 1.54-.35.85-1.2 1.92-2.07 2.26-1.98.77-3.11-2.85-5.07-1.63-.88.55-1.9.12-2.47-.7-.28-.41-.46-.89-.59-1.37s-.33-1.07-.32-1.58c0-.46.45-.33.8-.48.37-.16.61-.48.62-.9 0-.36-.13-.67-.07-1.04.06-.42.21-.83.43-1.19.13-.22.38-.63.69-.62s.61.42.8.6c.57.55 1.16 1.08 2 .91.69-.14.4-1.2-.29-1.06Zm9.04 8.52c-.27 1.2-.28 2.26.55 3.23.51.6 1.21 1.05 1.93 1.37l-.11-.86c-2.82 2.23-.66 6.1 2.13 7.07 2.98 1.03 6.41-.98 6.29-4.3l-.83.47c2.22 1.45 4.94 2.18 7.58 1.69 2.45-.45 4.8-2.48 4.48-5.15-.16-1.34-.89-2.67-2.12-3.31-.29-.15-.6-.25-.91-.34-.19-.06-.43-.06-.56-.24-.2-.26-.08-.07-.03-.35.09-.52.35-.88.21-1.45-.24-.95-1.18-1.59-1.94-2.11-1.21-.81-2.53-1.73-3.91-2.2-.7-.24-1.37-.19-2.08.01-1.7.48-3.32 1.41-4.78 2.38h.55c-1.22-.81-3.18-1.2-4.36-.06-.5.49-.8 1.21-1.12 1.82-.38.74-.76 1.49-.96 2.3-.17.69.89.98 1.06.29.27-1.09.85-2.15 1.43-3.11.76-1.27 2.3-1.04 3.4-.3.15.1.4.1.55 0 1.38-.92 2.9-1.81 4.51-2.27.79-.22 1.29-.13 2.04.23 1.36.66 3.04 1.54 4.1 2.62.5.51.47.78.25 1.46-.14.43-.27.8-.04 1.23.26.47.75.59 1.23.75.94.3 1.59.66 2.04 1.58.85 1.71.14 3.38-1.38 4.35-2.65 1.71-6.22.82-8.69-.8-.34-.23-.84.07-.83.47.09 2.47-2.33 3.96-4.6 3.33s-4.21-3.54-1.95-5.33c.26-.2.19-.73-.11-.86-1.5-.66-2.36-1.64-1.98-3.36.15-.69-.9-.98-1.06-.29Z"/><path d="M120.99 37.15c-.9.01-2.09.25-2.94-.09-.46-.18-.63-.49-1.17-.44-.91.08-1.48 1.02-1.37 1.88.1.74.71 1.32 1.45 1.42.51.06.92-.22 1.4-.26.87-.08 1.82.08 2.69.12l-.39-.39c-.01 1.61-.03 3.23-.04 4.84l.39-.39c-1.56 0-3.11 0-4.67-.01-.2 0-.4.18-.39.39.04.7-.07 1.55.11 2.23.03.11.11.22.14.32.16.22.24.48.23.78 0 .69-.3.82-.9.39-1.02-.29-.73-.38-.56-1.21.02-.09.08-.19.1-.28.15-.65 0-1.54 0-2.21 0-.21-.18-.39-.39-.39h-5.07l.39.39V32.07l-.39.39h4.05c.21 0 .39-.18.39-.39 0-.77.15-1.73 0-2.49-.03-.13-.07-.16-.12-.28-.4-.31-.49-.66-.26-1.07 0-.62.38-.83 1.13-.64.69.32.43 1.21.34 1.71-.02.09-.08.18-.1.28-.17.74 0 1.74 0 2.49 0 .21.18.39.39.39H121l-.39-.39c0 1.83 0 3.66-.03 5.49 0 .51.78.51.79 0 .03-1.83.04-3.66.03-5.49 0-.21-.18-.39-.39-.39h-5.57l.39.39c0-.77-.12-1.7.04-2.45.09-.43.29-.72.25-1.18-.08-.93-.83-1.81-1.82-1.73-.79.06-1.42.71-1.53 1.49-.08.53.15.9.35 1.36.32.75.16 1.71.16 2.52l.39-.39h-4.05c-.21 0-.39.18-.39.39v12.17c0 .21.18.39.39.39h5.07l-.39-.39c0 .64.14 1.48 0 2.1-.09.4-.32.71-.31 1.16.02.86.66 1.77 1.56 1.83.83.06 1.48-.66 1.63-1.43.09-.47-.02-.81-.16-1.25-.26-.79-.24-1.59-.28-2.42l-.39.39c1.56 0 3.11 0 4.67.01.21 0 .39-.18.39-.39.01-1.61.03-3.23.04-4.84 0-.22-.18-.38-.39-.39-.9-.04-1.8-.1-2.69-.12-.58-.01-1.14.44-1.66.12-.69-.43-.41-1.99.63-1.5.33.15.29.4.59.48.88.23 2.16-.03 3.07-.04.5 0 .51-.79 0-.79Zm14 7.59c0-1.13-.01-2.27-.02-3.4l-.19.34c.66-.51 1.05-1.36.62-2.17-.36-.67-1.2-.99-1.91-.74-.82.3-1.29 1.21-1.11 2.05.04.17.14.33.17.5.08.33.03.69.02 1.05-.04.81-.07 1.62-.11 2.43l.39-.39c-1.53-.03-3.05-.06-4.58-.08l.39.39c.02-1.76.03-3.51.05-5.27 0-.22-.18-.38-.39-.39-.69-.03-1.5-.18-2.18-.07-.55.08-.91.81-1.27-.06-.06-.14-.06-.31-.06-.46 0-.26.02-.59.22-.79.35-.35.7.17 1.05.24.7.14 1.52.05 2.24.05.21 0 .39-.18.39-.39.01-1.9.03-3.81.04-5.71l-.39.39c1.61 0 3.23.02 4.84.03.22 0 .38-.18.39-.39l.05-1.41c.02-.42.14-1 .05-1.41-.15-.71-.63-1.7.54-1.7s.68 1.01.51 1.7c-.22.86-.11 1.94-.17 2.83-.01.21.19.39.39.39l4.87.03-.39-.39c-.02 4.3-.01 8.59-.06 12.88l.39-.39c-1.73 0-3.46-.03-5.19-.07-.51-.01-.51.77 0 .79 1.73.04 3.46.07 5.19.07.21 0 .39-.18.39-.39.05-4.3.04-8.59.06-12.88 0-.21-.18-.39-.39-.39l-4.87-.03.39.39c.05-.81.01-1.67.15-2.47.07-.41.29-.78.3-1.21.02-.88-.63-1.83-1.58-1.82-.88 0-1.55.84-1.59 1.68-.02.46.21.82.27 1.24.11.8-.07 1.77-.1 2.58l.39-.39c-1.61 0-3.23-.02-4.84-.03-.21 0-.39.18-.39.39-.01 1.9-.03 3.81-.04 5.71l.39-.39c-.68 0-1.47.11-2.09-.15-.41-.17-.74-.37-1.2-.24-.75.21-1.02 1-1.01 1.71s.31 1.41 1.02 1.61c.46.13.79-.08 1.2-.23.61-.23 1.42-.06 2.08-.04l-.39-.39c-.02 1.76-.03 3.51-.05 5.27 0 .22.18.39.39.39 1.53.03 3.05.06 4.58.08.22 0 .38-.18.39-.39.05-1.04.11-2.08.14-3.13.01-.35-.03-.43-.14-.73-.21-.58.03-1.67.92-1.47.24.06.53.31.6.55.12.42-.19.65-.38.97-.14.23-.17.21-.19.51-.09 1.06.01 2.17.02 3.23 0 .51.79.51.79 0Zm.75-19.26c0-.85-.01-1.7-.02-2.55 0-.38-.01-.55.18-.85.13-.2.26-.39.32-.62.27-.94-.35-1.96-1.35-2.05-1.08-.1-1.87.98-1.77 1.99.02.23.12.42.19.64.08.26.05.46.04.76l-.12 2.75.39-.39c-1.53-.03-3.05-.06-4.58-.08l.39.39c.02-1.76.03-3.51.05-5.27 0-.22-.18-.38-.39-.39l-1.34-.06c-.28-.01-.63-.09-.89 0-.39.14-.85.66-1.17.06-.09-.17-.11-.39-.11-.59 0-.18 0-.36.07-.53.14-.33.37-.52.8-.33.13.06.22.22.35.28.62.25 1.62.07 2.29.07.21 0 .39-.18.39-.39.01-1.9.03-3.81.04-5.71l-.39.39c3.83.02 7.66.05 11.48.07l-.39-.39c-.02 4.3-.01 8.59-.06 12.88l.39-.39c-1.73 0-3.46-.03-5.19-.07-.51-.01-.51.77 0 .79 1.73.05 3.46.07 5.19.07.21 0 .39-.18.39-.39.05-4.3.04-8.59.06-12.88 0-.21-.18-.39-.39-.39-3.83-.02-7.66-.05-11.48-.07-.21 0-.39.18-.39.39-.01 1.9-.03 3.81-.04 5.71l.39-.39c-.65 0-1.46.11-2.06-.12-.44-.18-.76-.41-1.26-.26-.72.22-.99.98-.98 1.67s.28 1.41.99 1.63c.49.15.83-.06 1.26-.25.56-.24 1.44-.04 2.05-.01l-.39-.39c-.02 1.76-.03 3.51-.05 5.27 0 .22.18.39.39.39 1.53.03 3.05.06 4.58.08.22 0 .38-.18.39-.39.05-1.06.11-2.12.14-3.18.01-.38-.07-.43-.18-.76-.2-.59.13-1.53.91-1.4.56.09.78.78.53 1.24s-.45.35-.46.93c-.02 1.04.01 2.08.02 3.12 0 .51.79.51.79 0ZM121.8 12.39h-12.82c-.21 0-.39.18-.39.39l-.06 11.74c0 .21.18.39.39.39 1.59 0 3.18-.02 4.76-.03.21 0 .39-.18.39-.39V22.8c0-.46.1-1.01 0-1.45-.12-.55-.55-.99-.15-1.58.35-.52.94-.32 1.18.19.26.55-.12.85-.24 1.34-.1.44 0 1.04 0 1.5v1.69c0 .21.18.39.39.39 2.22 0 4.45-.02 6.67-.02.21 0 .4-.18.39-.39-.04-1.52-.09-3.03-.13-4.55a.39.39 0 0 0-.39-.39h-1.43c-.4 0-.91-.1-1.29.01-.43.12-.66.55-1.16.25-.42-.26-.54-.88-.34-1.31.09-.2.27-.39.47-.49.54-.27.76.09 1.2.27.3.12.71.05 1.02.05h1.53c.21 0 .39-.18.39-.39v-5.14c0-.51-.79-.51-.79 0v5.14l.39-.39h-1.18c-.31 0-.7.07-1 0-.2-.05-.37-.22-.57-.3-.27-.1-.55-.13-.83-.1-.78.1-1.41.77-1.51 1.55-.13.92.48 1.91 1.45 2 .51.05.81-.25 1.26-.36.34-.09.83 0 1.19 0h1.19l-.39-.39.13 4.55.39-.39c-2.22 0-4.45.02-6.67.02l.39.39v-2.42c0-.38.05-.61.19-.95.11-.27.16-.55.15-.84-.04-.95-.97-1.89-1.96-1.57-.82.26-1.18 1.28-1.01 2.06.05.22.16.4.23.62.07.23.05.42.05.69v2.42l.39-.39c-1.59 0-3.18.02-4.76.03l.39.39.06-11.74-.39.39h12.82c.51 0 .51-.79 0-.79Z" fill="#006837"/><path d="M101.43 8.66c2.3-3.16 6.29-4.73 10.09-3.66.17.05.39 0 .51-.13 1.9-2.24 4.59-3.64 7.53-3.8 1.39-.08 2.79.1 4.1.57.69.25 1.36.58 1.98.97.55.35 1.03.88 1.64 1.12.56.22 1.06.1 1.59-.14.83-.38 1.59-.77 2.5-.93 1.75-.32 3.56.01 5.23.59 2.87 1 7.27 3.19 7.43 6.68 0 .22.15.45.38.5 3.39.75 6.57 2.99 7.64 6.42.94 2.99.09 6.87-2.77 8.51-.26.15-.31.46-.19.72 1.03 2.06 1.84 4.36 1.58 6.7-.12 1.1-.48 2.21-1.11 3.13-.53.77-1.26 1.14-1.96 1.72-1.51 1.24-.53 3.09-.7 4.76-.24 2.43-2.12 4.84-4.78 4.44-.31-.05-.68.13-.66.5.07 1.15-.49 2.2-1.53 2.74-1.15.6-2.38.34-3.58.08-1.46-.32-2.42-.03-3.55.96-.61.54-1.15 1.22-1.89 1.6-1.05.53-2.17.18-3.22-.13-1.88-.56-3.42-.77-5.34-.16s-4.07 1.91-6.17 1.34c-.89-.24-1.53-.97-2.43-1.17-.75-.17-1.5.05-2.25.13-1.98.22-4.12-.22-5.54-1.7s-1.94-3.89-.97-5.76c.1-.19.1-.48-.08-.63-2.35-1.94-4.86-4.01-6.04-6.91-1.03-2.54-.94-5.87 1.23-7.79.24-.22.18-.68-.11-.82-1.58-.8-3.48-1.82-3.95-3.68-.58-2.33 1.4-4.3 2.94-5.73.26-.25.16-.64-.11-.82-3.68-2.56-2.72-9.16 2.07-9.68.66-.07.67-1.12 0-1.05-5.83.63-7.17 8.44-2.6 11.63l-.11-.82c-1.76 1.64-3.74 3.8-3.28 6.42.41 2.33 2.55 3.65 4.5 4.64l-.11-.82c-2.24 1.98-2.58 5.32-1.76 8.07 1.03 3.45 3.89 5.9 6.57 8.1l-.08-.63c-1.35 2.62-.46 5.94 1.89 7.69 1.19.88 2.65 1.32 4.12 1.4.8.04 1.57-.07 2.36-.18 1.28-.17 1.82.5 2.89.95 3.79 1.56 7.26-2.36 11.12-1.28 1.49.41 3.03 1.09 4.57.5 1.39-.53 2.09-2.01 3.41-2.6.98-.43 2.15.16 3.16.26.84.08 1.69.01 2.47-.31 1.54-.64 2.52-2.15 2.42-3.82l-.66.5c2.08.31 4.02-.64 5.14-2.42.57-.91.88-1.96.97-3.03.05-.58.02-1.14-.05-1.72s-.15-1.01.02-1.58c.19-.63.39-.65.9-1.01 4.18-2.93 3.12-8.6 1.17-12.53l-.19.72c3.17-1.81 4.24-5.98 3.34-9.37-1.05-3.93-4.63-6.62-8.47-7.47l.38.5c-.15-3.53-3.64-5.68-6.53-7.01-1.57-.72-3.23-1.26-4.96-1.4-.83-.07-1.67-.03-2.48.12s-1.55.62-2.37.83c-1.42.38-2.07-.54-3.13-1.12-.62-.34-1.29-.62-1.96-.84-1.41-.45-2.92-.61-4.39-.48-3.09.27-5.94 1.72-7.94 4.09l.51-.13c-4.28-1.22-8.7.6-11.27 4.14-.4.55.51 1.07.9.53Z"/></svg>