<svg xmlns="http://www.w3.org/2000/svg" viewBox="0 0 48.17 37.42"><path d="M11.12 11.85c.48 1.05.12 1.24.72 4.88.66 4.01 1.36 5.5.79 5.86-.65.42-1.87-1.35-5.29-3.13-2.54-1.31-3.01-.95-4.18-1.84C.22 15.4-1.02 9.82.97 7.99c2.18-2.01 8.49.25 10.15 3.87Z" fill="#ff5600"/><path d="M9.27 17.49c1.7 2.1 2.54 3.6 2.6 3.56.06-.04-.77-1.83-2.27-3.69-1.52-1.89-3.12-3.11-3.17-3.06-.05.05 1.2 1.14 2.85 3.18Z" fill="#92a377"/><path d="M15.5 19.12c.34 5.39 2.84 15.9 10.33 17.86 7.87 2.05 15.47-6.86 18.45-12.01 4.89-8.45 4.23-18.63 2.38-19.14-2.01-.56-5.8 10.36-8.45 9.68-2.62-.67-.96-11.88-3.58-12.54-2.72-.69-6.9 10.8-9.45 10.14-2.53-.66-.35-12.44-2.36-12.95-1.87-.47-7.97 8.66-7.32 18.97Z" fill="#ebe1ce" stroke="#ff7556" stroke-miterlimit="10" stroke-width=".28"/><ellipse cx="23.15" cy="30.63" rx="1.21" ry="3.75" transform="rotate(-10.92 23.151 30.613)" fill="#ff5600"/><ellipse cx="31.46" cy="32.77" rx="3.75" ry="1.21" transform="rotate(-54.38 31.448 32.774)" fill="#ff5600"/><ellipse cx="27.72" cy="30.39" rx="4.97" ry="1.21" transform="rotate(-77.65 27.724 30.387)" fill="#ff5600"/></svg>