<svg xmlns="http://www.w3.org/2000/svg" viewBox="0 0 81.07 111.58"><path d="M40.45 18.94c-.76 2.82-4.15 5.13-6.91 4.47-2.97-.71-4.52-4.85-3.47-9.25 1.07-4.47 5.99-7.4 7.28-6.68.75.42-.22 1.78.58 4.35.64 2.04.85 2.1 1.51 3.06" fill="none" stroke="#000" stroke-miterlimit="10" stroke-width=".88"/><path d="M39.24 15.01c.22.37.07.74-.13 1.09-.26.45-.6.86-.98 1.22-.51.48-1.1.86-1.75 1.12-.15.06-.23.24-.1.37 1.11 1.05 2.88.73 4.22.35.27-.08.16-.5-.12-.43-.62.18-1.27.3-1.91.33-.68.03-1.36-.08-1.87-.56l-.1.37a6.03 6.03 0 0 0 2.08-1.37c.41-.42.81-.91 1.05-1.45.19-.42.23-.85-.01-1.27-.14-.25-.52-.02-.38.22ZM43.6 40.36c1-.4 1.89-1.06 2.74-1.71.09-.07.51-.37.53-.33.09.16-.4.67-.5.78-.18.22-.44.48-.42.8.03.57.64.51 1.04.4.97-.28 2.03-.33 3.02-.41.19-.02.55.04.72-.02.01 0 .07.02.07.01l-.17-.39-.07.07c-.11.04-.22.17-.33.23-.29.16-.62.22-.94.31l-1.34.36c-.48.13-.39.88.12.87.67-.01 1.34-.07 2-.16.38-.06.75-.11 1.13-.01.11.03.33.17.42.16.12.08.13 0 .04-.26-.06.04-.12.07-.18.09-.09.04-.19.07-.28.1-.28.09-.56.13-.85.16-.66.05-1.32.11-1.98.22-.52.09-.34.82.12.87.64.06 1.26.16 1.88.31.24.06.49.18.73.21.04.02.08.03.11.06-.11-.09-.12-.22-.05-.41-.04-.02-.38.1-.46.1-.41 0-.84-.13-1.23-.2-.27-.05-.66-.19-.94-.15-.39.05-.65.59-.22.82.15.08.34.09.5.14.29.08.53.21.75.42.03.04.05.08.07.12.05.13.11.05.18-.23-.02-.01-.08.01-.1 0-.11-.06-.34-.05-.47-.08-.33-.08-.65-.19-.97-.3-1.6-.52-3.26-.84-4.93-1.06-.56-.08-.56.81 0 .88 1.16.16 2.31.37 3.45.66.76.2 1.5.5 2.27.68.35.08.8.19 1.14 0 .4-.22.37-.69.17-1.04s-.53-.59-.89-.75c-.16-.07-.33-.13-.5-.18-.07-.02-.39-.13-.21-.03l-.22.82.11.02c.12.02.24.04.36.07.27.05.54.1.82.15.63.12 1.69.3 2.1-.37.74-1.22-2.87-1.49-3.43-1.54l.12.87c.82-.14 1.68-.11 2.49-.29.54-.12 1.66-.45 1.36-1.21-.22-.57-1.17-.74-1.7-.75-.4 0-.8.09-1.19.13-.5.06-1 .09-1.51.1l.12.87c.75-.2 1.58-.33 2.29-.65.41-.19 1.07-.59 1.03-1.11s-.65-.58-1.07-.57c-.74.02-1.47.13-2.21.22-.45.05-.9.09-1.33.21-.07.02-.21.04-.27.08-.15.09-.22-.12.04.25.24.33.08.26.22.13.16-.15.3-.36.43-.54.26-.35.53-.79.4-1.24s-.61-.72-1.06-.62c-.49.11-.89.52-1.28.82-.32.24-.65.47-1 .66-.33.18-.68.42-1.03.56-.52.21-.29 1.06.23.85ZM30.2 25.24c.89 1.22 1.99 2.3 3.14 3.27.81.69 1.44 1.1 2.45.5 1.94-1.14 1.9-3.9 4.52-4.07 3.86-.25 7.77.61 11.59 1.05 2.07.24 4.14.43 6.21.64 1.25.13 2.61.11 3.41 1.17.59.77.85 2.14 1.06 3.07l.43-.56c-6.05.6-12.1 1.21-18.09 2.28-.56.1-.32.95.23.85 5.91-1.06 11.88-1.66 17.85-2.25.29-.03.5-.26.43-.56-.28-1.22-.76-3.48-1.83-4.28-.55-.41-1.4-.38-2.05-.45l-2.89-.3c-4.07-.42-8.13-1.05-12.2-1.41-2.52-.22-5.66-.78-7.27 1.62-.45.67-1.04 2.33-1.95 2.49s-1.78-.85-2.39-1.43c-.68-.65-1.34-1.33-1.89-2.09-.33-.45-1.1-.01-.76.45Z"/><path d="M30.36 24.63c-2.05.28-4.12.92-5.68 2.34-1.36 1.23-1.99 3.12-2.69 4.77-.84 1.97-1.57 4.01-2.09 6.09-.38 1.51-1.49 4.35.53 5.18.53.21 1.1.19 1.65.28s1.13.26 1.68.42c1.54.44 3.06.9 4.63 1.19.24.05.46-.07.54-.31.53-1.64.87-3.4 1.28-5.08a.44.44 0 0 0-.31-.54c-.81-.22-1.62-.45-2.43-.7s-1.21-.6-.93-1.4c.46-1.35 1.13-2.64 1.74-3.92.24-.51-.52-.96-.76-.45-.7 1.48-1.76 3.17-2.01 4.82-.1.68.1 1.16.73 1.46 1.04.5 2.32.73 3.43 1.03l-.31-.54c-.41 1.68-.76 3.43-1.28 5.08l.54-.31c-1.53-.29-3.01-.73-4.51-1.16-.6-.17-1.19-.35-1.81-.45-.46-.08-.98-.04-1.42-.2-1.46-.52-.47-2.86-.21-3.91.21-.87.47-1.72.75-2.57a44.8 44.8 0 0 1 1.77-4.59c.43-.97.82-2.07 1.48-2.92 1.4-1.78 3.77-2.47 5.91-2.77.56-.08.32-.93-.23-.85Z"/><path d="M43.74 43.04c0 .91.18 1.75.37 2.64.21 1.01.47 2.38-.81 2.65-1.15.25-2.47.1-3.64.13-1.24.02-2.47.05-3.71.07-2.47.05-4.95.09-7.42.14-.24 0-.65.1-.88.02-.52-.18-.31-.48-.21-.87s.23-.74.35-1.1c.25-.74.39-1.47.47-2.24.06-.56-.82-.56-.88 0-.12 1.1-.5 2.06-.79 3.11-.2.7-.36 1.64.52 1.93.57.19 1.37.04 1.95.03.77-.01 1.53-.03 2.3-.04l4.77-.09c1.59-.03 3.06-.06 4.6-.09 1.1-.02 2.55.17 3.56-.4 1.88-1.07.34-4.25.35-5.88 0-.57-.88-.57-.88 0ZM43.08 31.8c.93 1.2 1.52 2.65 1.64 4.17.02.31.06.66 0 .97-.05.27-.18.54-.29.79-.24.52-.56 1.06-.67 1.63s.74.79.85.23c.11-.61.47-1.16.72-1.72.29-.68.34-1.3.27-2.04a8.66 8.66 0 0 0-1.75-4.49c-.34-.44-1.11 0-.76.45ZM61.41 26.6l10.62-5.76c.5-.27.05-1.03-.45-.76l-10.62 5.76c-.5.27-.05 1.03.45.76ZM63.32 30.36c3.35-2.46 6.7-4.88 10.34-6.9.5-.28.05-1.04-.45-.76-3.64 2.02-6.98 4.45-10.34 6.9-.45.33-.01 1.1.45.76Z"/><path d="M29.94 40.64c4.51-.18 9.03-.08 13.54-.26.57-.02.57-.9 0-.88-4.51.18-9.03.08-13.54.26-.57.02-.57.9 0 .88ZM29.06 44.17c4.89-.33 9.76-1.18 14.67-1.01.57.02.57-.86 0-.88-4.91-.17-9.78.68-14.67 1.01-.56.04-.57.92 0 .88ZM44.14 48.99c2.01 5.12 6.01 8.95 9.25 13.28 1.6 2.14 3.05 4.44 3.78 7.03.97 3.46.35 7.13.03 10.64-.34 3.81-.69 7.63-1.03 11.44-.16 1.82-.28 3.66-.49 5.47-.19 1.59-1.55 1.68-2.83 1.72-.95.03-2.12.05-3.03-.29-1.63-.63-.84-3.92-.78-5.33.09-2.06.19-4.12.28-6.18.18-3.87.38-7.75.53-11.62.06-1.49 0-2.9-.94-4.12-1.16-1.49-2.63-2.79-3.92-4.16-2.71-2.89-5.37-5.81-8.14-8.65-.4-.41-1.02.22-.62.62 2.65 2.73 5.22 5.54 7.82 8.31 1.26 1.35 2.62 2.64 3.84 4.03 1.54 1.75 1.08 4.04.98 6.19-.19 4.12-.38 8.24-.56 12.36-.09 2.06-.19 4.12-.28 6.18-.05 1.13-.27 2.42.93 3.01 1.36.66 3.34.62 4.8.47 1.11-.12 2.26-.38 2.64-1.56.26-.77.23-1.67.3-2.48.1-1.08.19-2.16.29-3.23.19-2.07.37-4.15.56-6.22.37-4.08.97-8.22 1.03-12.33.04-2.97-.72-5.75-2.16-8.33-3.26-5.88-8.93-10.16-11.43-16.5-.21-.52-1.06-.29-.85.23Z"/><path d="M26.79 49.44c-2.13 3.77-4.26 7.54-6.4 11.29-.57.99-1.13 1.98-1.7 2.97-.21.37-.63 1.51-1.01 1.72-.64.35-.76-.66-.84-1.07a56.1 56.1 0 0 1-.34-1.87c-.23-1.37-.42-2.74-.56-4.12-.25-2.43-.21-4.84-.35-7.27-.1-1.76-1.41-1.68-2.78-1.22-.97.33-1.92.7-2.86 1.11-.98.43-2.27.87-3.07 1.61-.48.44-.58.95-.56 1.58.05 1.34.28 2.71.44 4.04.28 2.36.61 4.72.97 7.08s.75 4.87 1.25 7.28c.39 1.85 1.01 3.75 2.59 4.92 3.34 2.5 6.74-1.28 9.17-3.3 2.07-1.73 4.16-3.36 6-5.34 3.46-3.71 6.95-7.39 10.42-11.09.39-.41-.23-1.04-.62-.62l-8.85 9.42c-1.5 1.6-2.93 3.15-4.62 4.55-1.25 1.04-2.5 2.09-3.75 3.13-1.59 1.33-3.76 3.76-6.08 3.13s-3.07-3.35-3.48-5.44c-.44-2.28-.82-4.57-1.17-6.86-.37-2.44-.71-4.88-.99-7.33-.13-1.08-.41-2.29-.37-3.37.06-1.49 1.57-1.89 2.76-2.44 1.07-.48 2.16-.92 3.28-1.28.6-.19 1.17-.45 1.44.44.15.5 0 1.31.02 1.82.05 2.3.21 4.59.5 6.87.12.98.27 1.96.43 2.94s.24 2.27.67 3.21c.48 1.06 1.41.94 2.03.08.94-1.29 1.65-2.8 2.45-4.19 2.27-3.97 4.52-7.95 6.77-11.93.28-.49-.48-.94-.76-.45Z"/><path d="m14.46 49.63-.08-4.42c0-.47.12-1.2-.16-1.62-.27-.39-.91-.52-1.32-.68a69.729 69.729 0 0 0-8-2.59c-.65-.17-1.3-.33-1.95-.48-.52-.12-1.1-.3-1.63-.15-.94.28-1.18 1.64-1.29 2.48-.14 1.08.23 1.94 1.11 2.57 1 .71 2.15 1.22 3.32 1.6 1.09.36 2.36.64 3.21 1.48.96.95.68 2.44.49 3.64-.09.56.76.79.85.23.26-1.69.49-3.52-.97-4.72s-3.58-1.39-5.26-2.27c-.48-.25-1.01-.52-1.41-.89-.5-.46-.56-1.09-.44-1.73.09-.47.23-1.45.8-1.56.52-.1 1.34.26 1.84.38 2.4.58 4.77 1.29 7.09 2.12.63.22 1.26.46 1.88.7.25.1.79.2.94.45.12.2.01.79.02 1.04l.08 4.42c0 .57.89.57.88 0ZM49.52 98.85c.08 1.63-.48 3.15-.82 4.72-.25 1.16-.66 2.87.61 3.57 1.54.85 3 1.8 4.46 2.78.63.42 1.26.88 1.9 1.28.6.38 1.53.35 2.23.36 1.07.03 2.55.04 3.52-.5s.81-1.7.41-2.56c-.48-1.01-1.26-1.78-2.22-2.35-1.13-.67-2.22-1.22-3.12-2.19-.56-.6-1.03-1.28-1.44-2-.45-.8-.27-1.86-.27-2.75 0-.57-.88-.57-.88 0 0 .7-.02 1.41 0 2.12.02.67.48 1.28.84 1.83.59.9 1.31 1.72 2.16 2.38 1.52 1.18 3.83 1.76 4.33 3.88.3 1.25-1.53 1.21-2.38 1.26-.6.03-1.21.02-1.81-.03-.92-.08-1.55-.62-2.29-1.12-1.49-1-2.98-2.11-4.58-2.94-.4-.21-.78-.32-.84-.85-.09-.77.14-1.62.32-2.36.36-1.5.83-2.97.76-4.53-.03-.56-.91-.57-.88 0ZM31.41 22.74v.21c0 .1.01-.07 0 0-.02.1-.05.2-.08.29 0 .01-.04.1-.01.04.02-.05 0 .01-.01.02-.02.05-.05.1-.08.15-.05.1-.11.19-.17.29s-.12.18-.19.26c-.07.09.03-.04 0 .01-.02.02-.04.05-.06.07-.03.04-.07.08-.1.12-.14.17-.28.33-.42.5-.15.18-.19.45 0 .62.16.15.46.19.62 0 .32-.38.66-.75.93-1.17s.5-.91.46-1.42c-.02-.23-.19-.45-.44-.44-.22 0-.46.19-.44.44ZM37.24 22.62c-.19.47-.15 1.06-.02 1.54.16.57.51 1.08 1.09 1.28.22.08.49-.09.54-.31.06-.25-.08-.46-.31-.54-.08-.03-.01-.02.01 0-.02-.02-.05-.03-.08-.04s-.04-.03-.06-.04c-.08-.05.04.04.01.01-.04-.04-.08-.07-.11-.11-.02-.02-.03-.04-.05-.06.04.03.05.07 0 0a.913.913 0 0 1-.08-.13c-.02-.04-.04-.1-.07-.14.03.07.03.08.01.03v-.02s-.03-.05-.04-.07c-.02-.05-.03-.11-.05-.17-.01-.05-.02-.1-.03-.16 0-.03 0-.05-.01-.08v.05-.05c-.01-.1-.01-.21-.01-.31v-.15.02c0-.02 0-.05.01-.07.02-.09.04-.18.08-.27.09-.21-.09-.49-.31-.54-.26-.06-.45.08-.54.31ZM71.98 20.98c.88-.82 1.41-1.81 2.01-2.83.07-.12.14-.25.24-.34.07-.07.04-.04.04.05.01.37-.14.73-.23 1.08-.07.32-.12.71.21.9.44.26.83-.2 1.15-.45.34-.27.74-.48 1.11-.7.57-.34 1.13-.69 1.72-.99.08-.04.28-.09.34-.16.01-.01.06-.01.07-.02a.29.29 0 0 1-.16-.18c-.09-.2-.15-.25-.17-.13-.06.04-.12.26-.16.33-.08.13-.18.25-.29.36-.53.51-1.14.94-1.71 1.4-.43.35.12.93.56.72.62-.3 1.23-.63 1.81-1.01.3-.19.59-.38.93-.47.16-.04.36-.01.52-.06h.09c.13 0 .1-.09-.1-.3-.04 0-.28.31-.32.35-.21.19-.43.35-.67.49-.61.36-1.23.68-1.83 1.08-.41.27-.16 1.02.35.84.63-.22 1.27-.41 1.93-.54.27-.06.6-.05.86-.13h.09c-.06-.36-.14-.46-.26-.31-.13.06-.25.2-.4.26-.39.16-.84.23-1.25.33-.29.07-.68.11-.95.27-.38.24-.23.85.23.86.17 0 .34-.07.5-.09.13-.02.27-.03.4-.03.17 0 .33.09.48.1l.1.06.07-.3s-.09.05-.12.06c-.15.01-.31.09-.46.12-.31.06-.62.09-.93.13-1.51.18-3 .49-4.46.9-.57.16-.33 1.05.24.89 1.04-.29 2.1-.54 3.16-.72.81-.13 1.65-.16 2.44-.36.31-.08.68-.2.86-.49.23-.37 0-.76-.31-.99-.34-.25-.77-.33-1.19-.32-.19 0-.39.03-.58.06-.07.01-.42.05-.21.05l.23.86c-.14.09.04 0 .12-.02.12-.03.25-.07.37-.1l.84-.21c.64-.16 1.53-.4 1.75-1.13.48-1.59-3.3-.28-3.8-.1l.35.84c.75-.5 1.61-.86 2.33-1.41.46-.35 1.45-1.24.65-1.78-.51-.34-1.39-.09-1.88.14-.36.16-.67.4-1 .6-.47.28-.95.54-1.44.77l.56.72c.58-.47 1.23-.91 1.75-1.44.33-.33.82-.98.67-1.49s-.72-.44-1.11-.28c-.68.29-1.3.71-1.93 1.08-.45.27-.92.53-1.33.85-.08.06-.19.13-.25.21l-.11.09.42.36s.01-.06 0-.05c.1-.13.13-.49.17-.65.11-.43.21-.96-.06-1.36s-.84-.52-1.26-.27c-.45.28-.67.87-.92 1.31-.41.75-.89 1.42-1.52 2.01-.43.41.22 1.05.65.65Z"/><g><path d="M37.41 7.56c.49.4-.03 1.1.25 3.29.19 1.44.28 2.16.79 2.82.72.94 1.13 1.09 1.18 1.76.07.95-.91 1.78-1.46 2.24-.67.56-1.34.86-1.77 1.01.42.19 1.12.45 2.02.51.88.05 1.59-.12 2.02-.25-.05.38-.21 1.1-.76 1.77-.22.26-.45.46-.64.6.63-.17 5.05-1.48 6.97-5.91 1.18-2.73 1.41-6.64-.71-9.39-1.27-1.65-2.95-2.28-4.86-3.01-2.3-.87-4.32-1.02-8.09-1.26-1.07-.07-2.49-.18-4.38-.16-2.82.03-4.42.31-5.73.41-2.1.16-5.2 0-9.24-1.55a7.795 7.795 0 0 0 4.19 4.84c-.28.17-.71.38-1.26.51a4.2 4.2 0 0 1-1.15.1 12.24 12.24 0 0 1-2.54-.34C9.06 4.78 5.88 4.01 2.7 3.23a20.93 20.93 0 0 0 3.31 4.52c1.66 1.72 3.34 2.87 4.6 3.6-.95.47-2.32 1.01-4.05 1.26-2.67.39-4.85-.12-6.07-.51.37.94 1.55 3.59 4.32 5.01.24.12 1.47.74 3.19.94 1.46.17 1.81-.12 4.02-.3 2.8-.22 5.04.03 6.17.16.99.14 2 .31 3.04.51 3.27.62 6.27 1.41 9 2.29-.04-.34-.09-.88-.15-1.53-.22-2.44-.19-3.21-.18-3.65.03-.88.1-1.39.26-1.92.07-.24.26-.84.88-1.81.6-.95 1.31-2.05 2.59-2.98.13-.1 2.84-2.04 3.79-1.26Z" fill="#a5b38e"/><path d="M37.1 7.87c.35.36.03 2.04.07 2.53.08.92.16 1.95.52 2.81.32.76 1.3 1.35 1.48 2.11.3 1.3-1.97 2.59-2.89 2.94-.31.12-.49.64-.11.81 1.42.61 2.9.73 4.39.3l-.54-.54c-.15.91-.56 1.61-1.29 2.18-.36.28.03.85.43.74 5.92-1.66 10.01-8.38 7.47-14.32-1.46-3.42-5.34-4.97-8.79-5.59-3.97-.71-8.3-.88-12.32-.59-1.71.12-3.4.4-5.12.36-2.51-.07-4.95-.7-7.29-1.58-.31-.12-.64.24-.54.54.72 2.24 2.26 4.07 4.39 5.1v-.76c-1.95 1.08-4.26.31-6.28-.18-2.62-.64-5.24-1.27-7.87-1.91-.38-.09-.69.31-.5.65 1.9 3.44 4.68 6.29 8.07 8.28v-.76C7.31 12.47 3.85 12.7.6 11.7c-.3-.09-.67.23-.54.54 1.63 4.09 5.54 6.84 10.03 6.21 6.76-.95 13.6.66 20.02 2.71.25.08.59-.14.56-.43-.25-2.47-.88-5.63.31-7.96.73-1.43 1.74-2.79 3.06-3.71.69-.48 2.31-1.65 3.15-1.12.48.3.92-.46.45-.76-1.05-.66-2.49.17-3.41.72-1.33.79-2.38 1.86-3.24 3.15-.97 1.46-1.48 2.79-1.53 4.54s.15 3.44.33 5.14l.56-.43c-5.68-1.82-11.82-3.38-17.83-3.01-2.57.16-4.77.72-7.25-.44-2.04-.95-3.53-2.8-4.35-4.86l-.54.54c3.49 1.07 7.17.78 10.46-.8.31-.15.27-.6 0-.76a20.861 20.861 0 0 1-7.75-7.96l-.5.65c3.1.75 6.2 1.51 9.3 2.26 1.85.45 3.8.7 5.53-.25.27-.15.3-.62 0-.76-1.92-.93-3.33-2.54-3.98-4.57l-.54.54c3.1 1.17 6.37 1.84 9.7 1.54s6.79-.42 10.24-.19 7.25.57 10.38 2.51c3.69 2.28 4 7.37 2.2 10.97-1.27 2.54-3.74 4.44-6.46 5.2l.43.74c.83-.65 1.34-1.53 1.52-2.57.05-.32-.19-.64-.54-.54-1.24.36-2.52.31-3.71-.21l-.11.81c1.81-.69 4.67-2.76 3.01-4.86-.47-.6-.95-1.06-1.16-1.81-.24-.89-.34-1.88-.35-2.8-.01-.76.31-1.78-.29-2.39-.4-.4-1.02.22-.62.62Z" fill="#c8dea4"/></g></svg>