<svg xmlns="http://www.w3.org/2000/svg" viewBox="0 0 55.75 105.95"><path d="M.43 105.51a2155.179 2155.179 0 0 1 5.62-37.53c2 .35 3.63.51 4.73.59 1.96.15 2.83.1 5.02.3 1.74.16 2.98.36 3.65.46 2.09.31 5.75.76 12.6 1.32 0 .29 0 .74-.02 1.29-.01.47-.03.82-.04.9-.06 1.41-.47 13.74-.73 19.96-.13 3.06-.34 7.41-.7 12.71H.43Z" fill="#92a377"/><path d="M.86 105.62c1.76-12.53 3.63-25.04 5.61-37.53l-.55.31c4.57.77 9.21.74 13.79 1.4 4.09.59 8.21.94 12.33 1.28l-.44-.44c0 4.84-.31 9.7-.49 14.53-.25 6.79-.54 13.57-.99 20.34l.44-.44H.43c-.57 0-.57.89 0 .89h30.14c.25 0 .43-.2.44-.44.45-6.78.74-13.56.99-20.34.18-4.83.49-9.69.49-14.53 0-.25-.2-.42-.44-.44-4.09-.33-8.19-.67-12.25-1.27-4.53-.66-9.12-.62-13.63-1.38-.22-.04-.5.05-.55.31C3.64 80.35 1.77 92.86 0 105.39c-.08.56.78.8.85.24Z"/><path d="M31.5 31.27c-.66.69-.72-1.74-.72-1.78v-2.17c0-1.3.02-2.6.04-3.9.04-2.31.12-4.63.23-6.94.12-2.52.27-5.05.5-7.57s.94-6.21-1.27-8.05C29.12-.1 27.3-.4 26.11.66c-1.12 1-1.46 2.68-1.65 4.09-.96 6.79-1.5 13.62-2.68 20.38-.2 1.17-.41 2.34-.7 3.48-.06.22-.32.73-.29.94 0 .03-.26.42.13.12.33-.25.09.09.1-.25 0-.14-.12-.35-.17-.49-1.36-4.44-1.19-9.36-1.36-13.95-.09-2.41-.17-4.82-.2-7.23-.01-1 .1-2.04-.05-3.02-.56-3.68-5.27-3.46-6.05 0-.56 2.5-.45 5.27-.55 7.81-.23 5.85-.06 11.84-.82 17.65-.04.32-.17.68-.18 1 0 .08-.09.18-.08.26-.1.16 0 .08.29-.25.05-.28-.36-.83-.47-1.11-.44-1.16-.81-2.34-1.09-3.55-.51-2.21-.73-4.45-1.03-6.69-.2-1.53-.49-3.55-1.49-4.78-.91-1.13-2.47-.92-3.48-.02-1.54 1.36-1.13 3.85-1.07 5.67.21 5.68.48 11.36.86 17.04.27 4.06.54 8.11 1.39 12.1s1.57 8.34 2.1 12.57c.24 1.94.47 3.88.68 5.82.03.26.18.42.44.44l21.66 2.1c.26.03.42-.23.44-.44.75-6.04 5.89-9.14 9.97-12.98 1.3-1.23 2.17-2.67 3.18-4.12 1.27-1.81 2.58-3.59 3.88-5.38 2.46-3.4 5.29-6.76 7.3-10.45.28-.52.67-1.19.56-1.81-.21-1.21-1.91-1.24-2.84-1.2-5.22.19-8 4.46-11.55 7.62-.46.41-1.22 1.17-1.92 1.07s-.64-.96-.67-1.52c-.15-2.72.49-5.54.99-8.19 1-5.35 2.25-10.65 3.54-15.93.58-2.38 1.27-4.75 1.65-7.17.22-1.41.48-3.23-.51-4.44-1.39-1.68-4.13-1.19-5.54.18-1.59 1.55-2.08 3.9-2.57 5.98-1.52 6.46-3.22 12.88-4.9 19.3-.14.55.71.79.85.24 1.46-5.59 2.93-11.17 4.29-16.78.49-2.02.82-4.18 1.65-6.1.43-1 1.04-2.01 2.02-2.56 1.15-.66 3.07-.65 3.73.67.87 1.74-.08 4.44-.49 6.17-.5 2.11-1.04 4.21-1.55 6.32-1.29 5.36-2.55 10.74-3.45 16.18-.35 2.13-.81 4.41-.58 6.58.09.89.35 1.85 1.38 1.96 1.33.14 2.5-1.1 3.35-1.93 1.82-1.76 3.46-3.8 5.58-5.22.99-.66 2.05-1.13 3.21-1.36.61-.12 3-.57 3.43.19.16.29-.28 1.04-.46 1.37-1.88 3.39-4.44 6.48-6.7 9.61-1.48 2.05-2.99 4.1-4.44 6.17-1.19 1.7-2.28 3.28-3.86 4.68-4.17 3.7-8.68 6.95-9.42 12.87l.44-.44-21.66-2.1.44.44c-.47-4.36-.97-8.72-1.7-13.05-.55-3.26-1.43-6.47-1.84-9.75-.64-5.16-.83-10.41-1.1-15.6-.14-2.72-.26-5.43-.36-8.15-.05-1.28-.19-2.6-.09-3.89.09-1.14 1.41-3.77 2.91-2.34.74.7.93 2.14 1.15 3.08s.32 1.91.43 2.87c.23 2.01.54 4.02 1.04 5.99.23.91 1.56 6 2.71 4.51.3-.38.32-1.09.38-1.55.14-1.04.21-2.1.28-3.14.19-3.05.28-6.1.38-9.16s.19-6.29.37-9.44c.07-1.17.08-2.4.31-3.56.25-1.28 1.06-2.33 2.5-2.24 1.65.11 1.92 1.75 1.91 3.07-.02 3.32.09 6.63.21 9.95.16 4.38.06 9.04 1.36 13.28.15.49.45 1.63 1.19 1.28.42-.2.55-.93.66-1.32.72-2.55 1.04-5.25 1.43-7.87.52-3.53.98-7.07 1.39-10.61.19-1.61.37-3.22.54-4.84.15-1.41.3-3.59 1.52-4.54 1.13-.87 2.81-.23 3.52.88.55.85.62 1.95.64 2.93.02 1.3-.13 2.6-.24 3.89-.22 2.49-.37 4.99-.5 7.49-.11 2.24-.18 4.48-.23 6.72-.02 1.21-.04 2.43-.04 3.64s-.17 2.66.04 3.9c.17 1.03 1.24 2.17 2.2 1.15.39-.41-.23-1.04-.63-.63Z"/><path d="M29 36.49c3.34.04 6.53 2.57 7.09 5.5.2 1.06.1 2.36-1.3 5.05-2.26 4.35-5.09 6.94-7.73 9.44-2.1 1.98-5.23 5-9.09 8.92v-.14a375.63 375.63 0 0 0-5.86-11.31c-1.73-3.19-3.61-6.54-4.41-11.38-.49-2.99-.19-4.25.34-5.2 1.43-2.58 5.21-4.14 8.45-3.02 3.38 1.17 5.55 5.04 4.71 9.08.8-4.12 4.2-6.98 7.8-6.94Z" fill="#ff7556"/><path d="M29 36.93c3.07.12 6.71 2.48 6.73 5.87 0 1.41-.69 2.8-1.32 4.01-.88 1.69-1.94 3.29-3.16 4.75-1.81 2.17-3.94 4.05-5.97 6a359.89 359.89 0 0 0-7.61 7.52l.76.31c-.03-.52-.37-.98-.6-1.44-.44-.87-.87-1.74-1.32-2.61-.76-1.49-1.53-2.98-2.31-4.46-1.32-2.51-2.78-4.97-3.95-7.55-.75-1.65-1.35-3.37-1.76-5.13-.39-1.66-.78-3.53-.51-5.24.49-3.12 4.18-4.81 7.06-4.48 4.25.49 6.48 4.91 5.76 8.84-.1.55.73.8.85.24.77-3.56 3.57-6.56 7.37-6.61.57 0 .57-.89 0-.89-4.18.06-7.37 3.31-8.23 7.26l.85.24c.61-3.28-.46-6.8-3.29-8.75s-6.6-1.55-9.15.54-2.37 4.88-1.84 7.8c.71 3.92 2.41 7.41 4.29 10.88.88 1.63 1.75 3.26 2.61 4.91.56 1.08 1.12 2.17 1.67 3.26.27.53.54 1.07.81 1.6.2.4.77 1.17.79 1.61.02.37.48.6.76.31 2.78-2.83 5.61-5.62 8.49-8.35 2.56-2.43 5.13-4.84 7.07-7.82 1.51-2.31 3.44-5.43 2.51-8.31-1.01-3.09-4.2-5.06-7.35-5.18-.57-.02-.57.86 0 .89Z"/></svg>