<svg xmlns="http://www.w3.org/2000/svg" viewBox="0 0 39.74 102.03"><path d="M11.24 53.74c.31-2.56.6-5.13.79-7.7.14-1.91-.67-3.58-1.7-5.16s-2.4-3.11-3.27-4.85c-.36-.72-.59-1.52-.87-2.28-.93-2.49-1.94-4.96-2.94-7.43-.71-1.72-1.55-3.46-2.02-5.27-.07-.26-.27-.84-.1-1.1.46-.68 2.09.22 2.56.48 1.93 1.05 2.99 3.16 4.21 4.9.79 1.12 2.73 4.73 3.81 1.79.78-2.14.75-4.7.9-6.93.18-2.78.25-5.56.29-8.34.04-2.39-.06-4.81.1-7.2.06-.88.1-2.31.95-2.86.76-.49 1.92-.05 2.47.56.5.56.69 1.32.8 2.04.33 2.23.04 4.62.03 6.86-.02 3.08 0 6.15.01 9.23 0 .56-.01 1.13.7 1.22.87.11 1.15-.88 1.33-1.51.81-2.85 1.45-5.77 2.05-8.67.36-1.73.7-3.46.99-5.2.26-1.53.3-3.4 1.23-4.69.56-.78 1.84-1.31 2.67-.51.45.44.5 1.25.51 1.83 0 1-.2 1.99-.34 2.98-.3 2.08-.57 4.16-.82 6.24s-.48 4.16-.65 6.24c-.08.94-.46 2.58-.06 3.49.45 1.03 1.21-.25 1.48-.73 1.28-2.32 2-4.92 2.75-7.45s1.49-4.81 2.07-7.25c.09-.37.15-.75.28-1.1.41-1.14 1.89-1.83 2.7-.52.33.54.23 1.26.14 1.85-.23 1.61-.6 3.2-.94 4.78-.8 3.7-1.74 7.4-2.36 11.14-.08.51-.47 1.77-.1 2.26.71.91 1.97-1.53 2.23-1.95 1.18-1.91 1.82-4.03 2.74-6.05.25-.54.54-1.1.87-1.6.09-.13.47-.74.72-.82 1.43-.46 1.63 1.31 1.48 2.14-.31 1.7-.98 3.39-1.48 5.05-1.71 5.62-3.28 11.43-5.85 16.74-1.19 2.46-2.67 4.72-4.21 6.97-.72 1.05-1.25 2.11-1.59 3.34-.63 2.24-.8 4.6-.88 6.92l.36-.36c-4.83-.07-9.61-.7-14.3-1.86-.45-.11-.65.59-.19.7a63.83 63.83 0 0 0 14.49 1.89c.2 0 .35-.17.36-.36.09-2.55.26-5.21 1.14-7.63.54-1.48 1.55-2.72 2.42-4.02 3.26-4.87 5.15-10.15 6.94-15.69 1.04-3.22 2.02-6.45 2.98-9.69.33-1.12.95-2.56.42-3.72-.32-.69-1.08-1.31-1.87-1.23-1.85.18-2.67 3.49-3.23 4.91-.48 1.21-1.01 2.4-1.66 3.53-.14.24-.28.47-.42.7-.22.34-1.08 1.21-1.12 1.55-.01.08.27.34.28.13 0-.05-.02-.13 0-.17.06-.15.03-.42.05-.59.09-.79.25-1.57.4-2.35.37-1.89.79-3.77 1.2-5.65.45-2.04.91-4.09 1.33-6.14.27-1.32.85-3.05.54-4.4-.4-1.74-2.74-2.4-3.83-.9-.48.66-.6 1.5-.79 2.28-.91 3.66-1.96 7.38-3.24 10.92-.44 1.21-.91 2.44-1.57 3.56-.04.06-.36.49-.36.54.01.08.29.15.31.07.06-.18-.03-.52-.03-.72 0-1.79.22-3.6.4-5.37.24-2.33.53-4.66.84-6.98.25-1.92.8-3.98.7-5.92S25.96-.64 24.04.28c-1.8.86-2 3.43-2.28 5.14-.62 3.81-1.42 7.59-2.33 11.33-.22.92-.46 1.84-.7 2.76-.11.42-.73 2.37-.73.96 0-1.7-.02-3.4-.02-5.1 0-2.83 0-5.65.06-8.48.03-1.75.13-3.99-1.3-5.27-1.27-1.14-3.27-1.02-3.99.62-.83 1.91-.51 4.43-.52 6.45-.01 2.63-.06 5.26-.15 7.9-.11 2.9-.19 5.86-.66 8.73-.06.39-.32 2.26-.81 2.29-.16 0-.57-.6-.68-.74-2.08-2.65-4.09-7.64-8.09-7.85-2.97-.15-.45 4.59 0 5.67 1.53 3.76 2.88 7.62 4.47 11.35 1.45 3.39 5.33 6.02 5.03 10.01-.19 2.57-.48 5.14-.79 7.7-.06.46.67.46.72 0Z"/><path d="M18.67 24.92c-2.29-.56-4.91.61-5.81 2.52-.33.69-.48 1.6 0 3.68.78 3.37 2.27 5.64 3.63 7.81 1.09 1.72 2.7 4.34 4.65 7.69l.03-.1c2.53-2.94 4.6-5.21 5.99-6.71 1.74-1.88 3.62-3.84 5.01-7.01.86-1.96.87-2.88.68-3.62-.53-2.01-2.84-3.74-5.25-3.55-2.52.21-4.68 2.48-4.81 5.38.18-2.95-1.65-5.51-4.12-6.11Z" fill="#f39c95"/><path d="M18.77 24.57c-2.09-.44-4.46.22-5.79 1.98s-.68 4.2-.06 6.15c.79 2.47 2.14 4.63 3.51 6.81 1.51 2.41 2.97 4.84 4.4 7.3.16.28.57.21.66-.09.15-.49.95-1.11 1.3-1.5.57-.65 1.15-1.3 1.72-1.95.85-.96 1.72-1.9 2.58-2.85 1.83-1.98 3.64-3.95 4.88-6.37.95-1.85 1.9-3.99.8-5.96s-3.68-3.21-5.97-2.67c-2.6.62-4.21 3.06-4.39 5.62h.72c.1-2.89-1.51-5.66-4.38-6.46-.45-.12-.64.57-.19.7 2.57.71 3.94 3.2 3.85 5.76-.02.47.69.46.72 0 .24-3.34 3.44-6.13 6.78-4.6 1.27.58 2.48 1.79 2.65 3.23.16 1.37-.61 2.84-1.22 4.01-1.3 2.52-3.21 4.53-5.11 6.6-.91.99-1.82 2-2.71 3-.6.67-1.19 1.35-1.79 2.03-.31.36-.81.75-.95 1.21l.66-.09c-1.23-2.12-2.48-4.22-3.77-6.3-1.05-1.69-2.18-3.35-3.06-5.14-.56-1.15-1.01-2.35-1.32-3.59-.26-1.02-.56-2.2-.31-3.25.54-2.34 3.47-3.33 5.58-2.88.45.1.65-.6.19-.7Z"/><path d="M5.66 57.71c-.06-1.82-.13-3.63-.21-5.42 3.54 1.08 7.81 2.11 12.71 2.74 4.62.6 8.78.71 12.33.6-.86 2.13-1.71 4.43-2.5 6.88-.93 2.85-1.68 5.58-2.29 8.14-.39 1.62-1.28 5.59-2.29 14.71-.46 4.16-.72 9.99-1.06 16.28-3.62.08-6.76-.08-10.38 0s-7.97-.08-11.59 0C2 95.89 3.37 89.44 4.43 82.16c.79-5.37 1.23-10.42 1.45-15.06-.04-3.08-.11-6.21-.21-9.39Z" fill="#ff7556"/><path d="M6.02 57.71c-.06-1.81-.13-3.62-.21-5.42l-.46.35a79.165 79.165 0 0 0 25.13 3.35l-.35-.46c-4.27 10.66-6.51 21.62-7.4 33.04-.34 4.35-.53 8.71-.77 13.06l.36-.36c-7.32.14-14.65-.14-21.97 0l.35.46C2.67 94.7 4.06 87.5 5.03 80.27c.49-3.66.85-7.34 1.07-11.03s.03-7.69-.09-11.52c-.01-.46-.74-.47-.72 0 .12 3.69.33 7.41.12 11.09s-.58 7.59-1.09 11.37c-.96 7.2-2.35 14.36-4.32 21.37-.06.22.11.46.35.46 7.32-.14 14.65.14 21.97 0 .2 0 .35-.16.36-.36.48-8.74.94-17.45 2.39-26.09 1.14-6.8 3.19-13.43 5.75-19.82.09-.22-.13-.46-.35-.46-8.44.24-16.86-.88-24.94-3.33-.22-.07-.47.12-.46.35.08 1.81.15 3.62.21 5.42.02.46.74.47.72 0Z"/></svg>