<svg xmlns="http://www.w3.org/2000/svg" viewBox="0 0 32.35 47.91"><path d="M23.88 21.01c-.04.35-.09.85-.13 1.46-.04.85-.02 1.44 0 2.1.06 2.35-.02 1.95.04 3.13.05 1.02.12 1.9.03 3.12-.01.19-.03.38-.06.59-.14.99-.36 1.82-.47 2.24-.29 1.09-.61 1.9-.94 2.76-.46 1.19-.86 2.07-.98 2.34-.33.71-.63 1.32-.9 1.82l2.16.15c-.03-.55-.01-1.33.17-2.27.17-.88.44-1.67.75-2.53 0 0 .52-1.49.73-2.35.07-.28.12-.56.12-.56s0-.04.01-.08c.2-1.11.22-3.39.22-3.39.01-2.2.03-2.19 0-2.79-.03-1-.07-.94-.08-1.66-.01-1.9.25-2.69.38-3.01.21-.56.48-1 .66-1.29l-1.73.21Z"/><path d="M23.69 21.01c-.33 2.87-.01 5.75-.01 8.63 0 3.79-1.65 7.53-3.37 10.84-.07.13.02.28.16.29l2.16.15c.1 0 .19-.09.19-.19-.08-2.26.8-4.26 1.44-6.37.46-1.52.54-3.05.56-4.63.02-1.25.05-2.5-.03-3.74-.11-1.83-.02-3.51.98-5.08.07-.11-.02-.3-.16-.29l-1.73.21c-.24.03-.24.41 0 .38l1.73-.21-.16-.29c-.97 1.54-1.14 3.17-1.05 4.97.07 1.37.07 2.74.05 4.11-.03 1.96-.28 3.71-.9 5.57-.37 1.12-.79 2.23-.98 3.4-.08.48.01 1.08-.13 1.52-.11.34-.12.24-.52.21-.48-.03-.96-.07-1.44-.1l.16.29c1.65-3.17 3.26-6.76 3.41-10.38.12-3.1-.33-6.18.03-9.28.03-.24-.35-.24-.38 0Z"/><path d="M16.12 40.93c.67-.58 1.84-.62 2.51-.03.27.23.57.41.94.3.4-.11.8-.38 1.15-.61.12-.08 0-.27-.11-.19-.19.12-.39.24-.59.35-.22.11-.47.27-.72.26-.27-.02-.43-.22-.63-.37-.14-.11-.29-.19-.45-.24-.73-.27-1.66-.13-2.25.38-.11.09.05.25.16.16Z"/><path d="M16.09 42.11c.45-.19.94-.23 1.38-.44s.82-.52 1.31-.63c.14-.03.08-.25-.06-.22-.49.12-.88.41-1.32.63s-.97.26-1.43.46c-.13.06-.02.25.11.19Zm1.32 1.19c.37-.32.72-.71 1.2-.84s.98-.11 1.46-.18c.37-.06.83-.18 1.05-.52.1-.16.12-.35.15-.54.04-.25.14-.49.21-.73.04-.14-.17-.2-.22-.06-.07.22-.15.44-.2.66-.04.2-.04.44-.18.6-.31.36-.92.38-1.36.41s-.85.05-1.24.23-.72.53-1.04.81c-.11.1.05.25.16.16Z"/><path d="M20.87 40.4c-.14.47-.42 1-.85 1.27-.22.14-.48.19-.74.19-.13 0-.26-.02-.39-.06-.02 0-.09-.02-.09-.03 0-.01.04-.06.05-.07.04-.06.1-.11.15-.16.11-.09-.05-.25-.16-.16s-.28.25-.26.41.18.21.31.24c.33.08.69.07 1.01-.05.62-.24 1.01-.91 1.2-1.52.04-.14-.17-.2-.22-.06Zm1.04.05c.33.3.69.57 1.09.76s.89.28 1.33.27c.23 0 .46-.06.69-.11.2-.05.4-.1.57-.21.15-.09.27-.22.35-.37.09-.18.09-.43.22-.57.1-.11-.06-.27-.16-.16-.11.12-.14.25-.18.4a.82.82 0 0 1-.25.43c-.16.14-.37.21-.58.26-.22.05-.44.11-.66.11-.42 0-.87-.07-1.25-.26s-.71-.44-1.02-.71c-.11-.1-.27.06-.16.16Z"/><path d="M24.51 41.49c.11-.02.21.04.25.14.05.13.08.27.07.41s-.02.27.03.4.12.25.2.36.28 0 .19-.11-.18-.25-.2-.4c-.01-.07 0-.15 0-.22 0-.09 0-.17-.01-.25-.03-.14-.07-.3-.17-.41-.11-.12-.27-.15-.42-.12-.06 0-.09.09-.08.14.02.06.08.09.14.08Z"/><path d="M25.05 42.08c.07 0 .11.03.15.09.04.06.08.12.14.16.12.09.26.13.41.14.16.01.32-.02.48-.01s.3.07.45.15c.13.07.24-.12.11-.19-.14-.08-.29-.15-.46-.17s-.35.01-.52 0c-.13 0-.29-.03-.38-.14-.05-.07-.08-.14-.16-.19a.428.428 0 0 0-.22-.06c-.14 0-.15.23 0 .23Zm.44-.78c.22.18.48.19.76.19.15 0 .29.01.44.02.1 0 .23.01.32.08.11.09.27-.07.16-.16-.2-.16-.5-.15-.74-.16s-.57.04-.77-.13c-.11-.09-.27.07-.16.16Zm-2.53-.05c.21.12.31.31.44.5.06.09.12.17.19.24.09.09.2.15.28.24.09.1.12.25.16.38s.06.25.06.38c.02.29-.06.56-.22.8-.08.12.11.23.19.11.17-.25.25-.54.25-.85 0-.28-.06-.6-.19-.85-.07-.13-.18-.2-.29-.29-.1-.08-.18-.18-.25-.29-.14-.22-.28-.43-.51-.57-.13-.07-.24.12-.11.19Z"/><path d="M24.08 42.55c.23.28.49.55.77.79.14.12.29.24.43.36.1.09.27.24.16.38-.09.11.07.27.16.16.12-.15.14-.34.02-.5-.12-.17-.31-.29-.47-.43-.33-.28-.63-.58-.91-.92-.09-.11-.25.05-.16.16Zm-3.97 2.6c.17-.97.81-1.67 1.33-2.47.11-.17.23-.36.25-.57.02-.17-.03-.31-.08-.47-.11-.36-.04-.78.02-1.14.02-.14-.19-.2-.22-.06-.06.37-.12.76-.05 1.14.02.11.07.22.09.34.05.31-.15.56-.31.8-.51.76-1.1 1.44-1.26 2.38-.02.14.19.2.22.06Z"/><path d="M19.27 44.69c.15-.06.29-.13.42-.22.1-.08.17-.18.26-.27.04-.04.05-.05.08-.07.04-.03.08-.05.12-.07.12-.06.26-.1.39-.13s.08-.25-.06-.22c-.23.06-.47.14-.66.3-.09.08-.15.17-.24.25-.11.1-.24.17-.38.22-.06.02-.1.08-.08.14.02.05.08.1.14.08Z"/><path d="M20.43 44.04c.15.22.28.47.36.73.07.24.1.48.19.71.18.47 0 .9-.35 1.24-.1.1.06.26.16.16.35-.34.59-.83.45-1.32-.04-.13-.1-.26-.14-.4s-.05-.29-.09-.43c-.08-.29-.22-.56-.39-.8-.08-.12-.28 0-.19.11Zm2.82 2.59c.19-.34-.1-.6-.34-.81-.07-.07-.16-.14-.2-.23-.05-.12 0-.24.02-.35a.862.862 0 0 0-.09-.47c-.18-.35-.54-.58-.83-.84-.16-.14-.36-.32-.41-.54s.02-.48.03-.7c.01-.14-.21-.14-.23 0-.03.38-.11.75.14 1.08s.58.52.85.79c.14.14.28.31.31.52.02.18-.08.35-.03.52.04.14.15.26.26.35.15.13.45.33.33.56-.07.13.13.24.19.11Z"/><path d="M22.6 45.03c.24.11.51.11.78.1.22-.01.5 0 .69-.15.05-.04.07-.1.04-.15-.03-.05-.1-.08-.15-.04-.16.11-.39.1-.58.11-.22.01-.46.03-.66-.07-.06-.02-.12-.02-.15.04-.03.05-.02.13.04.15Zm-.95-2.71s.11.08.13.11c.04.05.08.11.12.16.07.11.13.24.19.36.13.26.28.5.53.67.12.08.23-.11.11-.19-.25-.17-.37-.44-.51-.7-.07-.13-.14-.26-.23-.38-.1-.13-.23-.3-.42-.25-.14.04-.08.26.06.22Zm1.45-.33c.02-.27-.16-.49-.35-.67-.1-.09-.21-.17-.3-.27-.03-.04-.06-.07-.05-.12.01-.07.05-.13.09-.19.08-.12-.12-.24-.19-.11s-.15.26-.11.4.17.23.27.32c.18.16.45.36.42.63 0 .06.06.11.11.11.07 0 .11-.05.11-.11Zm-1.83 5.9c.13-.07.21-.19.24-.33s.05-.3.04-.45a1.04 1.04 0 0 0-.42-.78c-.05-.04-.13 0-.15.04-.03.06 0 .12.04.15.19.14.3.36.31.59 0 .11 0 .23-.02.34s-.05.19-.15.25c-.13.07-.02.26.11.19Zm-1.32-1.13c0-.61.67-1 1.18-1.17.14-.04.08-.26-.06-.22-.61.19-1.34.66-1.35 1.38 0 .15.22.15.23 0Zm2.25-.26c.18-.21.35-.44.5-.68.03-.05.01-.13-.04-.15s-.12-.01-.15.04c-.07.11-.14.22-.22.33s-.15.2-.25.31c-.04.04-.05.12 0 .16.04.04.12.05.16 0Zm-3.02-.3c-.34-.25-.75-.66-.77-1.11-.02-.49.46-.89.75-1.23s.49-.71.8-1c.29-.27.63-.48.86-.8.09-.12-.11-.23-.19-.11-.28.39-.74.62-1.04.99-.16.2-.29.42-.46.62-.18.21-.37.41-.55.62-.27.34-.49.74-.35 1.18s.47.77.83 1.03c.12.09.23-.11.11-.19Z"/><path d="M15.51 43.61c.32.11.59.31.93.35.18.02.34 0 .51-.04.19-.03.38-.04.56-.06.35-.05.69-.21 1.03-.3s.69-.14 1.01-.29c.13-.06.02-.26-.11-.19-.3.14-.64.18-.96.27-.33.09-.66.24-1 .3-.16.02-.33.03-.49.05-.18.03-.35.07-.54.05-.32-.04-.58-.24-.88-.34-.14-.05-.2.17-.06.22Zm1.21 2.19c.14-.07.26-.17.38-.27s.25-.17.38-.25.27-.15.41-.21.3-.11.41-.21c.11-.1-.05-.26-.16-.16s-.27.13-.39.19a3.752 3.752 0 0 0-.77.45c-.13.09-.25.19-.38.27-.13.07-.01.26.11.19Z"/><path d="M17.27 45.82c.05-.06.08-.13.1-.2 0-.01 0-.03.01-.04 0 0 .01-.03 0 0v-.02c0-.01.01-.02.02-.03 0 0 0-.01.01-.02.01-.02 0 0 0 0 .08-.09.18-.2.17-.33 0-.06-.05-.12-.11-.11-.06 0-.12.05-.11.11v.02c0 .02 0 0 0 0v.01s0 .02 0 0v.02c0 .01-.01.02-.02.03 0 0 0 .01-.01.02-.01.02 0 0 0 0 0 .01-.02.02-.02.03-.02.03-.04.05-.06.08-.04.05-.06.1-.08.16 0 .03-.01.05-.02.08v.04c-.01.03.01-.01 0 0-.04.05-.05.12 0 .16.04.04.12.05.16 0Zm-1.96-.56c.15-.25.25-.53.41-.78.14-.22.32-.4.54-.53.12-.07.01-.27-.11-.19-.24.14-.45.34-.6.58-.17.26-.28.55-.43.81-.07.13.12.24.19.11Z"/><path d="m14.62 44.98.04.04v.05l.02-.03c0-.01.02-.02.03-.04.03-.03.07-.05.11-.07.1-.04.2-.08.3-.13.19-.09.36-.2.53-.31.12-.08 0-.27-.11-.19-.21.14-.43.28-.67.38-.12.05-.24.09-.33.19-.04.04-.08.1-.09.15-.02.08.03.15.11.18.14.04.2-.17.06-.22Zm1.39 2.74c.21-.12.36-.31.53-.47.2-.19.44-.31.65-.49s.38-.34.62-.47c.25-.14.52-.24.78-.34.13-.05.08-.27-.06-.22-.26.1-.51.2-.76.32s-.44.27-.64.45-.44.32-.65.49-.35.39-.58.52c-.13.07-.01.27.11.19Z"/><path d="M17.94 46.94c.07-.05.13-.12.18-.19.05-.07.1-.14.14-.21.04-.08.06-.17.05-.27 0-.08-.02-.16 0-.23.02-.06-.03-.12-.08-.14-.06-.02-.12.02-.14.08-.03.08-.03.16-.02.24 0 .07.02.14-.02.2-.07.13-.17.26-.28.35-.05.04-.04.12 0 .16.05.05.11.04.16 0Z"/><path d="M17.64 46.78s.04-.03.06-.05c0 0 .01 0 .02-.01.01 0 .02-.01.03-.02.04-.03.09-.06.14-.08.02-.01.05-.02.07-.04.01 0 .02-.01.04-.02h.02s.01 0 0 0c.05-.02.11-.04.17-.06s.1-.08.08-.14-.08-.1-.14-.08c-.23.07-.45.19-.64.35-.04.04-.04.12 0 .16.05.04.11.04.16 0Zm-1.94.64a2 2 0 0 1 .75-.24c.06 0 .09-.09.08-.14-.02-.07-.08-.09-.14-.08-.28.04-.56.13-.81.27-.05.03-.07.1-.04.15s.1.07.15.04Zm-.1-.86c.23-.06.48-.03.72-.01.25.02.51.05.76.09.06 0 .12-.02.14-.08.02-.05-.02-.13-.08-.14-.27-.04-.54-.07-.82-.09-.26-.02-.52-.04-.78.02-.14.03-.08.25.06.22Z"/><path d="m16.09 46.89.46-.3s.07-.1.04-.15a.113.113 0 0 0-.15-.04l-.46.3s-.07.1-.04.15c.03.05.1.07.15.04Zm2.49-4.68h-.1c-.04 0-.08-.02-.11-.03-.02 0-.03-.01-.05-.02 0 0-.02 0-.03-.01.01 0 0 0 0 0-.03-.01-.06-.03-.09-.05 0 0-.01 0-.02-.01-.02-.02.02.02 0 0-.01 0-.02-.02-.03-.03l-.02-.02c-.01-.02-.02-.03-.03-.05 0-.02-.02-.03-.03-.05 0 0 0-.02-.01-.03-.02-.03 0 .02 0 0v-.02c0-.01 0 .02 0 0v.01c.05-.03.07-.1.04-.15a.113.113 0 0 0-.15-.04c-.06.04-.1.09-.1.16 0 .05.02.1.04.14.04.09.1.17.17.23.16.13.36.18.56.19.06 0 .12-.05.11-.11 0-.06-.05-.11-.11-.11Zm.51-.02c-.07.05-.15.09-.21.16s-.1.15-.12.24l-.03.12c-.01.04-.02.09-.03.12 0-.02-.01.02 0 0 0-.01 0 0-.01 0-.01.01 0 0 0 0s-.02 0-.02.01c-.01 0-.03.02-.05.02 0 0-.02 0-.03.01h-.02c-.05.02-.1.08-.08.14.02.05.08.1.14.08.08-.03.16-.06.23-.13s.08-.17.1-.26l.03-.12v-.04c0-.01.02-.03.02-.04 0 0 .02-.03.03-.04l.02-.02c.03-.03 0 0 .01 0 .04-.03.07-.05.11-.07.05-.03.07-.1.04-.15s-.1-.07-.15-.04Zm1.32-1.03-.21.1s-.07.04-.11.05h-.04c-.05-.02-.11-.05-.17-.08a.397.397 0 0 0-.24-.02c-.06 0-.09.08-.08.14.02.06.08.09.14.08.06 0 .11.02.16.04.07.03.14.07.22.07s.15-.05.22-.08l.22-.1c.06-.03.07-.11.04-.15-.03-.06-.1-.07-.15-.04Zm-3.05-.24c.14-.02.29-.03.42-.1a.75.75 0 0 0 .26-.27c.03-.05.01-.13-.04-.15-.06-.03-.12-.01-.15.04-.01.02-.03.04-.04.06 0 0 0 .01-.01.02l-.02.03c-.02.02-.03.04-.05.05l-.01.01c.02-.02 0 0 0 0-.01 0-.02.02-.04.02-.01 0-.02.01-.03.02-.02 0 0 0 0 0h-.02c-.03 0-.05.02-.08.02s-.06.01-.09.02c-.01 0-.01 0 0 0h-.07c-.06 0-.12.05-.11.11 0 .06.05.12.11.11Zm-.37 1.32c.1-.06.19-.15.24-.25.02-.05.04-.1.05-.15 0-.01 0-.02.01-.03v-.02.01c0-.01.01-.02.02-.03s-.02.02 0 0l.02-.02c.04-.04.04-.12 0-.16s-.11-.04-.16 0-.08.1-.1.16c0 .02-.01.04-.02.06 0 .01 0 .02-.01.03 0 0-.02.04 0 .01l-.03.06v.01s-.02.02 0 0v.01c-.02.02-.04.04-.06.05l-.01.01c-.02.02.01 0 0 0s-.02.02-.04.03c-.05.03-.07.1-.04.15.03.05.1.08.15.04Zm-.23-.6a.884.884 0 0 0-.39-.15c-.03 0-.06 0-.09.01-.02.01-.05.04-.05.07-.01.06.02.13.08.14.07.01.15.03.22.06h-.03c.05.01.1.04.14.07.02.02.06.02.09.01s.05-.03.07-.05c.03-.06.01-.12-.04-.15Zm1.51-1.15c.03-.06.05-.12.04-.19 0-.07-.03-.14-.08-.2-.04-.05-.08-.08-.13-.12-.01 0-.02-.02-.03-.03-.01 0 .02.02 0 0l-.01-.01-.01-.01s0 .01.01.02v.06s0 .01-.02.02c.05-.03.07-.11.04-.15-.04-.05-.1-.07-.15-.04a.149.149 0 0 0-.04.24c.02.03.05.04.08.06.01 0 .02.02.03.03-.01 0 0 0 0 0s.01 0 .02.01l.06.06c.01.01 0 0 0 0l.01.02v.01c0-.01 0-.02 0 0v.02s0 .03 0 0v.02c0 .01 0-.02 0 0v.04c-.03.05-.02.12.04.15.05.03.13.02.15-.04Zm1.77-7.93c.3-.08.65-.03.83.13.13.12.16.28.25.42.19.28.7.43 1.18.35.1-.02.2-.04.27-.1.14-.1.1-.25.03-.36a.77.77 0 0 0-.24-.27c-.15-.1-.35-.15-.55-.2-.36-.09-.74-.18-1.15-.16-.25.01-.51.07-.75.15"/><path d="M20.08 32.7c.2-.05.44-.05.62.05s.21.34.34.49c.25.31.71.4 1.09.38.2-.01.45-.04.6-.2.13-.15.1-.34.01-.5-.23-.42-.72-.5-1.15-.6-.27-.06-.54-.11-.81-.1-.3 0-.6.07-.89.15-.18.05-.1.34.08.28.44-.13.87-.18 1.33-.1.2.04.4.09.6.14.19.05.38.1.51.26.04.05.11.13.11.2.01.09-.08.12-.15.14-.19.05-.4.05-.59.02-.16-.03-.32-.08-.45-.19s-.17-.27-.26-.41c-.22-.35-.7-.39-1.07-.3-.18.05-.1.33.08.28Z"/><path d="M22.66 33.44c.26.02.51.1.7.2"/><path d="M22.66 33.59h.08c-.02 0-.02 0 0 0 .03 0 .06 0 .09.01.06.01.12.03.17.04s.11.03.16.06h.02c-.02 0-.02 0 0 0 .01 0 .02 0 .03.01.03.01.05.03.08.04a.146.146 0 1 0 .15-.25c-.24-.13-.51-.2-.78-.22-.08 0-.15.07-.15.15 0 .09.06.14.15.15Zm1.68-1.26.6-.15s.05-.01.07-.03c.03-.02.01-.06 0-.08-.1-.23.14-.5.47-.64s.71-.19 1.08-.22.75-.05 1.1-.16l-.6.39c-.16.1-.33.21-.46.33-.09.08-.16.16-.25.23-.17.13-.4.23-.64.26s-.5 0-.67-.09"/><path d="M24.37 32.45c.18-.04.36-.09.54-.13.11-.03.23-.06.24-.19 0-.06-.03-.11-.03-.16 0-.06.03-.12.07-.17.1-.13.24-.21.39-.27.67-.27 1.43-.16 2.12-.35l-.1-.23c-.41.26-.84.5-1.19.84s-.87.5-1.31.29c-.15-.07-.28.15-.13.22.43.21.99.14 1.38-.13.22-.15.39-.35.6-.49.25-.17.52-.33.77-.5.12-.08.05-.27-.1-.23-.63.18-1.29.11-1.92.29-.25.07-.51.19-.69.38-.07.08-.13.17-.15.27-.01.05-.01.09-.01.14 0 .03.03.09.02.12l.06-.08c-.09.05-.21.06-.31.08l-.33.08c-.16.04-.09.28.07.24Zm-.05.35c.18.09.42.12.65.1.14-.02.28-.06.42-.08.24-.03.49-.01.72.01.21.02.42.04.62.1.25.07.48.2.77.2-.16.02-.32.06-.46.11-.15.06-.3.13-.46.17-.11.02-.22.03-.33.03-.57-.01-1.08-.22-1.34-.53"/><path d="M24.27 32.89c.22.1.46.14.71.11.16-.02.32-.07.48-.08.14-.02.28-.01.42 0 .29.02.6.04.88.13.25.08.48.18.74.19l-.03-.2c-.25.03-.46.11-.69.21s-.46.11-.71.09c-.4-.04-.84-.18-1.11-.49-.08-.1-.22.04-.14.14.28.33.72.49 1.14.54.24.03.5.04.74-.04.28-.09.52-.21.82-.25.11-.02.08-.19-.03-.2-.26 0-.49-.13-.74-.2s-.51-.09-.76-.11c-.28-.02-.54-.02-.81.04s-.55.08-.82-.04c-.12-.05-.22.12-.1.17Z"/><path d="M30.76 16.2c.18.19.22.18.78.65.2.17.41.34.54.56.13.22.18.52.06.75-.13.24-.42.36-.7.38-.28.02-.55-.03-.83-.03-.41 0-.82.14-1.16.37-.48.34-.82.88-1.37 1.09-.57.22-1.21.02-1.8-.15-.77-.22-1.58-.37-2.38-.27-.36.05-.74.14-1.06-.02-.31-.15-.47-.5-.65-.8-.31-.54-.74-1-1.25-1.36-.37-.26-.59-.4-.7-.72-.06-.18-.01-.23-.05-.65-.05-.63-.16-.66-.12-.92.06-.42.42-.8.81-.94.4-.14.49.1.98.04.13-.02.35-.06 1.5-.89.59-.43.63-.49.82-.53.48-.1.68.19 1.29.24.45.04.88-.17 1.33-.23.73-.09 1.44.23 2.06.62.32.2.65.43.9.86.22.37.15.53.45 1.13.16.33.28.57.52.82Z" fill="#bd0e0d"/><path d="M30.68 16.28c.15.16.33.28.5.42.23.19.52.37.69.63.27.41.02 1-.47 1.09-.19.04-.39 0-.59-.01-.44-.01-.86.06-1.24.27-.48.27-.78.75-1.23 1.03-.64.41-1.35.19-2.02 0-.57-.16-1.16-.29-1.75-.31s-1.42.31-1.9-.17c-.38-.37-.56-.94-.93-1.34-.33-.36-.76-.57-1.1-.9-.38-.37-.28-.77-.34-1.24-.07-.51-.19-.89.27-1.3s.87-.09 1.37-.19c.45-.09.87-.46 1.24-.71.29-.2.61-.53.94-.67.4-.17.79.11 1.18.17.61.1 1.14-.2 1.74-.22.72-.01 1.44.34 2.02.75.92.65.94 1.85 1.65 2.67.09.11.25-.05.15-.15-.44-.5-.59-1.09-.84-1.69-.19-.45-.53-.79-.93-1.06-.49-.33-1.05-.62-1.64-.71-.73-.11-1.4.3-2.12.18-.4-.07-.79-.32-1.21-.19-.36.11-.68.44-.98.66-.34.24-.71.56-1.11.7-.35.13-.66-.07-1.01-.02-.39.05-.76.38-.93.73s-.09.58-.03.93c.08.43-.03.91.23 1.29.32.46.92.7 1.3 1.11s.6 1.1 1.06 1.46 1.07.14 1.61.12c.84-.04 1.62.2 2.42.4.55.14 1.12.22 1.64-.05.72-.37 1.09-1.14 1.93-1.33.58-.13 1.41.21 1.89-.3.83-.88-.8-1.73-1.29-2.24-.1-.1-.25.05-.15.15Z"/><path d="M30.13 18.41c.08-.24-.28-.62-.59-.82-.41-.28-.61-.16-.98-.46-.18-.15-.32-.35-.45-.55-.24-.35-.48-.7-.8-.99s-.7-.5-1.12-.55c-.31-.03-.61.02-.92.08-.37.07-.75.14-1.11.27-.26.1-.52.22-.8.23-.46.01-.53-.13-.86-.08-.47.06-.9.48-1.05.95-.16.48 0 .9.1 1.2.09.24.28.5.67 1.03.58.78.69.84.79.88.34.12.47-.09 1.12-.15.52-.05.93.03 1.37.13.85.18.83.37 1.41.43.31.03.99.11 1.57-.27.55-.36.54-.83 1.2-1.1.21-.09.37-.11.42-.24Z" fill="#e9afaf"/><path d="M30.23 18.44c.1-.63-.74-1.03-1.22-1.19-.56-.19-.79-.74-1.13-1.18-.27-.35-.58-.68-.97-.89-.83-.46-1.93-.17-2.77.13-.25.09-.49.21-.77.23-.2.01-.37-.05-.56-.07-.33-.05-.64.05-.9.25-1.41 1.07-.1 2.82.75 3.76.27.3.53.33.92.23.93-.25 1.86-.08 2.74.28.6.25 1.37.28 1.97.01.43-.19.63-.51.93-.85.21-.24.45-.32.73-.46.12-.06.19-.09.26-.21s-.12-.23-.19-.11c-.11.19-.55.26-.73.4-.25.19-.39.47-.6.69-.51.52-1.38.6-2.05.4-.55-.16-1.04-.38-1.62-.47-.34-.05-.69-.06-1.03-.01-.26.04-.6.21-.86.16-.41-.08-.73-.75-.95-1.04-.41-.56-.87-1.23-.62-1.96.14-.43.57-.87 1.05-.87.28 0 .54.11.83.09.35-.03.66-.21.99-.31.46-.14.98-.27 1.46-.28 1.16-.04 1.7.94 2.31 1.75.21.27.44.45.75.56s1.14.45 1.07.93c-.02.14.19.2.21.06Z"/><path d="M27.25 19.91c.47-.12.91-.66.85-1.2-.04-.42-.36-.68-.56-.85-.25-.21-.5-.33-.84-.43-.24-.07-.48-.12-.71-.21-.63-.25-.61-.49-1.13-.67-.12-.04-.72-.24-1.2.05-.16.1-.26.22-.37.36-.17.22-.34.43-.37.73-.03.26.08.39-.03.62-.06.12-.1.11-.14.22-.1.28.08.56.11.62.02.04.19.31.52.4.18.05.3.02.51-.01.43-.06.76-.04 1.19 0 .42.03.63.04.9.14.26.09.37.17.65.22.17.03.38.07.6.01Z" fill="#bd0e0d"/><path d="M27.28 20.02c.46-.13.83-.54.92-1.01s-.17-.89-.53-1.19c-.44-.37-.93-.47-1.47-.64-.27-.09-.51-.22-.73-.39-.16-.12-.31-.23-.5-.31-.37-.14-.82-.2-1.2-.04-.44.19-.9.78-.94 1.26-.01.13.02.26.02.39 0 .16-.11.26-.17.4-.08.2-.04.43.05.62.15.31.46.56.81.58.33.02.67-.08 1.01-.07s.71.02 1.06.08c.58.09 1.06.44 1.67.33.14-.03.08-.24-.06-.21-.51.1-.91-.18-1.38-.29-.39-.09-.82-.1-1.22-.12-.24 0-.48 0-.73.03-.28.04-.53.07-.77-.13-.09-.07-.16-.16-.21-.26s-.1-.22-.09-.34c0-.14.09-.22.15-.33.08-.17.05-.32.04-.5-.02-.33.14-.57.34-.82.17-.22.35-.39.63-.46.22-.05.45-.03.67.03.32.08.53.26.79.44.38.27.82.36 1.25.49s.94.42 1.17.84c.31.55-.1 1.24-.67 1.41-.13.04-.08.25.06.21Z"/><path d="M25.52 19.59c.33.02.74.04.9-.19a.56.56 0 0 0 .08-.25c.03-.17.07-.34.02-.51-.07-.26-.32-.44-.57-.55a3.54 3.54 0 0 0-.91-.27c-.29-.04-.6-.04-.87.08-.07.03-.46.25-.51.67-.04.37.21.7.47.84.16.08.21.02.8.09.37.04.36.06.58.08Z" fill="#e9afaf"/><path d="M25.52 19.69c.28.01.61.05.86-.11.23-.15.27-.49.28-.74.02-.72-.9-1.01-1.47-1.11-.53-.09-1.12-.05-1.46.42s-.12 1.17.41 1.38c.16.06.35.04.52.06.29.02.57.09.86.1.14 0 .14-.21 0-.22-.16 0-.32-.04-.48-.06-.22-.03-.43-.04-.65-.05-.39-.02-.68-.45-.6-.83.09-.44.54-.62.94-.62.31 0 .62.06.91.17.25.09.55.21.71.44.11.15.1.33.07.5-.02.11-.03.27-.12.35-.18.18-.55.12-.78.11-.14 0-.14.21 0 .22Z"/><path d="M25.39 18.86a.603.603 0 0 0-.29-.28c-.05-.02-.23-.09-.32 0s-.05.24.02.34c.02.03.13.25.33.25.14 0 .29-.12.29-.22 0-.02 0-.04-.03-.09Z" fill="#961710"/><path d="M25.46 18.82c-.04-.06-.07-.12-.12-.17a.513.513 0 0 0-.23-.15c-.15-.05-.36-.08-.44.09-.07.15 0 .31.09.43s.22.24.38.23c.11 0 .22-.06.29-.15.04-.04.06-.09.07-.15 0-.05-.02-.1-.04-.14-.05-.09-.19 0-.14.08 0 0 .01.02.02.03.01.02 0-.01 0 0 0 0 0 .02 0 0v.02c0-.02 0 0 0 0 0 .02 0 0 0 0 0 .01-.02.03-.02.03-.04.05-.11.08-.17.09-.06 0-.1 0-.15-.05.01 0 0 0 0 0l-.01-.01c-.01 0-.02-.02-.03-.03l-.03-.03c.01.02 0 0 0 0v-.01l-.06-.09a.247.247 0 0 1-.04-.09v-.09c0-.02 0-.02.01-.04 0 0 0-.01 0 0 0 0 .02-.02 0 0 0 0 .01 0 .02-.01-.02 0 0 0 0 0s.03 0 0 0h.11a.507.507 0 0 1 .34.27c.05.09.19 0 .14-.08Z"/><path d="M20.16 15.69c-.09-.02-.32.51-.46 1.01-.11.4-.16.6-.13.83.06.44.41.78.78 1.03.36.25.77.46 1.05.81.35.44.26.6.56.99.62.81 1.73.91 1.82.92.88.07.98-.4 1.92-.37.8.03.85.37 1.71.41.29.01 1.08.05 1.77-.42.6-.41 1.02-1.12 1.16-1.36.19-.33.28-.62.62-.83.34-.21.71-.2.7-.22 0-.03-.34 0-1.03.04-.78.05-.87.06-1.02.14-.28.15-.5.42-.64.61-.18.23-.17.27-.31.41-.26.25-.57.32-.73.36-.35.08-.63.04-.83 0-.32-.05-.42-.12-.81-.25-.39-.13-.93-.3-1.6-.3-.42 0-.77.05-.77.05-.35.05-.52.12-.77.05-.12-.03-.25-.09-.45-.25-.61-.5-.52-.93-1.08-1.46-.19-.18-.18-.11-.64-.48-.41-.34-.62-.51-.72-.73-.22-.48 0-.95-.08-.98Z" fill="#bd0e0d"/><path d="M20.11 15.6c-.18.08-.26.36-.32.53-.15.36-.3.79-.33 1.18-.05.76.6 1.19 1.16 1.56s.78.71 1.07 1.26c.17.31.4.57.69.77.41.28.92.46 1.41.49.85.06 1.49-.54 2.38-.3.35.1.65.27 1.02.32.32.04.65.04.96 0 .8-.12 1.41-.55 1.88-1.19.22-.3.38-.62.58-.93.33-.51.64-.49 1.11-.7.08-.03.07-.15 0-.19-.31-.17-1.07.02-1.39.04-.37.03-.66.03-.96.26-.24.18-.42.43-.61.67-.31.4-.72.6-1.23.62-.67.02-1.28-.34-1.92-.49-.57-.13-1.15-.13-1.73-.05-.54.07-.86.11-1.26-.3-.26-.26-.38-.59-.57-.89-.26-.41-.63-.62-1-.92-.3-.24-.67-.5-.77-.89-.06-.25.09-.57-.02-.8-.06-.13-.25-.01-.19.11.04.07-.03.35-.03.43 0 .18.03.35.1.52s.19.29.33.42c.45.43 1.05.71 1.39 1.24.32.49.54 1.08 1.14 1.31.48.19 1.09-.05 1.59-.06 1.27-.02 2.66 1.06 3.89.35.54-.31.71-1.06 1.34-1.24.32-.09.72-.07 1.04-.09.14 0 .64-.11.76-.04v-.19c-.31.14-.57.09-.85.33-.19.16-.3.38-.42.6-.4.72-.9 1.45-1.71 1.74-.72.26-1.45.17-2.15-.09-.51-.19-1.05-.23-1.57-.06s-.93.32-1.48.2c-.79-.18-1.32-.62-1.66-1.34s-1.02-.97-1.61-1.49c-.38-.34-.54-.71-.44-1.2.06-.28.23-1.18.5-1.29.13-.05.02-.24-.11-.19Z"/><path d="M20.67 18.78c0 .23 0 1.57 1.04 2.57.07.07.96.9 2.03.92.11 0 .45 0 .84-.01.7-.03.78-.07 1.07-.03.46.07.5.19.89.23.3.03.55-.04.86-.17.9-.39 2.03-1.54 2.2-1.7-.24.16-.75.6-1.26.69-.52.09-.95.02-1.25-.04-.88-.16-1.09-.47-1.66-.35-.18.04-.21.08-.6.19-.32.09-.58.15-.86.17-.16 0-.85.05-1.45-.37-.28-.2-.45-.43-.61-.64-.28-.39-.29-.56-.53-.86a2.45 2.45 0 0 0-.72-.59Z" fill="#bd0e0d"/><path d="M20.56 18.78c-.03 1.92 1.49 3.62 3.44 3.61.52 0 1.07-.11 1.59-.05.32.03.61.2.93.24.27.03.52-.02.77-.11.94-.35 1.69-1.11 2.4-1.79.09-.08-.03-.24-.13-.17-.37.26-.72.56-1.17.66-.54.13-1.16.03-1.69-.12-.3-.09-.6-.25-.92-.27-.29-.02-.54.09-.81.17-.94.28-1.98.36-2.7-.45-.29-.33-.45-.72-.7-1.07-.22-.31-.51-.54-.83-.73-.12-.07-.23.12-.11.19.45.27.73.59.98 1.04.2.35.45.72.77.97.69.55 1.55.55 2.35.34.37-.09.76-.3 1.15-.23.44.08.86.29 1.31.37s.9.11 1.33-.01.79-.42 1.16-.67l-.13-.17c-.64.6-1.28 1.25-2.08 1.63-.38.18-.75.27-1.16.15-.22-.06-.41-.15-.63-.18-.41-.05-.83.02-1.24.04-.62.02-1.19 0-1.76-.28-.32-.16-.62-.36-.88-.6-.67-.63-1.02-1.58-1.01-2.5 0-.14-.22-.14-.22 0Z"/><path fill="none" stroke="#000" stroke-miterlimit="10" stroke-width=".07" d="m30.07 18.29-1.95.53m1.69-.91-1.67.64m1.33-.9-1.36.7m.96-.91-1.15.68m.82-.84-.99.7m.6-.91-.78.78m.58-1.12-.71.93m.52-1.16-.79 1.04m.59-1.38-.97 1.28m.78-1.51-1.06 1.39m.81-1.67-1.18 1.57m.9-1.79-1.24 1.62m.84-1.82-1.11 1.71m.68-1.86-.92 1.68m.31-1.6-.6 1.38m-.02-1.3-.19 1.22m-.16-1.12-.11 1.11m-.38-.94.02.94m-.53-.87.18.97m-.65-.95.4 1.03m-.86-1.02.73 1.2m-1.14-1.15.95 1.27m-1.38-.95 1.29 1.07m-1.55-.72 1.38.95m-1.54-.62 1.46.84m-1.41-.43 1.4.69m-1.33-.18 1.31.44m-.98.09.96.18m-.7.2.53.03m-.27.35.25-.09m0 .36.14-.07m6.38-.09-1.08.1m.67.32-.7-.16m.42.41-.51-.3m.18.5-.25-.28m-.1.38-.13-.19m-2.76-1.91.14.65m.23-.65-.11.74m.54-.59-.48.64m.92-.49-.81.58m1.01-.25-.93.39m1.03-.04-1.02.14m.93.34-.97-.28m.63.49-.68-.43m-.79-1.24.34.62m-.69-.52.61.64m-.9-.5.81.62m-.98-.29 1.01.49m-.94.02 1.05.07m-.79.31.75-.25m-.11.37.22-.29m.15.3.01-.27m.47.36-.31-.32"/><path d="M22.83 0 13.2 32.25H7.96c-1.44-4.55-2.84-9.3-4.19-14.24C2.36 12.83 1.11 7.8 0 2.93h4.19c.65 4.27 1.4 7.94 2.09 10.89.24 1.01 1.02 4.31 2.3 8.59.7 2.32 1.35 4.31 1.88 5.86 1.38-3.89 2.33-7.08 2.93-9.21 1.13-4.03 1.52-6.14 2.93-11.52.86-3.28 1.62-5.91 2.09-7.54h4.4Z"/></svg>